<svg width="24" height="24" viewBox="0 0 24 24" fill="none" xmlns="http://www.w3.org/2000/svg">
<path d="M4 2L4 22L20 22L20 7.07692L19.76 6.84615L14.96 2.23077L14.72 2L4 2ZM5.6 3.53846L13.6 3.53846L13.6 8.15385L18.4 8.15385L18.4 20.4615L5.6 20.4615L5.6 3.53846ZM15.2 4.61538L17.28 6.61538H15.2V4.61538ZM7.2 6.61538V8.15385H12V6.61538H7.2ZM7.2 9.69231V11.2308L16.8 11.2308V9.69231L7.2 9.69231ZM10 12C9.28 12 8.72 12.4615 8.4 13C8.08 13.5385 8 14.2308 8 15C8 15.4615 8.16 15.9231 8.24 16.3846C7.92 16.4615 7.6 16.6923 7.2 16.6923L7.2 18.2308C7.76 18.2308 8.32 18.1538 8.8 18C8.88 18.1538 8.88 18.2308 9.04 18.3846C9.36 18.6923 9.84 18.9231 10.4 18.9231C11.68 18.9231 12.48 18.0769 13.04 17.4615C13.12 17.3077 13.2 17.2308 13.28 17.1538C13.28 17.2308 13.28 17.3077 13.36 17.3846C13.44 17.5385 13.52 17.6923 13.68 17.8462C13.84 18 14.16 18.1538 14.4 18.1538C14.88 18.1538 15.2 17.8462 15.36 17.6923C15.52 17.5385 15.68 17.3077 15.84 17.1538C16.16 16.8462 16.4 16.6154 16.72 16.6154V15.0769C15.76 15.0769 15.04 15.6154 14.64 16.0769C14.64 16 14.64 15.9231 14.56 15.8462C14.48 15.6923 14.4 15.5385 14.24 15.3077C14.08 15.0769 13.84 15.0769 13.6 15.0769C12.96 15.0769 12.72 15.4615 12.48 15.6923C12.24 15.9231 12 16.2308 11.84 16.5385C11.36 17.0769 11.04 17.3846 10.4 17.3846C10.32 17.3846 10.32 17.3077 10.24 17.3077C10.32 17.3077 10.32 17.2308 10.4 17.2308C11.28 16.5385 12 15.6154 12 14.3846C12 13.7692 11.84 13.2308 11.52 12.7692C11.2 12.3077 10.64 12 10 12ZM9.92 13.5385C10.16 13.5385 10.16 13.5385 10.24 13.6923C10.32 13.8462 10.4 14.0769 10.4 14.4615C10.4 14.9231 10.16 15.3846 9.76 15.7692C9.76 15.5385 9.6 15.2308 9.6 15.0769C9.6 14.4615 9.68 14 9.84 13.7692C9.92 13.6154 9.92 13.5385 9.92 13.5385Z" fill="white"/>
</svg>