<svg width="415" height="335" viewBox="0 0 415 335" fill="none" xmlns="http://www.w3.org/2000/svg">
<path d="M177.547 211.43L176.783 216.108L175.968 221.135L168.49 266.975H156.268L163.737 221.135L164.56 216.108L165.324 211.43H177.547Z" fill="#EBEBEB"/>
<path d="M175.776 211.43C175.128 216.075 174.439 220.711 173.741 225.339L171.58 239.24L169.32 253.116L168.157 260.046L166.944 266.975L167.941 260.012L168.98 253.058L171.165 239.165L173.425 225.289C174.164 220.661 174.945 216.041 175.776 211.43Z" fill="#C7C7C7"/>
<path d="M176.782 216.108L175.967 221.135H163.737L164.559 216.108H176.782Z" fill="#C7C7C7"/>
<path d="M237.902 211.43L238.667 216.108L239.481 221.135L246.959 266.975H259.181L251.712 221.135L250.889 216.108L250.125 211.43H237.902Z" fill="#EBEBEB"/>
<path d="M239.714 211.43C240.354 216.075 241.052 220.711 241.75 225.339L243.902 239.24L246.162 253.116L247.334 260.046L248.547 266.975L247.55 260.012L246.511 253.058L244.351 239.165L242.091 225.289C241.318 220.661 240.537 216.041 239.714 211.43Z" fill="#C7C7C7"/>
<path d="M238.667 216.108H250.89L251.712 221.135H239.482L238.667 216.108Z" fill="#C7C7C7"/>
<path d="M177.097 198.535H167.409L168.614 189.494H175.893L177.097 198.535Z" fill="#C7C7C7"/>
<path d="M181.155 184.623C182.022 179.711 178.742 175.026 173.83 174.159C168.918 173.292 164.233 176.571 163.366 181.483C162.499 186.395 165.778 191.08 170.69 191.947C175.602 192.814 180.288 189.535 181.155 184.623Z" fill="#DBDBDB"/>
<path d="M178.941 184.625C179.816 180.932 177.532 177.229 173.839 176.354C170.146 175.479 166.443 177.763 165.568 181.456C164.693 185.149 166.977 188.852 170.67 189.727C174.363 190.602 178.066 188.318 178.941 184.625Z" fill="white"/>
<path d="M177.995 182.64C177.931 181.821 177.699 181.024 177.313 180.299C176.927 179.574 176.395 178.937 175.751 178.427C175.103 177.924 174.359 177.557 173.565 177.35C172.771 177.143 171.943 177.099 171.132 177.222C170.326 177.349 169.556 177.644 168.872 178.088C168.188 178.531 167.604 179.114 167.16 179.798C166.691 180.529 166.384 181.352 166.259 182.212C166.134 183.072 166.195 183.949 166.437 184.783C166.85 186.225 167.814 187.446 169.121 188.182C170.396 188.905 171.892 189.136 173.325 188.83C174.712 188.533 175.955 187.771 176.848 186.669C177.73 185.581 178.24 184.238 178.302 182.839C178.302 182.781 178.302 182.723 178.244 182.723C178.186 182.723 178.186 182.772 178.186 182.839C178.154 183.405 178.045 183.964 177.862 184.501C177.671 185.028 177.417 185.53 177.106 185.996C176.778 186.449 176.399 186.861 175.976 187.226C175.541 187.589 175.064 187.899 174.555 188.148C173.824 188.493 173.028 188.681 172.22 188.701C171.412 188.721 170.608 188.573 169.86 188.265C169.111 187.947 168.438 187.47 167.891 186.868C167.343 186.266 166.932 185.551 166.686 184.775C166.434 183.977 166.357 183.134 166.46 182.304C166.564 181.474 166.845 180.676 167.285 179.964C167.71 179.289 168.274 178.712 168.941 178.274C169.607 177.835 170.36 177.545 171.148 177.421C172.213 177.252 173.304 177.374 174.306 177.773C175.308 178.172 176.183 178.834 176.84 179.69C177.156 180.131 177.413 180.611 177.604 181.119C177.789 181.634 177.912 182.17 177.97 182.714C177.97 182.714 177.995 182.664 177.995 182.64Z" fill="#EBEBEB"/>
<path d="M177.19 182.648C177.13 181.947 176.927 181.265 176.592 180.646C176.258 180.027 175.799 179.484 175.245 179.05C174.689 178.623 174.054 178.31 173.377 178.131C172.699 177.951 171.993 177.907 171.298 178.003C170.604 178.106 169.94 178.355 169.348 178.733C168.757 179.111 168.252 179.61 167.867 180.197C167.457 180.823 167.186 181.529 167.071 182.268C166.956 183.008 167.001 183.763 167.202 184.484C167.374 185.108 167.668 185.692 168.067 186.201C168.467 186.71 168.963 187.135 169.529 187.45C170.638 188.085 171.946 188.281 173.193 187.999C174.396 187.739 175.473 187.073 176.242 186.113C177.004 185.167 177.444 184.002 177.497 182.789C177.497 182.739 177.497 182.689 177.447 182.689C177.397 182.689 177.381 182.731 177.381 182.789C177.313 183.763 176.986 184.701 176.434 185.506C175.881 186.311 175.124 186.953 174.24 187.367C173.611 187.673 172.924 187.842 172.225 187.862C171.526 187.882 170.83 187.753 170.185 187.484C169.536 187.209 168.954 186.796 168.481 186.274C168.007 185.751 167.653 185.132 167.443 184.459C167.228 183.768 167.165 183.039 167.26 182.321C167.354 181.604 167.604 180.916 167.992 180.305C168.357 179.728 168.844 179.238 169.418 178.868C169.992 178.498 170.639 178.256 171.315 178.161C172.22 178.026 173.144 178.134 173.993 178.473C174.842 178.811 175.587 179.369 176.151 180.089C176.422 180.464 176.646 180.871 176.816 181.302C176.971 181.743 177.08 182.2 177.14 182.664L177.19 182.648Z" fill="#EBEBEB"/>
<path d="M176.384 182.656C176.324 182.072 176.146 181.506 175.86 180.993C175.574 180.481 175.187 180.031 174.722 179.673C173.788 178.963 172.613 178.647 171.448 178.792C170.865 178.869 170.305 179.069 169.806 179.378C169.306 179.688 168.877 180.1 168.548 180.587C168.193 181.113 167.954 181.71 167.85 182.337C167.745 182.963 167.777 183.605 167.942 184.218C168.081 184.753 168.328 185.254 168.666 185.691C169.005 186.128 169.428 186.492 169.911 186.761C170.863 187.293 171.98 187.453 173.043 187.209C174.069 186.971 174.979 186.384 175.619 185.548C176.252 184.745 176.624 183.768 176.683 182.747C176.683 182.698 176.683 182.656 176.625 182.656C176.615 182.657 176.605 182.66 176.597 182.665C176.588 182.67 176.58 182.676 176.574 182.684C176.568 182.691 176.563 182.7 176.56 182.71C176.558 182.719 176.557 182.729 176.558 182.739C176.494 183.557 176.216 184.343 175.752 185.02C175.288 185.696 174.655 186.239 173.916 186.594C173.386 186.856 172.807 187.002 172.217 187.022C171.626 187.042 171.039 186.936 170.493 186.711C169.941 186.483 169.446 186.135 169.045 185.692C168.645 185.249 168.347 184.723 168.174 184.152C168.002 183.57 167.958 182.957 168.044 182.357C168.13 181.756 168.344 181.181 168.673 180.67C168.987 180.195 169.399 179.793 169.882 179.492C170.366 179.191 170.908 178.997 171.473 178.925C172.22 178.837 172.977 178.925 173.683 179.183C174.395 179.453 175.018 179.912 175.486 180.512C175.718 180.818 175.908 181.154 176.051 181.509C176.191 181.874 176.288 182.253 176.342 182.639C176.342 182.639 176.392 182.664 176.384 182.656Z" fill="#EBEBEB"/>
<path d="M175.586 182.664C175.464 181.728 174.977 180.877 174.232 180.296C173.486 179.738 172.557 179.483 171.631 179.582C171.16 179.637 170.706 179.79 170.298 180.032C169.89 180.274 169.537 180.599 169.263 180.986C168.965 181.413 168.763 181.898 168.668 182.41C168.573 182.921 168.589 183.447 168.715 183.952C168.825 184.397 169.026 184.814 169.304 185.177C169.583 185.54 169.934 185.842 170.335 186.063C171.125 186.5 172.049 186.627 172.927 186.42C173.763 186.218 174.504 185.737 175.03 185.057C175.53 184.393 175.819 183.594 175.86 182.764C175.862 182.755 175.861 182.746 175.859 182.738C175.856 182.729 175.852 182.721 175.847 182.715C175.842 182.708 175.835 182.702 175.827 182.697C175.82 182.693 175.811 182.69 175.802 182.689C175.802 182.689 175.744 182.689 175.736 182.756C175.686 183.414 175.469 184.049 175.106 184.6C174.742 185.151 174.244 185.6 173.659 185.905C173.231 186.128 172.759 186.256 172.277 186.279C171.795 186.302 171.314 186.22 170.867 186.038C170.414 185.851 170.008 185.564 169.682 185.199C169.355 184.833 169.115 184.399 168.981 183.927C168.848 183.455 168.819 182.959 168.896 182.474C168.974 181.989 169.156 181.527 169.429 181.119C169.686 180.744 170.021 180.428 170.411 180.195C170.801 179.961 171.237 179.814 171.689 179.765C172.28 179.711 172.876 179.788 173.434 179.989C173.995 180.196 174.491 180.549 174.872 181.011C175.054 181.255 175.208 181.52 175.329 181.8C175.447 182.092 175.533 182.396 175.586 182.706V182.664Z" fill="#EBEBEB"/>
<path d="M247.832 198.535H238.135L239.34 189.494H246.627L247.832 198.535Z" fill="#C7C7C7"/>
<path d="M252.063 183.834C252.812 178.896 249.415 174.286 244.477 173.538C239.538 172.789 234.928 176.186 234.18 181.124C233.432 186.063 236.829 190.672 241.767 191.421C246.705 192.169 251.315 188.772 252.063 183.834Z" fill="#DBDBDB"/>
<path d="M249.77 184.072C250.342 180.321 247.765 176.816 244.013 176.244C240.261 175.671 236.756 178.249 236.184 182.001C235.612 185.752 238.19 189.257 241.941 189.83C245.693 190.402 249.198 187.824 249.77 184.072Z" fill="white"/>
<path d="M248.73 182.639C248.664 181.821 248.432 181.025 248.046 180.3C247.66 179.575 247.129 178.938 246.486 178.427C245.838 177.924 245.094 177.558 244.3 177.351C243.506 177.144 242.678 177.1 241.867 177.222C241.061 177.349 240.291 177.644 239.607 178.087C238.923 178.531 238.339 179.114 237.895 179.798C237.422 180.527 237.113 181.351 236.988 182.211C236.863 183.072 236.926 183.949 237.172 184.783C237.581 186.226 238.547 187.449 239.856 188.181C241.13 188.906 242.627 189.137 244.06 188.829C245.447 188.533 246.69 187.771 247.583 186.669C248.465 185.581 248.975 184.238 249.037 182.839C249.037 182.781 249.037 182.722 248.979 182.722C248.921 182.722 248.921 182.772 248.913 182.839C248.88 183.404 248.774 183.963 248.597 184.501C248.406 185.029 248.149 185.532 247.832 185.996C247.183 186.922 246.304 187.664 245.282 188.148C244.552 188.495 243.758 188.685 242.951 188.705C242.143 188.725 241.341 188.575 240.595 188.264C239.844 187.947 239.171 187.471 238.621 186.869C238.072 186.266 237.66 185.552 237.413 184.775C237.162 183.976 237.086 183.133 237.191 182.303C237.296 181.473 237.578 180.675 238.019 179.964C238.444 179.289 239.009 178.712 239.676 178.274C240.342 177.835 241.095 177.544 241.883 177.421C242.948 177.252 244.039 177.374 245.041 177.773C246.043 178.172 246.918 178.834 247.575 179.69C247.888 180.133 248.144 180.613 248.339 181.119C248.522 181.634 248.642 182.17 248.696 182.714C248.696 182.714 248.73 182.664 248.73 182.639Z" fill="#EBEBEB"/>
<path d="M247.924 182.648C247.861 181.948 247.656 181.268 247.322 180.649C246.988 180.031 246.531 179.486 245.98 179.05C245.424 178.623 244.789 178.31 244.112 178.131C243.434 177.951 242.728 177.907 242.033 178.003C241.338 178.105 240.671 178.354 240.079 178.732C239.486 179.11 238.98 179.609 238.593 180.197C238.183 180.823 237.912 181.529 237.797 182.268C237.683 183.008 237.728 183.763 237.929 184.484C238.1 185.108 238.394 185.692 238.794 186.201C239.193 186.71 239.69 187.135 240.255 187.45C241.365 188.083 242.672 188.279 243.919 187.999C245.126 187.741 246.206 187.075 246.977 186.113C247.736 185.165 248.175 184.001 248.232 182.789C248.232 182.739 248.232 182.689 248.174 182.689C248.115 182.689 248.115 182.731 248.107 182.789C248.041 183.762 247.715 184.7 247.165 185.505C246.614 186.31 245.858 186.953 244.975 187.367C244.346 187.673 243.659 187.842 242.96 187.862C242.261 187.882 241.565 187.753 240.92 187.484C240.269 187.21 239.685 186.798 239.21 186.276C238.735 185.753 238.38 185.133 238.17 184.459C237.957 183.768 237.896 183.039 237.99 182.322C238.085 181.605 238.333 180.917 238.718 180.305C239.086 179.73 239.573 179.241 240.146 178.871C240.72 178.501 241.366 178.259 242.042 178.161C242.949 178.022 243.876 178.128 244.729 178.467C245.582 178.806 246.329 179.365 246.894 180.089C247.168 180.462 247.392 180.87 247.559 181.302C247.722 181.741 247.831 182.199 247.883 182.664C247.89 182.664 247.898 182.663 247.905 182.66C247.912 182.657 247.919 182.653 247.924 182.648Z" fill="#EBEBEB"/>
<path d="M247.118 182.656C247.054 182.073 246.874 181.509 246.589 180.996C246.304 180.484 245.918 180.034 245.456 179.673C244.521 178.964 243.347 178.648 242.182 178.792C241.602 178.872 241.046 179.072 240.549 179.382C240.052 179.691 239.626 180.102 239.299 180.587C238.944 181.114 238.706 181.71 238.599 182.336C238.493 182.962 238.522 183.604 238.684 184.218C238.828 184.752 239.077 185.252 239.416 185.689C239.756 186.125 240.179 186.49 240.662 186.761C241.611 187.293 242.725 187.453 243.786 187.209C244.813 186.971 245.727 186.384 246.37 185.548C247.005 184.747 247.374 183.768 247.425 182.747C247.425 182.698 247.425 182.656 247.375 182.656C247.365 182.657 247.356 182.66 247.347 182.665C247.339 182.67 247.331 182.676 247.325 182.684C247.319 182.691 247.314 182.7 247.311 182.71C247.308 182.719 247.308 182.729 247.309 182.739C247.243 183.556 246.964 184.342 246.501 185.018C246.037 185.695 245.405 186.238 244.667 186.594C244.137 186.856 243.558 187.002 242.968 187.022C242.377 187.042 241.789 186.936 241.243 186.711C240.691 186.483 240.197 186.135 239.796 185.692C239.395 185.25 239.098 184.723 238.925 184.152C238.753 183.57 238.708 182.957 238.795 182.357C238.881 181.756 239.095 181.181 239.424 180.67C239.735 180.194 240.146 179.792 240.628 179.491C241.11 179.189 241.651 178.996 242.215 178.925C242.965 178.837 243.725 178.925 244.434 179.183C245.145 179.453 245.769 179.912 246.237 180.512C246.468 180.818 246.658 181.154 246.802 181.509C246.934 181.876 247.031 182.255 247.093 182.639C247.099 182.647 247.108 182.653 247.118 182.656Z" fill="#EBEBEB"/>
<path d="M246.312 182.664C246.255 182.2 246.107 181.752 245.876 181.346C245.645 180.94 245.335 180.583 244.966 180.296C244.22 179.739 243.291 179.484 242.365 179.582C241.893 179.633 241.438 179.785 241.029 180.027C240.621 180.269 240.269 180.596 239.997 180.986C239.7 181.413 239.497 181.898 239.402 182.41C239.308 182.921 239.324 183.447 239.449 183.952C239.559 184.397 239.76 184.814 240.039 185.177C240.318 185.54 240.668 185.842 241.069 186.063C241.856 186.499 242.778 186.627 243.653 186.42C244.49 186.216 245.234 185.736 245.764 185.057C246.264 184.393 246.553 183.594 246.595 182.764C246.597 182.756 246.598 182.747 246.597 182.739C246.595 182.73 246.592 182.722 246.587 182.715C246.583 182.708 246.576 182.702 246.569 182.697C246.562 182.693 246.553 182.69 246.545 182.689C246.527 182.689 246.51 182.696 246.498 182.709C246.485 182.721 246.478 182.738 246.478 182.756C246.418 183.417 246.188 184.052 245.811 184.599C245.434 185.147 244.923 185.588 244.326 185.88C243.9 186.102 243.43 186.229 242.949 186.252C242.469 186.275 241.989 186.193 241.543 186.013C241.09 185.826 240.685 185.539 240.358 185.174C240.031 184.808 239.792 184.374 239.657 183.902C239.524 183.43 239.495 182.934 239.572 182.449C239.65 181.964 239.832 181.502 240.105 181.094C240.362 180.718 240.697 180.403 241.087 180.169C241.477 179.935 241.913 179.789 242.365 179.74C242.954 179.686 243.547 179.763 244.102 179.964C244.664 180.169 245.161 180.522 245.54 180.986C245.728 181.228 245.884 181.493 246.005 181.775C246.123 182.067 246.209 182.371 246.262 182.681C246.262 182.681 246.321 182.673 246.312 182.664Z" fill="#EBEBEB"/>
<path d="M268.629 193.931H146.811V217.23H268.629V193.931Z" fill="#DBDBDB"/>
<path d="M171.855 193.931L163.014 217.23H147.277L156.117 193.931H171.855Z" fill="#EBEBEB"/>
<path d="M204.102 193.931L195.262 217.23H179.524L188.365 193.931H204.102Z" fill="#EBEBEB"/>
<path d="M236.341 193.931L227.508 217.23H211.771L220.612 193.931H236.341Z" fill="#EBEBEB"/>
<path d="M268.596 193.931L259.755 217.23H244.018L252.859 193.931H268.596Z" fill="#EBEBEB"/>
<path d="M266.171 238.775H149.281V253.523H266.171V238.775Z" fill="#DBDBDB"/>
<path d="M173.301 238.775L164.825 253.515H149.728L158.211 238.775H173.301Z" fill="#EBEBEB"/>
<path d="M204.252 238.775L195.769 253.515H180.663L189.147 238.775H204.252Z" fill="#EBEBEB"/>
<path d="M235.186 238.775L226.703 253.515H211.606L220.089 238.775H235.186Z" fill="#EBEBEB"/>
<path d="M266.128 238.775L257.645 253.515H242.547L251.031 238.775H266.128Z" fill="#EBEBEB"/>
<path d="M388.694 82.965H294.653C294.653 82.965 303.976 57.498 318.325 57.498C332.675 57.498 337.17 75.0715 337.17 75.0715C337.17 75.0715 346.85 65.5245 354.81 65.5245C362.77 65.5245 369.675 78.1458 369.675 78.1458C369.675 78.1458 380.917 71.3574 388.694 82.965Z" fill="#EBEBEB"/>
<path d="M136.658 23.2319H92.7123C92.7123 23.2319 102.525 9.00696 110.269 9.00696C118.013 9.00696 120.29 18.4875 120.29 18.4875C120.29 18.4875 125.749 14.0671 130.809 14.8565C135.869 15.6458 136.658 23.2319 136.658 23.2319Z" fill="#EBEBEB"/>
<path d="M373.722 125.673H329.775C329.775 125.673 339.597 111.448 347.332 111.448C355.068 111.448 357.353 120.929 357.353 120.929C357.353 120.929 362.812 116.5 367.872 117.298C372.932 118.095 373.722 125.673 373.722 125.673Z" fill="#EBEBEB"/>
<path d="M112.363 58.8857H26.7556C26.7556 58.8857 38.4796 32.7125 51.0178 31.0756C63.556 29.4387 69.5551 50.5186 69.5551 50.5186C69.5551 50.5186 77.648 43.0405 84.0044 43.0405C90.3607 43.0405 95.2713 52.8534 95.2713 52.8534C95.2713 52.8534 108.017 46.1564 112.363 58.8857Z" fill="#EBEBEB"/>
<path d="M29.8373 267.183L73.8914 266.984L117.954 266.909L206.062 266.768L294.179 266.909L338.233 266.984L382.287 267.183L338.233 267.383L294.179 267.457L206.062 267.599L117.954 267.457L73.8914 267.383L29.8373 267.183Z" fill="#263238"/>
<path d="M207.725 332.666C304.133 332.666 382.288 323.556 382.288 312.317C382.288 301.079 304.133 291.969 207.725 291.969C111.316 291.969 33.1619 301.079 33.1619 312.317C33.1619 323.556 111.316 332.666 207.725 332.666Z" fill="#EBEBEB"/>
<path d="M230.548 316.115C232.276 316.696 281.748 316.871 283.642 315.683C284.365 315.234 284.806 308.03 285.097 299.314C285.163 297.428 285.213 295.483 285.263 293.498L289.268 267.117L256.198 266.901L253.074 293.298L253.198 299.114C253.198 299.114 234.229 307.523 232.293 309.044C230.357 310.564 228.828 315.525 230.548 316.115Z" fill="#EB9481"/>
<path d="M230.548 316.114C232.276 316.696 281.748 316.871 283.642 315.682C284.515 315.134 284.997 304.615 285.263 293.506L253.074 293.306L253.198 299.123C253.198 299.123 234.229 307.531 232.293 309.052C230.357 310.572 228.828 315.525 230.548 316.114Z" fill="white"/>
<path d="M230.548 316.115C232.276 316.696 281.748 316.871 283.642 315.683C284.365 315.234 284.806 308.03 285.097 299.314L253.198 299.106C253.198 299.106 234.229 307.515 232.293 309.035C230.357 310.556 228.828 315.525 230.548 316.115Z" fill="#FFC727"/>
<path d="M231.271 314.137C239.58 313.963 273.032 314.037 281.241 314.494C281.308 314.494 281.308 314.544 281.241 314.553C273.024 314.902 239.555 314.553 231.263 314.27C231.089 314.262 231.097 314.137 231.271 314.137Z" fill="#263238"/>
<path d="M235.483 307.266C236.411 307.239 237.334 307.408 238.193 307.76C239.051 308.112 239.827 308.64 240.469 309.31C241.63 310.498 242.29 312.086 242.313 313.747C242.313 313.796 242.214 313.796 242.205 313.747C241.934 312.109 241.14 310.603 239.942 309.454C238.744 308.306 237.206 307.576 235.558 307.374C235.544 307.384 235.526 307.387 235.509 307.384C235.492 307.381 235.477 307.371 235.467 307.357C235.457 307.343 235.453 307.325 235.456 307.308C235.459 307.291 235.469 307.275 235.483 307.266Z" fill="#263238"/>
<path d="M249.983 299.92C253.307 299.92 257.145 301.075 259.198 303.792C259.281 303.9 259.131 304.008 259.031 303.958C256.122 302.428 253.058 301.21 249.892 300.327C249.838 300.315 249.791 300.282 249.761 300.236C249.731 300.189 249.722 300.132 249.734 300.078C249.746 300.024 249.779 299.977 249.826 299.948C249.872 299.918 249.929 299.908 249.983 299.92Z" fill="#263238"/>
<path d="M247.415 300.909C250.739 300.909 254.577 302.064 256.63 304.789C256.713 304.889 256.563 305.005 256.464 304.947C253.556 303.414 250.492 302.2 247.324 301.325C247.277 301.305 247.238 301.27 247.215 301.225C247.191 301.18 247.184 301.128 247.195 301.079C247.206 301.029 247.234 300.985 247.274 300.954C247.315 300.923 247.364 300.907 247.415 300.909Z" fill="#263238"/>
<path d="M244.848 301.906C248.171 301.865 252.01 303.053 254.071 305.778C254.145 305.878 253.996 305.994 253.896 305.945C250.991 304.405 247.926 303.188 244.756 302.314C244.702 302.301 244.655 302.268 244.626 302.222C244.596 302.175 244.586 302.118 244.598 302.064C244.61 302.01 244.644 301.963 244.69 301.934C244.737 301.904 244.794 301.894 244.848 301.906Z" fill="#263238"/>
<path d="M242.28 302.895C245.604 302.895 249.451 304.042 251.503 306.767C251.578 306.867 251.428 306.983 251.329 306.933C248.423 305.394 245.358 304.176 242.189 303.302C242.135 303.29 242.088 303.257 242.058 303.21C242.029 303.163 242.019 303.107 242.031 303.053C242.043 302.999 242.076 302.952 242.123 302.922C242.17 302.893 242.226 302.883 242.28 302.895Z" fill="#263238"/>
<path d="M279.18 306.609C282.911 306.609 282.878 312.425 279.18 312.425C275.483 312.425 275.424 306.584 279.18 306.609Z" fill="#263238"/>
<path d="M246.675 295.916C248.453 298.234 251.179 299.704 253.539 301.341C253.594 301.373 253.656 301.391 253.719 301.394C253.783 301.397 253.846 301.385 253.905 301.359C253.963 301.333 254.014 301.294 254.054 301.245C254.095 301.196 254.123 301.138 254.137 301.075C254.15 301.078 254.163 301.078 254.176 301.074C254.189 301.071 254.2 301.064 254.21 301.055C254.22 301.046 254.227 301.035 254.232 301.023C254.237 301.011 254.238 300.997 254.236 300.984C254.006 297.938 252.977 295.006 251.254 292.484C250.223 291.03 248.113 289.667 246.426 291.055C244.739 292.442 245.628 294.57 246.675 295.916ZM246.526 293.165C246.875 289.559 250.124 292.334 250.838 293.44C251.288 294.16 251.691 294.91 252.043 295.683C252.743 297.293 253.361 298.938 253.896 300.61C252.791 299.729 251.611 298.948 250.473 298.117C249.118 297.129 246.343 295.159 246.526 293.165Z" fill="#263238"/>
<path d="M266.035 298.907C265.786 296.738 263.31 296.265 261.565 296.589C258.576 297.215 255.803 298.613 253.522 300.643C253.51 300.651 253.5 300.661 253.493 300.674C253.486 300.686 253.482 300.7 253.482 300.714C253.482 300.728 253.486 300.742 253.493 300.754C253.5 300.767 253.51 300.777 253.522 300.785C253.487 300.838 253.465 300.899 253.459 300.963C253.452 301.027 253.461 301.091 253.485 301.151C253.508 301.21 253.546 301.263 253.594 301.305C253.643 301.347 253.701 301.376 253.763 301.391C256.604 301.84 259.579 302.679 262.479 302.222C264.174 301.989 266.276 300.959 266.035 298.907ZM258.216 301.192C256.812 301.009 255.433 300.751 254.062 300.618C255.632 299.829 257.161 298.957 258.806 298.35C259.597 298.036 260.407 297.775 261.233 297.569C262.512 297.278 266.783 297.519 264.556 300.361C263.252 301.923 259.886 301.4 258.216 301.192Z" fill="#263238"/>
<path d="M337.875 145.141C337.875 145.141 299.462 210.483 298.432 215.069C296.853 222.123 288.461 291.736 288.461 291.736L248.495 291.021C248.495 291.021 255.383 229.635 261.906 209.419C266.609 194.853 300.501 146.545 300.501 146.545L337.875 145.141Z" fill="#37474F"/>
<path d="M252.143 284.89C257.885 284.848 278.225 284.624 285.861 285.33C285.877 285.33 285.891 285.336 285.902 285.347C285.913 285.358 285.919 285.373 285.919 285.388C285.919 285.404 285.913 285.418 285.902 285.429C285.891 285.44 285.877 285.446 285.861 285.446C283.236 285.82 257.885 285.23 252.143 285.047C252.131 285.052 252.118 285.053 252.105 285.051C252.092 285.049 252.079 285.044 252.069 285.036C252.058 285.028 252.05 285.018 252.044 285.006C252.038 284.995 252.034 284.982 252.034 284.969C252.034 284.955 252.038 284.942 252.044 284.931C252.05 284.919 252.058 284.909 252.069 284.901C252.079 284.894 252.092 284.888 252.105 284.886C252.118 284.884 252.131 284.885 252.143 284.89Z" fill="#263238"/>
<path d="M331.319 151.14C328.827 155.087 326.143 158.95 323.567 162.864C320.991 166.777 318.432 170.699 315.898 174.646C310.841 182.523 305.9 190.472 301.075 198.493C298.736 202.184 296.731 206.077 295.084 210.125C293.584 214.194 292.458 218.391 291.719 222.664C290.93 226.959 290.414 231.288 289.933 235.617C289.412 240.226 288.897 244.835 288.387 249.443C287.335 258.86 286.282 268.294 285.23 277.744C285.097 278.899 284.972 280.062 284.856 281.217C284.856 281.391 285.138 281.425 285.163 281.217C286.335 271.844 287.315 262.447 288.387 253.058L289.982 239.082C290.473 234.736 290.946 230.391 291.644 226.062C292.268 221.804 293.209 217.599 294.461 213.482C295.831 209.216 297.673 205.117 299.953 201.26C304.581 193.275 309.483 185.423 314.386 177.596C319.288 169.769 324.315 161.809 329.491 154.056C330.123 153.101 330.771 152.145 331.436 151.206C331.527 151.132 331.369 151.065 331.319 151.14Z" fill="#263238"/>
<path d="M303.917 321.607C305.736 321.723 354.826 308.786 356.355 307.157C356.422 307.059 356.462 306.944 356.471 306.825C356.662 305.213 354.153 299.189 352.391 291.47C352.283 290.98 351.361 288.637 350.065 285.471C346.5 276.788 340.144 261.865 340.144 261.865L308.096 270.091L319.895 293.813L321.49 299.389C321.49 299.389 305.279 312.359 303.8 314.345C302.321 316.33 302.105 321.474 303.917 321.607Z" fill="#EB9481"/>
<path d="M303.915 321.607C305.735 321.723 354.824 308.786 356.353 307.157C356.42 307.059 356.461 306.944 356.47 306.825C356.661 305.213 354.151 299.189 352.39 291.47C352.282 290.98 351.36 288.637 350.063 285.471L319.902 293.78L321.497 299.355C321.497 299.355 305.286 312.326 303.807 314.311C302.328 316.297 302.104 321.474 303.915 321.607Z" fill="white"/>
<path d="M303.915 321.599C305.735 321.731 354.824 308.786 356.353 307.158C356.935 306.543 355.664 299.904 352.39 291.47L321.497 299.397C321.497 299.397 305.286 312.351 303.807 314.353C302.328 316.356 302.104 321.474 303.915 321.599Z" fill="#FFC727"/>
<path d="M304.106 319.505C312.083 317.228 344.471 308.786 352.531 307.133C352.598 307.133 352.606 307.133 352.531 307.191C344.679 309.617 312.224 317.801 304.131 319.654C303.974 319.679 303.94 319.554 304.106 319.505Z" fill="#263238"/>
<path d="M306.442 311.794C307.328 311.538 308.258 311.47 309.172 311.593C310.086 311.716 310.964 312.028 311.751 312.508C313.174 313.364 314.214 314.731 314.659 316.331C314.659 316.38 314.576 316.405 314.56 316.331C313.876 314.811 312.717 313.554 311.258 312.749C309.798 311.945 308.117 311.636 306.467 311.869C306.461 311.876 306.454 311.883 306.446 311.886C306.437 311.89 306.428 311.892 306.419 311.89C306.409 311.889 306.401 311.885 306.393 311.879C306.386 311.873 306.381 311.866 306.378 311.857C306.375 311.848 306.375 311.838 306.377 311.829C306.379 311.82 306.384 311.812 306.39 311.805C306.397 311.799 306.405 311.794 306.414 311.792C306.423 311.79 306.433 311.791 306.442 311.794Z" fill="#263238"/>
<path d="M318.59 301.001C321.789 300.12 325.811 300.286 328.486 302.397C328.594 302.48 328.486 302.629 328.37 302.604C325.179 301.855 321.917 301.451 318.64 301.399C318.595 301.393 318.552 301.373 318.52 301.34C318.488 301.307 318.467 301.265 318.461 301.219C318.456 301.174 318.465 301.128 318.489 301.088C318.512 301.048 318.548 301.018 318.59 301.001Z" fill="#263238"/>
<path d="M316.363 302.612C319.562 301.732 323.584 301.898 326.259 304.008C326.367 304.091 326.259 304.241 326.134 304.216C322.942 303.483 319.68 303.095 316.405 303.061C316.345 303.067 316.286 303.048 316.24 303.01C316.194 302.972 316.165 302.917 316.16 302.858C316.154 302.798 316.172 302.739 316.211 302.693C316.249 302.647 316.304 302.618 316.363 302.612Z" fill="#263238"/>
<path d="M314.127 304.225C317.335 303.344 321.348 303.51 324.032 305.62C324.131 305.704 324.032 305.845 323.907 305.828C320.716 305.081 317.454 304.68 314.177 304.632C314.128 304.63 314.081 304.61 314.044 304.577C314.008 304.544 313.985 304.498 313.979 304.449C313.973 304.4 313.984 304.351 314.012 304.31C314.039 304.268 314.08 304.238 314.127 304.225Z" fill="#263238"/>
<path d="M311.9 305.828C315.099 304.956 319.12 305.122 321.796 307.232C321.904 307.316 321.796 307.457 321.68 307.432C318.488 306.692 315.226 306.294 311.95 306.244C311.895 306.25 311.839 306.235 311.796 306.2C311.752 306.166 311.724 306.116 311.717 306.061C311.711 306.006 311.726 305.95 311.76 305.907C311.795 305.863 311.845 305.835 311.9 305.828Z" fill="#263238"/>
<path d="M348.512 300.045C352.118 299.115 353.563 304.723 349.949 305.645C346.335 306.568 344.897 300.967 348.512 300.045Z" fill="#263238"/>
<path d="M314.369 297.968C316.687 299.754 319.695 300.46 322.387 301.466C322.449 301.483 322.514 301.485 322.576 301.472C322.639 301.46 322.698 301.432 322.748 301.393C322.798 301.353 322.838 301.302 322.865 301.244C322.892 301.186 322.905 301.123 322.902 301.059C322.916 301.058 322.929 301.055 322.941 301.048C322.953 301.042 322.964 301.032 322.971 301.021C322.978 301.009 322.983 300.996 322.984 300.982C322.985 300.969 322.983 300.955 322.977 300.942C321.978 298.05 320.236 295.471 317.925 293.464C316.563 292.326 314.17 291.537 312.89 293.315C311.611 295.093 313.023 296.929 314.369 297.968ZM313.538 295.35C312.957 291.769 316.804 293.639 317.776 294.52C318.397 295.099 318.977 295.721 319.512 296.381C320.603 297.755 321.621 299.187 322.562 300.668C321.266 300.103 319.928 299.654 318.615 299.131C317.036 298.516 313.854 297.32 313.53 295.35H313.538Z" fill="#263238"/>
<path d="M333.853 295.932C333.064 293.896 330.529 294.071 328.942 294.835C326.208 296.196 323.881 298.254 322.195 300.801C322.187 300.812 322.181 300.824 322.178 300.838C322.175 300.852 322.176 300.866 322.18 300.879C322.184 300.892 322.192 300.904 322.202 300.914C322.212 300.923 322.224 300.93 322.237 300.934C322.219 300.995 322.215 301.059 322.226 301.122C322.237 301.184 322.263 301.243 322.301 301.294C322.339 301.345 322.388 301.386 322.445 301.414C322.501 301.443 322.564 301.458 322.628 301.458C325.494 301.167 328.585 301.217 331.269 300.062C332.839 299.389 334.609 297.851 333.853 295.932ZM326.873 300.136C325.477 300.311 324.073 300.419 322.719 300.643C323.998 299.443 325.338 298.309 326.732 297.245C327.416 296.742 328.132 296.284 328.876 295.874C330.039 295.259 334.235 294.412 332.773 297.727C331.934 299.563 328.552 299.929 326.873 300.136Z" fill="#263238"/>
<path d="M317.701 292.26L353.612 282.837C353.612 282.837 319.229 215.177 319.545 210.508C319.794 206.353 344.73 170.06 346.134 163.263C348.386 152.137 342.968 142.2 337.717 136.051L300.576 146.52C300.576 146.52 303.534 152.943 308.968 156.998C308.968 156.998 285.628 195.967 285.03 208.796C284.431 221.625 317.701 292.26 317.701 292.26Z" fill="#37474F"/>
<path d="M317.019 285.612C322.22 284.125 320.708 284.482 325.934 283.045C328.493 282.347 345.302 277.752 347.795 277.511C347.853 277.511 347.878 277.594 347.795 277.619C345.502 278.65 328.618 282.954 326.051 283.602C320.799 284.931 322.287 284.491 317.019 285.77C316.961 285.779 316.919 285.612 317.019 285.612Z" fill="#263238"/>
<path d="M303.209 155.527C306.768 156.848 310.207 158.471 313.488 160.38C313.514 160.393 313.534 160.416 313.544 160.444C313.553 160.472 313.551 160.503 313.538 160.529C313.524 160.556 313.501 160.576 313.473 160.585C313.445 160.594 313.414 160.592 313.388 160.579C309.923 159.067 306.383 157.621 303.01 155.926C302.964 155.896 302.93 155.85 302.916 155.797C302.901 155.744 302.907 155.687 302.931 155.637C302.956 155.588 302.998 155.55 303.049 155.529C303.101 155.509 303.158 155.508 303.209 155.527Z" fill="#263238"/>
<path d="M307.572 154.613C307.836 155.266 308.058 155.935 308.237 156.616C308.432 157.147 308.519 157.712 308.494 158.277C308.483 158.296 308.468 158.312 308.449 158.323C308.43 158.334 308.408 158.34 308.386 158.34C308.364 158.34 308.343 158.334 308.324 158.323C308.305 158.312 308.289 158.296 308.278 158.277C307.967 157.781 307.732 157.24 307.58 156.674C307.356 156.051 307.115 155.436 306.916 154.813C306.774 154.414 307.431 154.214 307.572 154.613Z" fill="#263238"/>
<path d="M307.573 151.248C307.423 150.675 307.274 150.11 307.116 149.537C306.958 148.963 306.742 148.373 306.625 147.775C306.625 147.684 306.459 147.725 306.484 147.775C306.625 148.348 306.692 148.947 306.792 149.528C306.891 150.11 307.008 150.691 307.124 151.265C307.343 152.353 307.621 153.43 307.955 154.489C307.37 154.446 306.802 154.273 306.293 153.982C305.798 153.572 305.443 153.017 305.279 152.395C305.047 151.747 304.839 151.09 304.598 150.451C304.299 149.749 304.06 149.024 303.884 148.282C303.884 148.182 303.717 148.224 303.734 148.282C304.02 149.848 304.463 151.382 305.055 152.86C305.313 153.442 305.504 154.04 306.077 154.322C306.708 154.59 307.387 154.723 308.071 154.713C308.146 154.713 308.262 154.713 308.246 154.605C308.071 153.541 307.855 152.37 307.573 151.248Z" fill="#263238"/>
<path d="M308.187 158.294C306.775 160.845 305.163 163.279 303.651 165.772C302.138 168.265 300.776 170.691 299.396 173.184C296.621 178.219 294.045 183.387 291.694 188.638C290.531 191.236 289.423 193.865 288.37 196.524C287.276 199.169 286.373 201.891 285.67 204.666C285.009 207.437 284.885 210.308 285.304 213.125C285.83 216.013 286.574 218.858 287.531 221.633C289.456 227.991 291.799 234.214 294.544 240.262C294.635 240.461 294.968 240.312 294.893 240.104C292.932 234.57 290.905 229.053 289.135 223.486C287.431 218.052 285.404 212.419 286.343 206.644C286.867 203.874 287.658 201.161 288.703 198.543C289.711 195.851 290.786 193.189 291.927 190.558C294.187 185.365 296.713 180.321 299.305 175.294C300.751 172.478 302.271 169.694 303.742 166.886C305.213 164.077 306.658 161.169 308.312 158.444C308.362 158.286 308.262 158.219 308.187 158.294Z" fill="#263238"/>
<path d="M335.233 152.843C334.56 152.735 333.571 152.968 330.672 152.769C329.865 152.697 329.066 152.567 328.279 152.378C327.48 152.253 326.721 151.946 326.06 151.481C325.007 150.484 324.148 149.301 323.526 147.991C322.749 146.641 322.154 145.193 321.756 143.687C321.756 143.596 321.598 143.637 321.615 143.728C321.773 144.559 321.856 145.39 322.08 146.271C322.294 147.062 322.572 147.835 322.911 148.581C323.445 150.057 324.339 151.377 325.512 152.42C326.825 153.408 328.661 153.591 330.248 153.708C331.17 153.774 334.785 153.708 335.233 153.159C335.366 153.068 335.358 152.868 335.233 152.843Z" fill="#263238"/>
<path d="M344.697 275.11C340.166 265.904 335.734 256.639 331.402 247.316C327.071 237.994 322.866 228.602 318.789 219.141C317.662 216.919 316.762 214.589 316.106 212.186C315.549 209.552 316.363 207.201 317.477 204.816C319.548 200.492 321.865 196.289 324.415 192.228C326.907 188.14 329.599 184.143 332.233 180.13C334.957 176.199 337.454 172.115 339.711 167.899C341.755 163.82 342.894 159.474 342.312 154.904C341.73 150.334 339.761 146.113 337.659 142.1C337.102 141.045 336.529 139.998 335.997 138.934C335.956 138.86 335.831 138.934 335.881 139.009C338.224 143.213 340.476 147.625 341.573 152.303C342.138 154.635 342.312 157.044 342.088 159.433C341.796 161.844 341.117 164.192 340.077 166.387C338.124 170.675 335.399 174.63 332.832 178.56C330.264 182.49 327.53 186.578 324.971 190.649C322.371 194.725 319.983 198.932 317.817 203.254C316.87 205.19 315.831 207.209 315.599 209.378C315.349 211.762 316.205 214.039 317.128 216.191C321.116 225.547 325.32 234.828 329.591 244.059C333.862 253.291 338.291 262.555 342.786 271.728L344.447 275.193C344.555 275.384 344.763 275.251 344.697 275.11Z" fill="#263238"/>
<path d="M299.753 66.7543C300.583 62.9571 304.804 54.3656 313.138 56.044C325.037 58.4453 326.757 81.3697 332.681 88.5154C343.408 101.461 343.757 114.273 334.966 116.326C325.112 118.619 315.523 108.017 315.855 85.1669C316.08 70.8589 312.05 64.5192 309.208 64.9429C306.367 65.3667 304.796 68.9811 304.796 68.9811L299.753 66.7543Z" fill="#263238"/>
<path d="M300.153 65.3334C300.742 63.5622 301.542 61.8687 302.538 60.2899C303.536 58.6722 304.861 57.28 306.426 56.2018C308.047 55.1066 309.972 54.5485 311.927 54.6065C313.866 54.665 315.762 55.1925 317.452 56.1437C319.101 57.1298 320.518 58.4588 321.607 60.0406C322.684 61.5948 323.579 63.2676 324.274 65.026C325.594 68.5122 326.519 72.1354 327.033 75.8276C326.127 72.2578 324.955 68.761 323.526 65.3666C322.785 63.7069 321.875 62.1282 320.809 60.6554C319.775 59.2019 318.444 57.9841 316.904 57.0826C315.363 56.2035 313.633 55.705 311.861 55.6285C310.106 55.5464 308.368 55.9983 306.875 56.9247C305.344 57.89 304.015 59.1428 302.962 60.6139C302.411 61.3484 301.903 62.1141 301.441 62.9072C300.976 63.6716 300.552 64.4942 300.153 65.3334Z" fill="#263238"/>
<path d="M315.815 77.2817C315.939 79.5501 315.815 81.8267 315.765 84.0951C315.715 86.3634 315.624 88.6235 315.615 90.8835C315.607 93.1436 315.682 95.3953 315.914 97.6304C316.104 99.8554 316.51 102.057 317.128 104.203C317.712 106.335 318.696 108.337 320.027 110.102C321.424 111.82 323.111 113.28 325.013 114.415C326.916 115.57 329.066 116.259 331.286 116.425C332.397 116.511 333.514 116.452 334.61 116.251C335.173 116.145 335.728 116.001 336.271 115.819C336.813 115.659 337.328 115.421 337.8 115.112C336.874 115.787 335.819 116.265 334.701 116.517C333.586 116.807 332.438 116.95 331.286 116.94C330.124 116.919 328.968 116.755 327.846 116.45C326.727 116.135 325.648 115.692 324.631 115.129C323.611 114.57 322.648 113.914 321.756 113.168L321.099 112.603L320.468 112.013C320.039 111.61 319.639 111.176 319.271 110.717C317.843 108.864 316.782 106.754 316.147 104.502C314.996 100.054 314.553 95.4526 314.834 90.8669C314.901 88.5902 315.075 86.3219 315.275 84.0618C315.474 81.8018 315.74 79.5501 315.815 77.2817Z" fill="#263238"/>
<path d="M299.072 66.8207C298.939 65.7654 299.579 64.328 300.243 64.0704C300.908 63.8128 306.209 65.5162 306.766 66.7874C307.323 68.0587 305.179 69.4131 305.179 69.4131L299.072 66.8207Z" fill="#FFC727"/>
<path d="M305.42 104.244C302.154 108.906 278.54 128.191 265.661 128.905C259.845 129.221 237.095 126.745 232.027 124.659C225.803 122.1 238.109 106.687 241.998 107.343C246.867 108.174 264.133 109.994 267.573 110.085C273.09 110.227 290.007 100.946 301.398 98.5277C307.289 97.2896 307.946 100.655 305.42 104.244Z" fill="#EB9481"/>
<path d="M305.163 105.125C301.557 111.415 288.827 122.2 288.827 122.2L286.659 118.195L279.48 104.975C279.48 104.975 291.544 100.173 299.546 97.8381C300.485 97.5497 301.447 97.3385 302.421 97.2066C307.589 96.5419 308.262 99.7242 305.163 105.125Z" fill="#DBDBDB"/>
<path d="M305.163 105.125C301.557 111.415 288.828 122.2 288.828 122.2L286.659 118.195L285.18 115.47L279.472 104.984C279.472 104.984 291.545 100.165 299.546 97.8297C300.487 97.5493 301.448 97.341 302.421 97.2065C302.523 97.1988 302.626 97.1988 302.729 97.2065C307.614 96.6747 308.213 99.8322 305.163 105.125Z" fill="#DBDBDB"/>
<path d="M290.115 101.727C290.392 102.874 290.392 104.07 290.115 105.217C289.838 104.07 289.838 102.874 290.115 101.727ZM286.7 108.573C286.115 108.564 285.531 108.634 284.964 108.781C285.531 108.924 286.115 108.994 286.7 108.989C287.288 108.994 287.875 108.924 288.445 108.781C287.875 108.634 287.289 108.564 286.7 108.573ZM304.349 98.8186C303.76 98.8097 303.173 98.8796 302.604 99.0263C303.173 99.1731 303.76 99.2429 304.349 99.2341C304.934 99.2384 305.517 99.1686 306.085 99.0263C305.517 98.8841 304.934 98.8143 304.349 98.8186ZM297.552 107.493C297.963 107.911 298.427 108.275 298.931 108.573C298.632 108.069 298.269 107.605 297.851 107.194C297.438 106.778 296.975 106.415 296.472 106.114C296.773 106.617 297.136 107.08 297.552 107.493ZM290.847 115.802C291.257 116.223 291.721 116.589 292.226 116.891C291.93 116.384 291.566 115.92 291.146 115.511C290.735 115.09 290.271 114.725 289.766 114.423C290.053 114.927 290.405 115.391 290.813 115.802H290.847Z" fill="white"/>
<path d="M291.046 119.25C289.841 116.816 284.523 107.011 283.235 104.967C283.144 104.826 283.036 104.843 283.102 104.967C285.458 109.866 288.076 114.634 290.946 119.25C290.979 119.35 291.079 119.317 291.046 119.25Z" fill="#263238"/>
<path d="M305.163 105.125C301.557 111.415 288.828 122.2 288.828 122.2L286.659 118.195L285.18 115.47C292.085 108.656 300.402 100.273 302.728 97.19C307.614 96.6748 308.212 99.8322 305.163 105.125Z" fill="#A6A6A6"/>
<path d="M293.389 134.098L295.275 154.871C297.815 154.754 300.348 154.498 302.861 154.106C309.488 153.112 316.055 151.744 322.528 150.01C328.951 148.348 336.479 146.055 345.087 142.997C345.087 142.997 325.619 107.884 312.183 98.1954C311.876 97.971 311.577 97.7633 311.269 97.5722C311.211 97.5223 311.153 97.4974 311.095 97.4559C304.988 93.5922 299.462 96.625 296.405 100.929C295.632 102.009 288.154 119.009 288.528 124.709C288.869 129.72 293.389 134.098 293.389 134.098Z" fill="#DBDBDB"/>
<path d="M304.189 111.863C304.337 112.43 304.407 113.014 304.397 113.6C304.406 114.188 304.336 114.775 304.189 115.345C304.043 114.775 303.973 114.188 303.982 113.6C303.976 113.015 304.046 112.431 304.189 111.863ZM308.718 133.616C308.713 134.204 308.783 134.791 308.926 135.361C309.076 134.792 309.146 134.205 309.133 133.616C309.142 133.028 309.072 132.441 308.926 131.871C308.783 132.442 308.713 133.028 308.718 133.616ZM323.217 121.236C323.208 121.824 323.278 122.411 323.425 122.981C323.702 121.834 323.702 120.638 323.425 119.491C323.278 120.061 323.208 120.648 323.217 121.236ZM296.628 130.966C296.619 131.554 296.689 132.141 296.836 132.711C297.113 131.564 297.113 130.368 296.836 129.221C296.689 129.791 296.619 130.378 296.628 130.966ZM313.379 115.652C312.791 115.648 312.205 115.717 311.634 115.86C312.781 116.137 313.977 116.137 315.124 115.86C314.556 115.718 313.973 115.648 313.387 115.652H313.379ZM325.743 131.149C325.154 131.136 324.567 131.205 323.998 131.356C325.145 131.633 326.341 131.633 327.488 131.356C326.921 131.21 326.337 131.14 325.751 131.149H325.743ZM306.948 143.429C306.362 143.42 305.778 143.49 305.211 143.637C305.778 143.784 306.362 143.854 306.948 143.845C307.536 143.854 308.123 143.784 308.693 143.637C308.125 143.495 307.542 143.425 306.956 143.429H306.948ZM328.842 141.036C328.257 141.032 327.673 141.101 327.106 141.244C328.25 141.521 329.443 141.521 330.587 141.244C330.017 141.101 329.43 141.031 328.842 141.036ZM304.347 98.7935C303.759 98.7846 303.172 98.8545 302.602 99.0012C303.172 99.1479 303.759 99.2178 304.347 99.2089C304.933 99.2132 305.516 99.1434 306.084 99.0012C305.515 98.8674 304.932 98.806 304.347 98.8184V98.7935ZM313.238 102.641C313.649 103.061 314.112 103.427 314.617 103.729C314.323 103.221 313.96 102.757 313.537 102.35C313.126 101.929 312.663 101.563 312.158 101.261C312.457 101.775 312.823 102.247 313.246 102.665L313.238 102.641ZM331.393 122.075C331.804 122.496 332.267 122.862 332.772 123.164C332.476 122.658 332.112 122.194 331.692 121.784C331.28 121.365 330.816 121 330.313 120.696C330.61 121.209 330.973 121.681 331.393 122.1V122.075ZM302.361 124.152C302.772 124.573 303.236 124.939 303.741 125.241C303.12 124.223 302.266 123.369 301.248 122.748C301.554 123.272 301.928 123.753 302.361 124.177V124.152ZM319.062 138.22C319.473 138.64 319.937 139.006 320.442 139.308C319.821 138.29 318.967 137.436 317.949 136.815C318.257 137.33 318.631 137.803 319.062 138.22ZM297.592 107.476C298.003 107.895 298.467 108.258 298.971 108.557C298.673 108.052 298.31 107.588 297.891 107.177C297.478 106.761 297.015 106.398 296.512 106.097C296.799 106.604 297.148 107.073 297.551 107.493L297.592 107.476ZM296.412 118.394C296.831 117.982 297.197 117.518 297.501 117.015C296.994 117.311 296.53 117.675 296.121 118.095C295.701 118.506 295.335 118.97 295.033 119.474C295.52 119.175 295.969 118.818 296.371 118.411L296.412 118.394ZM335.838 133.234C336.259 132.825 336.622 132.361 336.918 131.855C335.898 132.472 335.043 133.327 334.426 134.348C334.928 134.043 335.389 133.674 335.797 133.251L335.838 133.234ZM298.564 139.183C298.983 138.772 299.346 138.309 299.644 137.804C298.624 138.421 297.769 139.277 297.152 140.297C297.654 139.992 298.115 139.623 298.523 139.2L298.564 139.183ZM320.816 110.542C321.237 110.131 321.602 109.668 321.904 109.163C321.398 109.463 320.934 109.829 320.525 110.252C320.104 110.662 319.738 111.126 319.436 111.631C319.926 111.331 320.375 110.971 320.774 110.559L320.816 110.542ZM315.299 147.85C315.721 147.44 316.087 146.977 316.387 146.47C315.881 146.77 315.417 147.136 315.008 147.559C314.587 147.97 314.221 148.433 313.919 148.938C314.409 148.639 314.858 148.278 315.257 147.866L315.299 147.85ZM315.299 125.415C315.724 125.008 316.09 124.544 316.387 124.036C315.369 124.656 314.515 125.511 313.894 126.529C314.403 126.219 314.867 125.842 315.274 125.407L315.299 125.415Z" fill="white"/>
<path d="M307.28 97.0986C307.164 97.9295 303.857 103.33 300.251 103.472C299.071 103.513 298.548 97.1152 298.548 97.1152L298.398 96.6499L296.346 90.1606L303.691 84.5354L304.763 83.7793C304.763 83.7793 305.203 85.599 305.735 87.859L305.81 88.1831C305.81 88.3077 305.876 88.424 305.901 88.5486L306.15 89.5706C306.208 89.8365 306.267 90.0941 306.316 90.4015L306.491 91.2324C306.888 93.1675 307.151 95.1275 307.28 97.0986Z" fill="#EB9481"/>
<path d="M305.769 87.859C305.262 89.7762 304.343 91.5597 303.076 93.0852C301.809 94.6106 300.224 95.8413 298.432 96.6914L296.38 90.2021L303.692 84.5354L304.764 83.7793C304.764 83.7793 305.204 85.5574 305.769 87.859Z" fill="#263238"/>
<path d="M287.24 80.3809C287.182 92.3292 294.336 93.7168 296.912 93.7251C299.247 93.7251 307.215 93.4675 308.544 81.5857C309.874 69.7038 304.299 65.9067 298.956 65.5992C293.613 65.2918 287.298 68.4076 287.24 80.3809Z" fill="#EB9481"/>
<path d="M307.855 82.3917C305.903 82.5911 305.363 78.4948 305.363 78.4948C305.363 78.4948 301.383 78.6111 299.929 72.9112C300.083 74.6258 300.735 76.2578 301.806 77.6057C301.806 77.6057 294.752 77.0573 291.645 71.2411C291.645 71.2411 292.899 74.2074 294.029 75.246C292.235 74.7399 290.664 73.6454 289.567 72.1384C289.567 72.1384 288.421 75.5617 287.498 76.5173C287.498 76.5173 286.136 70.5016 288.637 67.3774C293.905 60.7302 302.554 66.5465 302.554 66.5465C302.554 66.5465 307.39 67.2777 309.118 70.9004C311.785 76.4425 307.855 82.3917 307.855 82.3917Z" fill="#263238"/>
<path d="M306.599 82.4665C306.599 82.4665 308.893 78.5364 310.662 79.3257C312.432 80.1151 310.912 85.6655 309.001 86.5628C308.764 86.6958 308.504 86.7799 308.234 86.81C307.965 86.8401 307.692 86.8157 307.433 86.7382C307.173 86.6606 306.931 86.5316 306.723 86.3587C306.514 86.1858 306.342 85.9727 306.217 85.7319L306.599 82.4665Z" fill="#EB9481"/>
<path d="M288.736 77.9631C289.016 77.9143 289.294 77.8477 289.566 77.7637C289.86 77.7308 290.134 77.6023 290.348 77.3981C290.406 77.3234 290.438 77.2313 290.438 77.1363C290.438 77.0414 290.406 76.9493 290.348 76.8746C290.206 76.7501 290.033 76.6653 289.848 76.6288C289.663 76.5923 289.471 76.6055 289.292 76.6669C288.912 76.739 288.572 76.9491 288.337 77.2568C288.291 77.3269 288.265 77.4082 288.263 77.4919C288.26 77.5755 288.28 77.6582 288.322 77.7311C288.363 77.8039 288.423 77.8641 288.496 77.905C288.569 77.9459 288.652 77.966 288.736 77.9631Z" fill="#263238"/>
<path d="M296.529 78.8937C296.25 78.8659 295.972 78.8215 295.698 78.7608C295.395 78.755 295.102 78.6466 294.867 78.4533C294.807 78.3793 294.775 78.2869 294.775 78.1916C294.775 78.0963 294.807 78.0039 294.867 77.9299C294.998 77.7939 295.162 77.6957 295.344 77.646C295.525 77.5962 295.717 77.5967 295.898 77.6474C296.283 77.69 296.64 77.8699 296.903 78.1542C296.957 78.2226 296.99 78.3049 296.999 78.3916C297.008 78.4782 296.991 78.5655 296.952 78.6432C296.913 78.7208 296.852 78.7857 296.777 78.8301C296.702 78.8745 296.616 78.8965 296.529 78.8937Z" fill="#263238"/>
<path d="M294.967 81.3364C294.967 81.3364 295.025 81.3364 295.025 81.4112C295.025 82.2421 295.133 83.1727 295.856 83.4303V83.4801C294.967 83.3638 294.793 82.1175 294.967 81.3364Z" fill="#263238"/>
<path d="M295.656 80.4723C296.969 80.3477 297.118 82.965 295.897 83.1063C294.675 83.2475 294.551 80.572 295.656 80.4723Z" fill="#263238"/>
<path d="M296.181 80.5804C296.422 80.7216 296.663 80.9709 296.945 80.9875C297.228 81.0041 297.494 80.705 297.693 80.4308H297.735C297.735 80.9376 297.602 81.4694 297.07 81.5774C296.538 81.6854 296.239 81.2451 296.04 80.7465C296.015 80.6718 296.089 80.5305 296.181 80.5804Z" fill="#263238"/>
<path d="M290.389 81.3781C290.389 81.3781 290.323 81.4196 290.331 81.4528C290.406 82.2837 290.331 83.2226 289.633 83.5384C289.633 83.5384 289.633 83.5882 289.633 83.5384C290.539 83.3971 290.589 82.1425 290.389 81.3781Z" fill="#263238"/>
<path d="M289.6 80.572C288.279 80.572 288.346 83.1977 289.6 83.2143C290.855 83.2309 290.714 80.5886 289.6 80.572Z" fill="#263238"/>
<path d="M289.059 80.7549C288.852 80.9044 288.652 81.162 288.403 81.1869C288.154 81.2119 287.888 80.9293 287.697 80.6552H287.655C287.655 81.162 287.838 81.6855 288.328 81.7685C288.818 81.8516 289.084 81.403 289.159 80.8961C289.217 80.8379 289.151 80.6967 289.059 80.7549Z" fill="#263238"/>
<path d="M291.761 85.0007C291.761 85.0007 291.644 86.1972 291.644 86.8037C292.763 86.7697 293.881 86.8871 294.968 87.1527C295.225 87.2275 295.209 87.0114 294.918 86.8536C294.051 86.3868 293.065 86.1873 292.085 86.2803C292.043 86.1224 292.301 84.3941 292.209 84.3941C291.763 84.4501 291.327 84.5676 290.913 84.7431C291.079 82.1756 291.661 79.6497 291.785 77.0905C291.785 77.0707 291.778 77.0517 291.764 77.0377C291.75 77.0236 291.731 77.0157 291.711 77.0157C291.691 77.0157 291.672 77.0236 291.658 77.0377C291.644 77.0517 291.636 77.0707 291.636 77.0905C290.934 79.7717 290.499 82.5161 290.34 85.2832C290.365 85.5906 291.536 85.1087 291.761 85.0007Z" fill="#263238"/>
<path d="M292.998 86.8037C293.415 87.3509 293.998 87.7475 294.66 87.9337C295.665 88.0334 295.732 87.1028 294.61 86.6791C294.071 86.5723 293.514 86.6154 292.998 86.8037Z" fill="#263238"/>
<path d="M294.676 87.9337C294.298 87.8701 293.944 87.7034 293.654 87.4518C293.837 87.1277 294.302 86.7621 295.399 87.2856C295.574 87.6678 295.316 88.0001 294.676 87.9337Z" fill="#FF99BA"/>
<path d="M305.528 95.6694C306.991 95.6694 309.45 96.035 312.774 98.561C312.774 98.561 305.844 104.136 299.396 104.136C297.095 104.136 296.405 100.921 296.405 100.921C296.405 100.921 299.504 95.7193 305.528 95.6694Z" fill="#EB9481"/>
<path d="M414.999 334.901H387.853C368.128 334.901 356.063 321.266 353.894 296.514C352.823 284.308 352.166 269.535 351.477 253.897C349.349 205.846 346.433 140.064 327.73 140.064H306.234V135.079H327.73C351.194 135.079 353.87 195.377 356.454 253.689C357.143 269.277 357.8 284 358.863 296.065C360.218 311.503 366.341 329.907 387.853 329.907H414.999V334.901Z" fill="#FFC727"/>
<path opacity="0.2" d="M322.021 135.062L320.958 140.048H306.234V135.062H322.021Z" fill="black"/>
<path d="M265.721 107.717H257.03V168.448H265.721V107.717Z" fill="#FFC727"/>
<path d="M257.036 112.204H223.992V163.338H257.036V112.204Z" fill="#FFC727"/>
<path opacity="0.2" d="M257.029 112.213V163.346H248.82L245.139 112.213H257.029Z" fill="black"/>
<path d="M198.633 121.386H223.984V129.03H198.633C197.765 129.03 196.932 128.685 196.318 128.071C195.704 127.457 195.36 126.625 195.36 125.756V124.668C195.358 124.237 195.442 123.811 195.606 123.412C195.77 123.014 196.011 122.652 196.315 122.348C196.62 122.043 196.981 121.801 197.379 121.636C197.776 121.471 198.203 121.386 198.633 121.386Z" fill="#DBDBDB"/>
<path d="M223.984 121.386H215.085V129.022H223.984V121.386Z" fill="#A6A6A6"/>
<path d="M198.633 146.52H223.984V154.165H198.633C197.765 154.165 196.932 153.82 196.318 153.206C195.704 152.592 195.36 151.759 195.36 150.891V149.802C195.358 149.372 195.442 148.945 195.606 148.547C195.77 148.149 196.011 147.787 196.315 147.482C196.62 147.177 196.981 146.935 197.379 146.77C197.776 146.605 198.203 146.52 198.633 146.52Z" fill="#DBDBDB"/>
<path d="M223.984 146.52H215.085V154.156H223.984V146.52Z" fill="#A6A6A6"/>
<path d="M317.077 132.894H291.261V143.089H317.077V132.894Z" fill="#FFC727"/>
<path d="M317.077 132.902H291.261V143.097H317.077V132.902Z" fill="#FFC727"/>
<path opacity="0.2" d="M300.326 132.902L299.479 143.097H291.261V132.902H300.326Z" fill="black"/>
<path d="M265.719 114.132H286.151C287.506 114.132 288.806 114.67 289.764 115.629C290.722 116.587 291.261 117.887 291.261 119.242V156.308C291.261 157.664 290.722 158.963 289.764 159.922C288.806 160.88 287.506 161.418 286.151 161.418H265.719V114.132Z" fill="#FFC727"/>
<path opacity="0.2" d="M276.587 114.132L272.906 161.418H265.727V114.132H276.587Z" fill="black"/>
<g opacity="0.2">
<path opacity="0.2" d="M274.686 123.687H273.057V151.855H274.686V123.687Z" fill="black"/>
<path opacity="0.2" d="M279.304 123.687H277.676V151.855H279.304V123.687Z" fill="black"/>
<path opacity="0.2" d="M283.924 123.687H282.295V151.855H283.924V123.687Z" fill="black"/>
</g>
<path d="M314.684 104.369C317.543 112.387 313.446 141.759 308.602 147.983C301.407 157.206 287.19 165.689 281.756 168.34C279.38 169.495 268.736 152.478 271.054 150.891C276.039 147.476 291.918 139.325 293.264 137.704C294.61 136.084 301.855 120.521 304.755 111.772C308.652 100.023 313.247 100.322 314.684 104.369Z" fill="#EB9481"/>
<path d="M281.74 168.389C274.204 172.693 259.206 172.062 257.162 171.439L254.52 170.608C251.371 169.719 250.523 167.982 250.523 167.982C250.523 167.982 246.585 168.032 246.152 165.656C245.671 162.989 251.296 163.437 254.545 161.792C262.023 158.028 271.511 150.583 273.547 149.287L281.74 168.389Z" fill="#EB9481"/>
<path d="M265.123 163.338C262.959 164.471 260.718 165.451 258.417 166.271C255.85 167.015 253.231 167.571 250.582 167.932C250.569 167.937 250.558 167.946 250.55 167.957C250.543 167.968 250.539 167.981 250.539 167.995C250.539 168.008 250.543 168.022 250.55 168.033C250.558 168.044 250.569 168.052 250.582 168.057C255.781 167.916 260.841 166.352 265.214 163.537C265.322 163.471 265.231 163.288 265.123 163.338Z" fill="#263238"/>
<path d="M268.046 167.5C265.836 168.414 261.939 169.993 254.511 170.542C254.511 170.542 254.511 170.583 254.511 170.591C259.228 170.917 263.944 169.925 268.129 167.725C268.262 167.625 268.196 167.442 268.046 167.5Z" fill="#263238"/>
<path d="M263.226 156.699C263.999 155.868 263.542 155.419 261.498 155.785C259.454 156.15 251.685 159.358 250.796 156.558C249.907 153.757 260.942 149.387 264.39 149.03C267.505 148.869 270.628 148.96 273.729 149.304C271.751 150.583 267.065 154.14 263.226 156.699Z" fill="#EB9481"/>
<path d="M306.667 106.388C311.694 95.8106 316.28 98.6107 316.721 109.072C316.869 116.336 316.541 123.603 315.74 130.825L297.519 125.607C297.519 125.607 303.451 113.16 306.667 106.388Z" fill="#DBDBDB"/>
<path d="M311.203 100.223C312.22 100.843 313.075 101.698 313.695 102.715C312.678 102.095 311.823 101.24 311.203 100.223ZM303.982 113.617C303.973 114.205 304.043 114.792 304.19 115.362C304.337 114.792 304.406 114.205 304.398 113.617C304.407 113.031 304.337 112.447 304.19 111.88C304.047 112.448 303.977 113.031 303.982 113.617ZM313.388 115.669C312.8 115.664 312.213 115.734 311.643 115.877C312.79 116.154 313.986 116.154 315.133 115.877C314.563 115.728 313.977 115.653 313.388 115.652V115.669ZM302.362 124.177C302.773 124.598 303.236 124.964 303.741 125.266C303.121 124.248 302.266 123.394 301.248 122.773C301.556 123.288 301.93 123.76 302.362 124.177ZM315.274 125.407C315.699 125 316.065 124.536 316.362 124.028C315.345 124.648 314.49 125.503 313.87 126.521C314.386 126.215 314.859 125.84 315.274 125.407Z" fill="white"/>
<path d="M304.937 109.612C304.256 110.999 303.541 112.362 302.827 113.766C302.948 113.118 303.048 112.462 303.126 111.797H303.076C302.976 112.312 302.852 112.827 302.752 113.343C302.71 113.592 302.66 113.841 302.611 114.09C302.611 114.14 302.611 114.19 302.611 114.248C302.054 115.312 301.505 116.384 300.949 117.464C300.317 118.76 299.727 120.065 299.129 121.369C298.531 122.674 297.974 124.269 297.301 125.59C297.874 125.828 298.47 126.007 299.079 126.122C299.237 126.18 299.32 126.022 299.154 125.997C298.988 125.972 297.625 125.432 297.609 125.424C298.207 124.103 298.946 122.856 299.578 121.56C300.209 120.264 300.857 118.984 301.464 117.68C302.694 115.038 303.774 112.321 304.995 109.67C304.995 109.604 304.937 109.579 304.937 109.612Z" fill="#263238"/>
<path d="M317.476 115.91C317.31 116.45 317.119 116.99 316.978 117.572C316.928 117.804 316.87 118.029 316.812 118.261C316.878 116.367 316.939 114.478 316.995 112.595C316.737 115.686 316.471 118.768 316.272 121.859C315.983 124.819 315.847 127.792 315.865 130.766C315.318 130.637 314.763 130.551 314.203 130.509C314.807 130.766 315.44 130.947 316.089 131.049C316.546 128.058 316.579 124.751 316.729 121.743C316.77 120.912 316.795 120.081 316.828 119.192C316.928 118.669 317.078 118.153 317.219 117.638C317.36 117.123 317.468 116.525 317.585 115.976C317.543 115.893 317.485 115.877 317.476 115.91Z" fill="#263238"/>
<path d="M315 128.066C312.433 127.152 301.797 123.795 299.454 123.222C299.288 123.18 299.221 123.272 299.388 123.33C304.485 125.224 309.683 126.836 314.959 128.157C315.025 128.182 315.067 128.083 315 128.066Z" fill="#263238"/>
<path d="M225.671 125.249C228.163 126.014 227.657 122.607 227.657 122.607C227.657 122.607 229.609 127.327 232.509 127.119C235.409 126.911 234.511 122.815 234.462 122.516C234.561 122.765 236.472 127.052 239.364 126.545C242.255 126.039 240.868 122.034 240.768 121.784C240.943 121.984 243.261 124.634 245.388 123.745C249.011 122.217 243.228 115.27 243.651 112.113L248.745 112.262C248.912 112.246 249.078 112.221 249.243 112.188L249.434 109.587C247.807 108.926 246.234 108.137 244.731 107.227C242.812 106.147 240.959 105.167 239.58 105.133C238.961 105.1 238.348 105.267 237.832 105.61C237.315 105.953 236.923 106.453 236.713 107.036C236.713 107.036 235.218 104.676 232.924 105.009C231.753 105.183 230.988 107.219 230.988 107.219C230.62 106.698 230.115 106.289 229.528 106.038C228.941 105.787 228.296 105.704 227.665 105.798C226.053 106.13 225.538 108.125 225.538 108.125C225.538 108.125 223.494 106.92 221.957 107.8C218.874 109.512 220.286 123.587 225.671 125.249Z" fill="#EB9481"/>
<path d="M244.282 111.814L248.719 112.221C248.887 112.205 249.053 112.18 249.218 112.146C254.818 111.132 258.308 104.718 254.203 104.261C251.121 103.904 247.78 108 244.664 107.177L244.282 111.814Z" fill="#EB9481"/>
<path d="M225.429 108.382H225.355C224.648 113.297 225.454 118.31 227.665 122.757C227.739 122.898 227.997 122.831 227.947 122.665C226.418 118.052 225.57 113.24 225.429 108.382Z" fill="#263238"/>
<path d="M230.989 107.111C230.989 107.053 230.897 107.053 230.889 107.111C230.141 112.53 231.355 118.038 234.312 122.64C234.42 122.798 234.678 122.831 234.562 122.64C232.717 119.433 230.989 111.672 230.989 107.111Z" fill="#263238"/>
<path d="M241.1 121.984C238.233 117.464 237.095 112.478 236.671 107.194C236.671 107.128 236.572 107.144 236.555 107.194C236.065 109.836 236.688 113.176 237.386 115.736C237.995 118.122 239.219 120.308 240.934 122.075C241.017 122.15 241.166 122.084 241.1 121.984Z" fill="#263238"/>
<path d="M170.916 311.37C169.196 311.944 119.948 311.802 118.071 310.614C117.364 310.165 116.966 302.986 116.733 294.304C116.675 292.434 116.641 290.498 116.608 288.529C116.608 286.202 116.542 283.843 116.525 281.549C116.467 271.263 116.608 262.206 116.608 262.206H148.673V281.549V288.529L148.506 294.304C148.506 294.304 167.334 302.795 169.279 304.324C171.223 305.853 172.636 310.838 170.916 311.37Z" fill="#AD6359"/>
<path d="M170.915 311.37C169.195 311.944 119.948 311.802 118.07 310.614C117.364 310.165 116.965 302.986 116.733 294.304C116.674 292.434 116.641 290.498 116.608 288.529C116.608 286.202 116.542 283.843 116.525 281.549H148.656V288.529L148.489 294.304C148.489 294.304 167.318 302.795 169.262 304.324C171.206 305.853 172.635 310.838 170.915 311.37Z" fill="white"/>
<path d="M171.065 311.478C169.943 311.852 148.972 311.927 133.675 311.611C130.135 311.528 126.903 311.437 124.302 311.32C120.705 311.154 118.295 310.963 117.904 310.714C117.032 310.157 116.625 299.621 116.425 288.504H148.639L148.473 294.32C148.473 294.32 167.409 302.862 169.337 304.399C171.265 305.936 172.827 310.897 171.065 311.478Z" fill="#FFC727"/>
<path d="M170.333 309.501C162.024 309.268 128.539 309.135 120.313 309.542C120.247 309.542 120.247 309.584 120.313 309.592C128.539 309.999 162.032 309.858 170.333 309.634C170.533 309.625 170.541 309.501 170.333 309.501Z" fill="#263238"/>
<path d="M149.678 292.476C146.412 291.861 142.416 292.351 139.915 294.669C139.815 294.761 139.915 294.894 140.056 294.86C143.18 293.859 146.403 293.199 149.67 292.891C149.725 292.892 149.778 292.871 149.818 292.833C149.857 292.795 149.88 292.743 149.881 292.688C149.883 292.633 149.862 292.579 149.824 292.54C149.785 292.5 149.733 292.477 149.678 292.476Z" fill="#263238"/>
<path d="M152.054 293.921C148.788 293.298 144.792 293.788 142.282 296.115C142.191 296.198 142.282 296.339 142.424 296.306C145.553 295.299 148.781 294.633 152.054 294.32C152.097 294.308 152.135 294.281 152.162 294.245C152.189 294.21 152.203 294.166 152.203 294.121C152.203 294.076 152.189 294.032 152.162 293.996C152.135 293.96 152.097 293.934 152.054 293.921Z" fill="#263238"/>
<path d="M154.388 295.334C151.122 294.711 147.126 295.201 144.625 297.519C144.525 297.611 144.625 297.752 144.758 297.719C147.883 296.721 151.106 296.058 154.371 295.741C154.419 295.734 154.462 295.71 154.494 295.674C154.526 295.638 154.545 295.592 154.547 295.544C154.549 295.496 154.534 295.449 154.505 295.411C154.476 295.372 154.435 295.345 154.388 295.334Z" fill="#263238"/>
<path d="M156.74 296.763C153.474 296.14 149.477 296.63 146.976 298.948C146.877 299.04 146.976 299.181 147.118 299.148C150.239 298.145 153.459 297.482 156.723 297.17C156.77 297.163 156.814 297.139 156.846 297.103C156.878 297.067 156.896 297.022 156.898 296.973C156.9 296.925 156.885 296.878 156.857 296.84C156.828 296.802 156.786 296.774 156.74 296.763Z" fill="#263238"/>
<path d="M155.735 284.939C154.455 283.17 152.062 283.959 150.699 285.097C148.389 287.104 146.647 289.683 145.648 292.575C145.642 292.588 145.64 292.602 145.641 292.615C145.642 292.629 145.646 292.642 145.654 292.653C145.661 292.665 145.671 292.674 145.683 292.681C145.695 292.688 145.709 292.691 145.722 292.692C145.722 292.941 145.955 293.207 146.229 293.099C148.93 292.11 151.946 291.387 154.256 289.592C155.61 288.545 156.948 286.618 155.735 284.939ZM150.018 290.756C148.705 291.271 147.368 291.728 146.071 292.293C147.014 290.81 148.032 289.376 149.121 287.997C149.654 287.335 150.234 286.713 150.857 286.136C151.829 285.247 155.685 283.377 155.095 286.967C154.771 288.936 151.588 290.132 150.018 290.756Z" fill="#263238"/>
<path d="M137.347 291.686C140.031 292.841 143.164 292.791 145.989 293.082C146.052 293.082 146.115 293.067 146.172 293.039C146.229 293.01 146.278 292.969 146.317 292.919C146.355 292.868 146.382 292.809 146.394 292.747C146.406 292.684 146.404 292.62 146.387 292.559C146.398 292.551 146.406 292.541 146.412 292.529C146.418 292.518 146.421 292.505 146.421 292.492C146.421 292.479 146.418 292.467 146.412 292.455C146.406 292.444 146.398 292.434 146.387 292.426C144.711 289.879 142.396 287.817 139.674 286.443C138.062 285.679 135.519 285.513 134.755 287.548C133.99 289.584 135.777 291.013 137.347 291.686ZM135.877 289.36C134.414 286.036 138.61 286.867 139.773 287.49C140.519 287.904 141.238 288.365 141.926 288.87C143.324 289.932 144.666 291.066 145.947 292.268C144.551 292.044 143.147 291.936 141.743 291.761C140.064 291.553 136.683 291.188 135.877 289.36Z" fill="#263238"/>
<path d="M153.226 286.244L113.492 286.959C113.492 286.959 108.083 251.803 104.527 229.942C103.181 221.725 102.117 215.377 101.685 213.466C100.655 208.904 80.5222 136.5 80.5222 136.5L109.404 136.458H119.275C119.275 136.458 118.644 148.564 119.018 149.836C124.169 167.359 134.697 198.435 137.987 209.261C143.031 225.904 153.226 286.244 153.226 286.244Z" fill="#A6A6A6"/>
<path d="M149.611 280.154C143.911 280.112 123.687 279.888 116.093 280.594C116.082 280.598 116.073 280.606 116.066 280.615C116.06 280.625 116.056 280.636 116.056 280.648C116.056 280.66 116.06 280.671 116.066 280.681C116.073 280.69 116.082 280.698 116.093 280.702C118.71 281.076 143.911 280.494 149.62 280.311C149.632 280.315 149.646 280.315 149.658 280.312C149.671 280.31 149.683 280.304 149.693 280.296C149.704 280.287 149.712 280.277 149.717 280.265C149.722 280.253 149.725 280.24 149.724 280.227C149.723 280.214 149.72 280.201 149.713 280.19C149.706 280.178 149.697 280.169 149.686 280.161C149.675 280.154 149.663 280.15 149.65 280.148C149.637 280.147 149.624 280.149 149.611 280.154Z" fill="#263238"/>
<path d="M114.14 250.191C112.766 241.101 111.234 232.034 109.545 222.988C108.714 218.543 107.808 214.106 106.645 209.693C105.482 205.281 104.003 200.919 102.49 196.59C99.5158 187.982 96.6741 179.333 94.0069 170.625C91.3398 161.917 88.8554 153.176 86.5289 144.36C86.2298 143.247 85.9389 142.133 85.6149 141.036C85.6149 140.945 85.457 140.987 85.4736 141.036C86.3793 145.473 87.5509 149.869 88.6726 154.256C89.7943 158.643 90.9991 163.014 92.2538 167.368C94.7797 176.109 97.5189 184.789 100.471 193.408C101.942 197.695 103.471 201.974 104.775 206.32C106.08 210.666 107.094 215.069 107.999 219.506C109.836 228.513 111.398 237.578 112.843 246.643C114.289 255.709 115.527 264.923 116.74 274.063C116.898 275.218 117.048 276.381 117.197 277.545C117.239 277.869 117.754 277.869 117.721 277.545C116.782 268.43 115.494 259.298 114.14 250.191Z" fill="#263238"/>
<path d="M109.404 136.441L104.527 229.942C103.181 221.725 102.117 215.377 101.685 213.466C100.655 208.904 80.5222 136.5 80.5222 136.5L109.404 136.441Z" fill="#263238"/>
<path d="M121.634 319.247C119.914 319.82 70.6672 319.679 68.7894 318.483C68.0831 318.042 67.6843 310.863 67.4516 302.181C67.3935 300.303 67.3602 298.375 67.327 296.406C67.327 294.071 67.2605 291.72 67.2439 289.426C67.1857 279.14 67.327 270.083 67.327 270.083H99.383V296.414L99.2168 302.189C99.2168 302.189 118.045 310.681 119.989 312.209C121.934 313.738 123.354 318.682 121.634 319.247Z" fill="#AD6359"/>
<path d="M121.634 319.247C119.914 319.82 70.6669 319.679 68.7891 318.483C68.0829 318.042 67.684 310.863 67.4514 302.181C67.3932 300.303 67.36 298.375 67.3267 296.406C67.3267 294.071 67.2603 291.72 67.2437 289.426H99.3744V296.414L99.2082 302.189C99.2082 302.189 118.036 310.681 119.981 312.209C121.925 313.738 123.354 318.682 121.634 319.247Z" fill="white"/>
<path d="M121.785 319.322C120.663 319.688 99.683 319.762 84.3945 319.447C80.8632 319.372 77.631 319.272 75.022 319.164C71.4326 318.998 69.023 318.798 68.6241 318.549C67.7932 317.993 67.3445 307.465 67.1534 296.348H99.3673L99.2011 302.164C99.2011 302.164 118.154 310.697 120.082 312.201C122.009 313.705 123.513 318.74 121.785 319.322Z" fill="#FFC727"/>
<path d="M121.078 317.336C112.769 317.112 79.2752 316.971 71.0577 317.378C70.9912 317.378 70.9912 317.428 71.0577 317.436C79.2752 317.835 112.777 317.702 121.078 317.477C121.252 317.469 121.252 317.344 121.078 317.336Z" fill="#263238"/>
<path d="M100.397 300.319C97.1315 299.696 93.1349 300.186 90.6339 302.505C90.5342 302.596 90.6339 302.737 90.7668 302.704C93.8922 301.706 97.1148 301.043 100.38 300.726C100.428 300.719 100.471 300.695 100.503 300.659C100.535 300.624 100.554 300.578 100.556 300.53C100.558 300.482 100.543 300.434 100.514 300.396C100.485 300.358 100.444 300.331 100.397 300.319Z" fill="#263238"/>
<path d="M102.749 301.748C99.4832 301.125 95.4866 301.615 92.9856 303.934C92.8859 304.025 92.9856 304.166 93.1269 304.133C96.2508 303.13 99.474 302.466 102.74 302.156C102.788 302.147 102.83 302.122 102.861 302.086C102.893 302.049 102.91 302.003 102.911 301.955C102.912 301.907 102.896 301.861 102.867 301.823C102.837 301.785 102.795 301.759 102.749 301.748Z" fill="#263238"/>
<path d="M105.108 303.169C101.842 302.554 97.8458 303.045 95.3365 305.363C95.2451 305.454 95.3365 305.587 95.4778 305.554C98.6032 304.558 101.826 303.898 105.091 303.585C105.146 303.587 105.2 303.567 105.241 303.53C105.281 303.492 105.305 303.44 105.307 303.385C105.309 303.33 105.29 303.277 105.252 303.236C105.215 303.196 105.163 303.172 105.108 303.169Z" fill="#263238"/>
<path d="M107.46 304.598C104.194 303.983 100.198 304.474 97.6969 306.792C97.5972 306.883 97.6969 307.016 97.8298 306.983C100.955 305.988 104.178 305.327 107.443 305.014C107.498 305.016 107.552 304.996 107.593 304.959C107.633 304.921 107.657 304.869 107.659 304.814C107.662 304.759 107.642 304.706 107.604 304.665C107.567 304.624 107.515 304.6 107.46 304.598Z" fill="#263238"/>
<path d="M106.454 292.783C105.175 291.005 102.782 291.794 101.411 292.941C99.1002 294.948 97.358 297.526 96.359 300.419C96.3552 300.432 96.3545 300.446 96.3568 300.46C96.3591 300.473 96.3645 300.486 96.3725 300.497C96.3805 300.508 96.3909 300.518 96.4029 300.524C96.415 300.531 96.4283 300.535 96.4421 300.535C96.4383 300.599 96.4498 300.662 96.4757 300.721C96.5015 300.779 96.5408 300.83 96.5904 300.87C96.64 300.91 96.6985 300.937 96.7608 300.95C96.8232 300.962 96.8877 300.96 96.9489 300.942C99.6493 299.954 102.657 299.231 104.975 297.436C106.355 296.414 107.659 294.453 106.454 292.783ZM100.738 298.599C99.4167 299.123 98.0872 299.571 96.791 300.145C97.7798 298.691 98.7021 297.203 99.8321 295.849C100.37 295.189 100.95 294.564 101.569 293.98C102.549 293.099 106.396 291.229 105.815 294.81C105.524 296.78 102.308 297.976 100.738 298.591V298.599Z" fill="#263238"/>
<path d="M88.0753 299.53C90.7674 300.685 93.8916 300.635 96.725 300.926C96.7893 300.926 96.8529 300.912 96.9105 300.883C96.968 300.854 97.0179 300.812 97.056 300.76C97.0942 300.708 97.1194 300.648 97.1297 300.584C97.1401 300.521 97.1352 300.455 97.1155 300.394C97.1284 300.39 97.1402 300.383 97.15 300.373C97.1597 300.364 97.1673 300.352 97.1721 300.34C97.1769 300.327 97.1787 300.313 97.1776 300.3C97.1764 300.286 97.1722 300.273 97.1653 300.261C95.4722 297.718 93.1435 295.661 90.4101 294.295C88.7982 293.531 86.2557 293.365 85.4912 295.4C84.7268 297.436 86.4883 298.857 88.0753 299.53ZM86.6129 297.195C85.1506 293.872 89.3466 294.703 90.5098 295.334C91.2574 295.742 91.9763 296.2 92.6619 296.705C94.0586 297.772 95.4008 298.909 96.6834 300.112C95.2792 299.879 93.875 299.779 92.4708 299.605C90.784 299.397 87.4023 299.031 86.5963 297.195H86.6129Z" fill="#263238"/>
<path d="M103.862 293.614H64.984C64.984 293.614 73.4342 173.067 72.0716 166.312C69.8364 155.253 71.3238 142.549 76.5584 136.4H111.149C111.149 136.4 111.838 146.105 108.265 151.904C108.265 151.904 105.017 153.957 103.446 154.862L103.862 293.614Z" fill="#A6A6A6"/>
<path d="M100.24 287.324C94.8559 287.191 96.4097 287.149 91.0171 287.075C88.3832 287.033 71.0756 286.792 68.5829 287.183C68.5248 287.183 68.5248 287.282 68.5829 287.291C71.0756 287.714 88.3749 287.656 91.0171 287.64C96.4014 287.64 94.8559 287.565 100.24 287.482C100.257 287.476 100.271 287.466 100.281 287.452C100.292 287.437 100.297 287.42 100.297 287.403C100.297 287.385 100.292 287.368 100.281 287.354C100.271 287.34 100.257 287.329 100.24 287.324Z" fill="#263238"/>
<path d="M110.426 150.384C107.025 152.023 103.77 153.95 100.696 156.142C100.671 156.157 100.652 156.182 100.645 156.211C100.638 156.24 100.643 156.27 100.659 156.296C100.674 156.321 100.699 156.339 100.728 156.346C100.756 156.353 100.787 156.349 100.812 156.333C104.136 154.513 107.459 152.752 110.65 150.758C110.7 150.728 110.735 150.68 110.749 150.624C110.763 150.568 110.755 150.508 110.725 150.459C110.695 150.409 110.647 150.373 110.591 150.359C110.535 150.345 110.475 150.354 110.426 150.384Z" fill="#263238"/>
<path d="M106.015 149.885C105.818 150.556 105.662 151.239 105.55 151.929C105.408 152.471 105.372 153.035 105.442 153.591C105.442 153.699 105.616 153.691 105.666 153.591C105.927 153.068 106.106 152.507 106.198 151.929C106.364 151.29 106.547 150.658 106.688 150.018C106.788 149.611 106.148 149.47 106.015 149.885Z" fill="#263238"/>
<path d="M105.707 146.553C105.798 145.972 105.89 145.399 105.998 144.825C106.106 144.252 106.255 143.629 106.313 143.03C106.313 142.931 106.479 142.964 106.463 143.03C106.371 143.612 106.363 144.21 106.313 144.792C106.263 145.374 106.214 145.964 106.155 146.545C106.038 147.642 105.866 148.731 105.64 149.811C106.214 149.713 106.759 149.489 107.236 149.154C107.677 148.699 107.968 148.119 108.066 147.492C108.233 146.828 108.382 146.163 108.557 145.498C108.792 144.778 108.962 144.039 109.064 143.288C109.064 143.188 109.23 143.222 109.213 143.288C109.078 144.868 108.783 146.429 108.332 147.949C108.235 148.552 107.926 149.1 107.46 149.495C106.86 149.815 106.201 150.01 105.524 150.068C105.449 150.068 105.333 150.068 105.341 149.977C105.406 148.83 105.528 147.688 105.707 146.553Z" fill="#263238"/>
<path d="M77.689 165.872C77.4398 163.329 77.0243 160.804 76.7501 158.261C76.2306 153.171 76.5392 148.03 77.6641 143.039C77.6641 142.948 77.5395 142.906 77.5229 143.039C76.5391 147.423 76.0816 151.908 76.1602 156.4C76.3845 160.887 77.1822 165.307 77.2487 169.802C77.3151 174.297 76.9662 178.9 76.6753 183.437C76.3845 187.974 76.0854 192.577 75.7946 197.139C74.6147 215.493 73.5262 233.848 72.4045 252.21C72.0943 257.329 71.7952 262.453 71.5072 267.582C71.208 272.792 70.8424 278.01 70.6763 283.236C70.6763 283.685 71.3244 283.652 71.3659 283.236C72.147 274.021 72.5956 264.774 73.1856 255.559C73.7755 246.344 74.299 237.279 74.8474 228.139C75.3958 218.999 75.9525 209.86 76.5092 200.72C76.7751 196.155 77.052 191.591 77.3401 187.027C77.606 182.482 77.9383 177.928 78.0048 173.375C78.0413 170.87 77.9359 168.365 77.689 165.872Z" fill="#263238"/>
<path d="M89.9366 142.698C89.9291 142.686 89.9188 142.676 89.9064 142.669C89.894 142.663 89.8801 142.659 89.866 142.659C89.8518 142.659 89.8379 142.663 89.8256 142.669C89.8132 142.676 89.8028 142.686 89.7954 142.698C89.589 143.3 89.4796 143.931 89.4713 144.568C89.3637 145.249 89.2054 145.921 88.9977 146.579C88.6162 147.901 87.9009 149.103 86.9204 150.068C84.7435 152.104 81.8271 152.86 79.0186 153.541C79 153.547 78.9838 153.559 78.9722 153.575C78.9607 153.59 78.9545 153.609 78.9545 153.629C78.9545 153.648 78.9607 153.667 78.9722 153.683C78.9838 153.699 79 153.71 79.0186 153.716C80.6874 153.791 82.3543 153.531 83.9209 152.952C85.3184 152.524 86.6077 151.802 87.7015 150.833C88.7459 149.839 89.4594 148.548 89.7455 147.135C89.894 146.396 89.9719 145.645 89.9781 144.892C89.9781 144.535 89.9781 144.177 89.9781 143.812C90.0377 143.441 90.0236 143.063 89.9366 142.698Z" fill="#263238"/>
<path d="M106.221 96.0682C106.936 101.718 118.004 122.723 129.786 132.029C134.106 135.444 157.014 137.463 162.747 137.015C169.453 136.5 170.458 120.538 166.702 119.292C162.008 117.738 140.288 115.819 136.026 114.306C130.841 112.429 121.402 100.372 112.428 92.9107C107.817 89.0471 105.673 91.7226 106.221 96.0682Z" fill="#AD6359"/>
<path d="M162.748 137.023C164.867 136.965 174.563 135.852 177.197 134.938C179.831 134.024 187.168 130.85 186.703 128.764C186.237 126.679 183.977 127.435 183.977 127.435C183.977 127.435 186.877 125.598 186.187 123.546C185.498 121.494 182.033 122.79 182.033 122.79C182.033 122.79 184.875 120.688 184.035 118.685C183.196 116.683 179.964 118.569 179.964 118.569C179.964 118.569 182.656 116.766 181.277 115.403C179.615 113.741 175.029 117.655 172.054 118.444C171.373 118.627 158.078 121.112 158.078 121.112L162.748 137.023Z" fill="#AD6359"/>
<path d="M180.305 118.411C176.923 121.253 174.954 121.917 170.65 122.507C170.635 122.512 170.622 122.522 170.613 122.535C170.604 122.547 170.6 122.562 170.6 122.578C170.6 122.593 170.604 122.609 170.613 122.621C170.622 122.634 170.635 122.643 170.65 122.648C174.912 122.449 177.505 121.975 180.446 118.569C180.571 118.403 180.438 118.278 180.305 118.411Z" fill="#263238"/>
<path d="M182.323 122.557C178.559 125.249 176.432 125.939 171.995 126.911C171.937 126.911 171.954 127.036 171.995 127.027C176.449 126.454 179.025 125.922 182.44 122.782C182.581 122.624 182.498 122.433 182.323 122.557Z" fill="#263238"/>
<path d="M183.744 127.476C179.914 129.778 177.612 130.684 173.158 131.057C173.136 131.057 173.115 131.066 173.1 131.082C173.084 131.097 173.075 131.118 173.075 131.141C173.075 131.163 173.084 131.184 173.1 131.199C173.115 131.215 173.136 131.224 173.158 131.224C177.041 131.458 180.861 130.157 183.794 127.601C184.018 127.426 183.985 127.335 183.744 127.476Z" fill="#263238"/>
<path d="M155.003 119.366C157.241 117.92 159.583 116.64 162.008 115.536C164.351 114.705 174.239 114.705 174.347 116.849C174.496 119.607 168.788 120.713 165.921 120.895C165.921 120.895 166.279 127.268 162.349 128.955C158.418 130.642 155.003 119.366 155.003 119.366Z" fill="#AD6359"/>
<path d="M174.147 117.622C172.486 120.231 168.688 120.222 165.922 120.605C165.88 120.607 165.839 120.619 165.803 120.641C165.768 120.663 165.738 120.694 165.717 120.73C165.697 120.767 165.686 120.808 165.685 120.85C165.684 120.892 165.694 120.933 165.714 120.97C165.714 123.654 164.883 127.426 162.515 129.013C162.44 129.063 162.515 129.171 162.573 129.13C165.323 127.767 166.437 124.144 166.279 121.178C169.121 120.837 172.926 120.679 174.172 117.63C174.181 117.613 174.156 117.605 174.147 117.622Z" fill="#263238"/>
<path d="M142.955 136.716C142.955 136.716 131.223 133.509 129.794 132.387C128.235 131.161 126.748 129.846 125.34 128.448C114.663 117.954 108.216 103.646 106.471 98.6608C104.626 93.3513 106.321 88.2663 111.265 91.6896C111.663 91.9711 112.046 92.2735 112.412 92.5952C118.228 97.6637 133.782 113.077 135.677 113.866C137.571 114.656 146.703 115.852 146.703 115.852L142.955 136.716Z" fill="#455A64"/>
<path d="M125.34 128.448C114.663 117.954 108.216 103.646 106.471 98.6608C104.626 93.3513 106.321 88.2663 111.265 91.6896L125.34 128.448Z" fill="#263238"/>
<path d="M142.914 115.486C142.368 117.09 141.916 118.724 141.56 120.38C141.153 122.042 140.729 123.704 140.388 125.366C139.649 128.625 139.094 131.923 138.727 135.245C138.727 135.265 138.734 135.284 138.748 135.298C138.762 135.312 138.782 135.32 138.801 135.32C138.821 135.32 138.84 135.312 138.854 135.298C138.868 135.284 138.876 135.265 138.876 135.245C139.773 131.988 140.438 128.656 141.12 125.349C141.46 123.687 141.768 122.075 142.108 120.447C142.449 118.818 142.856 117.123 143.039 115.511C143.042 115.495 143.039 115.478 143.029 115.464C143.02 115.45 143.006 115.44 142.989 115.437C142.973 115.433 142.955 115.437 142.941 115.446C142.927 115.455 142.918 115.47 142.914 115.486Z" fill="#263238"/>
<path d="M117.605 107.576C117.879 108.806 118.095 110.069 118.261 111.365C118.257 111.315 118.257 111.265 118.261 111.215C118.328 110.509 118.378 109.786 118.502 109.088C118.502 109.088 118.569 109.047 118.569 109.088C118.612 109.807 118.584 110.527 118.486 111.24C118.444 111.581 118.402 111.922 118.353 112.254C118.411 112.827 118.461 113.401 118.494 113.966C118.56 115.046 118.768 119.657 118.743 120.447C118.743 120.613 118.552 120.629 118.51 120.447C118.353 119.616 117.937 114.888 117.821 113.799C117.603 111.724 117.498 109.638 117.505 107.551C117.522 107.526 117.588 107.535 117.605 107.576Z" fill="#263238"/>
<path d="M118.926 142.092C117.265 143.587 115.237 145.772 103.571 146.587C102.84 146.587 102.092 146.645 101.345 146.587C90.1108 146.271 74.3487 137.447 73.4098 136.749C73.4098 136.749 85.516 103.995 101.527 91.4236C103.812 89.6205 108.715 90.5096 111.781 92.3625C112.877 93.0272 116.5 99.0844 117.231 104.602C117.962 110.119 120.58 140.596 118.926 142.092Z" fill="#455A64"/>
<path d="M109.829 100.572C107.004 100.804 102.957 95.9186 101.628 92.2627C101.536 92.0134 102.268 89.6287 103.015 86.6874C103.464 84.9009 103.921 82.9068 104.204 81.0539C104.262 80.6717 105.45 81.569 105.45 81.569L107.76 82.5163L115.404 85.657C114.383 87.8728 113.638 90.2058 113.186 92.6033C113.161 92.8631 113.161 93.1246 113.186 93.3844C113.189 93.4258 113.189 93.4676 113.186 93.509C113.161 94.9797 112.554 100.322 109.829 100.572Z" fill="#AD6359"/>
<path d="M113.152 93.3762C113.155 93.4176 113.155 93.4593 113.152 93.5008C112.747 93.4957 112.344 93.4567 111.947 93.3845C104.136 92.0135 104.693 81.9015 104.693 81.9015L107.767 82.508L115.412 85.6488C114.39 87.8646 113.645 90.1975 113.193 92.5951C113.155 92.8536 113.141 93.1151 113.152 93.3762Z" fill="#263238"/>
<path d="M103.413 68.8813C101.926 72.986 103.513 85.1337 106.338 87.9919C110.435 92.1464 117.456 92.8361 121.02 87.8341C124.485 82.9983 122.134 67.1946 118.951 64.569C114.257 60.7219 105.607 62.8241 103.413 68.8813Z" fill="#AD6359"/>
<path d="M114.481 77.29C114.481 77.29 114.423 77.3399 114.431 77.3731C114.556 78.204 114.573 79.1429 113.858 79.5085C113.858 79.5085 113.858 79.5584 113.858 79.5501C114.764 79.3091 114.739 78.0378 114.481 77.29Z" fill="#263238"/>
<path d="M113.642 76.5256C112.312 76.5921 112.545 79.2426 113.775 79.1845C115.004 79.1263 114.755 76.4674 113.642 76.5256Z" fill="#263238"/>
<path d="M119.516 76.7416C119.516 76.7416 119.582 76.7416 119.582 76.8081C119.632 77.6389 119.823 78.5696 120.588 78.7856C119.649 78.7773 119.424 77.5309 119.516 76.7416Z" fill="#263238"/>
<path d="M120.181 75.8192C121.494 75.6115 121.842 78.2538 120.604 78.4532C119.366 78.6526 119.076 76.002 120.181 75.8192Z" fill="#263238"/>
<path d="M112.611 74.5647C112.96 74.44 113.267 74.2655 113.608 74.1077C113.979 73.9996 114.303 73.7717 114.53 73.4596C114.586 73.3478 114.602 73.2207 114.576 73.0986C114.551 72.9766 114.485 72.8667 114.389 72.7865C114.173 72.6618 113.928 72.5962 113.679 72.5962C113.429 72.5962 113.184 72.6618 112.968 72.7865C112.491 72.9665 112.1 73.3196 111.872 73.7753C111.83 73.8807 111.819 73.9958 111.84 74.1071C111.861 74.2184 111.914 74.3214 111.991 74.4041C112.069 74.4868 112.168 74.5458 112.278 74.5743C112.388 74.6027 112.503 74.5993 112.611 74.5647Z" fill="#263238"/>
<path d="M121.012 74.922C120.648 74.882 120.288 74.8209 119.931 74.7392C119.543 74.7267 119.169 74.5865 118.868 74.3403C118.794 74.2422 118.754 74.1227 118.754 73.9997C118.754 73.8767 118.794 73.7571 118.868 73.659C119.039 73.4774 119.256 73.3458 119.496 73.2785C119.736 73.2111 119.99 73.2105 120.23 73.2768C120.739 73.3295 121.21 73.5693 121.552 73.9498C121.623 74.0436 121.666 74.1563 121.675 74.2741C121.683 74.3919 121.657 74.5096 121.6 74.6128C121.543 74.716 121.456 74.8002 121.352 74.8552C121.247 74.9101 121.129 74.9333 121.012 74.922Z" fill="#263238"/>
<path d="M118.361 81.2118C118.444 81.8097 118.497 82.4115 118.518 83.0148C117.395 83.0194 116.277 83.1759 115.195 83.4801C114.946 83.5632 114.946 83.3472 115.195 83.181C116.041 82.6773 117.021 82.4426 118.003 82.508C118.003 82.3501 117.721 80.6302 117.812 80.6218C118.259 80.6673 118.697 80.7706 119.117 80.9293C118.859 78.3701 118.194 75.8691 117.97 73.3183C117.97 73.2269 118.095 73.1936 118.12 73.2767C118.923 75.9332 119.454 78.6642 119.707 81.4278C119.781 81.7519 118.593 81.3032 118.361 81.2118Z" fill="#263238"/>
<path d="M104.295 79.01C106.389 78.8604 106.123 73.7421 106.123 73.7421C106.123 73.7421 109.313 73.1272 110.817 68.7567C110.817 68.7567 114.972 71.2494 118.403 70.6179C123.788 69.571 123.555 62.5499 121.519 61.1457C118.628 59.1516 113.559 62.1677 113.559 62.1677C113.559 62.1677 105.815 60.1154 103.589 65.3667C102.589 65.4486 101.657 65.9066 100.982 66.6483C100.306 67.39 99.9374 68.3602 99.9492 69.3633C99.7498 73.1439 102.741 79.118 104.295 79.01Z" fill="#263238"/>
<path d="M105.382 74.3569C106.932 74.0702 108.341 73.2749 109.387 72.0969C109.949 71.46 110.349 70.6969 110.553 69.8724C110.757 69.0478 110.759 68.1862 110.559 67.3608C110.564 67.3461 110.573 67.3334 110.586 67.3244C110.599 67.3154 110.614 67.3105 110.629 67.3105C110.645 67.3105 110.66 67.3154 110.673 67.3244C110.685 67.3334 110.695 67.3461 110.7 67.3608C110.949 68.225 111.003 69.1335 110.859 70.0213C110.716 70.909 110.378 71.754 109.869 72.4957C109.361 73.1987 108.678 73.757 107.889 74.1155C107.099 74.474 106.229 74.6202 105.366 74.5397C105.316 74.4982 105.291 74.3735 105.382 74.3569Z" fill="#263238"/>
<path d="M113.351 62.4003C114.018 61.2986 115.064 60.4775 116.292 60.0905C117.786 59.6665 119.384 59.8085 120.779 60.4893C121.334 60.7802 121.803 61.2121 122.138 61.7415C122.474 62.2709 122.664 62.8792 122.69 63.5054C122.707 64.9583 122.223 66.3725 121.319 67.5103C121.319 67.5103 121.244 67.5103 121.269 67.5103C121.99 66.4362 122.359 65.1643 122.325 63.871C122.302 63.2557 122.106 62.6593 121.759 62.1506C121.412 61.6419 120.928 61.2417 120.364 60.9961C118.137 60.0406 114.896 60.24 113.467 62.5084C113.426 62.5582 113.301 62.4751 113.351 62.4003Z" fill="#263238"/>
<path d="M105.524 78.8188C105.524 78.8188 102.924 74.8388 101.121 75.7611C99.3176 76.6834 101.204 82.4083 103.256 83.2392C103.511 83.364 103.789 83.4358 104.073 83.4505C104.357 83.4652 104.641 83.4223 104.908 83.3246C105.175 83.2268 105.42 83.0761 105.627 82.8815C105.834 82.6869 106 82.4525 106.114 82.1922L105.524 78.8188Z" fill="#AD6359"/>
<path d="M101.66 77.3813C101.66 77.3813 101.66 77.4229 101.66 77.4395C102.317 77.7927 102.893 78.28 103.349 78.8697C103.806 79.4594 104.133 80.1384 104.311 80.8628C104.231 80.7136 104.12 80.5835 103.985 80.4817C103.85 80.3798 103.695 80.3086 103.529 80.273C103.364 80.2374 103.193 80.2383 103.028 80.2756C102.863 80.3129 102.708 80.3857 102.574 80.4889C102.574 80.4889 102.574 80.572 102.574 80.5637C102.832 80.4904 103.107 80.499 103.36 80.5883C103.613 80.6775 103.832 80.8432 103.987 81.0622C104.245 81.4311 104.462 81.8266 104.635 82.2421C104.701 82.375 104.934 82.3086 104.892 82.159C105.009 80.2729 103.646 77.6306 101.66 77.3813Z" fill="#263238"/>
<path d="M27.1454 334.901H0V329.916H27.1454C48.649 329.916 54.781 311.511 56.1354 296.073C57.1989 283.984 57.847 269.26 58.5367 253.698C61.1207 195.385 63.7962 135.087 87.2607 135.087H108.764V140.073H87.2441C68.549 140.073 65.6408 205.871 63.5054 253.905C62.8075 269.551 62.1511 284.325 61.0875 296.53C58.9272 321.266 46.8709 334.901 27.1454 334.901Z" fill="#FFC727"/>
<path opacity="0.2" d="M108.765 135.062V140.048H91.6154L90.5519 135.062H108.765Z" fill="black"/>
<path d="M183.363 169.76H192.519V105.798H183.363V169.76Z" fill="#FFC727"/>
<path d="M183.362 108.831H148.564V166.063H183.362V108.831Z" fill="#FFC727"/>
<path opacity="0.2" d="M183.362 108.831V166.063H174.721L170.841 108.831H183.362Z" fill="black"/>
<path d="M95.8517 142.648H121.668V132.453H95.8517V142.648Z" fill="#FFC727"/>
<path d="M121.668 132.461H95.8521V142.657H121.668V132.461Z" fill="#FFC727"/>
<path opacity="0.2" d="M112.603 142.648L113.451 132.461H121.668V142.648H112.603Z" fill="black"/>
<path d="M148.564 162.673H126.778C125.422 162.673 124.123 162.134 123.164 161.176C122.206 160.218 121.668 158.918 121.668 157.563V117.979C121.668 116.624 122.206 115.324 123.164 114.366C124.123 113.407 125.422 112.869 126.778 112.869H148.564V162.673Z" fill="#FFC727"/>
<path opacity="0.2" d="M137.115 162.673L140.995 112.877H148.565V162.673H137.115Z" fill="black"/>
<g opacity="0.2">
<path opacity="0.2" d="M139.117 152.603H140.837V122.94H139.117V152.603Z" fill="black"/>
<path opacity="0.2" d="M134.256 152.603H135.976V122.94H134.256V152.603Z" fill="black"/>
<path opacity="0.2" d="M129.387 152.603H131.107V122.94H129.387V152.603Z" fill="black"/>
</g>
<path d="M94.2645 102.94C93.4336 114.938 92.4863 139.374 97.7875 146.545C104.742 155.951 124.376 161.659 130.192 163.371C132.685 164.11 138.659 147.584 137.18 145.207C135.701 142.831 115.436 137.729 113.84 136.333C112.245 134.938 107.193 115.461 104.792 105.54C101.684 93.0271 94.6051 98.2036 94.2645 102.94Z" fill="#AD6359"/>
<path d="M152.154 151.556C155.353 152.32 160.205 150.675 160.363 153.126C160.504 155.303 157.039 156.109 157.039 156.109C157.039 156.109 161.244 156.466 160.729 158.851C160.214 161.236 156.225 161.344 156.225 161.344C156.225 161.344 160.081 161.867 159.391 164.21C158.701 166.553 155.004 166.877 155.004 166.877C155.004 166.877 155.976 167.6 154.746 169.038C152.993 171.098 147.144 170.857 144.127 170.01C141.111 169.162 130.667 163.811 129.08 162.956L134.373 143.513C134.373 143.513 140.446 142.549 143.587 142.432C146.728 142.316 157.172 144.809 156.732 147.418C156.292 150.027 148.938 148.166 147.036 148.099C145.133 148.033 144.8 148.456 145.631 149.154C146.171 149.645 150.733 151.215 152.154 151.556Z" fill="#AD6359"/>
<path d="M156.849 156.067C151.938 156.898 149.645 156.35 145.142 154.406C145.05 154.364 144.975 154.489 145.067 154.539C149.304 156.823 152.088 157.862 156.899 156.292C157.14 156.225 157.09 156.034 156.849 156.067Z" fill="#263238"/>
<path d="M156.417 161.26C151.24 161.634 148.756 161.111 143.887 159.432C143.82 159.432 143.77 159.524 143.837 159.557C148.482 161.593 151.273 162.581 156.4 161.526C156.633 161.485 156.658 161.244 156.417 161.26Z" fill="#263238"/>
<path d="M154.937 166.844C149.894 166.844 147.143 166.379 142.623 164.152C142.603 164.142 142.579 164.14 142.556 164.146C142.534 164.153 142.515 164.168 142.504 164.188C142.492 164.208 142.488 164.232 142.494 164.255C142.499 164.277 142.513 164.297 142.532 164.31C146.919 167.035 150.351 167.634 154.921 167.002C155.228 166.952 155.253 166.844 154.937 166.844Z" fill="#263238"/>
<path d="M114.864 159.474C114.864 159.474 99.0184 151.514 96.5838 145.415C93.5926 137.804 92.3712 115.611 93.5344 104.228C94.6977 92.8444 102.624 94.2569 105.167 104.319C107.66 114.14 113.285 133.758 113.866 134.68C114.606 135.868 123.646 138.103 123.646 138.103" fill="#455A64"/>
<path d="M113.277 132.137C113.002 131.199 112.52 129.08 112.246 128.166C111.69 126.338 111.133 124.502 110.584 122.674C110.036 120.846 109.446 119.009 108.84 117.19C108.732 116.882 108.632 116.566 108.532 116.259C108.582 116.06 108.358 113.65 108.374 113.06C108.374 112.969 108.225 112.96 108.233 113.06C108.255 113.651 108.236 114.242 108.175 114.83C108.175 114.938 108.175 115.054 108.175 115.162C107.793 113.966 107.41 112.778 107.02 111.614C107.02 111.531 106.854 111.564 106.879 111.614C107.626 114.107 107.992 115.677 108.54 117.696C109.089 119.716 109.654 121.593 110.202 123.513C110.751 125.432 111.39 127.385 111.997 129.329C112.338 130.481 112.737 131.616 113.193 132.727C113.542 133.475 113.559 133.126 113.277 132.137Z" fill="#263238"/>
<path d="M95.4035 138.843C95.0795 136.79 94.7554 134.688 94.5062 132.661C93.9993 128.506 93.6753 124.418 93.4925 120.264C93.3845 117.888 93.21 115.528 93.077 113.16C93.077 113.136 93.0674 113.112 93.0503 113.095C93.0331 113.078 93.0099 113.068 92.9856 113.068C92.9614 113.068 92.9382 113.078 92.921 113.095C92.9039 113.112 92.8942 113.136 92.8942 113.16C92.8942 115.27 92.8195 117.372 92.8942 119.483C92.8942 119.79 92.8942 120.098 92.8942 120.405L92.7945 119.973C92.4871 118.768 92.055 117.588 91.7891 116.367C91.7819 116.353 91.7698 116.342 91.7551 116.336C91.7404 116.33 91.7241 116.329 91.709 116.334C91.694 116.339 91.6812 116.35 91.673 116.363C91.6649 116.377 91.6619 116.393 91.6645 116.409C91.9636 117.622 92.1215 118.901 92.404 120.089C92.5536 120.696 92.7031 121.303 92.8693 121.909L92.9524 122.167C93.0023 123.38 93.0604 124.593 93.1435 125.806C93.3688 129.969 93.8489 134.115 94.581 138.22C95.083 140.904 95.8084 143.541 96.7496 146.105C96.7543 146.118 96.7628 146.128 96.774 146.136C96.7851 146.144 96.7983 146.148 96.8119 146.148C96.8255 146.148 96.8387 146.144 96.8499 146.136C96.861 146.128 96.8695 146.118 96.8742 146.105C96.384 144.053 95.7359 140.895 95.4035 138.843Z" fill="#263238"/>
<path d="M120.705 138.095C119.837 139.587 119.06 141.129 118.378 142.715C117.647 144.277 116.908 145.839 116.218 147.418C114.82 150.526 113.596 153.711 112.554 156.956C112.552 156.974 112.556 156.993 112.565 157.008C112.575 157.024 112.589 157.036 112.606 157.043C112.623 157.049 112.642 157.05 112.66 157.045C112.677 157.04 112.692 157.029 112.703 157.014C114.249 153.94 115.57 150.741 116.916 147.575C117.581 146.013 118.22 144.435 118.877 142.873C119.533 141.311 120.281 139.74 120.788 138.128C120.805 138.078 120.73 138.053 120.705 138.095Z" fill="#263238"/>
<path d="M207.857 95.0962C207.747 95.0962 207.641 95.0524 207.563 94.9745C207.486 94.8966 207.442 94.7909 207.442 94.6808V82.99C207.442 82.8798 207.486 82.7742 207.563 82.6963C207.641 82.6184 207.747 82.5746 207.857 82.5746C207.967 82.5746 208.073 82.6184 208.151 82.6963C208.229 82.7742 208.273 82.8798 208.273 82.99V94.6808C208.273 94.7909 208.229 94.8966 208.151 94.9745C208.073 95.0524 207.967 95.0962 207.857 95.0962Z" fill="#263238"/>
<path d="M186.703 100.696C186.629 100.697 186.556 100.677 186.492 100.641C186.428 100.605 186.375 100.552 186.337 100.489L180.521 90.36C180.487 90.313 180.463 90.2593 180.451 90.2025C180.438 90.1456 180.438 90.0869 180.45 90.03C180.462 89.9731 180.486 89.9194 180.52 89.8722C180.554 89.8251 180.598 89.7857 180.648 89.7565C180.698 89.7273 180.754 89.7089 180.812 89.7026C180.87 89.6963 180.928 89.7023 180.984 89.72C181.039 89.7377 181.09 89.7668 181.133 89.8055C181.177 89.8442 181.211 89.8916 181.235 89.9445L187.052 100.073C187.08 100.12 187.098 100.172 187.106 100.226C187.114 100.28 187.11 100.335 187.096 100.387C187.083 100.44 187.058 100.489 187.025 100.532C186.991 100.576 186.95 100.612 186.902 100.638C186.842 100.675 186.773 100.695 186.703 100.696Z" fill="#263238"/>
<path d="M180.62 184.052C180.547 184.053 180.475 184.032 180.413 183.994C180.366 183.964 180.326 183.925 180.295 183.879C180.265 183.833 180.244 183.781 180.233 183.726C180.223 183.672 180.224 183.616 180.237 183.562C180.249 183.508 180.272 183.457 180.305 183.412L186.121 173.292C186.148 173.244 186.185 173.203 186.228 173.169C186.271 173.136 186.321 173.111 186.374 173.097C186.426 173.083 186.482 173.079 186.536 173.086C186.59 173.093 186.643 173.111 186.69 173.138C186.738 173.165 186.779 173.202 186.813 173.245C186.846 173.289 186.871 173.338 186.885 173.391C186.899 173.444 186.903 173.499 186.896 173.553C186.889 173.608 186.871 173.66 186.844 173.707L181.027 183.828C180.99 183.901 180.931 183.962 180.858 184.002C180.786 184.042 180.703 184.059 180.62 184.052Z" fill="#263238"/>
<path d="M207.59 191.347C207.48 191.347 207.375 191.304 207.297 191.226C207.219 191.148 207.175 191.042 207.175 190.932V179.258C207.175 179.148 207.219 179.042 207.297 178.964C207.375 178.886 207.48 178.842 207.59 178.842C207.7 178.844 207.804 178.889 207.882 178.966C207.959 179.044 208.004 179.148 208.006 179.258V190.948C208.002 191.056 207.956 191.157 207.878 191.232C207.801 191.306 207.698 191.347 207.59 191.347Z" fill="#263238"/>
<path d="M234.595 184.185C234.523 184.184 234.452 184.165 234.389 184.129C234.326 184.092 234.274 184.04 234.238 183.977L228.422 173.857C228.395 173.809 228.377 173.757 228.37 173.703C228.363 173.648 228.367 173.593 228.381 173.54C228.395 173.488 228.42 173.438 228.453 173.395C228.487 173.351 228.528 173.315 228.576 173.288C228.623 173.26 228.675 173.243 228.73 173.236C228.784 173.229 228.839 173.232 228.892 173.247C228.945 173.261 228.994 173.285 229.038 173.319C229.081 173.352 229.117 173.394 229.145 173.441L234.961 183.562C234.989 183.608 235.008 183.66 235.015 183.714C235.023 183.768 235.02 183.823 235.006 183.876C234.992 183.928 234.967 183.978 234.934 184.021C234.901 184.064 234.859 184.1 234.811 184.127C234.747 184.167 234.672 184.187 234.595 184.185Z" fill="#263238"/>
<path d="M228.978 100.829C228.905 100.83 228.833 100.81 228.771 100.771C228.723 100.745 228.682 100.709 228.648 100.666C228.615 100.622 228.59 100.573 228.576 100.52C228.562 100.468 228.559 100.413 228.567 100.359C228.575 100.305 228.593 100.253 228.621 100.206L234.437 90.0776C234.498 89.9944 234.587 89.9366 234.688 89.9154C234.788 89.8942 234.893 89.9111 234.982 89.9628C235.071 90.0145 235.138 90.0973 235.169 90.1953C235.2 90.2932 235.194 90.3993 235.152 90.493L229.336 100.622C229.298 100.683 229.246 100.735 229.184 100.771C229.121 100.807 229.051 100.827 228.978 100.829Z" fill="#263238"/>
</svg>
