<svg width="73" height="17" viewBox="0 0 73 17" fill="none" xmlns="http://www.w3.org/2000/svg">
<path d="M72.223 6.16882H68.7226L66.8175 8.9236L64.897 6.16882H61.3965L65.0828 11.3966L61.3965 16.7027H64.7885L66.8175 13.854L68.831 16.7027H72.223L68.5368 11.3966L72.223 6.16882Z" fill="#6497B1"/>
<path d="M56.8583 5.87134C56.2078 5.87134 55.6657 6.01221 55.1855 6.24699C54.5505 6.56003 54.0239 7.09221 53.6831 7.71829L53.6057 7.85916C53.141 6.84177 52.2272 5.96525 50.4305 5.96525C49.145 5.96525 48.2157 6.51308 47.5342 7.28003V6.12177H44.7927V16.6557H47.5342V10.6296C47.5342 9.76872 48.0143 8.95481 48.7888 8.59481C49.0366 8.48525 49.2999 8.42264 49.5942 8.42264C50.1672 8.42264 50.5854 8.75133 50.8797 9.15829C51.1585 9.53394 51.2979 10.0035 51.2979 10.4731V16.687H54.0394V10.52C54.0394 10.4574 54.0394 10.3792 54.0394 10.3165C54.0394 9.92525 54.1478 9.53394 54.3801 9.20525C54.597 8.90786 54.8758 8.67307 55.2165 8.51655C55.4643 8.40699 55.7276 8.34438 56.0219 8.34438C56.595 8.34438 57.0132 8.67307 57.3074 9.08003C57.5862 9.45568 57.7256 9.92525 57.7256 10.3948V16.687H60.4671V10.4418C60.5445 9.23655 60.3897 5.87134 56.8583 5.87134Z" fill="#6497B1"/>
<path d="M42.4695 5.93396C41.2149 5.94961 40.0223 6.49744 39.2014 7.45222V5.96526H36.2741V16.7183H39.2014V12.0853C39.2014 11.5844 39.3408 11.0835 39.6196 10.6609C40.3476 9.54961 41.5712 8.87656 42.8877 8.86091L42.9187 8.87657V5.93396H42.4695Z" fill="#13224A"/>
<path d="M29.4127 14.527C27.9568 14.527 26.7796 13.4157 26.7487 12.0226H31.5656H34.4929C34.5084 11.7722 34.5239 11.5218 34.5239 11.2557C34.5239 8.09396 32.5259 5.51135 29.4437 5.51135C26.3614 5.51135 23.8678 8.07831 23.8678 11.2557C23.8678 14.4174 26.3614 17 29.4437 17C31.8908 17 33.5017 15.7948 34.1677 13.7131L31.8908 12.8522C31.5501 13.8226 30.5743 14.527 29.4127 14.527ZM29.2733 7.82787C30.5433 7.82787 31.5656 8.86091 31.5811 10.1287H26.9655C26.981 8.86091 28.0032 7.82787 29.2733 7.82787Z" fill="#13224A"/>
<path d="M17.7499 14.073V8.6261H15.8138V6.16871H16.5573C17.2233 6.16871 17.7499 5.62088 17.7499 4.96349V2.92871H20.6463V6.16871H22.7992V8.6261H20.6463V13.4939C20.6463 13.9165 20.987 14.2609 21.4052 14.2609H22.8146V16.7183H20.383C18.9115 16.7183 17.7499 15.5443 17.7499 14.073Z" fill="#13224A"/>
<path d="M10.9814 5.79309C9.66484 5.79309 8.72004 6.35657 8.03854 7.13918V5.94961H5.25061V16.6713H8.03854V10.5513C8.03854 9.67482 8.51869 8.84526 9.32409 8.48526C9.57191 8.3757 9.8507 8.29744 10.145 8.29744C10.7181 8.29744 11.1517 8.62613 11.4615 9.04874C11.7403 9.44004 11.8797 9.90961 11.8797 10.3792V16.6713H14.6676V10.4418C14.7296 9.20526 14.5592 5.79309 10.9814 5.79309Z" fill="#13224A"/>
<path d="M3.09775 5.94958H0.309814V16.6713H3.09775V5.94958Z" fill="#13224A"/>
<path d="M3.50041 2.56874C3.50041 3.53918 2.72598 4.33744 1.7502 4.33744C0.789914 4.33744 0 3.55483 0 2.56874C0 1.59831 0.774426 0.800049 1.7502 0.800049C2.72598 0.815701 3.50041 1.59831 3.50041 2.56874Z" fill="#13224A"/>
</svg>
