<svg xmlns="http://www.w3.org/2000/svg" xmlns:xlink="http://www.w3.org/1999/xlink" width="512" height="512" version="1.1" style=""><rect id="backgroundrect" width="100%" height="100%" x="0" y="0" fill="none" stroke="none"/>
    <!-- Generator: Sketch 51.2 (57519) - http://www.bohemiancoding.com/sketch -->
    <title>icon-place-radius</title>
    <desc>Created with Sketch.</desc>
    <defs/>
    
<g class="currentLayer" style=""><title>Layer 1</title><g id="icon-place-radius" stroke="none" stroke-width="1" fill="#919191" fill-rule="evenodd" class="selected" fill-opacity="1">
        <path d="M256.047619,0 C336.748571,0 402.333333,64.8533333 402.333333,145.066667 C402.333333,253.805714 256.047619,414.47619 256.047619,414.47619 C256.047619,414.47619 109.761905,253.805714 109.761905,145.066667 C109.761905,64.8533333 175.346667,0 256.047619,0 Z M256.047619,97.5238095 C229.117163,97.5238095 207.285714,119.355258 207.285714,146.285714 C207.285714,173.216171 229.117163,195.047619 256.047619,195.047619 C282.978075,195.047619 304.809524,173.216171 304.809524,146.285714 C304.809524,119.355258 282.978075,97.5238095 256.047619,97.5238095 Z M451.095238,414.47619 C451.095238,468.358095 363.811429,512 256.047619,512 C148.28381,512 61,468.358095 61,414.47619 C61,383.024762 90.7447619,354.986667 136.824762,337.188571 L152.428571,359.375238 C126.097143,370.346667 109.761905,385.462857 109.761905,402.285714 C109.761905,435.931429 175.346667,463.238095 256.047619,463.238095 C336.748571,463.238095 402.333333,435.931429 402.333333,402.285714 C402.333333,385.462857 385.998095,370.346667 359.666667,359.375238 L375.270476,337.188571 C421.350476,354.986667 451.095238,383.024762 451.095238,414.47619 Z" id="Shape" fill="#919191" fill-rule="nonzero" fill-opacity="1"/>
    </g></g></svg>