<svg width="485" height="93" viewBox="0 0 485 93" fill="none" xmlns="http://www.w3.org/2000/svg">
<path d="M0 0H485V88C485 90.7614 482.761 93 480 93H5C2.23858 93 0 90.7614 0 88V0Z" fill="#F9F9F9"/>
<path d="M34.404 42.748C34.348 42.4493 34.236 42.1227 34.068 41.768C33.9187 41.3947 33.6853 41.0587 33.368 40.76C33.0693 40.4613 32.6867 40.2093 32.22 40.004C31.7533 39.7987 31.184 39.696 30.512 39.696C30.008 39.696 29.5413 39.78 29.112 39.948C28.7013 40.0973 28.3467 40.3027 28.048 40.564C27.7493 40.8253 27.516 41.1333 27.348 41.488C27.18 41.824 27.096 42.1787 27.096 42.552C27.096 43.1867 27.2827 43.728 27.656 44.176C28.048 44.624 28.636 44.932 29.42 45.1L32.276 45.688C34.0307 46.0427 35.3653 46.7333 36.28 47.76C37.1947 48.7867 37.652 50 37.652 51.4C37.652 52.1653 37.4933 52.912 37.176 53.64C36.8773 54.368 36.4293 55.012 35.832 55.572C35.2347 56.132 34.4973 56.58 33.62 56.916C32.7613 57.252 31.7627 57.42 30.624 57.42C29.3547 57.42 28.2533 57.2427 27.32 56.888C26.4053 56.5147 25.6307 56.0387 24.996 55.46C24.38 54.8627 23.904 54.2 23.568 53.472C23.232 52.744 23.0267 52.0253 22.952 51.316L26.088 50.42C26.144 50.9427 26.2747 51.4467 26.48 51.932C26.6853 52.3987 26.9747 52.8187 27.348 53.192C27.74 53.5467 28.2067 53.836 28.748 54.06C29.2893 54.284 29.9147 54.396 30.624 54.396C31.8187 54.396 32.7147 54.1347 33.312 53.612C33.928 53.0893 34.236 52.436 34.236 51.652C34.236 50.9987 34.0027 50.4387 33.536 49.972C33.088 49.4867 32.4347 49.1507 31.576 48.964L28.776 48.376C27.264 48.0587 26.0413 47.424 25.108 46.472C24.1933 45.52 23.736 44.2973 23.736 42.804C23.736 41.964 23.9133 41.18 24.268 40.452C24.6227 39.7053 25.108 39.0613 25.724 38.52C26.34 37.96 27.0493 37.5213 27.852 37.204C28.6733 36.8867 29.5507 36.728 30.484 36.728C31.66 36.728 32.6587 36.8867 33.48 37.204C34.3013 37.5213 34.9827 37.932 35.524 38.436C36.084 38.9213 36.5133 39.4627 36.812 40.06C37.1107 40.6573 37.316 41.236 37.428 41.796L34.404 42.748ZM51.4849 43.364L54.7049 52.8L57.4209 43.364H60.7249L56.3569 57H53.1089L49.7209 47.2L46.4169 57H43.0849L38.6609 43.364H42.1329L44.9049 52.8L48.1249 43.364H51.4849ZM63.2016 57V43.364H66.4216V57H63.2016ZM62.6976 38.576C62.6976 37.9787 62.9029 37.4747 63.3136 37.064C63.7242 36.6533 64.2189 36.448 64.7976 36.448C65.3949 36.448 65.8989 36.6533 66.3096 37.064C66.7202 37.4747 66.9256 37.9787 66.9256 38.576C66.9256 39.1733 66.7202 39.6773 66.3096 40.088C65.8989 40.48 65.3949 40.676 64.7976 40.676C64.2189 40.676 63.7242 40.48 63.3136 40.088C62.9029 39.6773 62.6976 39.1733 62.6976 38.576ZM74.7277 43.364H77.5557V46.248H74.7277V52.576C74.7277 53.1733 74.8677 53.612 75.1477 53.892C75.4277 54.1533 75.8664 54.284 76.4637 54.284C76.6877 54.284 76.9117 54.2747 77.1357 54.256C77.3597 54.2187 77.5091 54.1907 77.5837 54.172V56.86C77.4904 56.8973 77.2851 56.9533 76.9677 57.028C76.6504 57.1213 76.1931 57.168 75.5957 57.168C74.3264 57.168 73.3277 56.8133 72.5997 56.104C71.8717 55.3947 71.5077 54.396 71.5077 53.108V46.248H68.9877V43.364H69.6877C70.4157 43.364 70.9477 43.1587 71.2837 42.748C71.6197 42.3373 71.7877 41.8333 71.7877 41.236V39.192H74.7277V43.364ZM86.7743 45.94C86.2703 45.94 85.7943 46.0333 85.3463 46.22C84.8983 46.4067 84.4969 46.6773 84.1423 47.032C83.8063 47.3867 83.5356 47.8253 83.3303 48.348C83.1249 48.8707 83.0223 49.4773 83.0223 50.168C83.0223 50.8587 83.1249 51.4747 83.3303 52.016C83.5356 52.5387 83.8063 52.9867 84.1423 53.36C84.4969 53.7147 84.9076 53.9853 85.3743 54.172C85.8409 54.3587 86.3263 54.452 86.8303 54.452C87.3529 54.452 87.8103 54.368 88.2023 54.2C88.6129 54.032 88.9489 53.8267 89.2103 53.584C89.4903 53.3227 89.7143 53.052 89.8823 52.772C90.0503 52.4733 90.1716 52.1933 90.2463 51.932L93.1023 52.968C92.9343 53.5093 92.6823 54.0413 92.3463 54.564C92.0103 55.0867 91.5809 55.5627 91.0583 55.992C90.5543 56.4213 89.9476 56.7667 89.2383 57.028C88.5289 57.2893 87.7263 57.42 86.8303 57.42C85.8223 57.42 84.8889 57.2427 84.0303 56.888C83.1716 56.5147 82.4249 56.0013 81.7903 55.348C81.1743 54.6947 80.6796 53.9293 80.3063 53.052C79.9516 52.1747 79.7743 51.2133 79.7743 50.168C79.7743 49.1227 79.9516 48.1613 80.3063 47.284C80.6609 46.388 81.1556 45.6227 81.7903 44.988C82.4249 44.3347 83.1623 43.8307 84.0023 43.476C84.8423 43.1213 85.7569 42.944 86.7463 42.944C87.6609 42.944 88.4729 43.0747 89.1823 43.336C89.8916 43.5973 90.5076 43.9427 91.0303 44.372C91.5529 44.7827 91.9729 45.2587 92.2903 45.8C92.6076 46.3413 92.8409 46.8827 92.9903 47.424L90.0783 48.488C90.0036 48.1893 89.8823 47.8907 89.7143 47.592C89.5649 47.2747 89.3503 46.9947 89.0703 46.752C88.8089 46.5093 88.4916 46.3133 88.1183 46.164C87.7449 46.0147 87.2969 45.94 86.7743 45.94ZM99.2347 57H95.9867V36.728H99.2347V44.68C99.7014 44.0827 100.289 43.6533 100.999 43.392C101.708 43.112 102.417 42.972 103.127 42.972C103.967 42.972 104.695 43.112 105.311 43.392C105.945 43.672 106.468 44.064 106.879 44.568C107.289 45.0533 107.597 45.6227 107.803 46.276C108.008 46.9293 108.111 47.6293 108.111 48.376V57H104.863V48.936C104.863 48.096 104.648 47.3867 104.219 46.808C103.808 46.2107 103.089 45.912 102.063 45.912C101.167 45.912 100.476 46.2107 99.9907 46.808C99.5241 47.3867 99.2721 48.1147 99.2347 48.992V57ZM119.01 57V36.728H122.202V45.044C122.519 44.5027 123.042 44.0267 123.77 43.616C124.517 43.2053 125.422 43 126.486 43C127.513 43 128.418 43.1867 129.202 43.56C129.986 43.9147 130.639 44.4187 131.162 45.072C131.703 45.7067 132.105 46.4533 132.366 47.312C132.646 48.1707 132.786 49.104 132.786 50.112C132.786 51.1387 132.637 52.1 132.338 52.996C132.039 53.8733 131.61 54.6387 131.05 55.292C130.509 55.9267 129.837 56.4307 129.034 56.804C128.25 57.1587 127.363 57.336 126.374 57.336C125.403 57.336 124.554 57.14 123.826 56.748C123.117 56.356 122.566 55.8333 122.174 55.18V57H119.01ZM129.51 50.14C129.51 48.7773 129.165 47.732 128.474 47.004C127.802 46.2573 126.925 45.884 125.842 45.884C124.797 45.884 123.919 46.2573 123.21 47.004C122.519 47.732 122.174 48.7773 122.174 50.14C122.174 50.812 122.267 51.4187 122.454 51.96C122.641 52.4827 122.893 52.9307 123.21 53.304C123.546 53.6773 123.938 53.9667 124.386 54.172C124.834 54.3587 125.319 54.452 125.842 54.452C126.906 54.452 127.783 54.0693 128.474 53.304C129.165 52.5387 129.51 51.484 129.51 50.14ZM135.069 53.304C135.069 52.688 135.171 52.1467 135.377 51.68C135.601 51.2133 135.89 50.812 136.245 50.476C136.618 50.1213 137.057 49.8413 137.561 49.636C138.065 49.4307 138.606 49.2813 139.185 49.188L142.685 48.656C143.077 48.6 143.338 48.488 143.469 48.32C143.618 48.1333 143.693 47.9187 143.693 47.676C143.693 47.0973 143.487 46.612 143.077 46.22C142.666 45.8093 142.013 45.604 141.117 45.604C140.258 45.604 139.595 45.8467 139.129 46.332C138.662 46.7987 138.391 47.3773 138.317 48.068L135.349 47.396C135.405 46.8173 135.582 46.2573 135.881 45.716C136.179 45.1747 136.571 44.6987 137.057 44.288C137.542 43.8773 138.121 43.5507 138.793 43.308C139.483 43.0653 140.249 42.944 141.089 42.944C142.134 42.944 143.021 43.084 143.749 43.364C144.495 43.644 145.093 44.0173 145.541 44.484C146.007 44.9507 146.343 45.492 146.549 46.108C146.773 46.724 146.885 47.368 146.885 48.04V54.816C146.885 55.432 146.903 55.936 146.941 56.328C146.997 56.7013 147.034 56.9253 147.053 57H144.029C144.01 56.9627 143.982 56.804 143.945 56.524C143.907 56.2253 143.889 55.8053 143.889 55.264C143.571 55.7867 143.067 56.2813 142.377 56.748C141.686 57.196 140.79 57.42 139.689 57.42C138.979 57.42 138.335 57.308 137.757 57.084C137.197 56.86 136.711 56.5613 136.301 56.188C135.909 55.796 135.601 55.3573 135.377 54.872C135.171 54.368 135.069 53.8453 135.069 53.304ZM140.305 54.872C140.753 54.872 141.182 54.816 141.593 54.704C142.003 54.5733 142.358 54.3773 142.657 54.116C142.974 53.836 143.226 53.472 143.413 53.024C143.599 52.576 143.693 52.016 143.693 51.344V50.728L140.137 51.26C139.633 51.3533 139.203 51.5493 138.849 51.848C138.494 52.128 138.317 52.548 138.317 53.108C138.317 53.5747 138.485 53.9853 138.821 54.34C139.157 54.6947 139.651 54.872 140.305 54.872ZM156.747 45.94C156.243 45.94 155.767 46.0333 155.319 46.22C154.871 46.4067 154.47 46.6773 154.115 47.032C153.779 47.3867 153.508 47.8253 153.303 48.348C153.098 48.8707 152.995 49.4773 152.995 50.168C152.995 50.8587 153.098 51.4747 153.303 52.016C153.508 52.5387 153.779 52.9867 154.115 53.36C154.47 53.7147 154.88 53.9853 155.347 54.172C155.814 54.3587 156.299 54.452 156.803 54.452C157.326 54.452 157.783 54.368 158.175 54.2C158.586 54.032 158.922 53.8267 159.183 53.584C159.463 53.3227 159.687 53.052 159.855 52.772C160.023 52.4733 160.144 52.1933 160.219 51.932L163.075 52.968C162.907 53.5093 162.655 54.0413 162.319 54.564C161.983 55.0867 161.554 55.5627 161.031 55.992C160.527 56.4213 159.92 56.7667 159.211 57.028C158.502 57.2893 157.699 57.42 156.803 57.42C155.795 57.42 154.862 57.2427 154.003 56.888C153.144 56.5147 152.398 56.0013 151.763 55.348C151.147 54.6947 150.652 53.9293 150.279 53.052C149.924 52.1747 149.747 51.2133 149.747 50.168C149.747 49.1227 149.924 48.1613 150.279 47.284C150.634 46.388 151.128 45.6227 151.763 44.988C152.398 44.3347 153.135 43.8307 153.975 43.476C154.815 43.1213 155.73 42.944 156.719 42.944C157.634 42.944 158.446 43.0747 159.155 43.336C159.864 43.5973 160.48 43.9427 161.003 44.372C161.526 44.7827 161.946 45.2587 162.263 45.8C162.58 46.3413 162.814 46.8827 162.963 47.424L160.051 48.488C159.976 48.1893 159.855 47.8907 159.687 47.592C159.538 47.2747 159.323 46.9947 159.043 46.752C158.782 46.5093 158.464 46.3133 158.091 46.164C157.718 46.0147 157.27 45.94 156.747 45.94ZM173.127 49.132L178.839 57H174.863L170.859 51.428L169.179 53.192V57H165.959V36.728H169.179V48.88L174.415 43.364H178.727L173.127 49.132ZM192.251 43.364H195.079V46.248H192.251V52.576C192.251 53.1733 192.391 53.612 192.671 53.892C192.951 54.1533 193.39 54.284 193.987 54.284C194.211 54.284 194.435 54.2747 194.659 54.256C194.883 54.2187 195.032 54.1907 195.107 54.172V56.86C195.014 56.8973 194.808 56.9533 194.491 57.028C194.174 57.1213 193.716 57.168 193.119 57.168C191.85 57.168 190.851 56.8133 190.123 56.104C189.395 55.3947 189.031 54.396 189.031 53.108V46.248H186.511V43.364H187.211C187.939 43.364 188.471 43.1587 188.807 42.748C189.143 42.3373 189.311 41.8333 189.311 41.236V39.192H192.251V43.364ZM204.354 54.508C204.858 54.508 205.334 54.4147 205.782 54.228C206.248 54.0413 206.659 53.7707 207.014 53.416C207.368 53.0427 207.648 52.5853 207.854 52.044C208.059 51.5027 208.162 50.8773 208.162 50.168C208.162 49.4587 208.059 48.8427 207.854 48.32C207.648 47.7787 207.368 47.3307 207.014 46.976C206.659 46.6027 206.248 46.332 205.782 46.164C205.334 45.9773 204.858 45.884 204.354 45.884C203.85 45.884 203.364 45.9773 202.898 46.164C202.45 46.332 202.048 46.6027 201.694 46.976C201.358 47.3307 201.078 47.7787 200.854 48.32C200.648 48.8427 200.546 49.4587 200.546 50.168C200.546 50.8773 200.648 51.5027 200.854 52.044C201.078 52.5853 201.358 53.0427 201.694 53.416C202.048 53.7707 202.45 54.0413 202.898 54.228C203.364 54.4147 203.85 54.508 204.354 54.508ZM204.354 42.944C205.38 42.944 206.323 43.1307 207.182 43.504C208.04 43.8587 208.787 44.3627 209.422 45.016C210.056 45.6507 210.551 46.4067 210.906 47.284C211.26 48.1613 211.438 49.1227 211.438 50.168C211.438 51.2133 211.26 52.184 210.906 53.08C210.551 53.9573 210.056 54.7227 209.422 55.376C208.787 56.0107 208.04 56.5147 207.182 56.888C206.323 57.2427 205.38 57.42 204.354 57.42C203.346 57.42 202.403 57.2427 201.526 56.888C200.667 56.5147 199.92 56.0107 199.286 55.376C198.67 54.7227 198.184 53.9573 197.83 53.08C197.475 52.184 197.298 51.2133 197.298 50.168C197.298 49.1227 197.475 48.1613 197.83 47.284C198.184 46.4067 198.67 45.6507 199.286 45.016C199.92 44.3627 200.667 43.8587 201.526 43.504C202.403 43.1307 203.346 42.944 204.354 42.944ZM244.062 37.148H247.534L241.962 57H238.49L233.674 41.992L228.858 57H225.414L219.786 37.148H223.314L227.29 51.652L231.938 37.148H235.438L240.17 51.764L244.062 37.148ZM254.94 54.508C255.444 54.508 255.92 54.4147 256.368 54.228C256.834 54.0413 257.245 53.7707 257.6 53.416C257.954 53.0427 258.234 52.5853 258.44 52.044C258.645 51.5027 258.748 50.8773 258.748 50.168C258.748 49.4587 258.645 48.8427 258.44 48.32C258.234 47.7787 257.954 47.3307 257.6 46.976C257.245 46.6027 256.834 46.332 256.368 46.164C255.92 45.9773 255.444 45.884 254.94 45.884C254.436 45.884 253.95 45.9773 253.484 46.164C253.036 46.332 252.634 46.6027 252.28 46.976C251.944 47.3307 251.664 47.7787 251.44 48.32C251.234 48.8427 251.132 49.4587 251.132 50.168C251.132 50.8773 251.234 51.5027 251.44 52.044C251.664 52.5853 251.944 53.0427 252.28 53.416C252.634 53.7707 253.036 54.0413 253.484 54.228C253.95 54.4147 254.436 54.508 254.94 54.508ZM254.94 42.944C255.966 42.944 256.909 43.1307 257.768 43.504C258.626 43.8587 259.373 44.3627 260.008 45.016C260.642 45.6507 261.137 46.4067 261.492 47.284C261.846 48.1613 262.024 49.1227 262.024 50.168C262.024 51.2133 261.846 52.184 261.492 53.08C261.137 53.9573 260.642 54.7227 260.008 55.376C259.373 56.0107 258.626 56.5147 257.768 56.888C256.909 57.2427 255.966 57.42 254.94 57.42C253.932 57.42 252.989 57.2427 252.112 56.888C251.253 56.5147 250.506 56.0107 249.872 55.376C249.256 54.7227 248.77 53.9573 248.416 53.08C248.061 52.184 247.884 51.2133 247.884 50.168C247.884 49.1227 248.061 48.1613 248.416 47.284C248.77 46.4067 249.256 45.6507 249.872 45.016C250.506 44.3627 251.253 43.8587 252.112 43.504C252.989 43.1307 253.932 42.944 254.94 42.944ZM273.143 46.584C272.769 46.528 272.415 46.5 272.079 46.5C270.809 46.5 269.876 46.8453 269.279 47.536C268.7 48.2267 268.411 49.216 268.411 50.504V57H265.163V43.364H268.327V45.548C268.644 44.8013 269.157 44.2227 269.867 43.812C270.576 43.4013 271.379 43.196 272.275 43.196C272.48 43.196 272.657 43.2053 272.807 43.224C272.956 43.2427 273.068 43.2613 273.143 43.28V46.584ZM282.967 49.132L288.679 57H284.703L280.699 51.428L279.019 53.192V57H275.799V36.728H279.019V48.88L284.255 43.364H288.567L282.967 49.132ZM292.654 52.52C292.71 53.136 292.962 53.6773 293.41 54.144C293.876 54.6107 294.548 54.844 295.426 54.844C296.098 54.844 296.602 54.6947 296.938 54.396C297.292 54.0787 297.47 53.7053 297.47 53.276C297.47 52.9027 297.339 52.5853 297.078 52.324C296.816 52.0627 296.415 51.876 295.874 51.764L293.858 51.316C292.644 51.0547 291.73 50.5693 291.114 49.86C290.498 49.132 290.19 48.292 290.19 47.34C290.19 46.7427 290.32 46.1827 290.582 45.66C290.843 45.1187 291.198 44.652 291.646 44.26C292.094 43.8493 292.616 43.532 293.214 43.308C293.83 43.0653 294.492 42.944 295.202 42.944C296.154 42.944 296.947 43.084 297.582 43.364C298.235 43.6253 298.767 43.952 299.178 44.344C299.588 44.736 299.887 45.156 300.074 45.604C300.279 46.0333 300.41 46.416 300.466 46.752L297.722 47.536C297.684 47.3493 297.619 47.1347 297.526 46.892C297.432 46.6493 297.283 46.4253 297.078 46.22C296.891 46.0147 296.639 45.8467 296.322 45.716C296.023 45.5667 295.65 45.492 295.202 45.492C294.623 45.492 294.147 45.6507 293.774 45.968C293.419 46.2667 293.242 46.6307 293.242 47.06C293.242 47.4333 293.363 47.7413 293.606 47.984C293.848 48.2267 294.184 48.3947 294.614 48.488L296.686 48.908C297.974 49.188 298.944 49.7013 299.598 50.448C300.27 51.176 300.606 52.044 300.606 53.052C300.606 53.5747 300.494 54.0973 300.27 54.62C300.064 55.124 299.747 55.5907 299.318 56.02C298.907 56.4307 298.375 56.7667 297.722 57.028C297.068 57.2893 296.312 57.42 295.454 57.42C294.464 57.42 293.624 57.28 292.934 57C292.243 56.72 291.674 56.3747 291.226 55.964C290.778 55.5347 290.442 55.0867 290.218 54.62C289.994 54.1347 289.863 53.696 289.826 53.304L292.654 52.52ZM303.827 62.32V43.364H306.963V45.212C307.299 44.6147 307.84 44.1107 308.587 43.7C309.333 43.2707 310.239 43.056 311.303 43.056C312.311 43.056 313.207 43.2427 313.991 43.616C314.775 43.9707 315.428 44.4653 315.951 45.1C316.492 45.7347 316.903 46.4907 317.183 47.368C317.463 48.2267 317.603 49.16 317.603 50.168C317.603 51.1947 317.453 52.1467 317.155 53.024C316.856 53.8827 316.427 54.6387 315.867 55.292C315.307 55.9267 314.625 56.4307 313.823 56.804C313.039 57.1587 312.161 57.336 311.191 57.336C310.201 57.336 309.352 57.1587 308.643 56.804C307.933 56.4307 307.401 55.9827 307.047 55.46V62.32H303.827ZM314.355 50.168C314.355 48.88 314.019 47.8533 313.347 47.088C312.675 46.3227 311.788 45.94 310.687 45.94C310.145 45.94 309.651 46.0427 309.203 46.248C308.755 46.4533 308.372 46.7427 308.055 47.116C307.737 47.4707 307.485 47.9093 307.299 48.432C307.112 48.9547 307.019 49.5333 307.019 50.168C307.019 51.4747 307.364 52.52 308.055 53.304C308.745 54.0693 309.623 54.452 310.687 54.452C311.769 54.452 312.647 54.0693 313.319 53.304C314.009 52.52 314.355 51.4747 314.355 50.168ZM319.885 53.304C319.885 52.688 319.988 52.1467 320.193 51.68C320.417 51.2133 320.706 50.812 321.061 50.476C321.434 50.1213 321.873 49.8413 322.377 49.636C322.881 49.4307 323.422 49.2813 324.001 49.188L327.501 48.656C327.893 48.6 328.154 48.488 328.285 48.32C328.434 48.1333 328.509 47.9187 328.509 47.676C328.509 47.0973 328.304 46.612 327.893 46.22C327.482 45.8093 326.829 45.604 325.933 45.604C325.074 45.604 324.412 45.8467 323.945 46.332C323.478 46.7987 323.208 47.3773 323.133 48.068L320.165 47.396C320.221 46.8173 320.398 46.2573 320.697 45.716C320.996 45.1747 321.388 44.6987 321.873 44.288C322.358 43.8773 322.937 43.5507 323.609 43.308C324.3 43.0653 325.065 42.944 325.905 42.944C326.95 42.944 327.837 43.084 328.565 43.364C329.312 43.644 329.909 44.0173 330.357 44.484C330.824 44.9507 331.16 45.492 331.365 46.108C331.589 46.724 331.701 47.368 331.701 48.04V54.816C331.701 55.432 331.72 55.936 331.757 56.328C331.813 56.7013 331.85 56.9253 331.869 57H328.845C328.826 56.9627 328.798 56.804 328.761 56.524C328.724 56.2253 328.705 55.8053 328.705 55.264C328.388 55.7867 327.884 56.2813 327.193 56.748C326.502 57.196 325.606 57.42 324.505 57.42C323.796 57.42 323.152 57.308 322.573 57.084C322.013 56.86 321.528 56.5613 321.117 56.188C320.725 55.796 320.417 55.3573 320.193 54.872C319.988 54.368 319.885 53.8453 319.885 53.304ZM325.121 54.872C325.569 54.872 325.998 54.816 326.409 54.704C326.82 54.5733 327.174 54.3773 327.473 54.116C327.79 53.836 328.042 53.472 328.229 53.024C328.416 52.576 328.509 52.016 328.509 51.344V50.728L324.953 51.26C324.449 51.3533 324.02 51.5493 323.665 51.848C323.31 52.128 323.133 52.548 323.133 53.108C323.133 53.5747 323.301 53.9853 323.637 54.34C323.973 54.6947 324.468 54.872 325.121 54.872ZM341.563 45.94C341.059 45.94 340.583 46.0333 340.135 46.22C339.687 46.4067 339.286 46.6773 338.931 47.032C338.595 47.3867 338.325 47.8253 338.119 48.348C337.914 48.8707 337.811 49.4773 337.811 50.168C337.811 50.8587 337.914 51.4747 338.119 52.016C338.325 52.5387 338.595 52.9867 338.931 53.36C339.286 53.7147 339.697 53.9853 340.163 54.172C340.63 54.3587 341.115 54.452 341.619 54.452C342.142 54.452 342.599 54.368 342.991 54.2C343.402 54.032 343.738 53.8267 343.999 53.584C344.279 53.3227 344.503 53.052 344.671 52.772C344.839 52.4733 344.961 52.1933 345.035 51.932L347.891 52.968C347.723 53.5093 347.471 54.0413 347.135 54.564C346.799 55.0867 346.37 55.5627 345.847 55.992C345.343 56.4213 344.737 56.7667 344.027 57.028C343.318 57.2893 342.515 57.42 341.619 57.42C340.611 57.42 339.678 57.2427 338.819 56.888C337.961 56.5147 337.214 56.0013 336.579 55.348C335.963 54.6947 335.469 53.9293 335.095 53.052C334.741 52.1747 334.563 51.2133 334.563 50.168C334.563 49.1227 334.741 48.1613 335.095 47.284C335.45 46.388 335.945 45.6227 336.579 44.988C337.214 44.3347 337.951 43.8307 338.791 43.476C339.631 43.1213 340.546 42.944 341.535 42.944C342.45 42.944 343.262 43.0747 343.971 43.336C344.681 43.5973 345.297 43.9427 345.819 44.372C346.342 44.7827 346.762 45.2587 347.079 45.8C347.397 46.3413 347.63 46.8827 347.779 47.424L344.867 48.488C344.793 48.1893 344.671 47.8907 344.503 47.592C344.354 47.2747 344.139 46.9947 343.859 46.752C343.598 46.5093 343.281 46.3133 342.907 46.164C342.534 46.0147 342.086 45.94 341.563 45.94ZM359.736 48.684C359.717 48.292 359.633 47.9187 359.484 47.564C359.353 47.1907 359.148 46.864 358.868 46.584C358.588 46.304 358.242 46.08 357.832 45.912C357.421 45.744 356.936 45.66 356.376 45.66C355.872 45.66 355.414 45.7533 355.004 45.94C354.612 46.108 354.276 46.3413 353.996 46.64C353.716 46.92 353.492 47.2467 353.324 47.62C353.156 47.9747 353.062 48.3293 353.044 48.684H359.736ZM362.844 53.108C362.657 53.7053 362.386 54.2653 362.032 54.788C361.677 55.3107 361.238 55.768 360.716 56.16C360.193 56.552 359.596 56.86 358.924 57.084C358.252 57.308 357.505 57.42 356.684 57.42C355.75 57.42 354.864 57.2613 354.024 56.944C353.184 56.608 352.446 56.132 351.812 55.516C351.177 54.8813 350.664 54.116 350.272 53.22C349.898 52.3053 349.712 51.2693 349.712 50.112C349.712 49.0293 349.889 48.0493 350.244 47.172C350.617 46.2947 351.112 45.548 351.728 44.932C352.344 44.2973 353.053 43.812 353.856 43.476C354.658 43.1213 355.489 42.944 356.348 42.944C357.393 42.944 358.326 43.112 359.148 43.448C359.988 43.784 360.688 44.26 361.248 44.876C361.826 45.492 362.265 46.2387 362.564 47.116C362.862 47.9747 363.012 48.9453 363.012 50.028C363.012 50.2893 363.002 50.5227 362.984 50.728C362.965 50.9147 362.946 51.0267 362.928 51.064H352.96C352.978 51.5867 353.09 52.0627 353.296 52.492C353.501 52.9213 353.772 53.2947 354.108 53.612C354.444 53.9293 354.826 54.1813 355.256 54.368C355.704 54.536 356.18 54.62 356.684 54.62C357.673 54.62 358.429 54.396 358.952 53.948C359.493 53.4813 359.876 52.912 360.1 52.24L362.844 53.108ZM382.161 57.42C380.817 57.42 379.538 57.1867 378.325 56.72C377.13 56.2533 376.066 55.5813 375.133 54.704C374.218 53.808 373.49 52.7253 372.949 51.456C372.408 50.168 372.137 48.712 372.137 47.088C372.137 45.464 372.417 44.0173 372.977 42.748C373.537 41.46 374.274 40.3773 375.189 39.5C376.122 38.604 377.186 37.9227 378.381 37.456C379.594 36.9707 380.845 36.728 382.133 36.728C383.384 36.728 384.513 36.9053 385.521 37.26C386.529 37.596 387.406 38.0627 388.153 38.66C388.9 39.2387 389.516 39.92 390.001 40.704C390.486 41.488 390.841 42.3093 391.065 43.168L387.901 44.232C387.752 43.6347 387.518 43.0747 387.201 42.552C386.902 42.0107 386.51 41.544 386.025 41.152C385.558 40.76 384.998 40.452 384.345 40.228C383.71 40.004 382.973 39.892 382.133 39.892C381.312 39.892 380.509 40.0413 379.725 40.34C378.941 40.6387 378.241 41.0867 377.625 41.684C377.009 42.2813 376.514 43.0373 376.141 43.952C375.768 44.848 375.581 45.8933 375.581 47.088C375.581 48.2453 375.758 49.272 376.113 50.168C376.486 51.0453 376.981 51.7827 377.597 52.38C378.213 52.9773 378.913 53.4347 379.697 53.752C380.5 54.0507 381.321 54.2 382.161 54.2C383.001 54.2 383.748 54.0787 384.401 53.836C385.054 53.5933 385.624 53.2667 386.109 52.856C386.594 52.4453 386.996 51.9787 387.313 51.456C387.649 50.9333 387.901 50.392 388.069 49.832L391.149 50.84C390.925 51.68 390.57 52.5013 390.085 53.304C389.6 54.088 388.974 54.788 388.209 55.404C387.462 56.0013 386.585 56.4867 385.577 56.86C384.569 57.2333 383.43 57.42 382.161 57.42ZM394.006 57V36.728H397.254V57H394.006ZM400.604 53.304C400.604 52.688 400.706 52.1467 400.912 51.68C401.136 51.2133 401.425 50.812 401.78 50.476C402.153 50.1213 402.592 49.8413 403.096 49.636C403.6 49.4307 404.141 49.2813 404.72 49.188L408.22 48.656C408.612 48.6 408.873 48.488 409.004 48.32C409.153 48.1333 409.228 47.9187 409.228 47.676C409.228 47.0973 409.022 46.612 408.612 46.22C408.201 45.8093 407.548 45.604 406.652 45.604C405.793 45.604 405.13 45.8467 404.664 46.332C404.197 46.7987 403.926 47.3773 403.852 48.068L400.884 47.396C400.94 46.8173 401.117 46.2573 401.416 45.716C401.714 45.1747 402.106 44.6987 402.592 44.288C403.077 43.8773 403.656 43.5507 404.328 43.308C405.018 43.0653 405.784 42.944 406.624 42.944C407.669 42.944 408.556 43.084 409.284 43.364C410.03 43.644 410.628 44.0173 411.076 44.484C411.542 44.9507 411.878 45.492 412.084 46.108C412.308 46.724 412.42 47.368 412.42 48.04V54.816C412.42 55.432 412.438 55.936 412.476 56.328C412.532 56.7013 412.569 56.9253 412.588 57H409.564C409.545 56.9627 409.517 56.804 409.48 56.524C409.442 56.2253 409.424 55.8053 409.424 55.264C409.106 55.7867 408.602 56.2813 407.912 56.748C407.221 57.196 406.325 57.42 405.224 57.42C404.514 57.42 403.87 57.308 403.292 57.084C402.732 56.86 402.246 56.5613 401.836 56.188C401.444 55.796 401.136 55.3573 400.912 54.872C400.706 54.368 400.604 53.8453 400.604 53.304ZM405.84 54.872C406.288 54.872 406.717 54.816 407.128 54.704C407.538 54.5733 407.893 54.3773 408.192 54.116C408.509 53.836 408.761 53.472 408.948 53.024C409.134 52.576 409.228 52.016 409.228 51.344V50.728L405.672 51.26C405.168 51.3533 404.738 51.5493 404.384 51.848C404.029 52.128 403.852 52.548 403.852 53.108C403.852 53.5747 404.02 53.9853 404.356 54.34C404.692 54.6947 405.186 54.872 405.84 54.872ZM417.97 52.52C418.026 53.136 418.278 53.6773 418.726 54.144C419.193 54.6107 419.865 54.844 420.742 54.844C421.414 54.844 421.918 54.6947 422.254 54.396C422.609 54.0787 422.786 53.7053 422.786 53.276C422.786 52.9027 422.655 52.5853 422.394 52.324C422.133 52.0627 421.731 51.876 421.19 51.764L419.174 51.316C417.961 51.0547 417.046 50.5693 416.43 49.86C415.814 49.132 415.506 48.292 415.506 47.34C415.506 46.7427 415.637 46.1827 415.898 45.66C416.159 45.1187 416.514 44.652 416.962 44.26C417.41 43.8493 417.933 43.532 418.53 43.308C419.146 43.0653 419.809 42.944 420.518 42.944C421.47 42.944 422.263 43.084 422.898 43.364C423.551 43.6253 424.083 43.952 424.494 44.344C424.905 44.736 425.203 45.156 425.39 45.604C425.595 46.0333 425.726 46.416 425.782 46.752L423.038 47.536C423.001 47.3493 422.935 47.1347 422.842 46.892C422.749 46.6493 422.599 46.4253 422.394 46.22C422.207 46.0147 421.955 45.8467 421.638 45.716C421.339 45.5667 420.966 45.492 420.518 45.492C419.939 45.492 419.463 45.6507 419.09 45.968C418.735 46.2667 418.558 46.6307 418.558 47.06C418.558 47.4333 418.679 47.7413 418.922 47.984C419.165 48.2267 419.501 48.3947 419.93 48.488L422.002 48.908C423.29 49.188 424.261 49.7013 424.914 50.448C425.586 51.176 425.922 52.044 425.922 53.052C425.922 53.5747 425.81 54.0973 425.586 54.62C425.381 55.124 425.063 55.5907 424.634 56.02C424.223 56.4307 423.691 56.7667 423.038 57.028C422.385 57.2893 421.629 57.42 420.77 57.42C419.781 57.42 418.941 57.28 418.25 57C417.559 56.72 416.99 56.3747 416.542 55.964C416.094 55.5347 415.758 55.0867 415.534 54.62C415.31 54.1347 415.179 53.696 415.142 53.304L417.97 52.52ZM430.767 52.52C430.823 53.136 431.075 53.6773 431.523 54.144C431.99 54.6107 432.662 54.844 433.539 54.844C434.211 54.844 434.715 54.6947 435.051 54.396C435.406 54.0787 435.583 53.7053 435.583 53.276C435.583 52.9027 435.452 52.5853 435.191 52.324C434.93 52.0627 434.528 51.876 433.987 51.764L431.971 51.316C430.758 51.0547 429.843 50.5693 429.227 49.86C428.611 49.132 428.303 48.292 428.303 47.34C428.303 46.7427 428.434 46.1827 428.695 45.66C428.956 45.1187 429.311 44.652 429.759 44.26C430.207 43.8493 430.73 43.532 431.327 43.308C431.943 43.0653 432.606 42.944 433.315 42.944C434.267 42.944 435.06 43.084 435.695 43.364C436.348 43.6253 436.88 43.952 437.291 44.344C437.702 44.736 438 45.156 438.187 45.604C438.392 46.0333 438.523 46.416 438.579 46.752L435.835 47.536C435.798 47.3493 435.732 47.1347 435.639 46.892C435.546 46.6493 435.396 46.4253 435.191 46.22C435.004 46.0147 434.752 45.8467 434.435 45.716C434.136 45.5667 433.763 45.492 433.315 45.492C432.736 45.492 432.26 45.6507 431.887 45.968C431.532 46.2667 431.355 46.6307 431.355 47.06C431.355 47.4333 431.476 47.7413 431.719 47.984C431.962 48.2267 432.298 48.3947 432.727 48.488L434.799 48.908C436.087 49.188 437.058 49.7013 437.711 50.448C438.383 51.176 438.719 52.044 438.719 53.052C438.719 53.5747 438.607 54.0973 438.383 54.62C438.178 55.124 437.86 55.5907 437.431 56.02C437.02 56.4307 436.488 56.7667 435.835 57.028C435.182 57.2893 434.426 57.42 433.567 57.42C432.578 57.42 431.738 57.28 431.047 57C430.356 56.72 429.787 56.3747 429.339 55.964C428.891 55.5347 428.555 55.0867 428.331 54.62C428.107 54.1347 427.976 53.696 427.939 53.304L430.767 52.52ZM441.94 57V43.364H445.16V57H441.94ZM441.436 38.576C441.436 37.9787 441.641 37.4747 442.052 37.064C442.463 36.6533 442.957 36.448 443.536 36.448C444.133 36.448 444.637 36.6533 445.048 37.064C445.459 37.4747 445.664 37.9787 445.664 38.576C445.664 39.1733 445.459 39.6773 445.048 40.088C444.637 40.48 444.133 40.676 443.536 40.676C442.957 40.676 442.463 40.48 442.052 40.088C441.641 39.6773 441.436 39.1733 441.436 38.576ZM455.286 45.94C454.782 45.94 454.306 46.0333 453.858 46.22C453.41 46.4067 453.009 46.6773 452.654 47.032C452.318 47.3867 452.047 47.8253 451.842 48.348C451.637 48.8707 451.534 49.4773 451.534 50.168C451.534 50.8587 451.637 51.4747 451.842 52.016C452.047 52.5387 452.318 52.9867 452.654 53.36C453.009 53.7147 453.419 53.9853 453.886 54.172C454.353 54.3587 454.838 54.452 455.342 54.452C455.865 54.452 456.322 54.368 456.714 54.2C457.125 54.032 457.461 53.8267 457.722 53.584C458.002 53.3227 458.226 53.052 458.394 52.772C458.562 52.4733 458.683 52.1933 458.758 51.932L461.614 52.968C461.446 53.5093 461.194 54.0413 460.858 54.564C460.522 55.0867 460.093 55.5627 459.57 55.992C459.066 56.4213 458.459 56.7667 457.75 57.028C457.041 57.2893 456.238 57.42 455.342 57.42C454.334 57.42 453.401 57.2427 452.542 56.888C451.683 56.5147 450.937 56.0013 450.302 55.348C449.686 54.6947 449.191 53.9293 448.818 53.052C448.463 52.1747 448.286 51.2133 448.286 50.168C448.286 49.1227 448.463 48.1613 448.818 47.284C449.173 46.388 449.667 45.6227 450.302 44.988C450.937 44.3347 451.674 43.8307 452.514 43.476C453.354 43.1213 454.269 42.944 455.258 42.944C456.173 42.944 456.985 43.0747 457.694 43.336C458.403 43.5973 459.019 43.9427 459.542 44.372C460.065 44.7827 460.485 45.2587 460.802 45.8C461.119 46.3413 461.353 46.8827 461.502 47.424L458.59 48.488C458.515 48.1893 458.394 47.8907 458.226 47.592C458.077 47.2747 457.862 46.9947 457.582 46.752C457.321 46.5093 457.003 46.3133 456.63 46.164C456.257 46.0147 455.809 45.94 455.286 45.94Z" fill="#551875"/>
</svg>
