<svg id="Layer_1" data-name="Layer 1" xmlns="http://www.w3.org/2000/svg" viewBox="0 0 180 180"><defs><style>.cls-1{fill:#168fa6;}.cls-2,.cls-3,.cls-4{fill:none;stroke:#fff;stroke-width:2px;}.cls-2,.cls-3{stroke-linejoin:round;}.cls-3{stroke-linecap:round;}.cls-4{stroke-miterlimit:10;}</style></defs><title>Tiles_Place_based</title><rect class="cls-1" width="180" height="180"/><path class="cls-2" d="M51.62,9.16c-1.34-1.34-6,1.1-7.31,2.44L22.6,33.31c-1.45,1.45-7.78,9.76-6.33,11.21S26,39.63,27.48,38.18l21.7-21.7C50.52,15.14,53,10.51,51.62,9.16Z" transform="translate(0.07 -0.56)"/><polyline class="cls-2" points="32.98 32.2 37.96 37.18 43.52 47.61 45.99 47.57 41.22 23.95"/><polyline class="cls-2" points="36.34 19.07 12.72 14.3 12.68 16.78 23.11 22.33 28.1 27.32"/><polyline class="cls-2" points="26.09 39.08 27.22 47.77 24.87 48.83 21.04 42.45"/><polyline class="cls-2" points="21.21 34.2 12.53 33.08 11.46 35.42 17.85 39.25"/><line class="cls-3" x1="26.77" y1="109.82" x2="22.77" y2="116.82"/><line class="cls-3" x1="36.77" y1="109.82" x2="40.77" y2="116.82"/><rect class="cls-2" x="20.77" y="80.82" width="22" height="29" rx="4" ry="4"/><line class="cls-2" x1="20.77" y1="97.82" x2="42.77" y2="97.82"/><line class="cls-2" x1="23.77" y1="101.82" x2="27.77" y2="101.82"/><line class="cls-2" x1="35.77" y1="101.82" x2="39.77" y2="101.82"/><path class="cls-3" d="M16.7,109.48a22,22,0,1,1,30,0" transform="translate(0.07 -0.56)"/><line class="cls-2" x1="24.77" y1="113.82" x2="38.77" y2="113.82"/><line class="cls-2" x1="20.77" y1="85.82" x2="42.77" y2="85.82"/><line class="cls-2" x1="31.77" y1="85.82" x2="31.77" y2="97.82"/><path class="cls-2" d="M72,111.88v-31c0-4.14,2.86-8,7-8H91c4.14,0,7,3.86,7,8v31" transform="translate(0.07 -0.56)"/><rect class="cls-2" x="70.11" y="111.32" width="30" height="6"/><polyline class="cls-2" points="106.11 100.32 103.11 100.32 103.11 93.32 105.11 91.32"/><polygon class="cls-2" points="114.11 87.32 105.11 87.32 105.11 91.32 108.11 93.32 108.11 100.32 113.11 100.32 114.11 99.32 114.11 87.32"/><polygon class="cls-2" points="104.75 74.69 107.53 73.1 113.11 82.33 113.11 87.32 108.11 87.32 108.11 82.33 104.75 74.69"/><path class="cls-2" d="M98,105.88h5a2,2,0,0,1,2,2v8a2,2,0,0,0,2,2h2a2,2,0,0,0,2-2v-15" transform="translate(0.07 -0.56)"/><path class="cls-2" d="M76,87.88H94v-7a4,4,0,0,0-4-4H80a4,4,0,0,0-4,4Z" transform="translate(0.07 -0.56)"/><line class="cls-2" x1="87.11" y1="82.32" x2="89.11" y2="79.32"/><path class="cls-2" d="M89,87.88v-1a4,4,0,0,0-8,0v1" transform="translate(0.07 -0.56)"/><path class="cls-4" d="M166.5,78.38v7c0,7.63-4,13.5-4,18,0,3.41,2,6,2,9v3c0,2-7.73,2-10,2-.82,0-2.36,0-4-.09" transform="translate(0.07 -0.56)"/><path class="cls-4" d="M145.5,80.38h7a4,4,0,0,1,4,4v5.5a2.49,2.49,0,0,0,2.5,2.5h0a2.49,2.49,0,0,0,2.5-2.5v-7.5c0-1,.07-2,1-2h4v-2c0-3-2.46-5-5.5-5a5.51,5.51,0,0,0-.71.06,5.49,5.49,0,0,0-9.17.92,5.4,5.4,0,0,0-3.12-1,6.37,6.37,0,0,0-2.5.5" transform="translate(0.07 -0.56)"/><path class="cls-4" d="M152.5,76.44a4.37,4.37,0,0,0-1.39-2.08" transform="translate(0.07 -0.56)"/><path class="cls-4" d="M138.5,71.38c2,0,4,.36,4,1v1c0,.5,1,1.54,1,2s-1,1.39-1,2c0,.25,1,6.59,1,10,0,1.88,4,4.41,4,8v20a2,2,0,0,1-2,2c-2.26,0-5.79,0-7,0h-7a2,2,0,0,1-2-2v-20c0-3.59,4-6.12,4-8,0-3.41,1-9.75,1-10,0-.61-1-1.49-1-2s.91-1.5,1-2v-1C134.5,71.74,136.5,71.38,138.5,71.38Z" transform="translate(0.07 -0.56)"/><rect class="cls-4" x="129.58" y="96.82" width="18" height="13"/><path class="cls-4" d="M75.46,143a35.47,35.47,0,0,0-12,6.57c3.77,13.76,11.46,21.76,22.23,23a10.27,10.27,0,0,0,2.66-4" transform="translate(0.07 -0.56)"/><path class="cls-4" d="M71.51,158.68c.33,1,2.06,1.15,3.66.6s2.62-1.7,2.66-2.22" transform="translate(0.07 -0.56)"/><path class="cls-4" d="M93.46,168.53c10.51-5.07,16.21-13.43,15-33a42,42,0,0,0-15-3,42,42,0,0,0-15,3C77.24,155.1,82.94,163.46,93.46,168.53Z" transform="translate(0.07 -0.56)"/><path class="cls-4" d="M100.46,155.53a25,25,0,0,1-14,0c-.67-.25,2.72,6,7,6S101.12,155.28,100.46,155.53Z" transform="translate(0.07 -0.56)"/><path class="cls-4" d="M95.46,148.53c0-1.46,1.5-3,4-3s5,1.8,5,3" transform="translate(0.07 -0.56)"/><path class="cls-4" d="M82.46,148.53c0-1.2,2.5-3,5-3s4,1.54,4,3" transform="translate(0.07 -0.56)"/><polyline class="cls-4" points="78.11 12 78.11 8 94.11 8 94.11 12"/><rect class="cls-4" x="84.11" y="43" width="6" height="8"/><polyline class="cls-4" points="80.11 25 80.11 21 84.11 21 84.11 25"/><polyline class="cls-4" points="80.11 33 80.11 29 84.11 29 84.11 33"/><polyline class="cls-4" points="73.11 51 67.11 51 67.11 20 73.11 20"/><polyline class="cls-4" points="69.11 20 69.11 16 73.11 16"/><path class="cls-4" d="M101,27.56h0a4,4,0,0,1,0,8h0a4,4,0,0,1,0-8Z" transform="translate(0.07 -0.56)"/><path class="cls-4" d="M101,19.56c6.62,0,12,5,12,11.26a11.21,11.21,0,0,1-2.05,7C109.36,40.27,101,51.61,101,51.61s-8.32-11.34-10-13.79a11.09,11.09,0,0,1-2-7C89,24.6,94.41,19.56,101,19.56Z" transform="translate(0.07 -0.56)"/><polyline class="cls-4" points="97.11 51 75.11 51 75.11 12 97.11 12 97.11 17"/><path class="cls-4" d="M48.7,165.05h-4v-11a3,3,0,0,0-3-3h0a3,3,0,0,0-3,3v11h-4v-11a3,3,0,0,0-3-3h0a3,3,0,0,0-3,3v11h-4v-11a3,3,0,0,0-3-3h0a3,3,0,0,0-3,3v11h-4" transform="translate(0.07 -0.56)"/><polyline class="cls-4" points="15.77 150.49 10.77 150.49 10.77 146.49 52.77 146.49 52.77 150.49 47.77 150.49"/><polyline class="cls-4" points="23.77 134.49 8.77 134.49 8.77 139.49 9.77 140.49 9.77 142.49 14.77 142.49 14.77 140.6 31.77 129.49 48.77 140.6 48.77 142.49 53.77 142.49 53.77 140.49 54.77 139.49 54.77 134.49 39.77 134.49"/><polyline class="cls-4" points="11.77 169.49 11.77 150.49 15.77 150.49"/><polyline class="cls-4" points="51.77 169.49 51.77 150.49 47.77 150.49"/><circle class="cls-4" cx="31.77" cy="138.49" r="3"/><line class="cls-4" x1="14.77" y1="168.49" x2="48.77" y2="168.49"/><line class="cls-4" x1="10.77" y1="172.49" x2="52.77" y2="172.49"/><path class="cls-4" d="M136,136.05h31.1a2,2,0,0,1,1.92,2.58l-4.59,15a2,2,0,0,1-1.91,1.42H138" transform="translate(0.07 -0.56)"/><path class="cls-4" d="M164,162.05H142.44a2,2,0,0,1-1.92-1.43L132,132.05h-9" transform="translate(0.07 -0.56)"/><circle class="cls-4" cx="141.02" cy="167.48" r="3.01"/><circle class="cls-4" cx="161.03" cy="167.48" r="3.01"/><polyline class="cls-4" points="154.57 24 154.57 16 125.58 16 125.58 50 145.57 50"/><rect class="cls-4" x="147.58" y="26" width="23" height="24"/><path class="cls-4" d="M164.5,31.56v6a5.5,5.5,0,1,1-11,0v-6" transform="translate(0.07 -0.56)"/><line class="cls-4" x1="155.58" y1="31" x2="151.58" y2="31"/><line class="cls-4" x1="166.58" y1="31" x2="162.58" y2="31"/><path class="cls-4" d="M146.5,21.56V14.34a6.5,6.5,0,1,0-13,0v7.22" transform="translate(0.07 -0.56)"/><line class="cls-4" x1="135.58" y1="21" x2="131.58" y2="21"/><line class="cls-4" x1="148.58" y1="21" x2="144.58" y2="21"/></svg>