<svg width="38" height="32" viewBox="0 0 38 32" fill="none" xmlns="http://www.w3.org/2000/svg">
<path fill-rule="evenodd" clip-rule="evenodd" d="M18.6183 32C28.901 32 37.2367 28.8918 37.2367 25.0576C37.2367 21.2234 28.901 18.1151 18.6183 18.1151C8.33571 18.1151 0 21.2234 0 25.0576C0 28.8918 8.33571 32 18.6183 32ZM18.6183 29.791C25.5896 29.791 31.2409 27.6718 31.2409 25.0576C31.2409 22.4433 25.5896 20.3241 18.6183 20.3241C11.6471 20.3241 5.99574 22.4433 5.99574 25.0576C5.99574 27.6718 11.6471 29.791 18.6183 29.791Z" fill="#616161"/>
<path fill-rule="evenodd" clip-rule="evenodd" d="M18.2609 0.0207732C18.1714 0.0268901 17.9298 0.0544163 17.7241 0.081975C14.8639 0.464739 12.325 2.27772 11.0074 4.87801C10.6372 5.60852 10.3966 6.29805 10.2293 7.1072C10.0868 7.79692 10.0619 8.07137 10.0641 8.92927C10.0658 9.59976 10.0789 9.82475 10.1383 10.2098C10.2734 11.0838 10.5008 11.8345 10.8988 12.7198C11.0154 12.9793 11.1881 13.3746 11.2825 13.5983C11.8324 14.9009 12.4286 16.0542 14.4279 19.6827C16.7418 23.8823 17.6844 25.9918 18.2443 28.2236L18.3994 28.8418L19.5081 28.8596L19.5297 28.7531C19.6922 27.9507 20.1237 26.5799 20.5311 25.5719C21.2187 23.8706 21.8983 22.5143 23.8896 18.8693C25.4025 16.0999 26.0647 14.7991 26.5729 13.5983C26.6676 13.3746 26.8404 12.9793 26.9571 12.7198C27.5135 11.4819 27.7608 10.4414 27.8 9.1733C27.8477 7.63085 27.5318 6.21797 26.832 4.84417C26.1479 3.50114 25.0629 2.29097 23.7922 1.4535C23.353 1.16409 22.4582 0.711693 21.9747 0.534628C20.8351 0.11731 19.5166 -0.0651567 18.2609 0.0207732ZM18.8177 14.0896C21.5968 14.0896 23.8497 11.8367 23.8497 9.05757C23.8497 6.27848 21.5968 4.02559 18.8177 4.02559C16.0386 4.02559 13.7857 6.27848 13.7857 9.05757C13.7857 11.8367 16.0386 14.0896 18.8177 14.0896Z" fill="#616161"/>
</svg>
