<svg width="348" height="259" viewBox="0 0 348 259" fill="none" xmlns="http://www.w3.org/2000/svg">
<path d="M347.081 227.269H-3.05176e-05V227.442H347.081V227.269Z" fill="#EBEBEB"/>
<path d="M312.304 238.438H289.313V238.612H312.304V238.438Z" fill="#EBEBEB"/>
<path d="M229.921 240.326H223.888V240.5H229.921V240.326Z" fill="#EBEBEB"/>
<path d="M288.619 231.996H275.298V232.17H288.619V231.996Z" fill="#EBEBEB"/>
<path d="M66.3967 233.162H36.4158V233.336H66.3967V233.162Z" fill="#EBEBEB"/>
<path d="M76.9757 233.162H72.5817V233.336H76.9757V233.162Z" fill="#EBEBEB"/>
<path d="M156.291 236.092H91.2615V236.265H156.291V236.092Z" fill="#EBEBEB"/>
<path d="M164.517 196.309H30.4807C29.4306 196.307 28.4242 195.889 27.6824 195.146C26.9406 194.403 26.5239 193.396 26.5239 192.346V3.92896C26.5331 2.88496 26.9537 1.88672 27.6946 1.15107C28.4354 0.415427 29.4366 0.00178843 30.4807 0H164.517C165.568 0 166.576 0.4176 167.319 1.16093C168.063 1.90426 168.48 2.91244 168.48 3.96367V192.346C168.48 193.397 168.063 194.405 167.319 195.148C166.576 195.892 165.568 196.309 164.517 196.309ZM30.4807 0.138833C29.4767 0.140672 28.5144 0.540798 27.8051 1.25139C27.0958 1.96197 26.6975 2.92496 26.6975 3.92896V192.346C26.6975 193.35 27.0958 194.313 27.8051 195.023C28.5144 195.734 29.4767 196.134 30.4807 196.136H164.517C165.521 196.134 166.484 195.734 167.195 195.024C167.905 194.313 168.305 193.35 168.307 192.346V3.92896C168.305 2.92432 167.905 1.96135 167.195 1.25096C166.484 0.540573 165.521 0.140668 164.517 0.138833H30.4807Z" fill="#EBEBEB"/>
<path d="M314.671 196.309H180.628C179.577 196.307 178.57 195.889 177.827 195.146C177.084 194.403 176.666 193.396 176.664 192.346V3.92896C176.675 2.88433 177.098 1.88609 177.84 1.15064C178.582 0.415185 179.583 0.00176893 180.628 0H314.671C315.714 0.00361277 316.713 0.418059 317.453 1.15351C318.192 1.88896 318.612 2.88616 318.621 3.92896V192.346C318.621 193.394 318.205 194.4 317.465 195.143C316.724 195.886 315.72 196.306 314.671 196.309ZM180.628 0.138833C179.623 0.140668 178.66 0.540573 177.95 1.25096C177.24 1.96135 176.84 2.92432 176.838 3.92896V192.346C176.84 193.35 177.24 194.313 177.95 195.024C178.66 195.734 179.623 196.134 180.628 196.136H314.671C315.676 196.134 316.639 195.734 317.349 195.024C318.059 194.313 318.459 193.35 318.461 192.346V3.92896C318.459 2.92432 318.059 1.96135 317.349 1.25096C316.639 0.540573 315.676 0.140668 314.671 0.138833H180.628Z" fill="#EBEBEB"/>
<path d="M304.661 227.047V196.288H288.862V164.544H286.634V182.738H280.56V177.706H269.62V160.282H267.593V138.992H265.975V159.893H262.123V190.867H254.834V159.893H241.666V186.091H227.845V154.34H225.617V172.541H219.543V167.508H208.603V150.085H206.576V128.788H204.959V149.696H201.106V180.67H193.817V149.696H180.649V179.656H171.771V162.233H169.744V140.943H168.126V161.844H164.281V192.818H156.985V161.844H143.817V192.818H137.34V196.288H125.984V164.544H123.755V182.738H117.681V177.706H106.741V160.282H104.714V138.992H103.097V159.893H99.5638V158.151H86.3955V159.893H79.1068V158.151H75.2542V137.25H73.6368V158.54H71.6098V175.963H60.6698V180.996H54.5959V162.795H52.3676V194.546H36.5685V227.047H304.661Z" fill="#E0E0E0"/>
<path d="M79.7871 58.8234C90.4411 58.8234 99.0778 50.1866 99.0778 39.5326C99.0778 28.8786 90.4411 20.2418 79.7871 20.2418C69.1331 20.2418 60.4963 28.8786 60.4963 39.5326C60.4963 50.1866 69.1331 58.8234 79.7871 58.8234Z" fill="#FAFAFA"/>
<path d="M69.7842 39.3105C69.7876 38.7865 69.6676 38.269 69.4339 37.7999C69.2002 37.3308 68.8594 36.9233 68.439 36.6104C68.0186 36.2975 67.5305 36.0879 67.0141 35.9986C66.4977 35.9094 65.9675 35.9429 65.4665 36.0965C65.5163 35.7563 65.5418 35.413 65.5428 35.0692C65.541 33.187 64.792 31.3825 63.4605 30.0523C62.1289 28.722 60.3237 27.9748 58.4416 27.9748C58.0016 27.9753 57.5626 28.0148 57.1296 28.0928C56.4286 26.9443 55.3732 26.0547 54.1226 25.5581C52.872 25.0616 51.4939 24.9849 50.196 25.3398C48.898 25.6946 47.7506 26.4617 46.9265 27.5255C46.1025 28.5892 45.6465 29.892 45.6273 31.2374H45.5232C44.0062 31.2374 42.5513 31.84 41.4786 32.9127C40.4059 33.9854 39.8033 35.4403 39.8033 36.9573C39.8033 38.4743 40.4059 39.9292 41.4786 41.0019C42.5513 42.0746 44.0062 42.6772 45.5232 42.6772H66.5216C67.3975 42.6536 68.2294 42.2881 68.8391 41.6589C69.4489 41.0296 69.7881 40.1867 69.7842 39.3105Z" fill="#F0F0F0"/>
<path d="M296.13 113.364C298.684 113.294 300.524 110.379 298.573 107.672C298.115 107.246 297.556 106.943 296.95 106.791C296.343 106.64 295.707 106.644 295.103 106.804C295.24 105.73 295.148 104.64 294.832 103.605C294.516 102.569 293.983 101.613 293.27 100.799C291 98.8419 288.744 98.4323 286.766 98.8003C286.068 97.6472 285.014 96.7529 283.762 96.2527C282.511 95.7526 281.131 95.6739 279.83 96.0286C278.53 96.3832 277.381 97.1519 276.557 98.2182C275.733 99.2845 275.279 100.59 275.263 101.938H275.159C270.168 101.938 266.67 108.331 272.383 113.378H296.13V113.364Z" fill="#F0F0F0"/>
<path d="M240.722 126.949C243.269 126.879 245.109 123.964 243.165 121.256C242.705 120.823 242.14 120.515 241.526 120.363C240.912 120.211 240.269 120.22 239.66 120.389C239.799 119.315 239.709 118.223 239.394 117.187C239.079 116.15 238.547 115.192 237.834 114.377C235.564 112.42 233.308 112.01 231.33 112.378C230.63 111.227 229.575 110.334 228.324 109.835C227.073 109.336 225.693 109.258 224.394 109.613C223.094 109.967 221.945 110.734 221.12 111.799C220.295 112.864 219.839 114.169 219.821 115.516H219.716C214.725 115.516 211.227 121.909 216.94 126.955H240.694L240.722 126.949Z" fill="#F0F0F0"/>
<path d="M100.799 88.2628C100.799 86.8556 101.358 85.506 102.352 84.5103C103.347 83.5146 104.696 82.9543 106.103 82.9525C106.618 82.9536 107.13 83.0308 107.623 83.1815C107.545 82.6413 107.506 82.0961 107.505 81.5502C107.505 80.0747 107.796 78.6136 108.361 77.2505C108.925 75.8874 109.753 74.6489 110.797 73.6059C111.841 72.5628 113.08 71.7357 114.443 71.1717C115.807 70.6076 117.268 70.3178 118.744 70.3187C119.442 70.317 120.139 70.3797 120.826 70.5061C121.935 68.6876 123.605 67.2787 125.584 66.4919C127.563 65.705 129.744 65.5828 131.799 66.1437C133.854 66.7046 135.671 67.9181 136.976 69.6015C138.28 71.2848 139.003 73.3467 139.034 75.4763H139.194C141.594 75.4763 143.897 76.43 145.594 78.1276C147.292 79.8251 148.245 82.1275 148.245 84.5282C148.245 86.9289 147.292 89.2313 145.594 90.9289C143.897 92.6264 141.594 93.5801 139.194 93.5801H105.95C104.568 93.5403 103.256 92.9621 102.294 91.9688C101.331 90.9755 100.795 89.6457 100.799 88.2628Z" fill="#F0F0F0"/>
<path d="M185.147 69.0345C185.146 68.0388 185.378 67.0567 185.824 66.1667C186.271 65.2768 186.919 64.5037 187.718 63.9093C188.517 63.3149 189.444 62.9158 190.425 62.7438C191.405 62.5718 192.413 62.6318 193.366 62.9189C193.268 62.271 193.219 61.6166 193.22 60.9613C193.22 59.1856 193.57 57.4272 194.25 55.7866C194.929 54.146 195.925 52.6553 197.181 51.3996C198.436 50.144 199.927 49.1479 201.568 48.4684C203.208 47.7888 204.967 47.439 206.742 47.439C207.578 47.4414 208.412 47.518 209.235 47.6681C210.558 45.461 212.566 43.747 214.954 42.787C217.341 41.8271 219.977 41.6739 222.46 42.3507C224.943 43.0276 227.136 44.4975 228.706 46.5364C230.276 48.5754 231.136 51.0716 231.156 53.6449H231.351C232.804 53.6082 234.249 53.8627 235.602 54.3933C236.955 54.924 238.188 55.7202 239.229 56.7348C240.27 57.7495 241.097 58.9622 241.661 60.3014C242.226 61.6407 242.517 63.0794 242.517 64.5328C242.517 65.9862 242.226 67.4249 241.661 68.7642C241.097 70.1034 240.27 71.3161 239.229 72.3308C238.188 73.3455 236.955 74.1416 235.602 74.6723C234.249 75.203 232.804 75.4574 231.351 75.4207H191.367C189.702 75.3791 188.119 74.6877 186.956 73.4943C185.794 72.3009 185.145 70.7003 185.147 69.0345Z" fill="#F0F0F0"/>
<path d="M111.857 49.362C111.858 49.0363 111.783 48.715 111.637 48.4237C111.491 48.1325 111.279 47.8795 111.018 47.6851C110.757 47.4907 110.454 47.3603 110.133 47.3043C109.812 47.2483 109.483 47.2683 109.171 47.3628C109.201 47.1512 109.217 46.9379 109.22 46.7241C109.21 45.5617 108.743 44.4497 107.919 43.6296C107.095 42.8096 105.981 42.3476 104.819 42.344C104.546 42.3447 104.274 42.3702 104.006 42.4203C103.571 41.7048 102.915 41.1503 102.137 40.8403C101.359 40.5303 100.502 40.4818 99.6938 40.702C98.8859 40.9222 98.1715 41.3992 97.6584 42.061C97.1453 42.7229 96.8614 43.5336 96.8496 44.3709H96.7871C96.3067 44.3497 95.8269 44.426 95.3768 44.5952C94.9267 44.7644 94.5155 45.0231 94.1681 45.3555C93.8206 45.6879 93.5441 46.0873 93.3552 46.5295C93.1662 46.9717 93.0688 47.4476 93.0688 47.9285C93.0688 48.4094 93.1662 48.8853 93.3552 49.3275C93.5441 49.7697 93.8206 50.1691 94.1681 50.5015C94.5155 50.834 94.9267 51.0926 95.3768 51.2618C95.8269 51.431 96.3067 51.5073 96.7871 51.4861H109.844C110.392 51.468 110.91 51.2348 111.287 50.8373C111.664 50.4397 111.869 49.9096 111.857 49.362Z" fill="#F0F0F0"/>
<path d="M251.599 26.8642C251.6 26.5399 251.676 26.2202 251.822 25.9306C251.968 25.6409 252.179 25.3893 252.439 25.1958C252.699 25.0024 253.001 24.8723 253.321 24.8161C253.64 24.7598 253.968 24.779 254.279 24.8719C254.249 24.6604 254.232 24.447 254.23 24.2333C254.23 23.0624 254.695 21.9395 255.523 21.1115C256.351 20.2836 257.474 19.8184 258.645 19.8184C258.92 19.8191 259.194 19.8447 259.464 19.8948C259.897 19.1776 260.553 18.6212 261.331 18.31C262.109 17.9988 262.967 17.9497 263.776 18.1703C264.584 18.3908 265.299 18.8689 265.811 19.5321C266.323 20.1953 266.605 21.0075 266.614 21.8454H266.677C267.157 21.8242 267.637 21.9004 268.087 22.0697C268.537 22.2389 268.948 22.4975 269.296 22.8299C269.643 23.1624 269.92 23.5618 270.108 24.004C270.297 24.4462 270.395 24.9221 270.395 25.403C270.395 25.8838 270.297 26.3597 270.108 26.802C269.92 27.2442 269.643 27.6435 269.296 27.976C268.948 28.3084 268.537 28.5671 268.087 28.7363C267.637 28.9055 267.157 28.9818 266.677 28.9605H253.626C253.081 28.946 252.564 28.7183 252.185 28.3263C251.806 27.9344 251.595 27.4094 251.599 26.8642Z" fill="#F0F0F0"/>
<path d="M173.541 258.617C247.873 258.617 308.132 255.099 308.132 250.759C308.132 246.42 247.873 242.901 173.541 242.901C99.2081 242.901 38.9495 246.42 38.9495 250.759C38.9495 255.099 99.2081 258.617 173.541 258.617Z" fill="#F5F5F5"/>
<path d="M278.692 224.215V84.5074L275.381 82.8136C275.381 82.8136 272.653 194.4 267.253 224.215H278.692Z" fill="#407BFF" class="primary-bg-700"/>
<path d="M290.354 224.215C284.926 194.4 282.198 82.8136 282.198 82.8136L278.887 84.5074V224.215H290.354Z" fill="#407BFF" class="primary-bg-700"/>
<g opacity="0.2">
<path opacity="0.2" d="M278.692 224.215V84.5074L275.381 82.8136C275.381 82.8136 272.653 194.4 267.253 224.215H278.692Z" fill="white"/>
<path opacity="0.2" d="M290.354 224.215C284.926 194.4 282.198 82.8136 282.198 82.8136L278.887 84.5074V224.215H290.354Z" fill="white"/>
</g>
<g opacity="0.2">
<path opacity="0.2" d="M278.04 224.215V84.5074L276.235 82.8136C276.235 82.8136 274.757 194.4 271.799 224.215H278.04Z" fill="black"/>
<path opacity="0.2" d="M284.392 224.215C281.434 194.4 279.949 82.8136 279.949 82.8136L278.151 84.5074V224.215H284.392Z" fill="black"/>
</g>
<path d="M280.671 81.7238H276.915V224.215H280.671V81.7238Z" fill="#407BFF" class="primary-bg-700"/>
<path opacity="0.3" d="M280.671 81.7238H276.915V224.215H280.671V81.7238Z" fill="white"/>
<path d="M279.137 14.9662H278.436V32.4036H279.137V14.9662Z" fill="#407BFF" class="primary-bg-700"/>
<path opacity="0.2" d="M279.137 14.9662H278.436V32.4036H279.137V14.9662Z" fill="white"/>
<path d="M279.491 28.8494H278.082V42.3022H279.491V28.8494Z" fill="#407BFF" class="primary-bg-700"/>
<path opacity="0.2" d="M279.491 28.8494H278.082V42.3022H279.491V28.8494Z" fill="white"/>
<path d="M280.004 35.791H277.568V49.2439H280.004V35.791Z" fill="#407BFF" class="primary-bg-700"/>
<path opacity="0.2" d="M280.004 35.791H277.568V49.2439H280.004V35.791Z" fill="white"/>
<path d="M280.525 51.5554H277.054V71.4293H280.525V51.5554Z" fill="#407BFF" class="primary-bg-700"/>
<path opacity="0.2" d="M280.525 51.5554H277.054V71.4293H280.525V51.5554Z" fill="white"/>
<path opacity="0.2" d="M279.491 59.8438H278.082V64.4183H279.491V59.8438Z" fill="black"/>
<path d="M278.102 66.3064H276.318V71.7972H278.102V66.3064Z" fill="#407BFF" class="primary-bg-700"/>
<path opacity="0.3" d="M278.102 66.3064H276.318V71.7972H278.102V66.3064Z" fill="white"/>
<path d="M277.804 65.8969H276.298C276.133 65.8969 275.999 66.0305 275.999 66.1953V67.7017C275.999 67.8665 276.133 68.0002 276.298 68.0002H277.804C277.969 68.0002 278.102 67.8665 278.102 67.7017V66.1953C278.102 66.0305 277.969 65.8969 277.804 65.8969Z" fill="#407BFF" class="primary-bg-700"/>
<path opacity="0.4" d="M277.804 65.8969H276.298C276.133 65.8969 275.999 66.0305 275.999 66.1953V67.7017C275.999 67.8665 276.133 68.0002 276.298 68.0002H277.804C277.969 68.0002 278.102 67.8665 278.102 67.7017V66.1953C278.102 66.0305 277.969 65.8969 277.804 65.8969Z" fill="white"/>
<path d="M279.477 71.8042H281.261V66.3134H279.477V71.8042Z" fill="#407BFF" class="primary-bg-700"/>
<path opacity="0.3" d="M279.477 71.8042H281.261V66.3134H279.477V71.8042Z" fill="white"/>
<path d="M279.775 68.0001H281.282C281.447 68.0001 281.58 67.8665 281.58 67.7016V66.1953C281.58 66.0304 281.447 65.8968 281.282 65.8968H279.775C279.61 65.8968 279.477 66.0304 279.477 66.1953V67.7016C279.477 67.8665 279.61 68.0001 279.775 68.0001Z" fill="#407BFF" class="primary-bg-700"/>
<path opacity="0.4" d="M279.775 68.0001H281.282C281.447 68.0001 281.58 67.8665 281.58 67.7016V66.1953C281.58 66.0304 281.447 65.8968 281.282 65.8968H279.775C279.61 65.8968 279.477 66.0304 279.477 66.1953V67.7016C279.477 67.8665 279.61 68.0001 279.775 68.0001Z" fill="white"/>
<path d="M289.029 73.8798L288.897 74.8169L288.557 77.2673L288.383 78.4543L288.265 79.3151L288.071 80.6548H269.509L269.314 79.3151L269.196 78.4543L269.03 77.2673L268.683 74.8169L268.551 73.8798H289.029Z" fill="#407BFF" class="primary-bg-700"/>
<path d="M285.468 74.2754H272.112L272.556 70.5477C272.571 70.4189 272.634 70.3003 272.731 70.2145C272.828 70.1287 272.954 70.0817 273.084 70.0827H284.496C284.625 70.0832 284.75 70.1307 284.847 70.2162C284.944 70.3017 285.006 70.4195 285.023 70.5477L285.468 74.2754Z" fill="#407BFF" class="primary-bg-700"/>
<path opacity="0.4" d="M285.468 74.2754H272.112L272.556 70.5477C272.571 70.4189 272.634 70.3003 272.731 70.2145C272.828 70.1287 272.954 70.0817 273.084 70.0827H284.496C284.625 70.0832 284.75 70.1307 284.847 70.2162C284.944 70.3017 285.006 70.4195 285.023 70.5477L285.468 74.2754Z" fill="white"/>
<path opacity="0.2" d="M274.93 74.2685H282.649L282.455 71.4293H275.124L274.93 74.2685Z" fill="black"/>
<g opacity="0.2">
<path opacity="0.2" d="M273.889 74.2685H272.112L272.452 71.4293H274.139L273.889 74.2685Z" fill="black"/>
<path opacity="0.2" d="M285.467 74.2685H283.69L283.441 71.4293H285.127L285.467 74.2685Z" fill="black"/>
</g>
<path d="M289.577 73.8798H268.002L268.384 72.9496C268.476 72.7194 268.635 72.5221 268.841 72.3835C269.046 72.2448 269.289 72.1712 269.536 72.1721H288.078C288.325 72.1712 288.568 72.2448 288.773 72.3835C288.979 72.5221 289.138 72.7194 289.23 72.9496L289.577 73.8798Z" fill="#407BFF" class="primary-bg-700"/>
<path opacity="0.2" d="M289.577 73.8798H268.002L268.384 72.9496C268.476 72.7194 268.635 72.5221 268.841 72.3835C269.046 72.2448 269.289 72.1712 269.536 72.1721H288.078C288.325 72.1712 288.568 72.2448 288.773 72.3835C288.979 72.5221 289.138 72.7194 289.23 72.9496L289.577 73.8798Z" fill="black"/>
<path d="M286.564 82.7859H271.015L269.064 80.6548H288.515L286.564 82.7859Z" fill="#407BFF" class="primary-bg-700"/>
<path opacity="0.2" d="M286.564 82.7859H271.015L269.064 80.6548H288.515L286.564 82.7859Z" fill="black"/>
<path opacity="0.4" d="M277.214 82.7859H276.825L276.332 80.6548H276.811L277.214 82.7859Z" fill="white"/>
<path opacity="0.4" d="M280.754 82.7859H280.365L280.761 80.6548H281.247L280.754 82.7859Z" fill="white"/>
<path opacity="0.4" d="M274.5 82.7859H274.118L272.945 80.6548H273.424L274.5 82.7859Z" fill="white"/>
<path opacity="0.4" d="M283.461 82.7859H283.08L284.155 80.6548H284.634L283.461 82.7859Z" fill="white"/>
<path opacity="0.4" d="M272.07 82.7859H271.688L269.904 80.6548H270.383L272.07 82.7859Z" fill="white"/>
<path opacity="0.4" d="M285.891 82.7859H285.509L287.196 80.6548H287.675L285.891 82.7859Z" fill="white"/>
<path d="M268.835 79.3151H288.737L288.536 80.6548H269.037L268.835 79.3151Z" fill="#407BFF" class="primary-bg-700"/>
<path d="M289.042 77.2672L288.862 78.4542H268.71L268.537 77.2672H289.042Z" fill="#407BFF" class="primary-bg-700"/>
<path d="M289.542 73.8798L289.403 74.8169H268.169L268.03 73.8798H289.542Z" fill="#407BFF" class="primary-bg-700"/>
<path opacity="0.4" d="M268.835 79.3151H288.737L288.536 80.6548H269.037L268.835 79.3151Z" fill="white"/>
<path opacity="0.4" d="M289.042 77.2672L288.862 78.4542H268.71L268.537 77.2672H289.042Z" fill="white"/>
<path opacity="0.4" d="M289.542 73.8798L289.403 74.8169H268.169L268.03 73.8798H289.542Z" fill="white"/>
<path d="M284.211 86.4928H273.361C272.702 86.4935 272.058 86.2867 271.523 85.9018C270.987 85.5169 270.586 84.9732 270.376 84.3478L269.974 83.1538C269.944 83.0664 269.936 82.9731 269.949 82.8818C269.962 82.7904 269.997 82.7035 270.051 82.6283C270.104 82.5531 270.175 82.4916 270.257 82.449C270.339 82.4064 270.43 82.3839 270.522 82.3833H287.05C287.143 82.3828 287.235 82.4045 287.318 82.4466C287.4 82.4888 287.472 82.5501 287.526 82.6255C287.581 82.7009 287.616 82.7881 287.63 82.8801C287.644 82.972 287.635 83.0658 287.606 83.1538L287.203 84.3478C286.992 84.9738 286.59 85.5176 286.053 85.9025C285.516 86.2874 284.872 86.4939 284.211 86.4928Z" fill="#407BFF" class="primary-bg-700"/>
<path opacity="0.4" d="M284.211 86.4928H273.361C272.702 86.4935 272.058 86.2867 271.523 85.9018C270.987 85.5169 270.586 84.9732 270.376 84.3478L269.974 83.1538C269.944 83.0664 269.936 82.9731 269.949 82.8818C269.962 82.7904 269.997 82.7035 270.051 82.6283C270.104 82.5531 270.175 82.4916 270.257 82.449C270.339 82.4064 270.43 82.3839 270.522 82.3833H287.05C287.143 82.3828 287.235 82.4045 287.318 82.4466C287.4 82.4888 287.472 82.5501 287.526 82.6255C287.581 82.7009 287.616 82.7881 287.63 82.8801C287.644 82.972 287.635 83.0658 287.606 83.1538L287.203 84.3478C286.992 84.9738 286.59 85.5176 286.053 85.9025C285.516 86.2874 284.872 86.4939 284.211 86.4928Z" fill="white"/>
<path d="M281.414 50.8058H276.166L276.86 52.2635H280.719L281.414 50.8058Z" fill="#407BFF" class="primary-bg-700"/>
<path d="M281.407 49.702H276.166V50.8057H281.407V49.702Z" fill="#407BFF" class="primary-bg-700"/>
<path opacity="0.4" d="M281.407 49.702H276.166V50.8057H281.407V49.702Z" fill="white"/>
<path d="M280.025 47.4738H277.554L276.166 49.702H281.414L280.025 47.4738Z" fill="#407BFF" class="primary-bg-700"/>
<path opacity="0.5" d="M280.025 47.4738H277.554L276.166 49.702H281.414L280.025 47.4738Z" fill="white"/>
<path d="M93.0317 185.036H79.3845V224.909H93.0317V185.036Z" fill="#407BFF" class="primary-bg-700"/>
<path d="M134.182 192.54H120.534V224.902H134.182V192.54Z" fill="#407BFF" class="primary-bg-700"/>
<g opacity="0.7">
<path opacity="0.7" d="M93.0317 185.036H79.3845V224.909H93.0317V185.036Z" fill="white"/>
</g>
<path d="M113.863 197.663H100.216V224.909H113.863V197.663Z" fill="#407BFF" class="primary-bg-700"/>
<g opacity="0.7">
<path opacity="0.7" d="M134.182 192.54H120.534V224.902H134.182V192.54Z" fill="white"/>
</g>
<g opacity="0.7">
<path opacity="0.7" d="M113.863 197.663H100.216V224.909H113.863V197.663Z" fill="white"/>
</g>
<g opacity="0.2">
<path opacity="0.2" d="M93.0317 187.764H79.3845V188.104H93.0317V187.764Z" fill="black"/>
<path opacity="0.2" d="M93.0318 190.492H79.3845V190.832H93.0318V190.492Z" fill="black"/>
<path opacity="0.2" d="M93.0318 193.227H79.3845V193.567H93.0318V193.227Z" fill="black"/>
<path opacity="0.2" d="M93.0318 195.955H79.3845V196.295H93.0318V195.955Z" fill="black"/>
<path opacity="0.2" d="M93.0318 198.683H79.3845V199.023H93.0318V198.683Z" fill="black"/>
<path opacity="0.2" d="M93.0318 201.411H79.3845V201.752H93.0318V201.411Z" fill="black"/>
<path opacity="0.2" d="M93.0318 204.146H79.3845V204.486H93.0318V204.146Z" fill="black"/>
<path opacity="0.2" d="M93.0318 206.874H79.3845V207.215H93.0318V206.874Z" fill="black"/>
<path opacity="0.2" d="M93.0318 209.602H79.3845V209.943H93.0318V209.602Z" fill="black"/>
<path opacity="0.2" d="M93.0318 212.331H79.3845V212.671H93.0318V212.331Z" fill="black"/>
<path opacity="0.2" d="M93.0318 215.066H79.3845V215.406H93.0318V215.066Z" fill="black"/>
<path opacity="0.2" d="M93.0318 217.794H79.3845V218.134H93.0318V217.794Z" fill="black"/>
<path opacity="0.2" d="M93.0318 220.522H79.3845V220.862H93.0318V220.522Z" fill="black"/>
<path opacity="0.2" d="M93.0318 223.25H79.3845V223.59H93.0318V223.25Z" fill="black"/>
<path opacity="0.2" d="M113.864 208.582H100.216V208.922H113.864V208.582Z" fill="black"/>
<path opacity="0.2" d="M113.864 200.391H100.216V200.731H113.864V200.391Z" fill="black"/>
<path opacity="0.2" d="M113.864 203.119H100.216V203.459H113.864V203.119Z" fill="black"/>
<path opacity="0.2" d="M113.864 205.854H100.216V206.194H113.864V205.854Z" fill="black"/>
<path opacity="0.2" d="M113.864 211.31H100.216V211.65H113.864V211.31Z" fill="black"/>
<path opacity="0.2" d="M113.864 214.038H100.216V214.378H113.864V214.038Z" fill="black"/>
<path opacity="0.2" d="M113.864 216.773H100.216V217.113H113.864V216.773Z" fill="black"/>
<path opacity="0.2" d="M113.864 219.501H100.216V219.841H113.864V219.501Z" fill="black"/>
<path opacity="0.2" d="M113.864 222.229H100.216V222.569H113.864V222.229Z" fill="black"/>
<path opacity="0.2" d="M134.182 195.275H120.534V195.615H134.182V195.275Z" fill="black"/>
<path opacity="0.2" d="M134.182 198.003H120.534V198.343H134.182V198.003Z" fill="black"/>
<path opacity="0.2" d="M134.182 200.731H120.534V201.071H134.182V200.731Z" fill="black"/>
<path opacity="0.2" d="M134.182 203.459H120.534V203.799H134.182V203.459Z" fill="black"/>
<path opacity="0.2" d="M134.182 206.194H120.534V206.534H134.182V206.194Z" fill="black"/>
<path opacity="0.2" d="M134.182 208.922H120.534V209.262H134.182V208.922Z" fill="black"/>
<path opacity="0.2" d="M134.182 211.65H120.534V211.99H134.182V211.65Z" fill="black"/>
<path opacity="0.2" d="M134.182 214.378H120.534V214.718H134.182V214.378Z" fill="black"/>
<path opacity="0.2" d="M134.182 217.113H120.534V217.453H134.182V217.113Z" fill="black"/>
<path opacity="0.2" d="M134.182 219.841H120.534V220.181H134.182V219.841Z" fill="black"/>
<path opacity="0.2" d="M134.182 222.569H120.534V222.91H134.182V222.569Z" fill="black"/>
</g>
<path d="M69.6245 192.54H55.9773V224.902H69.6245V192.54Z" fill="#407BFF" class="primary-bg-700"/>
<path d="M47.2239 197.663H33.5767V224.909H47.2239V197.663Z" fill="#407BFF" class="primary-bg-700"/>
<g opacity="0.7">
<path opacity="0.7" d="M69.6245 192.54H55.9773V224.902H69.6245V192.54Z" fill="white"/>
</g>
<g opacity="0.7">
<path opacity="0.7" d="M47.2239 197.663H33.5767V224.909H47.2239V197.663Z" fill="white"/>
</g>
<g opacity="0.2">
<path opacity="0.2" d="M47.2239 208.582H33.5767V208.922H47.2239V208.582Z" fill="black"/>
<path opacity="0.2" d="M47.2239 200.391H33.5767V200.731H47.2239V200.391Z" fill="black"/>
<path opacity="0.2" d="M47.2239 203.119H33.5767V203.459H47.2239V203.119Z" fill="black"/>
<path opacity="0.2" d="M47.2239 205.854H33.5767V206.194H47.2239V205.854Z" fill="black"/>
<path opacity="0.2" d="M47.2239 211.31H33.5767V211.65H47.2239V211.31Z" fill="black"/>
<path opacity="0.2" d="M47.2239 214.038H33.5767V214.378H47.2239V214.038Z" fill="black"/>
<path opacity="0.2" d="M47.2239 216.773H33.5767V217.113H47.2239V216.773Z" fill="black"/>
<path opacity="0.2" d="M47.2239 219.501H33.5767V219.841H47.2239V219.501Z" fill="black"/>
<path opacity="0.2" d="M47.2239 222.229H33.5767V222.57H47.2239V222.229Z" fill="black"/>
</g>
<g opacity="0.2">
<path opacity="0.2" d="M69.6245 195.275H55.9773V195.615H69.6245V195.275Z" fill="black"/>
<path opacity="0.2" d="M69.6245 198.003H55.9772V198.343H69.6245V198.003Z" fill="black"/>
<path opacity="0.2" d="M69.6245 200.731H55.9772V201.071H69.6245V200.731Z" fill="black"/>
<path opacity="0.2" d="M69.6245 203.459H55.9772V203.799H69.6245V203.459Z" fill="black"/>
<path opacity="0.2" d="M69.6245 206.194H55.9772V206.534H69.6245V206.194Z" fill="black"/>
<path opacity="0.2" d="M69.6245 208.922H55.9772V209.262H69.6245V208.922Z" fill="black"/>
<path opacity="0.2" d="M69.6245 211.65H55.9772V211.99H69.6245V211.65Z" fill="black"/>
<path opacity="0.2" d="M69.6245 214.378H55.9772V214.718H69.6245V214.378Z" fill="black"/>
<path opacity="0.2" d="M69.6245 217.113H55.9772V217.454H69.6245V217.113Z" fill="black"/>
<path opacity="0.2" d="M69.6245 219.841H55.9772V220.182H69.6245V219.841Z" fill="black"/>
<path opacity="0.2" d="M69.6245 222.569H55.9772V222.91H69.6245V222.569Z" fill="black"/>
</g>
<path d="M242.277 184.342H228.629V224.215H242.277V184.342Z" fill="#407BFF" class="primary-bg-700"/>
<g opacity="0.7">
<path opacity="0.7" d="M242.277 184.342H228.629V224.215H242.277V184.342Z" fill="white"/>
</g>
<path d="M265.191 196.969H251.544V224.215H265.191V196.969Z" fill="#407BFF" class="primary-bg-700"/>
<g opacity="0.7">
<path opacity="0.7" d="M265.191 196.969H251.544V224.215H265.191V196.969Z" fill="white"/>
</g>
<g opacity="0.2">
<path opacity="0.2" d="M242.277 187.07H228.629V187.41H242.277V187.07Z" fill="black"/>
<path opacity="0.2" d="M242.277 189.798H228.629V190.138H242.277V189.798Z" fill="black"/>
<path opacity="0.2" d="M242.277 192.533H228.629V192.873H242.277V192.533Z" fill="black"/>
<path opacity="0.2" d="M242.277 195.261H228.629V195.601H242.277V195.261Z" fill="black"/>
<path opacity="0.2" d="M242.277 197.989H228.629V198.329H242.277V197.989Z" fill="black"/>
<path opacity="0.2" d="M242.277 200.717H228.629V201.057H242.277V200.717Z" fill="black"/>
<path opacity="0.2" d="M242.277 203.452H228.629V203.792H242.277V203.452Z" fill="black"/>
<path opacity="0.2" d="M242.277 206.18H228.629V206.52H242.277V206.18Z" fill="black"/>
<path opacity="0.2" d="M242.277 208.908H228.629V209.248H242.277V208.908Z" fill="black"/>
<path opacity="0.2" d="M242.277 211.636H228.629V211.976H242.277V211.636Z" fill="black"/>
<path opacity="0.2" d="M242.277 214.371H228.629V214.711H242.277V214.371Z" fill="black"/>
<path opacity="0.2" d="M242.277 217.099H228.629V217.44H242.277V217.099Z" fill="black"/>
<path opacity="0.2" d="M242.277 219.828H228.629V220.168H242.277V219.828Z" fill="black"/>
<path opacity="0.2" d="M242.277 222.556H228.629V222.896H242.277V222.556Z" fill="black"/>
<path opacity="0.2" d="M265.191 207.888H251.544V208.228H265.191V207.888Z" fill="black"/>
<path opacity="0.2" d="M265.191 199.697H251.544V200.037H265.191V199.697Z" fill="black"/>
<path opacity="0.2" d="M265.191 202.425H251.544V202.765H265.191V202.425Z" fill="black"/>
<path opacity="0.2" d="M265.191 205.16H251.544V205.5H265.191V205.16Z" fill="black"/>
<path opacity="0.2" d="M265.191 210.616H251.544V210.956H265.191V210.616Z" fill="black"/>
<path opacity="0.2" d="M265.191 213.344H251.544V213.684H265.191V213.344Z" fill="black"/>
<path opacity="0.2" d="M265.191 216.079H251.544V216.419H265.191V216.079Z" fill="black"/>
<path opacity="0.2" d="M265.191 218.807H251.544V219.147H265.191V218.807Z" fill="black"/>
<path opacity="0.2" d="M265.191 221.535H251.544V221.875H265.191V221.535Z" fill="black"/>
</g>
<path d="M310.499 192.54H296.852V224.902H310.499V192.54Z" fill="#407BFF" class="primary-bg-700"/>
<g opacity="0.7">
<path opacity="0.7" d="M310.499 192.54H296.852V224.902H310.499V192.54Z" fill="white"/>
</g>
<g opacity="0.2">
<path opacity="0.2" d="M310.499 195.275H296.852V195.615H310.499V195.275Z" fill="black"/>
<path opacity="0.2" d="M310.499 198.003H296.852V198.343H310.499V198.003Z" fill="black"/>
<path opacity="0.2" d="M310.499 200.731H296.852V201.071H310.499V200.731Z" fill="black"/>
<path opacity="0.2" d="M310.499 203.459H296.852V203.799H310.499V203.459Z" fill="black"/>
<path opacity="0.2" d="M310.499 206.194H296.852V206.534H310.499V206.194Z" fill="black"/>
<path opacity="0.2" d="M310.499 208.922H296.852V209.262H310.499V208.922Z" fill="black"/>
<path opacity="0.2" d="M310.499 211.65H296.852V211.99H310.499V211.65Z" fill="black"/>
<path opacity="0.2" d="M310.499 214.378H296.852V214.718H310.499V214.378Z" fill="black"/>
<path opacity="0.2" d="M310.499 217.113H296.852V217.454H310.499V217.113Z" fill="black"/>
<path opacity="0.2" d="M310.499 219.841H296.852V220.182H310.499V219.841Z" fill="black"/>
<path opacity="0.2" d="M310.499 222.569H296.852V222.91H310.499V222.569Z" fill="black"/>
</g>
<path d="M310.43 222.729H33.9515C32.7487 222.727 31.5928 223.195 30.7306 224.034L27.2181 227.442H317.163L313.651 224.034C312.788 223.195 311.632 222.727 310.43 222.729Z" fill="#407BFF" class="primary-bg-700"/>
<path opacity="0.15" d="M310.43 222.729H33.9515C32.7487 222.727 31.5928 223.195 30.7306 224.034L27.2181 227.442H317.163L313.651 224.034C312.788 223.195 311.632 222.727 310.43 222.729Z" fill="white"/>
<path d="M244.304 208.943C244.304 200.113 218.189 180.35 185.994 180.35C153.799 180.35 127.684 200.113 127.684 208.943C127.684 217.773 153.799 224.215 185.994 224.215C218.189 224.215 244.304 217.752 244.304 208.943Z" fill="#407BFF" class="primary-bg-700"/>
<path opacity="0.3" d="M244.304 208.943C244.304 200.113 218.189 180.35 185.994 180.35C153.799 180.35 127.684 200.113 127.684 208.943C127.684 217.773 153.799 224.215 185.994 224.215C218.189 224.215 244.304 217.752 244.304 208.943Z" fill="white"/>
<path d="M244.817 204.278H232.656V224.215H244.817V204.278Z" fill="#407BFF" class="primary-bg-700"/>
<path d="M139.305 204.278H127.143V224.215H139.305V204.278Z" fill="#407BFF" class="primary-bg-700"/>
<path d="M234.585 209.137C234.585 202.328 212.823 187.091 185.994 187.091C159.165 187.091 137.403 202.362 137.403 209.137C137.403 215.912 159.165 221.466 185.994 221.466C212.823 221.466 234.585 215.947 234.585 209.137Z" fill="#407BFF" class="primary-bg-700"/>
<path opacity="0.5" d="M234.585 209.137C234.585 202.328 212.823 187.091 185.994 187.091C159.165 187.091 137.403 202.362 137.403 209.137C137.403 215.912 159.165 221.466 185.994 221.466C212.823 221.466 234.585 215.947 234.585 209.137Z" fill="white"/>
<path d="M234.578 208.853H137.368V224.215H234.578V208.853Z" fill="#407BFF" class="primary-bg-700"/>
<path opacity="0.3" d="M234.578 208.853H137.368V224.215H234.578V208.853Z" fill="white"/>
<path opacity="0.2" d="M208.908 208.853H163.045V224.215H208.908V208.853Z" fill="white"/>
<path opacity="0.2" d="M181.919 214.482H176.151V224.215H181.919V214.482Z" fill="black"/>
<path opacity="0.2" d="M188.861 214.482H183.092V224.215H188.861V214.482Z" fill="black"/>
<path opacity="0.2" d="M195.802 214.482H190.034V224.215H195.802V214.482Z" fill="black"/>
<path opacity="0.2" d="M219.404 214.482H213.635V224.215H219.404V214.482Z" fill="black"/>
<path opacity="0.2" d="M226.346 214.482H220.577V224.215H226.346V214.482Z" fill="black"/>
<path opacity="0.2" d="M233.287 214.482H227.519V224.215H233.287V214.482Z" fill="black"/>
<path opacity="0.2" d="M144.434 214.482H138.666V224.215H144.434V214.482Z" fill="black"/>
<path opacity="0.2" d="M151.376 214.482H145.608V224.215H151.376V214.482Z" fill="black"/>
<path opacity="0.2" d="M158.318 214.482H152.549V224.215H158.318V214.482Z" fill="black"/>
<path d="M263.088 240.784C263.088 240.784 264.782 235.106 261.359 233.975C257.937 232.843 255.896 230.191 256.014 227.193C256.132 224.194 252.543 221.271 249.815 224.083C247.087 226.894 247.469 221.924 243.866 220.716C240.264 219.508 237.202 222.438 238.188 225.117C239.174 227.796 235.62 229.476 231.358 227.2C227.095 224.923 222.41 229.067 223.312 232.316C224.215 235.564 223.472 235.918 220.779 234.835C218.085 233.752 213.254 236.821 214.948 240.791C216.641 244.762 263.088 240.784 263.088 240.784Z" fill="#407BFF" class="primary-bg-700"/>
<path opacity="0.3" d="M263.088 240.784C263.088 240.784 264.782 235.106 261.359 233.975C257.937 232.843 255.896 230.191 256.014 227.193C256.132 224.194 252.543 221.271 249.815 224.083C247.087 226.894 247.469 221.924 243.866 220.716C240.264 219.508 237.202 222.438 238.188 225.117C239.174 227.796 235.62 229.476 231.358 227.2C227.095 224.923 222.41 229.067 223.312 232.316C224.215 235.564 223.472 235.918 220.779 234.835C218.085 233.752 213.254 236.821 214.948 240.791C216.641 244.762 263.088 240.784 263.088 240.784Z" fill="white"/>
<path d="M125.262 240.486C128.309 237.438 125.567 232.267 122.527 231.663C119.486 231.059 116.425 225.7 116.279 222.292C116.133 218.883 110.657 208.408 102.139 214.878C93.6218 221.348 96.211 215.829 90.0468 214.01C83.8827 212.192 80.0023 217.426 82.7026 221.348C82.7026 221.348 76.5107 219.8 73.9631 225.575C71.4155 231.351 73.9631 234.946 73.9631 234.946C73.9631 234.946 62.3289 234.627 63.3771 241.805C64.4253 248.982 125.262 240.486 125.262 240.486Z" fill="#407BFF" class="primary-bg-700"/>
<path opacity="0.3" d="M125.262 240.486C128.309 237.438 125.567 232.267 122.527 231.663C119.486 231.059 116.425 225.7 116.279 222.292C116.133 218.883 110.657 208.408 102.139 214.878C93.6218 221.348 96.211 215.829 90.0468 214.01C83.8827 212.192 80.0023 217.426 82.7026 221.348C82.7026 221.348 76.5107 219.8 73.9631 225.575C71.4155 231.351 73.9631 234.946 73.9631 234.946C73.9631 234.946 62.3289 234.627 63.3771 241.805C64.4253 248.982 125.262 240.486 125.262 240.486Z" fill="white"/>
<path d="M288.619 240.055V248.385H53.7769V240.055C53.7591 239.721 53.809 239.386 53.9237 239.072C54.0385 238.757 54.2156 238.469 54.4444 238.225C54.6733 237.98 54.9492 237.785 55.2556 237.65C55.5619 237.514 55.8924 237.443 56.2273 237.438H286.162C286.497 237.442 286.828 237.513 287.136 237.648C287.443 237.782 287.72 237.978 287.949 238.222C288.179 238.467 288.356 238.755 288.472 239.07C288.587 239.385 288.637 239.72 288.619 240.055Z" fill="#263238"/>
<path d="M81.7586 237.438H67.1603V248.392H81.7586V237.438Z" fill="#407BFF" class="primary-bg-700"/>
<path d="M109.143 237.438H95.1489V248.392H109.143V237.438Z" fill="#407BFF" class="primary-bg-700"/>
<path d="M137.125 237.438H122.527V248.392H137.125V237.438Z" fill="#407BFF" class="primary-bg-700"/>
<path d="M164.51 237.438H150.515V248.392H164.51V237.438Z" fill="#407BFF" class="primary-bg-700"/>
<path d="M191.887 237.438H177.893V248.392H191.887V237.438Z" fill="#407BFF" class="primary-bg-700"/>
<path d="M219.869 237.438H205.271V248.392H219.869V237.438Z" fill="#407BFF" class="primary-bg-700"/>
<path d="M247.254 237.438H233.26V248.392H247.254V237.438Z" fill="#407BFF" class="primary-bg-700"/>
<path d="M275.236 237.438H260.637V248.392H275.236V237.438Z" fill="#407BFF" class="primary-bg-700"/>
<g opacity="0.6">
<path opacity="0.6" d="M81.7586 237.438H67.1603V248.392H81.7586V237.438Z" fill="white"/>
<path opacity="0.6" d="M109.143 237.438H95.149V248.392H109.143V237.438Z" fill="white"/>
<path opacity="0.6" d="M137.125 237.438H122.527V248.392H137.125V237.438Z" fill="white"/>
<path opacity="0.6" d="M164.51 237.438H150.515V248.392H164.51V237.438Z" fill="white"/>
<path opacity="0.6" d="M191.888 237.438H177.893V248.392H191.888V237.438Z" fill="white"/>
<path opacity="0.6" d="M219.869 237.438H205.271V248.392H219.869V237.438Z" fill="white"/>
<path opacity="0.6" d="M247.254 237.438H233.26V248.392H247.254V237.438Z" fill="white"/>
<path opacity="0.6" d="M275.236 237.438H260.637V248.392H275.236V237.438Z" fill="white"/>
</g>
<path opacity="0.1" d="M288.619 240.055V248.385H53.7769V240.055C53.7591 239.721 53.809 239.386 53.9237 239.072C54.0385 238.757 54.2156 238.469 54.4444 238.225C54.6733 237.98 54.9492 237.785 55.2556 237.65C55.5619 237.514 55.8924 237.443 56.2273 237.438H286.162C286.497 237.442 286.828 237.513 287.136 237.648C287.443 237.782 287.72 237.978 287.949 238.222C288.179 238.467 288.356 238.755 288.472 239.07C288.587 239.385 288.637 239.72 288.619 240.055Z" fill="white"/>
<path d="M144.386 152.133C144.861 152.056 145.349 152.136 145.774 152.362C146.33 152.723 150.737 156.686 151.203 157.644C151.668 158.602 147.871 159.9 147.232 160.22C146.593 160.539 141.956 156.055 141.79 154.382C141.623 152.709 144.386 152.133 144.386 152.133Z" fill="#B97964"/>
<path opacity="0.1" d="M144.386 152.133C144.861 152.056 145.349 152.136 145.774 152.362C146.33 152.723 150.737 156.686 151.203 157.644C151.668 158.602 147.871 159.9 147.232 160.22C146.593 160.539 141.956 156.055 141.79 154.382C141.623 152.709 144.386 152.133 144.386 152.133Z" fill="black"/>
<path d="M123.561 137.062C123.561 137.062 125.692 147.058 127.566 148.572C129.649 150.251 144.469 152.237 144.469 152.237L144.198 155.555C144.198 155.555 127.997 154.798 124.158 152.084C121.201 150.002 117.008 139.818 117.008 139.818L123.561 137.062Z" fill="#B97964"/>
<path opacity="0.1" d="M123.561 137.062C123.561 137.062 125.692 147.058 127.566 148.572C129.649 150.251 144.469 152.237 144.469 152.237L144.198 155.555C144.198 155.555 127.997 154.798 124.158 152.084C121.201 150.002 117.008 139.818 117.008 139.818L123.561 137.062Z" fill="black"/>
<path d="M120.09 124.887C115.675 121.721 113.038 129.746 113.454 134.251C113.871 138.756 117.314 144.441 117.314 144.441L125.088 141.318C125.088 141.318 123.755 127.525 120.09 124.887Z" fill="#407BFF" class="primary-bg-700"/>
<path opacity="0.2" d="M120.09 124.887C115.675 121.721 113.038 129.746 113.454 134.251C113.871 138.756 117.314 144.441 117.314 144.441L125.088 141.318C125.088 141.318 123.755 127.525 120.09 124.887Z" fill="black"/>
<path d="M116.599 144.15L125.519 140.276L125.998 141.859L117.168 145.406L116.251 144.15" fill="#407BFF" class="primary-bg-700"/>
<path opacity="0.7" d="M116.599 144.15L125.519 140.276L125.998 141.859L117.168 145.406L116.251 144.15" fill="white"/>
<path d="M128.955 200.44L124.922 208.304L122.117 213.768L117.064 211.053L119.875 205.59L123.679 198.163L128.955 200.44Z" fill="#E4897B"/>
<path opacity="0.2" d="M128.955 200.44L124.922 208.304L119.875 205.59L123.679 198.163L128.955 200.44Z" fill="black"/>
<path d="M123.651 210.519H116.939C116.829 210.521 116.722 210.559 116.637 210.628C116.551 210.698 116.491 210.793 116.467 210.901L115.377 215.822C115.353 215.941 115.356 216.064 115.386 216.182C115.415 216.3 115.471 216.41 115.548 216.504C115.624 216.599 115.721 216.675 115.831 216.727C115.941 216.779 116.06 216.807 116.182 216.808C118.355 216.773 119.937 216.641 122.665 216.641C124.345 216.641 129.413 216.815 131.738 216.815C134.064 216.815 134.362 214.524 133.411 214.309C129.149 213.386 125.942 212.095 124.581 210.838C124.321 210.622 123.99 210.508 123.651 210.519Z" fill="#263238"/>
<path d="M86.5899 149.509C86.5899 149.509 85.8055 155.444 87.0272 164.586C88.2489 173.728 128.031 169.778 130.905 171.569C133.501 173.18 119.34 202.772 119.34 202.772L128.198 204.854C128.198 204.854 146.94 168.834 144.927 165.537C138.486 155.09 110.518 156.791 105.79 152.258C103.958 150.501 104.596 148.828 104.596 148.828L86.5899 149.509Z" fill="#263238"/>
<path opacity="0.3" d="M128.198 204.868L119.34 202.786C119.34 202.786 133.501 173.194 130.905 171.583C130.294 171.201 128.038 171.083 124.838 171.035C112.926 170.882 87.9921 171.812 87.0272 164.6C86.8051 162.948 86.6524 161.4 86.5482 159.977C86.2362 156.498 86.2502 152.998 86.5899 149.523L104.596 148.828C104.596 148.828 103.958 150.501 105.79 152.258C110.518 156.791 138.486 155.09 144.927 165.537C146.954 168.848 128.198 204.868 128.198 204.868Z" fill="white"/>
<path opacity="0.2" d="M124.838 171.021C112.926 170.868 87.9921 171.798 87.0272 164.586C86.8051 162.934 86.6523 161.386 86.5482 159.963L96.1554 157.131C96.1554 157.131 117.015 159.074 124.838 171.021Z" fill="black"/>
<path d="M154.472 165.405C154.472 165.405 149.356 165.148 148.669 165.079C147.982 165.009 142.664 165.134 142.914 160.331C143.164 155.527 147.641 155.555 148.912 155.562L156.811 155.604C157.119 155.604 157.415 155.492 157.646 155.289C157.876 155.085 158.024 154.805 158.061 154.5C158.079 154.332 158.063 154.163 158.015 154.002C157.966 153.841 157.886 153.691 157.779 153.562C157.671 153.432 157.539 153.326 157.389 153.248C157.24 153.171 157.076 153.124 156.909 153.111L156.214 153.063C156.214 153.063 149.786 153.063 147.975 153.195C146.163 153.327 140.221 152.882 140.221 160.227C140.221 167.571 146.336 167.356 147.489 167.363L154.382 167.404L154.472 165.405Z" fill="#263238"/>
<path opacity="0.3" d="M154.472 165.405C154.472 165.405 149.356 165.148 148.669 165.079C147.982 165.009 142.664 165.134 142.914 160.331C143.164 155.527 147.641 155.555 148.912 155.562L156.811 155.604C157.119 155.604 157.415 155.492 157.646 155.289C157.876 155.085 158.024 154.805 158.061 154.5C158.079 154.332 158.063 154.163 158.015 154.002C157.966 153.841 157.886 153.691 157.779 153.562C157.671 153.432 157.539 153.326 157.389 153.248C157.24 153.171 157.076 153.124 156.909 153.111L156.214 153.063C156.214 153.063 149.786 153.063 147.975 153.195C146.163 153.327 140.221 152.882 140.221 160.227C140.221 167.571 146.336 167.356 147.489 167.363L154.382 167.404L154.472 165.405Z" fill="white"/>
<path d="M130.301 217.12H123.61V219.821H130.301V217.12Z" fill="#263238"/>
<path d="M126.736 218.119L114.309 229.09L115.793 230.771L128.22 219.8L126.736 218.119Z" fill="#263238"/>
<path opacity="0.05" d="M126.736 218.119L114.309 229.09L115.793 230.771L128.22 219.8L126.736 218.119Z" fill="white"/>
<path d="M76.2607 221.799C76.2621 222.469 76.0644 223.125 75.6927 223.684C75.321 224.242 74.7921 224.677 74.1728 224.934C73.5535 225.191 72.8718 225.259 72.2141 225.129C71.5563 224.998 70.9521 224.675 70.4779 224.201C70.0037 223.727 69.681 223.123 69.5505 222.465C69.42 221.807 69.4877 221.126 69.7449 220.506C70.0022 219.887 70.4374 219.358 70.9956 218.986C71.5537 218.615 72.2096 218.417 72.8802 218.418C73.7768 218.418 74.6366 218.775 75.2706 219.408C75.9046 220.042 76.2607 220.902 76.2607 221.799Z" fill="#263238"/>
<path opacity="0.6" d="M76.2607 221.799C76.2621 222.469 76.0644 223.125 75.6927 223.684C75.321 224.242 74.7921 224.677 74.1728 224.934C73.5535 225.191 72.8718 225.259 72.2141 225.129C71.5563 224.998 70.9521 224.675 70.4779 224.201C70.0037 223.727 69.681 223.123 69.5505 222.465C69.42 221.807 69.4877 221.126 69.7449 220.506C70.0022 219.887 70.4374 219.358 70.9956 218.986C71.5537 218.615 72.2096 218.417 72.8802 218.418C73.7768 218.418 74.6366 218.775 75.2706 219.408C75.9046 220.042 76.2607 220.902 76.2607 221.799Z" fill="white"/>
<path d="M173.652 221.799C173.652 222.468 173.454 223.121 173.082 223.677C172.711 224.233 172.183 224.666 171.565 224.922C170.947 225.178 170.267 225.245 169.612 225.115C168.956 224.984 168.354 224.662 167.881 224.189C167.408 223.717 167.086 223.114 166.956 222.458C166.825 221.803 166.892 221.123 167.148 220.505C167.404 219.888 167.837 219.36 168.393 218.988C168.949 218.617 169.603 218.418 170.271 218.418C171.168 218.418 172.028 218.775 172.662 219.408C173.296 220.042 173.652 220.902 173.652 221.799Z" fill="#263238"/>
<path opacity="0.6" d="M173.652 221.799C173.652 222.468 173.454 223.121 173.082 223.677C172.711 224.233 172.183 224.666 171.565 224.922C170.947 225.178 170.267 225.245 169.612 225.115C168.956 224.984 168.354 224.662 167.881 224.189C167.408 223.717 167.086 223.114 166.956 222.458C166.825 221.803 166.892 221.123 167.148 220.505C167.404 219.888 167.837 219.36 168.393 218.988C168.949 218.617 169.603 218.418 170.271 218.418C171.168 218.418 172.028 218.775 172.662 219.408C173.296 220.042 173.652 220.902 173.652 221.799Z" fill="white"/>
<path d="M72.6858 190.749C66.8001 190.749 61.0465 192.494 56.1527 195.764C51.2589 199.034 47.4446 203.682 45.1923 209.12C42.9399 214.557 42.3506 220.541 43.4988 226.313C44.6471 232.086 47.4813 237.389 51.6432 241.55C55.805 245.712 61.1075 248.546 66.8801 249.695C72.6528 250.843 78.6363 250.254 84.074 248.001C89.5117 245.749 94.1594 241.935 97.4293 237.041C100.699 232.147 102.445 226.394 102.445 220.508C102.443 212.616 99.3068 205.048 93.7264 199.467C88.1459 193.887 80.5777 190.751 72.6858 190.749ZM72.6858 246.664C67.5126 246.664 62.4556 245.13 58.1543 242.256C53.8529 239.382 50.5004 235.297 48.5207 230.517C46.541 225.738 46.0231 220.479 47.0323 215.405C48.0415 210.331 50.5327 205.671 54.1907 202.013C57.8486 198.355 62.5092 195.864 67.583 194.854C72.6568 193.845 77.9159 194.363 82.6953 196.343C87.4747 198.322 91.5597 201.675 94.4338 205.976C97.3078 210.278 98.8418 215.335 98.8418 220.508C98.8418 227.445 96.0861 234.098 91.1809 239.003C86.2757 243.908 79.6228 246.664 72.6858 246.664Z" fill="#263238"/>
<path opacity="0.5" d="M72.6858 190.749C66.8001 190.749 61.0465 192.494 56.1527 195.764C51.2589 199.034 47.4446 203.682 45.1923 209.12C42.9399 214.557 42.3506 220.541 43.4988 226.313C44.6471 232.086 47.4813 237.389 51.6432 241.55C55.805 245.712 61.1075 248.546 66.8801 249.695C72.6528 250.843 78.6363 250.254 84.074 248.001C89.5117 245.749 94.1594 241.935 97.4293 237.041C100.699 232.147 102.445 226.394 102.445 220.508C102.443 212.616 99.3068 205.048 93.7264 199.467C88.1459 193.887 80.5777 190.751 72.6858 190.749ZM72.6858 246.664C67.5126 246.664 62.4556 245.13 58.1543 242.256C53.8529 239.382 50.5004 235.297 48.5207 230.517C46.541 225.738 46.0231 220.479 47.0323 215.405C48.0415 210.331 50.5327 205.671 54.1907 202.013C57.8486 198.355 62.5092 195.864 67.583 194.854C72.6568 193.845 77.9159 194.363 82.6953 196.343C87.4747 198.322 91.5597 201.675 94.4338 205.976C97.3078 210.278 98.8418 215.335 98.8418 220.508C98.8418 227.445 96.0861 234.098 91.1809 239.003C86.2757 243.908 79.6228 246.664 72.6858 246.664Z" fill="white"/>
<path d="M72.6858 188.465C66.3467 188.465 60.15 190.345 54.8793 193.867C49.6087 197.389 45.5008 202.395 43.0753 208.251C40.6497 214.108 40.0154 220.553 41.2526 226.77C42.4898 232.987 45.5429 238.698 50.0258 243.18C54.5087 247.661 60.2201 250.713 66.4375 251.949C72.655 253.185 79.0993 252.549 84.9554 250.123C90.8116 247.696 95.8166 243.587 99.3374 238.315C102.858 233.044 104.737 226.847 104.735 220.508C104.735 216.299 103.906 212.132 102.296 208.244C100.685 204.356 98.324 200.823 95.3478 197.848C92.3716 194.872 88.8385 192.512 84.9501 190.902C81.0617 189.292 76.8943 188.464 72.6858 188.465ZM72.6858 248.67C67.1158 248.67 61.671 247.018 57.0397 243.924C52.4085 240.829 48.7989 236.431 46.6673 231.285C44.5358 226.139 43.9781 220.477 45.0647 215.014C46.1514 209.551 48.8336 204.533 52.7721 200.594C56.7107 196.656 61.7287 193.973 67.1916 192.887C72.6546 191.8 78.317 192.358 83.463 194.489C88.609 196.621 93.0073 200.23 96.1018 204.862C99.1963 209.493 100.848 214.938 100.848 220.508C100.848 227.977 97.8809 235.14 92.5995 240.421C87.318 245.703 80.1549 248.67 72.6858 248.67Z" fill="#263238"/>
<path d="M170.271 190.749C164.385 190.749 158.632 192.494 153.738 195.764C148.844 199.034 145.03 203.682 142.778 209.12C140.525 214.557 139.936 220.541 141.084 226.313C142.233 232.086 145.067 237.389 149.229 241.55C153.39 245.712 158.693 248.546 164.466 249.695C170.238 250.843 176.222 250.254 181.659 248.001C187.097 245.749 191.745 241.935 195.015 237.041C198.285 232.147 200.03 226.394 200.03 220.508C200.03 212.615 196.895 205.046 191.314 199.465C185.733 193.884 178.164 190.749 170.271 190.749ZM170.271 246.664C165.099 246.66 160.044 245.122 155.745 242.246C151.447 239.369 148.098 235.283 146.121 230.503C144.145 225.723 143.63 220.465 144.641 215.392C145.653 210.32 148.145 205.661 151.804 202.005C155.463 198.349 160.124 195.86 165.197 194.853C170.27 193.845 175.528 194.364 180.306 196.345C185.085 198.325 189.168 201.678 192.041 205.978C194.915 210.279 196.448 215.335 196.448 220.508C196.449 223.945 195.772 227.348 194.457 230.523C193.142 233.698 191.213 236.583 188.782 239.012C186.351 241.442 183.464 243.368 180.288 244.681C177.112 245.994 173.708 246.667 170.271 246.664Z" fill="#263238"/>
<path opacity="0.5" d="M170.271 190.749C164.385 190.749 158.632 192.494 153.738 195.764C148.844 199.034 145.03 203.682 142.778 209.12C140.525 214.557 139.936 220.541 141.084 226.313C142.233 232.086 145.067 237.389 149.229 241.55C153.39 245.712 158.693 248.546 164.466 249.695C170.238 250.843 176.222 250.254 181.659 248.001C187.097 245.749 191.745 241.935 195.015 237.041C198.285 232.147 200.03 226.394 200.03 220.508C200.03 212.615 196.895 205.046 191.314 199.465C185.733 193.884 178.164 190.749 170.271 190.749ZM170.271 246.664C165.099 246.66 160.044 245.122 155.745 242.246C151.447 239.369 148.098 235.283 146.121 230.503C144.145 225.723 143.63 220.465 144.641 215.392C145.653 210.32 148.145 205.661 151.804 202.005C155.463 198.349 160.124 195.86 165.197 194.853C170.27 193.845 175.528 194.364 180.306 196.345C185.085 198.325 189.168 201.678 192.041 205.978C194.915 210.279 196.448 215.335 196.448 220.508C196.449 223.945 195.772 227.348 194.457 230.523C193.142 233.698 191.213 236.583 188.782 239.012C186.351 241.442 183.464 243.368 180.288 244.681C177.112 245.994 173.708 246.667 170.271 246.664Z" fill="white"/>
<path d="M170.271 188.465C163.932 188.465 157.735 190.345 152.465 193.867C147.194 197.389 143.086 202.395 140.661 208.251C138.235 214.108 137.601 220.553 138.838 226.77C140.075 232.987 143.128 238.698 147.611 243.18C152.094 247.661 157.805 250.713 164.023 251.949C170.24 253.185 176.685 252.549 182.541 250.123C188.397 247.696 193.402 243.587 196.923 238.315C200.444 233.044 202.322 226.847 202.321 220.508C202.319 212.009 198.941 203.859 192.931 197.85C186.921 191.841 178.77 188.465 170.271 188.465ZM170.271 248.67C164.701 248.67 159.256 247.018 154.625 243.924C149.994 240.829 146.384 236.431 144.253 231.285C142.121 226.139 141.563 220.477 142.65 215.014C143.737 209.551 146.419 204.533 150.358 200.594C154.296 196.656 159.314 193.973 164.777 192.887C170.24 191.8 175.902 192.358 181.048 194.489C186.194 196.621 190.593 200.23 193.687 204.862C196.782 209.493 198.433 214.938 198.433 220.508C198.433 227.977 195.466 235.14 190.185 240.421C184.903 245.703 177.74 248.67 170.271 248.67Z" fill="#263238"/>
<path d="M142.789 155.735L149.113 176.04L151.73 175.186L145.719 155.069L142.789 155.735Z" fill="#263238"/>
<path d="M162.795 209.221L156.603 190.201L151.744 175.207L149.127 176.06L149.703 177.824H101.598L101.188 176.38L98.946 177.025L99.6401 179.441L74.8447 219.661L74.2963 220.556L74.6156 220.758L74.3587 221.931L115.231 230.649L152.362 185.987L154.014 191.054L161.275 209.748L171.271 222.937L172.562 221.965L162.795 209.221ZM100.32 181.829L113.586 227.921L76.7675 220.05L100.32 181.829ZM115.592 226.484L102.403 180.566H150.592L151.494 183.342L115.592 226.484Z" fill="#263238"/>
<path opacity="0.1" d="M162.795 209.221L156.603 190.201L151.744 175.207L149.127 176.06L149.703 177.824H101.598L101.188 176.38L98.946 177.025L99.6401 179.441L74.8447 219.661L74.2963 220.556L74.6156 220.758L74.3587 221.931L115.231 230.649L152.362 185.987L154.014 191.054L161.275 209.748L171.271 222.937L172.562 221.965L162.795 209.221ZM100.32 181.829L113.586 227.921L76.7675 220.05L100.32 181.829ZM115.592 226.484L102.403 180.566H150.592L151.494 183.342L115.592 226.484Z" fill="white"/>
<path d="M92.2612 169.855L95.6348 172.402L97.1689 172.034L98.946 177.005L101.188 176.359L98.2101 169.855L97.1689 168.855L92.2612 169.855Z" fill="#263238"/>
<path opacity="0.4" d="M92.2612 169.855L95.6348 172.402L97.1689 172.034L98.946 177.005L101.188 176.359L98.2101 169.855L97.1689 168.855L92.2612 169.855Z" fill="white"/>
<path d="M108.831 166.821C104.513 165.808 100.057 166.932 95.4821 169.855H90.8798C90.8798 169.855 85.3265 166.911 84.2506 165.69C83.1746 164.468 83.8827 164.211 83.8827 164.211C90.8937 165.238 104.708 163.753 106.526 163.753C108.345 163.753 109.49 165.808 108.831 166.821Z" fill="#263238"/>
<path opacity="0.1" d="M108.831 166.821C104.513 165.808 100.057 166.932 95.4821 169.855H90.8798C90.8798 169.855 85.3265 166.911 84.2506 165.69C83.1746 164.468 83.8827 164.211 83.8827 164.211C90.8937 165.238 104.708 163.753 106.526 163.753C108.345 163.753 109.49 165.808 108.831 166.821Z" fill="white"/>
<path d="M115.384 221.438C113.767 221.439 112.187 221.92 110.844 222.82C109.5 223.72 108.454 224.998 107.838 226.493C107.221 227.987 107.062 229.631 107.38 231.217C107.699 232.802 108.48 234.257 109.626 235.398C110.771 236.539 112.23 237.314 113.816 237.625C115.403 237.937 117.046 237.771 118.538 237.148C120.03 236.525 121.304 235.473 122.198 234.126C123.092 232.779 123.567 231.197 123.561 229.58C123.554 227.417 122.689 225.345 121.156 223.819C119.623 222.292 117.547 221.436 115.384 221.438ZM120.076 226.887L116.376 228.088V224.117C117.16 224.272 117.9 224.599 118.542 225.075C119.184 225.55 119.713 226.162 120.09 226.866L120.076 226.887ZM114.308 224.11V228.109L110.657 226.922C111.021 226.213 111.537 225.594 112.168 225.108C112.799 224.622 113.53 224.282 114.308 224.11ZM110.053 228.9L113.669 230.073L111.351 233.266C110.481 232.236 110.006 230.929 110.011 229.58C110.011 229.351 110.032 229.129 110.053 228.9ZM112.961 234.564L115.342 231.295L117.744 234.592C117.006 234.98 116.186 235.182 115.353 235.182C114.519 235.182 113.699 234.98 112.961 234.592V234.564ZM119.368 233.315L116.994 230.045L120.701 228.845C120.731 229.089 120.748 229.334 120.75 229.58C120.763 230.948 120.282 232.274 119.396 233.315H119.368Z" fill="#263238"/>
<path opacity="0.4" d="M115.384 221.438C113.767 221.439 112.187 221.92 110.844 222.82C109.5 223.72 108.454 224.998 107.838 226.493C107.221 227.987 107.062 229.631 107.38 231.217C107.699 232.802 108.48 234.257 109.626 235.398C110.771 236.539 112.23 237.314 113.816 237.625C115.403 237.937 117.046 237.771 118.538 237.148C120.03 236.525 121.304 235.473 122.198 234.126C123.092 232.779 123.567 231.197 123.561 229.58C123.554 227.417 122.689 225.345 121.156 223.819C119.623 222.292 117.547 221.436 115.384 221.438ZM120.076 226.887L116.376 228.088V224.117C117.16 224.272 117.9 224.599 118.542 225.075C119.184 225.55 119.713 226.162 120.09 226.866L120.076 226.887ZM114.308 224.11V228.109L110.657 226.922C111.021 226.213 111.537 225.594 112.168 225.108C112.799 224.622 113.53 224.282 114.308 224.11ZM110.053 228.9L113.669 230.073L111.351 233.266C110.481 232.236 110.006 230.929 110.011 229.58C110.011 229.351 110.032 229.129 110.053 228.9ZM112.961 234.564L115.342 231.295L117.744 234.592C117.006 234.98 116.186 235.182 115.353 235.182C114.519 235.182 113.699 234.98 112.961 234.592V234.564ZM119.368 233.315L116.994 230.045L120.701 228.845C120.731 229.089 120.748 229.334 120.75 229.58C120.763 230.948 120.282 232.274 119.396 233.315H119.368Z" fill="white"/>
<path d="M116.131 227.481L103.705 238.452L105.189 240.132L117.615 229.162L116.131 227.481Z" fill="#263238"/>
<path opacity="0.05" d="M116.131 227.481L103.705 238.452L105.189 240.132L117.615 229.162L116.131 227.481Z" fill="white"/>
<path d="M108.081 237.432H101.389V240.132H108.081V237.432Z" fill="#263238"/>
<path d="M152.237 153.979L145.719 155.222L146.684 158.283L148.738 157.971L149.321 158.901L152.931 158.144L152.237 153.979Z" fill="#263238"/>
<path d="M144.06 166.793C144.06 166.793 138.944 166.537 138.256 166.467C137.569 166.398 132.252 166.523 132.502 161.719C132.752 156.915 137.229 156.943 138.499 156.95L146.399 156.992C146.706 156.992 147.003 156.88 147.233 156.677C147.463 156.474 147.611 156.193 147.648 155.888C147.667 155.721 147.651 155.552 147.602 155.39C147.554 155.229 147.474 155.08 147.366 154.95C147.259 154.821 147.126 154.714 146.977 154.637C146.827 154.559 146.664 154.513 146.496 154.5L145.802 154.451C145.802 154.451 139.374 154.451 137.562 154.583C135.75 154.715 129.808 154.271 129.808 161.615C129.808 168.959 135.924 168.744 137.076 168.751L143.969 168.793L144.06 166.793Z" fill="#263238"/>
<path opacity="0.5" d="M144.06 166.793C144.06 166.793 138.944 166.537 138.256 166.467C137.569 166.398 132.252 166.523 132.502 161.719C132.752 156.915 137.229 156.943 138.499 156.95L146.399 156.992C146.706 156.992 147.003 156.88 147.233 156.677C147.463 156.474 147.611 156.193 147.648 155.888C147.667 155.721 147.651 155.552 147.602 155.39C147.554 155.229 147.474 155.08 147.366 154.95C147.259 154.821 147.126 154.714 146.977 154.637C146.827 154.559 146.664 154.513 146.496 154.5L145.802 154.451C145.802 154.451 139.374 154.451 137.562 154.583C135.75 154.715 129.808 154.271 129.808 161.615C129.808 168.959 135.924 168.744 137.076 168.751L143.969 168.793L144.06 166.793Z" fill="white"/>
<path d="M108.053 219.189L105.735 227.713L104.118 233.641L98.6128 232.031L100.23 226.103L102.424 218.05L108.053 219.189Z" fill="#E4897B"/>
<path opacity="0.2" d="M108.053 219.189L105.735 227.713L100.23 226.103L102.424 218.05L108.053 219.189Z" fill="black"/>
<path d="M104.714 231.087H98.0019C97.8922 231.086 97.7855 231.122 97.6995 231.191C97.6136 231.259 97.5537 231.355 97.5299 231.462L96.44 236.383C96.4176 236.489 96.4162 236.597 96.4359 236.703C96.4555 236.809 96.4958 236.91 96.5545 237C96.6131 237.09 96.689 237.168 96.7778 237.229C96.8665 237.29 96.9664 237.333 97.0717 237.355H97.2522C99.425 237.32 101.008 237.188 103.736 237.188C105.416 237.188 110.483 237.362 112.801 237.362C115.12 237.362 115.425 235.071 114.474 234.856C110.219 233.933 107.012 232.642 105.645 231.385C105.384 231.172 105.051 231.065 104.714 231.087Z" fill="#263238"/>
<path d="M84.3061 145.726C84.3061 145.726 81.1407 149.627 81.5294 158.852C81.9182 168.078 108.97 178.49 110.164 184.842C111.392 191.381 99.7512 223.18 99.7512 223.18L108.38 226.082C108.38 226.082 126.282 188.417 124.804 181.093C122.381 169.063 106.63 162.996 102.34 158.047C100.674 156.124 102.34 146.732 102.34 146.732L84.3061 145.726Z" fill="#263238"/>
<path opacity="0.3" d="M84.3061 145.726C84.3061 145.726 81.1407 149.627 81.5294 158.852C81.9182 168.078 108.97 178.49 110.164 184.842C111.392 191.381 99.7512 223.18 99.7512 223.18L108.38 226.082C108.38 226.082 126.282 188.417 124.804 181.093C122.381 169.063 106.63 162.996 102.34 158.047C100.674 156.124 102.34 146.732 102.34 146.732L84.3061 145.726Z" fill="white"/>
<path d="M84.0562 148.058C84.0562 148.058 76.1636 144.955 75.9137 143.032C75.6638 141.109 90.9492 116.855 92.8582 116.231C94.7671 115.606 107.651 117.584 109.574 118.501C111.496 119.417 114.134 125.484 114.134 125.484L84.0562 148.058Z" fill="#263238"/>
<path d="M81.4808 148.058C81.4808 148.058 86.34 130.496 99.5291 124.498C112.718 118.5 120.895 125.477 121.048 126.581C122.263 136.049 106.061 141.734 106.061 151.209C106.068 151.216 92.4347 151.494 81.4808 148.058Z" fill="#407BFF" class="primary-bg-700"/>
<path d="M98.9737 142.303C98.9737 142.303 118.32 134.029 107.588 122.235L103.472 121.937C103.472 121.937 116.161 132.106 97.7173 142.303C97.7173 142.303 87.3673 144.462 85.028 136.681L81.4808 142.359C81.4808 142.359 87.9157 149.245 98.9737 142.303Z" fill="#263238"/>
<path d="M117.14 122.721C117.14 122.721 123.853 129.843 113.294 139.513C113.294 139.513 122.423 134.89 121.055 125.484L117.14 122.721Z" fill="#263238"/>
<path d="M110.129 138.02C110.129 138.02 112.26 148.016 114.134 149.537C116.217 151.216 131.037 153.195 131.037 153.195L130.766 156.513C130.766 156.513 114.558 155.763 110.719 153.042C107.769 150.925 103.576 140.776 103.576 140.776L110.129 138.02Z" fill="#B97964"/>
<path d="M106.603 125.845C102.181 122.679 99.5499 130.704 99.9595 135.209C100.369 139.714 103.854 145.406 103.854 145.406L111.635 142.283C111.635 142.283 110.289 128.483 106.603 125.845Z" fill="#407BFF" class="primary-bg-700"/>
<path opacity="0.2" d="M106.603 125.845C102.181 122.679 99.5499 130.704 99.9595 135.209C100.369 139.714 103.854 145.406 103.854 145.406L111.635 142.283C111.635 142.283 110.289 128.483 106.603 125.845Z" fill="black"/>
<path d="M130.954 153.091C131.418 153.02 131.893 153.1 132.307 153.32C132.863 153.681 137.271 157.644 137.743 158.609C138.215 159.574 134.411 160.865 133.765 161.185C133.12 161.504 128.49 157.02 128.33 155.347C128.17 153.674 130.954 153.091 130.954 153.091Z" fill="#B97964"/>
<path d="M114.134 131.114C114.134 131.114 105.499 121.249 103.881 117.23C102.264 113.211 110.191 113.183 113.794 116.973C117.397 120.764 121.499 127.185 117.307 131.134L114.134 131.114Z" fill="#407BFF" class="primary-bg-700"/>
<path opacity="0.7" d="M114.134 131.114C114.134 131.114 105.499 121.249 103.881 117.23C102.264 113.211 110.191 113.183 113.794 116.973C117.397 120.764 121.499 127.185 117.307 131.134L114.134 131.114Z" fill="white"/>
<path opacity="0.2" d="M114.134 130.19C114.134 130.19 110.573 125.706 109.129 122.214C107.686 118.723 107.345 115.731 111.372 116.953C115.398 118.174 120.618 127.511 117.515 130.468C117.515 130.503 115.231 128.746 114.134 130.19Z" fill="black"/>
<path d="M111.233 135.091C109.874 135.002 108.559 134.575 107.408 133.849C100.82 130.135 98.6475 133.599 98.5572 133.751C98.5223 133.81 98.4653 133.853 98.3989 133.87C98.3325 133.887 98.2621 133.877 98.2032 133.842C98.1443 133.807 98.1017 133.75 98.0848 133.683C98.0679 133.617 98.078 133.546 98.113 133.488C98.113 133.446 100.605 129.413 107.665 133.39C109.81 134.605 111.476 134.89 112.6 134.23C114.176 133.314 114.211 130.815 114.211 130.76C114.21 130.725 114.216 130.691 114.228 130.659C114.241 130.627 114.259 130.598 114.283 130.573C114.307 130.549 114.336 130.529 114.368 130.516C114.399 130.503 114.433 130.496 114.467 130.496C114.537 130.496 114.605 130.524 114.654 130.573C114.703 130.622 114.731 130.69 114.731 130.76C114.731 130.871 114.697 133.578 112.864 134.647C112.371 134.94 111.807 135.094 111.233 135.091Z" fill="white"/>
<path d="M110.372 138.034C109.928 138.034 109.463 138.034 108.984 138.034C108.949 138.033 108.915 138.026 108.884 138.011C108.853 137.997 108.825 137.977 108.801 137.952C108.778 137.927 108.76 137.897 108.748 137.865C108.737 137.832 108.732 137.798 108.734 137.764C108.737 137.695 108.768 137.63 108.818 137.584C108.869 137.537 108.936 137.512 109.004 137.514C113.752 137.708 116.744 136.917 117.661 135.237C118.577 133.557 117.077 131.322 117.064 131.301C117.044 131.273 117.03 131.242 117.022 131.209C117.014 131.175 117.013 131.141 117.019 131.107C117.025 131.074 117.037 131.042 117.056 131.013C117.074 130.984 117.098 130.959 117.126 130.94C117.182 130.901 117.25 130.885 117.318 130.895C117.385 130.906 117.446 130.941 117.487 130.995C117.563 131.1 119.216 133.467 118.119 135.48C117.216 137.167 114.613 138.034 110.372 138.034Z" fill="white"/>
<path d="M110.983 122.485C109.421 124.685 114.169 130.607 117.515 129.059C117.382 127.829 117.609 126.587 118.167 125.484C118.525 124.902 118.998 124.399 119.556 124.005C119.85 123.772 120.159 123.556 120.479 123.36L119.722 116.078C118.091 118.584 114.481 124.255 110.983 122.485Z" fill="#B97964"/>
<path opacity="0.2" d="M118.563 118.945C116.113 121.499 117.355 124.304 118.167 125.484C118.525 124.902 118.997 124.399 119.556 124.005L118.563 118.945Z" fill="black"/>
<path d="M129.239 109.261C129.239 109.261 131.058 115.127 128.219 117.911C125.38 120.694 123.7 109.532 123.7 109.532L129.239 109.261Z" fill="#263238"/>
<path d="M119.688 124.068C120.502 124.956 121.586 125.552 122.773 125.764C123.959 125.976 125.183 125.792 126.254 125.241C127.656 124.555 128.743 123.361 129.295 121.902C129.374 121.7 129.442 121.494 129.496 121.284C130.516 117.383 130.051 110.872 125.81 109.074C124.877 108.673 123.857 108.516 122.847 108.618C121.837 108.72 120.869 109.078 120.035 109.658C119.202 110.239 118.53 111.021 118.083 111.933C117.636 112.845 117.428 113.856 117.48 114.87C117.626 119.229 117.522 121.805 119.688 124.068Z" fill="#B97964"/>
<path d="M124.054 116.224C124.019 116.578 124.227 116.869 124.463 116.876C124.699 116.883 124.887 116.592 124.894 116.238C124.901 115.884 124.72 115.592 124.491 115.592C124.262 115.592 124.061 115.863 124.054 116.224Z" fill="#263238"/>
<path d="M128.066 116.307C128.066 116.654 128.247 116.953 128.476 116.953C128.705 116.953 128.899 116.675 128.913 116.321C128.927 115.967 128.732 115.675 128.503 115.668C128.274 115.661 128.073 115.967 128.066 116.307Z" fill="#263238"/>
<path d="M126.789 116.453C127.19 117.549 127.741 118.584 128.427 119.528C128.179 119.696 127.897 119.809 127.601 119.858C127.305 119.907 127.002 119.891 126.713 119.813L126.789 116.453Z" fill="#A24E3F"/>
<path d="M122.867 114.898C122.905 114.906 122.945 114.903 122.982 114.89C123.019 114.876 123.051 114.853 123.075 114.822C123.23 114.609 123.432 114.435 123.666 114.315C123.9 114.194 124.159 114.13 124.422 114.127C124.476 114.133 124.53 114.118 124.573 114.084C124.616 114.05 124.644 114.001 124.651 113.947C124.655 113.892 124.638 113.838 124.603 113.795C124.568 113.752 124.518 113.725 124.463 113.718C124.134 113.71 123.807 113.781 123.51 113.925C123.213 114.069 122.955 114.281 122.756 114.544C122.736 114.563 122.72 114.585 122.71 114.61C122.699 114.635 122.693 114.662 122.693 114.69C122.693 114.717 122.699 114.744 122.71 114.769C122.72 114.794 122.736 114.817 122.756 114.835C122.787 114.865 122.825 114.886 122.867 114.898Z" fill="#263238"/>
<path d="M129.808 114.953C129.847 114.967 129.888 114.967 129.926 114.953C129.977 114.932 130.017 114.891 130.038 114.841C130.058 114.79 130.058 114.733 130.037 114.683C129.905 114.38 129.702 114.113 129.447 113.905C129.191 113.696 128.889 113.551 128.566 113.482C128.512 113.474 128.456 113.487 128.412 113.52C128.368 113.552 128.338 113.601 128.33 113.655C128.324 113.709 128.338 113.764 128.37 113.807C128.402 113.851 128.45 113.881 128.503 113.891C128.757 113.953 128.994 114.073 129.194 114.242C129.394 114.411 129.552 114.623 129.656 114.863C129.673 114.888 129.696 114.909 129.722 114.925C129.749 114.94 129.778 114.95 129.808 114.953Z" fill="#263238"/>
<path d="M117.015 119.986H118.105C117.98 118.882 118.063 117.973 118.348 117.904C118.931 117.723 118.993 118.424 118.993 118.424C120.201 117.39 121.076 114.856 120.382 113.26C120.246 112.924 120.242 112.549 120.371 112.211C120.5 111.872 120.751 111.595 121.076 111.434L120.791 109.518L115.856 110.261C115.162 111.649 115.363 114.592 116.369 118.112C116.546 118.749 116.762 119.375 117.015 119.986Z" fill="#263238"/>
<path d="M128.462 109.303C128.462 109.303 126.726 113.017 125.997 112.475C125.269 111.934 126.643 111.018 126.643 111.018C126.643 111.018 122.436 113.544 121.867 113.176C121.298 112.808 124.054 111.441 124.054 111.441C124.054 111.441 120.382 114.134 119.528 113.149C118.674 112.163 124.949 108.484 128.462 109.303Z" fill="#263238"/>
<path d="M127.032 120.875C126.854 121.38 126.712 121.897 126.608 122.423H126.338C125.053 122.36 124.484 121.909 124.255 121.43C124.135 121.194 124.078 120.931 124.089 120.666C124.083 120.516 124.102 120.366 124.144 120.222C124.92 120.61 125.769 120.828 126.636 120.861C126.865 120.875 127.032 120.875 127.032 120.875Z" fill="#263238"/>
<path d="M126.601 120.854L126.463 121.305C125.255 121.242 124.38 121.041 124.054 120.659C124.048 120.509 124.067 120.359 124.109 120.215C124.885 120.603 125.735 120.821 126.601 120.854Z" fill="white"/>
<path d="M126.338 122.416C125.053 122.353 124.484 121.902 124.255 121.423C124.735 121.457 125.205 121.574 125.643 121.77C125.937 121.907 126.18 122.133 126.338 122.416Z" fill="#DE5753"/>
<path d="M129.808 113.364C129.808 113.364 130.551 110.469 129.357 108.567C129.357 108.567 129.913 106.755 127.622 105.568C125.331 104.381 122.492 103.555 122.124 104.055C121.756 104.555 122.818 104.694 122.818 104.694C122.818 104.694 118.313 104.333 115.877 106.526C113.44 108.72 113.225 112.385 113.683 112.475C114.141 112.565 114.96 111.274 114.96 111.274C114.272 112.427 114.044 113.796 114.321 115.11C114.597 116.423 115.358 117.584 116.453 118.362L120.236 111.892L128.483 109.303C128.483 109.303 129.482 109.928 129.808 113.364Z" fill="#263238"/>
<path d="M115.481 118.41C115.947 119.406 116.788 120.177 117.82 120.555C119.209 121.048 119.979 119.861 119.688 118.473C119.417 117.279 118.389 115.543 116.966 115.648C116.654 115.669 116.352 115.769 116.089 115.939C115.825 116.109 115.609 116.343 115.461 116.619C115.313 116.895 115.237 117.204 115.24 117.517C115.244 117.83 115.326 118.138 115.481 118.41Z" fill="#B97964"/>
<path d="M103.097 145.316L112.01 141.45L112.496 143.025L103.666 146.579L102.743 145.316" fill="#407BFF" class="primary-bg-700"/>
<path opacity="0.7" d="M103.097 145.316L112.01 141.45L112.496 143.025L103.666 146.579L102.743 145.316" fill="white"/>
</svg>
