<svg width="14" height="14" viewBox="0 0 14 14" fill="none" xmlns="http://www.w3.org/2000/svg">
<path fill-rule="evenodd" clip-rule="evenodd" d="M13.1904 1.28572H11.7618V0.333336H10.8094V1.28572H3.19039V0.333336H2.23801V1.28572H0.809442L0.333252 1.76191V13.1905L0.809442 13.6667H13.1904L13.6666 13.1905V1.76191L13.1904 1.28572ZM12.7142 12.7143H1.28563V4.14286H12.7142V12.7143ZM12.7142 3.19048H1.28563V2.2381H12.7142V3.19048ZM3.19039 7H2.23801V7.95238H3.19039V7ZM2.23801 8.90477H3.19039V9.85715H2.23801V8.90477ZM3.19039 10.8095H2.23801V11.7619H3.19039V10.8095ZM5.09516 7H6.04754V7.95238H5.09516V7ZM6.04754 8.90477H5.09516V9.85715H6.04754V8.90477ZM5.09516 10.8095H6.04754V11.7619H5.09516V10.8095ZM6.04754 5.09524H5.09516V6.04762H6.04754V5.09524ZM7.9523 7H8.90468V7.95238H7.9523V7ZM8.90468 8.90477H7.9523V9.85715H8.90468V8.90477ZM7.9523 10.8095H8.90468V11.7619H7.9523V10.8095ZM8.90468 5.09524H7.9523V6.04762H8.90468V5.09524ZM10.8094 7H11.7618V7.95238H10.8094V7ZM11.7618 8.90477H10.8094V9.85715H11.7618V8.90477ZM10.8094 5.09524H11.7618V6.04762H10.8094V5.09524Z" fill="#424242"/>
</svg>
