<svg width="24" height="24" viewBox="0 0 24 24" fill="none" xmlns="http://www.w3.org/2000/svg">
<path d="M16.4 4.75H15.9V5.25V18.75V19.25H16.4H20.8H21.3V18.75V5.25V4.75H20.8H16.4ZM3.2 4.75H2.7V5.25V18.75V19.25H3.2H7.6H8.1V18.75V5.25V4.75H7.6H3.2ZM9.8 4.75H9.3V5.25V18.75V19.25H9.8H14.2H14.7V18.75V5.25V4.75H14.2H9.8ZM3.2 3.5H20.8C21.2472 3.5 21.6784 3.68158 21.9981 4.00857C22.3182 4.33594 22.5 4.78229 22.5 5.25V18.75C22.5 19.2177 22.3182 19.6641 21.9981 19.9914C21.6784 20.3184 21.2472 20.5 20.8 20.5H3.2C2.7528 20.5 2.32159 20.3184 2.00187 19.9914C1.68177 19.6641 1.5 19.2177 1.5 18.75V5.25C1.5 4.78229 1.68177 4.33594 2.00187 4.00857C2.32159 3.68158 2.7528 3.5 3.2 3.5Z" fill="#616161" stroke="#616161"/>
<line x1="3" y1="9.5" x2="21" y2="9.5" stroke="#616161" stroke-width="3"/>
</svg>
