<svg width="19" height="22" viewBox="0 0 19 22" fill="none" xmlns="http://www.w3.org/2000/svg">
<path d="M11.4322 2.42505H10.7502C10.5727 1.93795 10.2497 1.51722 9.82501 1.21993C9.4003 0.922642 8.89442 0.763184 8.37601 0.763184C7.85759 0.763184 7.35171 0.922642 6.92701 1.21993C6.5023 1.51722 6.17931 1.93795 6.00185 2.42505H5.45622C5.04328 2.42676 4.64775 2.59155 4.35576 2.88354C4.06377 3.17553 3.89898 3.57107 3.89727 3.984V6.32243H12.9912V3.984C12.9894 3.57107 12.8246 3.17553 12.5327 2.88354C12.2407 2.59155 11.8451 2.42676 11.4322 2.42505ZM11.692 5.0233H5.19639V3.88657C5.19639 3.8435 5.2135 3.80219 5.24396 3.77174C5.27441 3.74128 5.31571 3.72417 5.35878 3.72417H7.10611L7.18406 3.00316C7.19788 2.88658 7.23702 2.77444 7.29873 2.67458C7.36044 2.57472 7.44324 2.48955 7.54132 2.42505C7.71565 2.29509 7.91981 2.21097 8.13509 2.18039C8.35037 2.14981 8.56988 2.17376 8.7735 2.25004C8.97712 2.32632 9.15834 2.45248 9.30055 2.61698C9.44276 2.78147 9.5414 2.97902 9.58744 3.19153L9.6459 3.73717H11.5296C11.5727 3.73717 11.614 3.75427 11.6445 3.78473C11.6749 3.81518 11.692 3.85649 11.692 3.89956V5.0233Z" fill="#1B6FAC"/>
<path d="M18.3504 11.5577H10.6077L12.4524 9.71941C12.513 9.65884 12.561 9.58694 12.5938 9.50781C12.6266 9.42868 12.6434 9.34387 12.6434 9.25822C12.6434 9.17257 12.6266 9.08776 12.5938 9.00862C12.561 8.92949 12.513 8.85759 12.4524 8.79703C12.3918 8.73646 12.3199 8.68842 12.2408 8.65564C12.1617 8.62287 12.0769 8.606 11.9912 8.606C11.9056 8.606 11.8208 8.62287 11.7416 8.65564C11.6625 8.68842 11.5906 8.73646 11.53 8.79703L8.11982 12.2072L11.53 15.6174C11.5907 15.6776 11.6627 15.7253 11.7419 15.7576C11.821 15.7899 11.9057 15.8063 11.9912 15.8058C12.1189 15.8053 12.2436 15.7671 12.3497 15.6961C12.4559 15.6251 12.5387 15.5244 12.5879 15.4066C12.6371 15.2888 12.6505 15.159 12.6264 15.0337C12.6023 14.9083 12.5418 14.7927 12.4524 14.7016L10.6077 12.8568H18.3504C18.5227 12.8568 18.6879 12.7884 18.8098 12.6665C18.9316 12.5447 19 12.3795 19 12.2072C19 12.035 18.9316 11.8697 18.8098 11.7479C18.6879 11.6261 18.5227 11.5577 18.3504 11.5577Z" fill="#1B6FAC"/>
<path d="M15.5899 10.2198H16.889V4.1659C16.8907 4.02376 16.8643 3.88268 16.8113 3.75078C16.7583 3.61887 16.6797 3.49876 16.5801 3.39734C16.4805 3.29592 16.3618 3.21519 16.2309 3.15981C16.0999 3.10443 15.9594 3.07548 15.8172 3.07464H14.3427V4.37376H15.5899V10.2198Z" fill="#1B6FAC"/>
<path d="M15.5897 19.9633H1.29933V4.37376H2.59845V3.07464H1.06548C0.780637 3.07806 0.50872 3.19407 0.309121 3.39732C0.109523 3.60057 -0.00153612 3.87455 0.00020057 4.15941V20.1711C-0.00151467 20.3133 0.0248943 20.4544 0.0779081 20.5863C0.130922 20.7182 0.209494 20.8383 0.309104 20.9397C0.408714 21.0411 0.527395 21.1219 0.658319 21.1772C0.789244 21.2326 0.929827 21.2616 1.07198 21.2624H15.8236C16.1084 21.259 16.3803 21.143 16.5799 20.9397C16.7795 20.7365 16.8906 20.4625 16.8889 20.1776V14.1562H15.5897V19.9633Z" fill="#1B6FAC"/>
</svg>
