<svg width="24" height="24" viewBox="0 0 24 24" fill="none" xmlns="http://www.w3.org/2000/svg">
<path d="M18.9334 2L17.8667 9.92381L16.8001 2H15.7334L17.0753 10.5333H18.6582L20.0001 2H18.9334Z" fill="#711F84"/>
<path d="M13.3333 10.5333H9.33325V9.31429H13.3333V6.87619H10.6666C10.3131 6.87587 9.97414 6.74733 9.72417 6.51878C9.47419 6.29024 9.3336 5.98036 9.33325 5.65714V3.21905C9.3336 2.89584 9.47419 2.58595 9.72417 2.35741C9.97414 2.12886 10.3131 2.00032 10.6666 2H14.6666V3.21905H10.6666V5.65714H13.3333C13.6868 5.65747 14.0257 5.786 14.2757 6.01455C14.5256 6.2431 14.6662 6.55298 14.6666 6.87619V9.31429C14.6662 9.6375 14.5256 9.94738 14.2757 10.1759C14.0257 10.4045 13.6868 10.533 13.3333 10.5333Z" fill="#711F84"/>
<path d="M8.26667 10.5333H5.06667C4.78386 10.533 4.51271 10.4045 4.31273 10.1759C4.11275 9.94738 4.00028 9.6375 4 9.31429V3.21905C4.00028 2.89584 4.11275 2.58595 4.31273 2.35741C4.51271 2.12886 4.78386 2.00032 5.06667 2H8.26667V3.21905H5.06667V9.31429H8.26667V10.5333Z" fill="#711F84"/>
<path d="M17 18.9286V21.6429H6.33333V18.9286H5V21.6429C5 22.0028 5.14048 22.348 5.39052 22.6025C5.64057 22.857 5.97971 23 6.33333 23H17C17.3536 23 17.6928 22.857 17.9428 22.6025C18.1929 22.348 18.3333 22.0028 18.3333 21.6429V18.9286H17Z" fill="#711F84"/>
<path d="M15 16.8929L14.0573 15.9334L12.3333 17.6881V12.1429H11V17.6881L9.276 15.9334L8.33333 16.8929L11.6667 20.2857L15 16.8929Z" fill="#711F84"/>
</svg>
