<svg width="24" height="24" viewBox="0 0 24 24" fill="none" xmlns="http://www.w3.org/2000/svg">
<path fill-rule="evenodd" clip-rule="evenodd" d="M21.2857 3.42857H19.1429V2H17.7143V3.42857H6.28571V2H4.85714V3.42857H2.71429L2 4.14286V21.2857L2.71429 22H21.2857L22 21.2857V4.14286L21.2857 3.42857ZM20.5714 20.5714H3.42857V7.71429H20.5714V20.5714ZM20.5714 6.28571H3.42857V4.85714H20.5714V6.28571ZM6.28571 12H4.85714V13.4286H6.28571V12ZM4.85714 14.8571H6.28571V16.2857H4.85714V14.8571ZM6.28571 17.7143H4.85714V19.1429H6.28571V17.7143ZM9.14286 12H10.5714V13.4286H9.14286V12ZM10.5714 14.8571H9.14286V16.2857H10.5714V14.8571ZM9.14286 17.7143H10.5714V19.1429H9.14286V17.7143ZM10.5714 9.14286H9.14286V10.5714H10.5714V9.14286ZM13.4286 12H14.8571V13.4286H13.4286V12ZM14.8571 14.8571H13.4286V16.2857H14.8571V14.8571ZM13.4286 17.7143H14.8571V19.1429H13.4286V17.7143ZM14.8571 9.14286H13.4286V10.5714H14.8571V9.14286ZM17.7143 12H19.1429V13.4286H17.7143V12ZM19.1429 14.8571H17.7143V16.2857H19.1429V14.8571ZM17.7143 9.14286H19.1429V10.5714H17.7143V9.14286Z" fill="#616161"/>
</svg>
