<svg width="298" height="261" viewBox="0 0 298 261" fill="none" xmlns="http://www.w3.org/2000/svg">
<path d="M283.512 129.049H16.4891V141.428H283.512V129.049Z" fill="#263238"/>
<path d="M287.089 48.17H12.5269V136.588H287.089V48.17Z" fill="white"/>
<path d="M101.849 48.17V92.4656H95.0018C86.3595 93.3764 81.3136 86.5356 83.1418 76.0384C84.97 65.5412 55.3067 81.9751 48.4659 76.0384C43.6195 71.8435 60.7182 56.6795 71.1223 48.17H101.849ZM236.677 72.1693C241.736 84.1357 295.279 50.8292 283.346 70.002C271.413 89.1748 259.107 102.198 285.879 96.4145L287.089 96.1286V48.17H261.687C249.541 54.5056 233.453 64.5773 236.677 72.1693Z" fill="#407BFF" class="primary-bg-700"/>
<path opacity="0.5" d="M101.849 48.17V92.4656H95.0018C86.3595 93.3764 81.3136 86.5356 83.1418 76.0384C84.97 65.5412 55.3067 81.9751 48.4659 76.0384C43.6195 71.8435 60.7182 56.6795 71.1223 48.17H101.849ZM236.677 72.1693C241.736 84.1357 295.279 50.8292 283.346 70.002C271.413 89.1748 259.107 102.198 285.879 96.4145L287.089 96.1286V48.17H261.687C249.541 54.5056 233.453 64.5773 236.677 72.1693Z" fill="white"/>
<path d="M287.089 48.17H12.5269V136.588H287.089V48.17Z" stroke="#263238" stroke-linecap="round" stroke-linejoin="round"/>
<path d="M197.933 48.17H101.676V136.588H197.933V48.17Z" fill="white"/>
<path d="M165.816 95.3707C155.266 101.008 124.798 125.612 111.396 136.588H197.939V49.2603C186.638 53.8607 143.565 71.8235 141.192 78.7507C138.453 86.7283 179.498 88.0579 165.816 95.3707Z" fill="#407BFF" class="primary-bg-700"/>
<path opacity="0.5" d="M165.816 95.3707C155.266 101.008 124.798 125.612 111.396 136.588H197.939V49.2603C186.638 53.8607 143.565 71.8235 141.192 78.7507C138.453 86.7283 179.498 88.0579 165.816 95.3707Z" fill="white"/>
<path d="M197.933 48.17H101.676V136.588H197.933V48.17Z" stroke="#263238" stroke-linecap="round" stroke-linejoin="round"/>
<path d="M204.281 81.8154C207.133 88.0779 215.151 92.8777 219.013 94.0411C219.013 94.0411 229.358 97.6576 237.116 91.6611C244.874 85.6646 246.583 74.0306 239.263 62.7025C231.944 51.3743 216.308 53.8141 209.606 60.1895C202.905 66.565 201.436 75.553 204.281 81.8154ZM225.927 71.4379C228.447 73.6318 228.586 76.7563 226.093 78.2654C225.393 78.6667 224.596 78.8712 223.789 78.8571C222.981 78.8431 222.193 78.6111 221.506 78.1856C220.724 77.7607 220.13 77.0579 219.84 76.216C219.551 75.3741 219.588 74.4544 219.944 73.6384C220.675 71.8568 223.428 69.2374 225.927 71.4379Z" fill="white" stroke="#263238" stroke-miterlimit="10"/>
<path d="M209.972 61.0737C209.002 64.1783 208.53 65.0625 206.927 66.5915C205.325 68.1206 204.474 70.6667 204.667 72.0096C204.896 73.6031 204.968 75.2153 204.88 76.8228C204.844 77.9251 205.066 79.0207 205.527 80.0224C205.989 81.0241 206.678 81.9043 207.539 82.5932C208.956 83.6266 210.175 84.9082 211.136 86.3759C212.538 88.3105 212.08 88.7493 214.18 89.8063C216.281 90.8633 220.25 92.9774 220.25 92.9774C220.25 92.9774 224.784 94.9718 226.818 94.1474C228.852 93.3231 231.272 90.3514 232.855 89.7199C234.437 89.0883 235.175 90.7835 237.269 87.7255C239.363 84.6674 239.975 82.314 241.258 81.1107C242.541 79.9074 242.846 75.6727 241.105 73.8445C239.346 72.1508 238.32 69.8363 238.246 67.3959C237.987 64.3711 237.136 62.5562 233.925 61.4726C230.714 60.3889 228.314 57.6433 227.111 56.6062C225.907 55.5692 222.657 55.8218 220.616 56.8855C218.575 57.9491 216.72 56.2207 214.573 57.1846C213.908 57.4904 213.243 57.6832 212.718 57.9026C212.149 58.2358 211.598 58.5998 211.069 58.9929C210.564 59.6032 210.19 60.3117 209.972 61.0737ZM220.223 72.1027C221.553 72.3553 222.291 69.9155 224.638 69.8623C226.984 69.8091 225.615 71.1188 225.967 71.4578C226.514 71.9284 226.977 72.4881 227.337 73.1132C227.737 73.6255 228.007 74.228 228.121 74.8683C228.083 75.9586 228.41 77.0305 229.052 77.913C229.803 78.9368 228.128 79.01 226.665 79.3091C225.203 79.6083 225.096 79.4886 223.953 80.3529C222.809 81.2171 221.174 79.7279 221.174 79.7279C221.174 79.7279 220.177 79.3689 219.213 77.6671C218.249 75.9652 219.266 75.6727 218.402 74.2899C217.538 72.9071 218.887 71.8102 220.223 72.1027Z" fill="white" stroke="#263238" stroke-miterlimit="10"/>
<path d="M220.848 63.9058C221.487 63.9058 222.005 63.3879 222.005 62.749C222.005 62.1102 221.487 61.5923 220.848 61.5923C220.209 61.5923 219.692 62.1102 219.692 62.749C219.692 63.3879 220.209 63.9058 220.848 63.9058Z" fill="white" stroke="#263238" stroke-miterlimit="10"/>
<path d="M213.901 66.0597C214.177 66.0597 214.4 65.8365 214.4 65.5611C214.4 65.2857 214.177 65.0625 213.901 65.0625C213.626 65.0625 213.403 65.2857 213.403 65.5611C213.403 65.8365 213.626 66.0597 213.901 66.0597Z" fill="white" stroke="#263238" stroke-miterlimit="10"/>
<path d="M216.793 60.5951C217.204 60.5951 217.538 60.2618 217.538 59.8505C217.538 59.4393 217.204 59.106 216.793 59.106C216.382 59.106 216.048 59.4393 216.048 59.8505C216.048 60.2618 216.382 60.5951 216.793 60.5951Z" fill="white" stroke="#263238" stroke-miterlimit="10"/>
<path d="M213.236 71.3516C213.236 71.6145 213.158 71.8716 213.012 72.0903C212.866 72.3089 212.659 72.4793 212.416 72.58C212.173 72.6806 211.905 72.7069 211.647 72.6556C211.389 72.6043 211.153 72.4777 210.967 72.2917C210.781 72.1058 210.654 71.8689 210.603 71.611C210.551 71.353 210.578 71.0857 210.678 70.8428C210.779 70.5998 210.949 70.3922 211.168 70.2461C211.387 70.1 211.644 70.022 211.907 70.022C212.259 70.022 212.598 70.1621 212.847 70.4114C213.096 70.6607 213.236 70.9989 213.236 71.3516Z" fill="white" stroke="#263238" stroke-miterlimit="10"/>
<path d="M228.626 67.1366C228.626 67.3168 228.573 67.4929 228.473 67.6426C228.373 67.7924 228.231 67.9091 228.064 67.9781C227.898 68.047 227.715 68.065 227.538 68.0299C227.361 67.9948 227.199 67.908 227.072 67.7806C226.944 67.6533 226.858 67.491 226.822 67.3143C226.787 67.1376 226.805 66.9545 226.874 66.7881C226.943 66.6217 227.06 66.4794 227.21 66.3793C227.359 66.2793 227.536 66.2259 227.716 66.2259C227.836 66.225 227.954 66.2479 228.065 66.2934C228.176 66.3388 228.277 66.4059 228.362 66.4906C228.446 66.5754 228.514 66.6761 228.559 66.787C228.604 66.8979 228.627 67.0168 228.626 67.1366Z" fill="white" stroke="#263238" stroke-miterlimit="10"/>
<path d="M228.38 62.4166C228.792 62.4166 229.125 62.0833 229.125 61.6721C229.125 61.2608 228.792 60.9275 228.38 60.9275C227.969 60.9275 227.636 61.2608 227.636 61.6721C227.636 62.0833 227.969 62.4166 228.38 62.4166Z" fill="white" stroke="#263238" stroke-miterlimit="10"/>
<path d="M235.235 67.9611C235.235 68.1741 235.171 68.3824 235.053 68.5595C234.935 68.7366 234.766 68.8746 234.57 68.9561C234.373 69.0376 234.156 69.059 233.947 69.0174C233.739 68.9759 233.547 68.8733 233.396 68.7227C233.245 68.5721 233.143 68.3802 233.101 68.1712C233.06 67.9623 233.081 67.7458 233.163 67.549C233.244 67.3522 233.382 67.184 233.559 67.0657C233.736 66.9473 233.945 66.8842 234.158 66.8842C234.443 66.8859 234.716 66.9999 234.917 67.2015C235.119 67.4031 235.233 67.676 235.235 67.9611Z" fill="white" stroke="#263238" stroke-miterlimit="10"/>
<path d="M236.564 77.0621C236.564 77.2423 236.511 77.4184 236.411 77.5681C236.311 77.7179 236.168 77.8347 236.002 77.9036C235.835 77.9725 235.652 77.9906 235.476 77.9554C235.299 77.9203 235.137 77.8335 235.009 77.7062C234.882 77.5788 234.795 77.4165 234.76 77.2398C234.725 77.0632 234.743 76.88 234.812 76.7136C234.881 76.5472 234.998 76.4049 235.147 76.3049C235.297 76.2048 235.473 76.1514 235.653 76.1514C235.895 76.1514 236.127 76.2473 236.297 76.4181C236.468 76.5889 236.564 76.8206 236.564 77.0621Z" fill="white" stroke="#263238" stroke-miterlimit="10"/>
<path d="M230.947 86.4091C230.948 86.6066 230.891 86.8001 230.782 86.9649C230.673 87.1298 230.518 87.2587 230.336 87.3352C230.154 87.4116 229.953 87.4323 229.759 87.3946C229.565 87.3569 229.387 87.2625 229.247 87.1233C229.107 86.9841 229.011 86.8064 228.972 86.6128C228.933 86.4192 228.952 86.2183 229.028 86.0357C229.103 85.8531 229.231 85.697 229.395 85.5871C229.559 85.4772 229.752 85.4186 229.949 85.4186C230.213 85.4186 230.465 85.5227 230.652 85.7083C230.839 85.8939 230.945 86.1458 230.947 86.4091Z" fill="white" stroke="#263238" stroke-miterlimit="10"/>
<path d="M219.359 89.3876C220.182 89.3876 220.848 88.7209 220.848 87.8984C220.848 87.076 220.182 86.4093 219.359 86.4093C218.537 86.4093 217.87 87.076 217.87 87.8984C217.87 88.7209 218.537 89.3876 219.359 89.3876Z" fill="white" stroke="#263238" stroke-miterlimit="10"/>
<path d="M213.815 79.6283C214.226 79.6283 214.559 79.2949 214.559 78.8837C214.559 78.4725 214.226 78.1392 213.815 78.1392C213.403 78.1392 213.07 78.4725 213.07 78.8837C213.07 79.2949 213.403 79.6283 213.815 79.6283Z" fill="white" stroke="#263238" stroke-miterlimit="10"/>
<path d="M221.845 82.6066C221.845 82.7381 221.806 82.8666 221.733 82.9759C221.66 83.0852 221.557 83.1704 221.435 83.2208C221.314 83.2711 221.18 83.2843 221.051 83.2586C220.922 83.2329 220.804 83.1696 220.711 83.0767C220.618 82.9837 220.554 82.8652 220.529 82.7363C220.503 82.6073 220.516 82.4736 220.566 82.3522C220.617 82.2307 220.702 82.1269 220.811 82.0538C220.921 81.9808 221.049 81.9418 221.181 81.9418C221.357 81.9418 221.526 82.0118 221.651 82.1365C221.775 82.2612 221.845 82.4303 221.845 82.6066Z" fill="white" stroke="#263238" stroke-miterlimit="10"/>
<path d="M208.769 75.4268C208.769 75.5412 208.735 75.653 208.671 75.7481C208.608 75.8432 208.517 75.9173 208.412 75.9611C208.306 76.0049 208.19 76.0163 208.078 75.994C207.965 75.9717 207.862 75.9166 207.781 75.8357C207.701 75.7548 207.645 75.6518 207.623 75.5396C207.601 75.4274 207.612 75.3111 207.656 75.2054C207.7 75.0997 207.774 75.0094 207.869 74.9459C207.964 74.8823 208.076 74.8484 208.19 74.8484C208.344 74.8484 208.491 74.9093 208.599 75.0178C208.708 75.1263 208.769 75.2734 208.769 75.4268Z" fill="white" stroke="#263238" stroke-miterlimit="10"/>
<path d="M213.402 60.4355C213.402 60.5341 213.373 60.6305 213.318 60.7125C213.264 60.7945 213.186 60.8584 213.095 60.8962C213.004 60.9339 212.903 60.9438 212.807 60.9246C212.71 60.9053 212.621 60.8578 212.551 60.7881C212.482 60.7184 212.434 60.6295 212.415 60.5328C212.396 60.4361 212.405 60.3358 212.443 60.2447C212.481 60.1536 212.545 60.0758 212.627 60.021C212.709 59.9662 212.805 59.9369 212.904 59.9369C212.97 59.936 213.035 59.9483 213.096 59.9731C213.157 59.9978 213.212 60.0345 213.258 60.081C213.305 60.1275 213.342 60.1828 213.366 60.2437C213.391 60.3046 213.403 60.3698 213.402 60.4355Z" fill="white" stroke="#263238" stroke-miterlimit="10"/>
<path d="M219.525 67.1367C219.525 67.1908 219.515 67.2444 219.494 67.2945C219.473 67.3445 219.443 67.3899 219.405 67.4282C219.366 67.4664 219.321 67.4968 219.271 67.5175C219.221 67.5382 219.167 67.5489 219.113 67.5489C219.012 67.5361 218.919 67.4868 218.852 67.4103C218.784 67.3338 218.747 67.2354 218.747 67.1334C218.747 67.0314 218.784 66.933 218.852 66.8565C218.919 66.78 219.012 66.7307 219.113 66.7179C219.223 66.7196 219.328 66.7645 219.405 66.8429C219.482 66.9213 219.525 67.0268 219.525 67.1367Z" fill="white" stroke="#263238" stroke-miterlimit="10"/>
<path d="M231.605 72.927C231.605 73.0414 231.571 73.1532 231.507 73.2483C231.444 73.3435 231.353 73.4176 231.248 73.4614C231.142 73.5051 231.026 73.5166 230.914 73.4943C230.801 73.472 230.698 73.4169 230.617 73.336C230.537 73.2551 230.481 73.152 230.459 73.0398C230.437 72.9277 230.448 72.8114 230.492 72.7057C230.536 72.6 230.61 72.5097 230.705 72.4461C230.8 72.3826 230.912 72.3486 231.026 72.3486C231.102 72.3486 231.178 72.3636 231.248 72.3927C231.318 72.4217 231.382 72.4643 231.435 72.518C231.489 72.5717 231.532 72.6355 231.561 72.7057C231.59 72.7758 231.605 72.8511 231.605 72.927Z" fill="white" stroke="#263238" stroke-miterlimit="10"/>
<path d="M237.069 82.2743C237.071 82.4718 237.013 82.6652 236.905 82.8301C236.796 82.9949 236.64 83.1238 236.458 83.2003C236.276 83.2768 236.076 83.2975 235.882 83.2598C235.688 83.222 235.51 83.1276 235.369 82.9884C235.229 82.8492 235.134 82.6715 235.095 82.4779C235.056 82.2843 235.075 82.0835 235.15 81.9009C235.226 81.7183 235.353 81.5621 235.517 81.4522C235.682 81.3424 235.875 81.2837 236.072 81.2837C236.203 81.2828 236.332 81.3078 236.453 81.3572C236.574 81.4066 236.684 81.4794 236.777 81.5715C236.87 81.6635 236.943 81.773 236.993 81.8937C237.043 82.0143 237.069 82.1436 237.069 82.2743Z" fill="white" stroke="#263238" stroke-miterlimit="10"/>
<path d="M217.371 74.0972C217.371 74.2776 217.318 74.454 217.217 74.6039C217.117 74.7538 216.974 74.8705 216.808 74.9393C216.641 75.008 216.457 75.0256 216.28 74.99C216.104 74.9543 215.941 74.8669 215.814 74.7388C215.687 74.6108 215.601 74.4479 215.567 74.2708C215.532 74.0937 215.551 73.9103 215.621 73.744C215.691 73.5777 215.809 73.4359 215.959 73.3367C216.11 73.2374 216.287 73.1851 216.467 73.1864C216.587 73.1864 216.705 73.21 216.815 73.2559C216.925 73.3017 217.025 73.3689 217.109 73.4536C217.193 73.5382 217.259 73.6387 217.304 73.7492C217.349 73.8596 217.372 73.9779 217.371 74.0972Z" fill="white" stroke="#263238" stroke-miterlimit="10"/>
<path d="M213.236 82.2742C213.236 82.4057 213.197 82.5342 213.124 82.6435C213.051 82.7528 212.947 82.838 212.826 82.8884C212.704 82.9387 212.571 82.9519 212.442 82.9262C212.313 82.9006 212.194 82.8372 212.101 82.7443C212.008 82.6513 211.945 82.5328 211.92 82.4039C211.894 82.2749 211.907 82.1412 211.957 82.0198C212.008 81.8983 212.093 81.7945 212.202 81.7214C212.312 81.6484 212.44 81.6094 212.572 81.6094C212.748 81.6094 212.917 81.6794 213.042 81.8041C213.166 81.9288 213.236 82.0979 213.236 82.2742Z" fill="white" stroke="#263238" stroke-miterlimit="10"/>
<path d="M209.6 69.8624C209.601 70.0271 209.554 70.1884 209.463 70.3259C209.373 70.4634 209.243 70.571 209.091 70.6349C208.94 70.6988 208.772 70.7162 208.611 70.6849C208.449 70.6536 208.301 70.575 208.184 70.459C208.067 70.3431 207.987 70.195 207.954 70.0337C207.922 69.8723 207.938 69.7049 208 69.5526C208.063 69.4004 208.17 69.2702 208.306 69.1786C208.443 69.087 208.604 69.0381 208.769 69.0381C208.988 69.0381 209.198 69.1247 209.354 69.2791C209.51 69.4335 209.598 69.6432 209.6 69.8624Z" fill="white" stroke="#263238" stroke-miterlimit="10"/>
<path d="M224.491 59.2721C224.493 59.371 224.465 59.468 224.411 59.5509C224.357 59.6338 224.279 59.6987 224.188 59.7375C224.097 59.7762 223.997 59.787 223.9 59.7686C223.802 59.7501 223.713 59.7031 223.643 59.6337C223.572 59.5642 223.524 59.4754 223.504 59.3785C223.484 59.2816 223.494 59.181 223.531 59.0895C223.569 58.998 223.633 58.9198 223.715 58.8647C223.797 58.8096 223.894 58.7802 223.993 58.7802C224.124 58.7801 224.25 58.8318 224.343 58.9238C224.436 59.0159 224.49 59.141 224.491 59.2721Z" fill="white" stroke="#263238" stroke-miterlimit="10"/>
<path d="M55.8253 79.9807C55.5581 79.9549 55.3038 79.8537 55.0919 79.6889C54.88 79.5242 54.7194 79.3026 54.6286 79.05C53.8331 76.8499 52.424 74.9237 50.5681 73.4993C48.7121 72.075 46.487 71.2121 44.156 71.0128C41.825 70.8135 39.4857 71.286 37.4148 72.3746C35.344 73.4632 33.6284 75.1222 32.4709 77.1553C32.3403 77.3888 32.1459 77.5804 31.9104 77.7075C31.675 77.8347 31.4082 77.8922 31.1413 77.8733L29.6056 77.7403C29.3595 77.718 29.112 77.761 28.8879 77.865C28.6638 77.9691 28.4712 78.1305 28.3295 78.3329C28.1878 78.5353 28.1021 78.7715 28.081 79.0177C28.06 79.2638 28.1043 79.5112 28.2095 79.7347L30.9551 85.8575C31.1745 86.3561 31.3939 86.8547 31.58 87.3666C32.4236 89.736 33.9762 91.7882 36.027 93.2443C38.0777 94.7004 40.5271 95.4897 43.0421 95.5049C45.5571 95.5202 48.0159 94.7606 50.0841 93.3295C52.1524 91.8984 53.7298 89.8652 54.602 87.5062C55.0275 86.3428 55.4796 85.1794 56.0048 84.0559L56.9687 81.995C57.0707 81.7902 57.1208 81.5635 57.1146 81.3348C57.1084 81.1061 57.046 80.8825 56.9331 80.6835C56.8202 80.4846 56.6601 80.3164 56.4669 80.1939C56.2737 80.0713 56.0534 79.9981 55.8253 79.9807Z" fill="white" stroke="#263238" stroke-miterlimit="10"/>
<path d="M55.8252 79.9806C55.5581 79.9549 55.3037 79.8537 55.0919 79.6889C54.88 79.5241 54.7193 79.3025 54.6286 79.0499C54.3193 78.1987 53.9156 77.3848 53.4253 76.6234L51.0852 82.5268C47.1671 86.8041 42.9957 90.8422 38.5936 94.6195C40.0307 95.1876 41.5623 95.4786 43.1076 95.4771H43.6262C47.5482 92.9905 51.2632 90.1915 54.7349 87.1073C55.1272 86.0702 55.5261 85.0398 55.9981 84.0426L56.962 81.9817C57.061 81.7779 57.1089 81.5531 57.1016 81.3267C57.0943 81.1003 57.0321 80.879 56.9202 80.682C56.8082 80.4851 56.6501 80.3183 56.4593 80.1961C56.2686 80.0739 56.0509 79.9999 55.8252 79.9806Z" fill="white" stroke="#263238" stroke-miterlimit="10"/>
<path d="M43.1209 88.5897C53.17 88.5897 61.3164 80.4433 61.3164 70.3941C61.3164 60.345 53.17 52.1986 43.1209 52.1986C33.0718 52.1986 24.9254 60.345 24.9254 70.3941C24.9254 80.4433 33.0718 88.5897 43.1209 88.5897Z" fill="white" stroke="#263238" stroke-miterlimit="10"/>
<path d="M43.1209 86.1633C51.8299 86.1633 58.8899 79.1033 58.8899 70.3943C58.8899 61.6853 51.8299 54.6252 43.1209 54.6252C34.4119 54.6252 27.3519 61.6853 27.3519 70.3943C27.3519 79.1033 34.4119 86.1633 43.1209 86.1633Z" fill="white" stroke="#263238" stroke-miterlimit="10"/>
<path d="M43.1209 82.6399C49.884 82.6399 55.3665 77.1573 55.3665 70.3943C55.3665 63.6312 49.884 58.1487 43.1209 58.1487C36.3578 58.1487 30.8753 63.6312 30.8753 70.3943C30.8753 77.1573 36.3578 82.6399 43.1209 82.6399Z" fill="white" stroke="#263238" stroke-miterlimit="10"/>
<path d="M35.3428 61.8581L20.3782 54.2794L19.1749 57.9823L33.3351 65.3616C33.6758 65.5948 34.0789 65.7199 34.4918 65.7206C34.9719 65.7561 35.4487 65.6168 35.8341 65.3284C36.2195 65.0399 36.4876 64.6218 36.5889 64.1511C36.6901 63.6805 36.6177 63.1891 36.385 62.7677C36.1523 62.3462 35.7751 62.0232 35.3228 61.8581H35.3428Z" fill="white" stroke="#263238" stroke-miterlimit="10"/>
<path d="M21.2158 55.9614C21.2158 56.3559 21.0989 56.7415 20.8797 57.0695C20.6606 57.3974 20.3491 57.6531 19.9847 57.804C19.6202 57.955 19.2192 57.9945 18.8324 57.9175C18.4455 57.8406 18.0901 57.6506 17.8112 57.3717C17.5323 57.0928 17.3423 56.7374 17.2654 56.3505C17.1884 55.9636 17.2279 55.5626 17.3789 55.1982C17.5298 54.8338 17.7854 54.5223 18.1134 54.3032C18.4414 54.084 18.827 53.967 19.2214 53.967C19.7504 53.967 20.2577 54.1772 20.6317 54.5512C21.0057 54.9252 21.2158 55.4325 21.2158 55.9614Z" fill="white" stroke="#263238" stroke-miterlimit="10"/>
<path d="M116.894 59.3586H156.788" stroke="#263238" stroke-miterlimit="10"/>
<path d="M168.037 59.3586H184.743" stroke="#263238" stroke-miterlimit="10"/>
<path d="M116.894 66.1727H156.788" stroke="#263238" stroke-miterlimit="10"/>
<path d="M168.037 66.1727H184.743" stroke="#263238" stroke-miterlimit="10"/>
<path d="M116.894 72.9935H156.788" stroke="#263238" stroke-miterlimit="10"/>
<path d="M168.037 72.9935H184.743" stroke="#263238" stroke-miterlimit="10"/>
<path d="M116.894 79.8145H156.788" stroke="#263238" stroke-miterlimit="10"/>
<path d="M168.037 79.8145H184.743" stroke="#263238" stroke-miterlimit="10"/>
<path d="M116.894 86.6353H156.788" stroke="#263238" stroke-miterlimit="10"/>
<path d="M168.037 86.6353H184.743" stroke="#263238" stroke-miterlimit="10"/>
<path d="M116.894 100.609H156.788" stroke="#263238" stroke-miterlimit="10"/>
<path d="M168.037 100.609H184.743" stroke="#263238" stroke-miterlimit="10"/>
<path d="M116.894 107.43H156.788" stroke="#263238" stroke-miterlimit="10"/>
<path d="M168.037 107.43H184.743" stroke="#263238" stroke-miterlimit="10"/>
<path d="M116.894 114.251H156.788" stroke="#263238" stroke-miterlimit="10"/>
<path d="M168.037 114.251H184.743" stroke="#263238" stroke-miterlimit="10"/>
<path d="M116.894 121.072H156.788" stroke="#263238" stroke-miterlimit="10"/>
<path d="M168.037 121.072H184.743" stroke="#263238" stroke-miterlimit="10"/>
<path d="M116.894 127.886H156.788" stroke="#263238" stroke-miterlimit="10"/>
<path d="M168.037 127.886H184.743" stroke="#263238" stroke-miterlimit="10"/>
<path d="M208.27 100.609H248.165" stroke="#263238" stroke-miterlimit="10"/>
<path d="M259.413 100.609H276.12" stroke="#263238" stroke-miterlimit="10"/>
<path d="M208.27 107.43H248.165" stroke="#263238" stroke-miterlimit="10"/>
<path d="M259.413 107.43H276.12" stroke="#263238" stroke-miterlimit="10"/>
<path d="M208.27 114.251H248.165" stroke="#263238" stroke-miterlimit="10"/>
<path d="M259.413 114.251H276.12" stroke="#263238" stroke-miterlimit="10"/>
<path d="M208.27 121.072H248.165" stroke="#263238" stroke-miterlimit="10"/>
<path d="M259.413 121.072H276.12" stroke="#263238" stroke-miterlimit="10"/>
<path d="M208.27 127.886H248.165" stroke="#263238" stroke-miterlimit="10"/>
<path d="M259.413 127.886H276.12" stroke="#263238" stroke-miterlimit="10"/>
<path d="M21.7676 101.294H61.6556" stroke="#263238" stroke-miterlimit="10"/>
<path d="M72.9106 101.294H89.617" stroke="#263238" stroke-miterlimit="10"/>
<path d="M21.7676 108.115H61.6556" stroke="#263238" stroke-miterlimit="10"/>
<path d="M72.9106 108.115H89.617" stroke="#263238" stroke-miterlimit="10"/>
<path d="M21.7676 114.936H61.6556" stroke="#263238" stroke-miterlimit="10"/>
<path d="M72.9106 114.936H89.617" stroke="#263238" stroke-miterlimit="10"/>
<path d="M21.7676 121.75H61.6556" stroke="#263238" stroke-miterlimit="10"/>
<path d="M72.9106 121.75H89.617" stroke="#263238" stroke-miterlimit="10"/>
<path d="M21.7676 128.571H61.6556" stroke="#263238" stroke-miterlimit="10"/>
<path d="M72.9106 128.571H89.617" stroke="#263238" stroke-miterlimit="10"/>
<path d="M46.6975 165.175C46.6975 165.175 46.6975 162.615 43.1209 159.038C39.5443 155.462 37.2374 153.414 37.2374 153.414C37.2374 153.414 35.4491 159.298 38.7731 162.874C41.2181 165.391 43.8687 167.699 46.6975 169.775V165.175Z" fill="#407BFF" class="primary-bg-700"/>
<path d="M41.5055 181.13C41.5055 181.13 41.5055 178.577 37.9222 175C34.339 171.424 32.0454 169.376 32.0454 169.376C32.0454 169.376 30.2571 175.253 33.5811 178.83C36.0241 181.348 38.675 183.657 41.5055 185.73V181.13Z" fill="#407BFF" class="primary-bg-700"/>
<path d="M46.4715 169.516C46.4715 169.516 46.7374 166.976 50.673 163.798C54.6086 160.621 57.1149 158.826 57.1149 158.826C57.1149 158.826 58.2717 164.862 54.5887 168.067C51.8955 170.314 49.0179 172.331 45.9862 174.096L46.4715 169.516Z" fill="#407BFF" class="primary-bg-700"/>
<path d="M40.1958 188.369C40.1958 188.369 40.7343 185.87 44.9823 183.118C49.2304 180.365 51.9095 178.856 51.9095 178.856C51.9095 178.856 52.4148 184.972 48.426 187.778C45.51 189.729 42.4343 191.43 39.2318 192.864L40.1958 188.369Z" fill="#407BFF" class="primary-bg-700"/>
<path d="M41.3792 208.918C41.3792 208.918 41.3791 206.359 44.9558 202.782C48.5324 199.206 50.8326 197.165 50.8326 197.165C50.8326 197.165 52.6209 203.042 49.2969 206.618C46.8551 209.136 44.2066 211.444 41.3792 213.519V208.918Z" fill="#407BFF" class="primary-bg-700"/>
<path d="M41.3194 213.931C41.3194 213.931 41.6784 211.405 38.6602 207.356C35.642 203.307 33.641 200.954 33.641 200.954C33.641 200.954 31.0349 206.518 33.8138 210.527C35.8732 213.374 38.1682 216.042 40.6745 218.505L41.3194 213.931Z" fill="#407BFF" class="primary-bg-700"/>
<path d="M37.7892 228.796C37.7892 228.796 37.7892 226.243 41.3658 222.666C44.9424 219.09 47.2426 217.042 47.2426 217.042C47.2426 217.042 49.0309 222.919 45.7136 226.496C43.2705 229.014 40.6197 231.323 37.7892 233.396V228.796Z" fill="#407BFF" class="primary-bg-700"/>
<path d="M40.1758 242.291C40.1758 242.291 39.511 239.818 42.0838 235.451C44.6566 231.083 46.3451 228.523 46.3451 228.523C46.3451 228.523 49.5694 233.755 47.2626 238.057C44.9557 242.358 40.6944 245.728 40.6944 245.728L40.1758 242.291Z" fill="#407BFF" class="primary-bg-700"/>
<path d="M47.0167 164.51C46.8371 167.172 46.5109 169.822 46.0394 172.448C44.6234 179.76 41.0867 184.467 39.6773 191.062C38.2679 197.657 42.3365 206.16 41.2329 214.642C40.1294 223.125 36.8453 227.832 37.7893 233.489C38.7333 239.147 42.4429 256.917 42.4429 256.917" stroke="#263238" stroke-linecap="round" stroke-linejoin="round"/>
<path d="M46.4383 171.218L50.2875 168.259" stroke="#263238" stroke-linecap="round" stroke-linejoin="round"/>
<path d="M46.6111 167.807L45.0023 164.942" stroke="#263238" stroke-linecap="round" stroke-linejoin="round"/>
<path d="M39.89 190.763C39.89 190.763 43.1143 188.343 46.4383 185.923" stroke="#263238" stroke-linecap="round" stroke-linejoin="round"/>
<path d="M41.5055 185.724C39.9034 182.615 37.9901 179.677 35.7949 176.955" stroke="#263238" stroke-linecap="round" stroke-linejoin="round"/>
<path d="M41.5055 212.555C43.352 209.155 45.6833 206.042 48.4261 203.314" stroke="#263238" stroke-linecap="round" stroke-linejoin="round"/>
<path d="M40.8739 216.138C39.8975 213.828 38.7278 211.604 37.377 209.49C35.4957 206.711 35.2297 206.352 35.2297 206.352" stroke="#263238" stroke-linecap="round" stroke-linejoin="round"/>
<path d="M37.7892 233.496C38.6089 231.465 39.58 229.498 40.6944 227.613C41.8039 225.87 43.0558 224.222 44.4372 222.686" stroke="#263238" stroke-linecap="round" stroke-linejoin="round"/>
<path d="M40.4484 247.317C40.7843 245.157 41.4174 243.054 42.3298 241.068C43.6594 238.462 45.2017 235.085 45.8266 233.715" stroke="#263238" stroke-linecap="round" stroke-linejoin="round"/>
<path d="M17.4996 199.305C17.4996 199.305 17.2204 197.703 19.0751 195.071C20.9299 192.438 22.1532 190.909 22.1532 190.909C22.1532 190.909 23.9149 194.399 22.2196 197.005C20.9607 198.849 19.5485 200.584 17.9982 202.191L17.4996 199.305Z" fill="#407BFF" class="primary-bg-700"/>
<path d="M22.4989 208.752C22.4989 208.752 22.2263 207.15 24.0811 204.517C25.9359 201.885 27.1525 200.349 27.1525 200.349C27.1525 200.349 28.9142 203.846 27.2189 206.445C25.9591 208.291 24.547 210.028 22.9975 211.637L22.4989 208.752Z" fill="#407BFF" class="primary-bg-700"/>
<path d="M18.1112 202.011C18.1112 202.011 17.6658 200.449 14.8537 198.88C12.0416 197.311 10.2799 196.46 10.2799 196.46C10.2799 196.46 10.2067 200.369 12.8659 201.984C14.8 203.099 16.8235 204.051 18.9156 204.83L18.1112 202.011Z" fill="#407BFF" class="primary-bg-700"/>
<path d="M24.0944 213.146C24.0944 213.146 23.4828 211.637 20.5045 210.381C17.5262 209.124 15.698 208.453 15.698 208.453C15.698 208.453 16.037 212.349 18.8491 213.672C20.8897 214.577 23.0022 215.311 25.1647 215.866L24.0944 213.146Z" fill="#407BFF" class="primary-bg-700"/>
<path d="M25.5835 226.163C25.5835 226.163 25.3043 224.561 22.6717 222.706C20.0391 220.851 18.3771 219.821 18.3771 219.821C18.3771 219.821 17.8918 223.697 20.3715 225.578C22.1763 226.894 24.0888 228.054 26.0888 229.048L25.5835 226.163Z" fill="#407BFF" class="primary-bg-700"/>
<path d="M26.1686 229.301C26.1686 229.301 25.6633 227.759 27.1259 224.887C28.5885 222.015 29.579 220.353 29.579 220.353C29.579 220.353 31.8194 223.564 30.5097 226.383C29.5253 228.385 28.3756 230.302 27.0727 232.113L26.1686 229.301Z" fill="#407BFF" class="primary-bg-700"/>
<path d="M30.6559 242.231C30.6559 242.231 30.8421 240.616 33.3617 238.608C35.8813 236.601 37.4901 235.484 37.4901 235.484C37.4901 235.484 38.1948 239.326 35.8347 241.347C34.1065 242.762 32.263 244.029 30.3235 245.137L30.6559 242.231Z" fill="#407BFF" class="primary-bg-700"/>
<path d="M29.9911 238.243C29.9911 238.243 29.7119 236.64 27.0793 234.786C24.4467 232.931 22.7847 231.894 22.7847 231.894C22.7847 231.894 22.2994 235.776 24.7791 237.658C26.5857 238.97 28.498 240.131 30.4963 241.128L29.9911 238.243Z" fill="#407BFF" class="primary-bg-700"/>
<path d="M29.9579 246.945C29.9579 246.945 30.0909 245.323 28.0167 242.863C25.9425 240.403 24.593 238.967 24.593 238.967C24.593 238.967 23.1437 242.597 25.0583 245.05C26.4729 246.777 28.0295 248.383 29.7119 249.85L29.9579 246.945Z" fill="#407BFF" class="primary-bg-700"/>
<path d="M17.2271 198.933C17.6265 200.582 18.1193 202.207 18.7029 203.8C20.3782 208.227 23.1105 210.8 24.6861 214.789C26.2617 218.777 24.6861 224.541 26.2683 229.74C27.8505 234.939 30.4765 237.538 30.4765 241.188C30.4765 244.838 28.8078 255.587 28.8078 255.587" stroke="#263238" stroke-linecap="round" stroke-linejoin="round"/>
<path d="M18.3173 203.075L15.5783 201.632" stroke="#263238" stroke-linecap="round" stroke-linejoin="round"/>
<path d="M17.8386 200.954L18.5367 198.98" stroke="#263238" stroke-linecap="round" stroke-linejoin="round"/>
<path d="M24.5465 214.616C24.5465 214.616 22.2596 213.452 19.8929 212.296" stroke="#263238" stroke-linecap="round" stroke-linejoin="round"/>
<path d="M22.9841 211.637C23.6602 209.511 24.5512 207.46 25.6433 205.515" stroke="#263238" stroke-linecap="round" stroke-linejoin="round"/>
<path d="M25.896 228.457C24.3767 226.528 22.5852 224.831 20.5776 223.418" stroke="#263238" stroke-linecap="round" stroke-linejoin="round"/>
<path d="M26.6804 230.637C27.0472 229.086 27.5408 227.567 28.1563 226.097C29.0338 224.149 29.1601 223.896 29.1601 223.896" stroke="#263238" stroke-linecap="round" stroke-linejoin="round"/>
<path d="M30.3767 243.953C31.2673 242.85 32.2527 241.827 33.3218 240.895C34.0037 240.394 34.644 239.838 35.2364 239.233" stroke="#263238" stroke-linecap="round" stroke-linejoin="round"/>
<path d="M30.4764 241.188C29.742 240.004 28.9198 238.878 28.0167 237.817C27.1245 236.853 26.1551 235.964 25.1182 235.158" stroke="#263238" stroke-linecap="round" stroke-linejoin="round"/>
<path d="M29.7119 249.87C29.6143 248.633 29.1898 247.445 28.482 246.426C27.3585 244.937 26.0289 242.969 25.4904 242.192" stroke="#263238" stroke-linecap="round" stroke-linejoin="round"/>
<path d="M154.92 86.0635C154.92 86.0635 173.269 103.794 174.093 112.656C174.917 121.517 161.309 128.737 165.231 131.622C169.153 134.507 179.857 142.139 175.742 148.734C171.627 155.329 169.559 156.984 171.002 158.427C172.444 159.87 175.948 161.086 175.742 164.61C175.536 168.133 171.414 171.158 171.414 171.158H106.263C106.263 171.158 102.76 171.364 103.172 166.418C103.584 161.472 110.591 158.793 109.355 155.076C108.118 151.36 99.0438 148.482 99.0438 141.056C99.0438 133.63 109.767 130.545 111.416 127.042C113.064 123.538 106.057 121.265 104.615 116.731C103.172 112.197 110.598 104.359 115.125 100.237C119.653 96.1153 137.808 84.1556 145.041 83.7434C152.274 83.3312 154.92 86.0635 154.92 86.0635Z" fill="#263238"/>
<path d="M159.84 90.8634C159.84 90.8634 169.812 108.288 168.236 115.129C166.661 121.969 156.104 129.754 160.145 135.039C164.187 140.324 170.117 142.505 167.618 149.04C166.133 152.95 163.915 156.54 161.083 159.617" stroke="#858585" stroke-linecap="round" stroke-linejoin="round"/>
<path d="M115.351 114.823C115.351 114.823 121.574 124.462 120.005 127.261C118.436 130.06 109.428 133.484 110.698 140.637C111.968 147.79 125.011 158.992 125.011 160.242" stroke="#858585" stroke-linecap="round" stroke-linejoin="round"/>
<path d="M154.92 86.0635C154.92 86.0635 173.269 103.794 174.093 112.656C174.917 121.517 161.309 128.737 165.231 131.622C169.153 134.507 179.857 142.139 175.742 148.734C171.627 155.329 169.559 156.984 171.002 158.427C172.444 159.87 175.948 161.086 175.742 164.61C175.536 168.133 171.414 171.158 171.414 171.158H106.263C106.263 171.158 102.76 171.364 103.172 166.418C103.584 161.472 110.591 158.793 109.355 155.076C108.118 151.36 99.0438 148.482 99.0438 141.056C99.0438 133.63 109.767 130.545 111.416 127.042C113.064 123.538 106.057 121.265 104.615 116.731C103.172 112.197 110.598 104.359 115.125 100.237C119.653 96.1153 137.808 84.1556 145.041 83.7434C152.274 83.3312 154.92 86.0635 154.92 86.0635Z" stroke="#263238" stroke-linecap="round" stroke-linejoin="round"/>
<path d="M178.474 161.365C178.474 161.365 203.404 200.256 207.06 204.91C210.717 209.563 206.728 217.208 201.077 221.197C195.426 225.186 185.966 221.702 181.06 216.63C176.154 211.558 171.161 199.591 171.161 199.591L178.474 161.365Z" fill="white" stroke="#263238" stroke-linecap="round" stroke-linejoin="round"/>
<path d="M136.592 148.402C136.592 148.402 113.324 155.382 106.011 158.041C98.6981 160.7 96.7037 161.033 96.7037 163.692C96.7037 165.241 102.255 195.363 101.69 221.197C101.284 239.865 94.7094 256.764 94.7094 256.764H179.471C179.471 256.764 172.517 240.908 172.491 221.862C172.451 195.17 179.252 162.535 178.474 161.365C177.144 159.371 139.583 148.069 136.592 148.402Z" fill="white" stroke="#263238" stroke-linecap="round" stroke-linejoin="round"/>
<path d="M172.743 228.138C169.699 225.764 165.743 221.862 163.848 216.544C160.903 208.293 158.736 164.024 158.284 154.052C156.708 153.574 155.126 153.095 153.571 152.636L154.235 194.273H124.652L122.066 152.849C120.49 153.334 118.901 153.833 117.346 154.325C117.379 162.735 117.379 201.965 115.012 213.22C113.197 221.862 105.639 227.692 101.052 230.504C99.9393 239.459 97.8276 248.26 94.7559 256.744H179.518C175.831 247.604 173.548 237.96 172.743 228.138Z" fill="#263238"/>
<path d="M118.29 154.019L117.319 154.325C117.352 162.735 117.352 201.965 114.986 213.22C114.853 213.845 114.687 214.443 114.5 215.035V256.764H118.29V154.019Z" fill="#424242"/>
<path d="M134.278 194.273H130.489V256.764H134.278V194.273Z" fill="#424242"/>
<path d="M98.512 244.099V256.731H102.275V229.66C101.823 229.959 101.384 230.245 100.978 230.498C100.421 235.076 99.5976 239.617 98.512 244.099Z" fill="#424242"/>
<path d="M110.292 222.6C109.142 223.998 107.877 225.297 106.51 226.482V256.764H110.292V222.6Z" fill="#424242"/>
<path d="M122.491 160.169V256.764H126.281V194.273H124.625L122.491 160.169Z" fill="#424242"/>
<path d="M162.459 209.829V256.764H166.242V221.264C165.256 219.793 164.452 218.208 163.848 216.544C163.194 214.35 162.729 212.103 162.459 209.829Z" fill="#424242"/>
<path d="M170.45 226.177V256.757H174.239V238.967C173.531 235.389 173.032 231.773 172.744 228.138C172.019 227.573 171.241 226.914 170.45 226.177Z" fill="#424242"/>
<path d="M158.251 154.046C156.988 153.654 155.718 153.275 154.468 152.902V256.764H158.251V154.046Z" fill="#424242"/>
<path d="M150.26 194.273H146.471V256.764H150.26V194.273Z" fill="#424242"/>
<path d="M142.269 194.273H138.48V256.764H142.269V194.273Z" fill="#424242"/>
<path d="M172.743 228.138C169.699 225.764 165.743 221.862 163.848 216.544C160.903 208.293 158.736 164.024 158.284 154.052C156.708 153.574 155.126 153.095 153.571 152.636L154.235 194.273H124.652L122.066 152.849C120.49 153.334 118.901 153.833 117.346 154.325C117.379 162.735 117.379 201.965 115.012 213.22C113.197 221.862 105.639 227.692 101.052 230.504C99.9393 239.459 97.8276 248.26 94.7559 256.744H179.518C175.831 247.604 173.548 237.96 172.743 228.138V228.138Z" stroke="#263238" stroke-linecap="round" stroke-linejoin="round"/>
<path d="M133.893 142.319C133.893 142.319 125.25 145.41 123.582 148.914C121.913 152.417 122.757 166.198 121.315 170.353C119.872 174.508 116.368 177.573 118.23 177.806C120.091 178.038 125.649 169.556 128.534 170.586C131.42 171.616 139.257 182.34 139.876 182.34C140.494 182.34 146.477 175.127 147.714 172.86C148.95 170.593 153.484 174.096 155.545 179.248C157.606 184.401 158.204 182.572 158.204 180.691C158.204 178.81 155.731 170.792 156.143 169.35C156.556 167.907 155.937 160.707 155.937 153.474C155.98 150.628 155.007 147.86 153.193 145.667C151.379 143.474 148.842 141.999 146.038 141.508C141.498 140.663 133.893 142.319 133.893 142.319Z" fill="white" stroke="#263238" stroke-linecap="round" stroke-linejoin="round"/>
<path d="M129.97 137.16V160.461C129.97 160.461 137.602 185.61 140.281 183.729C142.96 181.848 149.15 161.465 149.15 161.465V137.366C149.15 137.366 139.663 141.494 129.97 137.16Z" fill="white" stroke="#263238" stroke-linecap="round" stroke-linejoin="round"/>
<path d="M129.97 137.16V142.006C133.826 144.22 138.367 145.716 142.455 145.716C144.784 145.687 147.076 145.121 149.15 144.061V137.366C149.15 137.366 139.663 141.494 129.97 137.16Z" fill="#263238" stroke="#263238" stroke-linecap="round" stroke-linejoin="round"/>
<path d="M122.139 111.805C122.139 111.805 117.605 105.821 114.919 110.149C112.233 114.477 119.254 122.521 121.315 122.315C123.375 122.109 122.139 111.805 122.139 111.805Z" fill="white" stroke="#263238" stroke-linecap="round" stroke-linejoin="round"/>
<path d="M158.603 111.805C158.603 111.805 163.137 105.821 165.823 110.149C168.509 114.477 161.488 122.521 159.427 122.315C157.367 122.109 158.603 111.805 158.603 111.805Z" fill="white" stroke="#263238" stroke-linecap="round" stroke-linejoin="round"/>
<path d="M121.554 103.428C121.554 103.428 119.267 124.037 121.268 130.02C123.269 136.003 133.853 142.605 142.435 142.605C151.018 142.605 158.158 134.315 159.308 129.448C160.458 124.582 157.872 93.4163 156.157 89.9859C154.442 86.5555 143.579 86.2697 132.709 91.7011C121.84 97.1325 121.554 103.428 121.554 103.428Z" fill="white" stroke="#263238" stroke-linecap="round" stroke-linejoin="round"/>
<path d="M142.96 106.672C142.96 106.672 141.106 111.625 142.754 114.51C144.403 117.396 143.373 119.456 141.518 119.456C139.663 119.456 138.859 116.365 138.859 116.365" stroke="#263238" stroke-linecap="round" stroke-linejoin="round"/>
<path d="M132.45 121.491C132.45 121.491 141.092 127.474 148.738 121.491" stroke="#263238" stroke-linecap="round" stroke-linejoin="round"/>
<path d="M144.822 103.761C144.822 103.761 148.538 99.6388 152.866 104.173" stroke="#263238" stroke-linecap="round" stroke-linejoin="round"/>
<path d="M136.366 103.348C136.366 103.348 132.656 99.4326 128.115 102.936" stroke="#263238" stroke-linecap="round" stroke-linejoin="round"/>
<path d="M148.325 112.416C149.008 112.416 149.562 111.309 149.562 109.943C149.562 108.577 149.008 107.47 148.325 107.47C147.642 107.47 147.089 108.577 147.089 109.943C147.089 111.309 147.642 112.416 148.325 112.416Z" fill="#263238"/>
<path d="M132.862 112.416C133.545 112.416 134.099 111.309 134.099 109.943C134.099 108.577 133.545 107.47 132.862 107.47C132.179 107.47 131.626 108.577 131.626 109.943C131.626 111.309 132.179 112.416 132.862 112.416Z" fill="#263238"/>
<path d="M126.872 113.453C128.99 113.104 131.15 113.104 133.268 113.453" stroke="#263238" stroke-linecap="round" stroke-linejoin="round"/>
<path d="M147.913 113.659C149.957 113.283 152.052 113.283 154.096 113.659" stroke="#263238" stroke-linecap="round" stroke-linejoin="round"/>
<path d="M111.622 115.315C111.622 115.315 143.991 101.912 151.829 95.7231C159.667 89.5338 161.721 77.5807 143.373 78.199C125.024 78.8173 105.645 100.264 103.997 110.156C102.348 120.048 108.923 117.974 108.923 117.974" fill="#263238"/>
<path d="M155.791 78.7509C148.309 87.8653 139.248 95.5579 129.039 101.46C111.928 111.432 101.038 113.287 101.038 113.287" stroke="#858585" stroke-linecap="round" stroke-linejoin="round"/>
<path d="M143.658 75.6195C143.658 75.6195 128.415 99.5523 100.107 108.906" stroke="#858585" stroke-linecap="round" stroke-linejoin="round"/>
<path d="M111.622 115.315C111.622 115.315 143.991 101.912 151.829 95.7231C159.667 89.5338 161.721 77.5807 143.373 78.199C125.024 78.8173 105.645 100.264 103.997 110.156C102.348 120.048 108.923 117.974 108.923 117.974" stroke="#263238" stroke-linecap="round" stroke-linejoin="round"/>
<path d="M180.468 189.453C180.468 189.453 176.646 187.791 172.158 186.295C167.671 184.799 165.178 187.791 167.006 190.45C168.834 193.109 175.316 193.608 178.474 196.433C181.632 199.259 184.125 208.4 187.283 210.062C189.367 211.104 191.616 211.779 193.931 212.056V189.453H180.468Z" fill="white" stroke="#263238" stroke-linecap="round" stroke-linejoin="round"/>
<path d="M200.02 216.63H181.06L176.819 177.52H204.261L200.02 216.63Z" fill="#407BFF" class="primary-bg-700" stroke="#263238" stroke-linecap="round" stroke-linejoin="round"/>
<path d="M204.913 171.39H176.16L173.654 176.656H207.725L204.913 171.39Z" fill="white" stroke="#263238" stroke-linecap="round" stroke-linejoin="round"/>
<path d="M177.231 178.358H204.441L206.814 176.656H174.572L177.231 178.358Z" fill="white" stroke="#263238" stroke-linecap="round" stroke-linejoin="round"/>
<path d="M201.184 205.907L203.617 183.47H177.464L179.897 205.907H201.184Z" fill="white" stroke="#263238" stroke-linecap="round" stroke-linejoin="round"/>
<path d="M207.393 190.284C207.393 190.284 198.584 190.45 196.922 192.112C195.26 193.774 195.759 195.769 198.917 196.101C202.074 196.433 206.728 197.098 209.221 196.433C211.714 195.769 211.714 190.284 207.393 190.284Z" fill="white" stroke="#263238" stroke-linecap="round" stroke-linejoin="round"/>
<path d="M205.372 208.067C205.372 208.067 198.378 208.2 197.062 209.523C195.745 210.846 196.138 212.422 198.644 212.688C201.15 212.954 204.84 213.479 206.821 212.947C208.802 212.415 208.795 208.067 205.372 208.067Z" fill="white" stroke="#263238" stroke-linecap="round" stroke-linejoin="round"/>
<path d="M209.055 197.085C209.055 197.085 197.587 197.085 194.762 197.584C191.936 198.082 190.939 200.908 195.094 201.739C199.249 202.57 207.725 203.068 210.384 202.736C213.044 202.403 213.21 196.932 209.055 197.085Z" fill="white" stroke="#263238" stroke-linecap="round" stroke-linejoin="round"/>
<path d="M208.39 203.068C208.39 203.068 199.249 202.736 196.091 203.899C192.933 205.063 194.097 206.725 197.088 207.389C200.08 208.054 206.728 208.885 209.221 208.054C211.714 207.223 211.714 202.749 208.39 203.068Z" fill="white" stroke="#263238" stroke-linecap="round" stroke-linejoin="round"/>
<path d="M67.0404 144.42C67.0404 144.42 65.2787 145.477 66.5152 150.768L67.7451 156.054L75.3238 154.644C75.3238 154.644 71.9998 148.661 70.5638 146.002C69.1278 143.343 67.4193 143.715 67.0404 144.42Z" fill="white" stroke="#263238" stroke-linecap="round" stroke-linejoin="round"/>
<path d="M61.0572 154.119C61.0572 154.119 85.2027 150.064 92.4357 147.597C97.8768 145.838 103.407 144.367 109.003 143.19C110.449 142.856 111.926 142.677 113.41 142.658C113.41 142.658 114.115 142.658 113.942 145.656C113.769 148.654 117.818 187.612 121.521 199.598C125.224 211.584 127.504 217.228 127.504 217.228C127.504 217.228 105.825 221.636 85.7279 221.636C74.6181 221.709 63.5249 220.763 52.5877 218.811C51.883 218.811 61.2301 183.576 60.8711 171.57C60.5387 159.431 61.0572 154.119 61.0572 154.119Z" fill="#407BFF" class="primary-bg-700" stroke="#263238" stroke-linecap="round" stroke-linejoin="round"/>
<path d="M121.554 199.598C117.851 187.631 113.796 148.654 113.975 145.656C114.155 142.658 113.443 142.658 113.443 142.658C112.616 142.67 111.79 142.729 110.97 142.837C110.877 143.597 110.877 144.365 110.97 145.124C110.97 145.124 110.784 164.344 110.252 187.113C109.813 205.98 110.099 216.829 110.212 219.981C120.244 218.737 127.497 217.262 127.497 217.262C127.497 217.262 125.243 211.584 121.554 199.598Z" fill="#407BFF" class="primary-bg-700" stroke="#263238" stroke-linecap="round" stroke-linejoin="round"/>
<path d="M113.078 143.542V152.357C113.078 155.176 113.61 156.585 112.546 156.585C111.482 156.585 102.68 158.174 88.4004 160.993C79.3256 162.804 70.1359 163.981 60.8977 164.516C59.8406 164.516 61.0772 154.119 61.0772 154.119C61.0772 154.119 87.8685 149.884 96.5043 147.065C101.643 145.382 106.883 144.028 112.194 143.01" fill="#407BFF" class="primary-bg-700"/>
<path d="M113.078 143.542V152.357C113.078 155.176 113.61 156.585 112.546 156.585C111.482 156.585 102.68 158.174 88.4004 160.993C79.3256 162.804 70.1359 163.981 60.8977 164.516C59.8406 164.516 61.0772 154.119 61.0772 154.119C61.0772 154.119 87.8685 149.884 96.5043 147.065C101.643 145.382 106.883 144.028 112.194 143.01" stroke="#263238" stroke-linecap="round" stroke-linejoin="round"/>
<path d="M82.2311 137.193C82.2311 137.193 83.9928 133.138 88.7527 135.784C93.5127 138.43 96.6838 147.95 95.9791 149.884C95.2744 151.819 92.9809 152.357 91.0397 150.416C89.0984 148.475 84.1656 141.428 82.9358 139.487C81.7059 137.546 82.2311 137.193 82.2311 137.193Z" fill="white" stroke="#263238" stroke-linecap="round" stroke-linejoin="round"/>
<path d="M76.9392 139.66C76.9392 139.66 85.8475 152.65 87.5162 153.767C89.1848 154.884 92.2894 155.522 91.3919 151.653C90.5476 147.976 87.1638 140.896 84.8703 138.43C82.5767 135.963 80.9945 135.611 79.0533 136.668C77.1121 137.725 76.5869 138.25 76.9392 139.66Z" fill="white" stroke="#263238" stroke-linecap="round" stroke-linejoin="round"/>
<path d="M77.6772 138.955C77.6772 138.955 85.9606 149.532 86.6719 152.005C87.3832 154.478 85.9606 158.527 82.2643 156.233C78.568 153.939 75.2108 146.361 73.0967 143.715C70.9827 141.069 74.6457 137.02 77.6772 138.955Z" fill="white" stroke="#263238" stroke-linecap="round" stroke-linejoin="round"/>
<path d="M72.7111 141.601C72.7111 141.601 67.3927 142.305 66.7279 145.124C66.0631 147.943 70.6037 154.119 74.3066 155.176C78.0095 156.233 79.0666 153.235 78.0095 150.768C76.9525 148.302 74.4728 142.133 72.7111 141.601Z" fill="white" stroke="#263238" stroke-linecap="round" stroke-linejoin="round"/>
<path d="M265.13 244.625H207.612L221.068 182.167H278.586L265.13 244.625Z" fill="#263238" stroke="#263238" stroke-linecap="round" stroke-linejoin="round"/>
<path d="M278.586 182.167H221.068C221.068 182.167 253.636 190.031 278.586 182.167Z" fill="#6B6B6B" stroke="#263238" stroke-linecap="round" stroke-linejoin="round"/>
<path d="M239.503 209.125L233.44 227.772L243.777 234.739L247.819 223.059L239.503 209.125Z" fill="#3B3B3B" stroke="#263238" stroke-linecap="round" stroke-linejoin="round"/>
<path d="M239.503 209.125H259.5L262.644 221.038L247.819 223.059L239.503 209.125Z" fill="#3B3B3B" stroke="#263238" stroke-linecap="round" stroke-linejoin="round"/>
<path d="M257.233 255.182C256.204 241.372 251.98 227.99 244.894 216.092L229.125 255.182H257.233Z" fill="#3B3B3B" stroke="#263238" stroke-linecap="round" stroke-linejoin="round"/>
<path d="M282.043 255.182C282.455 236.933 272.982 216.092 272.982 216.092H244.894C251.979 227.99 256.203 241.372 257.233 255.182H282.043Z" fill="#6B6B6B" stroke="#263238" stroke-linecap="round" stroke-linejoin="round"/>
<path d="M291.284 253.108H8.33203V260.241H291.284V253.108Z" fill="white" stroke="#263238" stroke-linecap="round" stroke-linejoin="round"/>
</svg>
