<svg width="298" height="222" viewBox="0 0 298 222" fill="none" xmlns="http://www.w3.org/2000/svg">
<path d="M297.081 194.529H0V194.677H297.081V194.529Z" fill="#EBEBEB"/>
<path d="M81.7924 198.575H62.1138V198.724H81.7924V198.575Z" fill="#EBEBEB"/>
<path d="M125.897 204.018H101.685V204.166H125.897V204.018Z" fill="#EBEBEB"/>
<path d="M61.5196 202.158H31.1698V202.306H61.5196V202.158Z" fill="#EBEBEB"/>
<path d="M267.314 199.573H211.974V199.722H267.314V199.573Z" fill="#EBEBEB"/>
<path d="M206.686 199.573H202.925V199.722H206.686V199.573Z" fill="#EBEBEB"/>
<path d="M189.799 202.081H164.708V202.229H189.799V202.081Z" fill="#EBEBEB"/>
<path d="M140.817 168.029H26.0897C25.191 168.028 24.3296 167.67 23.6946 167.033C23.0596 166.397 22.703 165.535 22.703 164.637V3.36296C22.7108 2.46936 23.0709 1.61492 23.705 0.985252C24.3391 0.355582 25.1961 0.00153079 26.0897 0H140.817C141.716 0 142.579 0.357441 143.216 0.99369C143.852 1.62994 144.209 2.49288 144.209 3.39267V164.637C144.209 165.536 143.852 166.399 143.216 167.036C142.579 167.672 141.716 168.029 140.817 168.029ZM26.0897 0.118833C25.2304 0.120407 24.4067 0.462892 23.7996 1.07111C23.1925 1.67934 22.8515 2.50359 22.8515 3.36296V164.637C22.8515 165.496 23.1925 166.32 23.7996 166.928C24.4067 167.537 25.2304 167.879 26.0897 167.881H140.817C141.677 167.879 142.501 167.537 143.109 166.929C143.717 166.321 144.059 165.497 144.061 164.637V3.36296C144.059 2.50305 143.717 1.6788 143.109 1.07075C142.501 0.462699 141.677 0.120404 140.817 0.118833H26.0897Z" fill="#EBEBEB"/>
<path d="M269.34 168.029H154.607C153.708 168.028 152.846 167.67 152.21 167.034C151.574 166.398 151.216 165.536 151.214 164.637V3.36296C151.224 2.46881 151.585 1.61439 152.22 0.98488C152.855 0.355374 153.713 0.0015141 154.607 0H269.34C270.233 0.00309232 271.088 0.357834 271.721 0.987337C272.354 1.61684 272.713 2.47038 272.721 3.36296V164.637C272.721 165.534 272.365 166.395 271.731 167.031C271.098 167.667 270.238 168.026 269.34 168.029ZM154.607 0.118833C153.747 0.120404 152.923 0.462699 152.315 1.07075C151.707 1.6788 151.365 2.50305 151.363 3.36296V164.637C151.365 165.497 151.707 166.321 152.315 166.929C152.923 167.537 153.747 167.879 154.607 167.881H269.34C270.2 167.879 271.024 167.537 271.632 166.929C272.24 166.321 272.583 165.497 272.584 164.637V3.36296C272.583 2.50305 272.24 1.6788 271.632 1.07075C271.024 0.462699 270.2 0.120404 269.34 0.118833H154.607Z" fill="#EBEBEB"/>
<path d="M114.525 194.529H104.971V51.098H110.318L114.525 194.529Z" fill="#E6E6E6"/>
<path d="M109.451 56.0473H100.485C99.1736 56.0426 97.9174 55.5197 96.9902 54.5925C96.0631 53.6653 95.5401 52.4091 95.5354 51.0979C95.5401 49.7867 96.0631 48.5306 96.9902 47.6034C97.9174 46.6762 99.1736 46.1533 100.485 46.1486H109.451C110.762 46.1533 112.018 46.6762 112.945 47.6034C113.872 48.5306 114.395 49.7867 114.4 51.0979C114.395 52.4091 113.872 53.6653 112.945 54.5925C112.018 55.5197 110.762 56.0426 109.451 56.0473Z" fill="#E6E6E6"/>
<path d="M99.5639 56.4811C102.196 56.4811 104.329 54.1029 104.329 51.1692C104.329 48.2356 102.196 45.8574 99.5639 45.8574C96.9322 45.8574 94.7987 48.2356 94.7987 51.1692C94.7987 54.1029 96.9322 56.4811 99.5639 56.4811Z" fill="#F5F5F5"/>
<path d="M99.5639 51.1693L59.2975 10.1305L82.9273 45.8932L99.5639 51.1693Z" fill="#F5F5F5"/>
<path d="M99.564 51.1693L84.1514 106.557L103.307 68.2099L99.564 51.1693Z" fill="#F5F5F5"/>
<path d="M99.5638 51.1693L155.237 36.8203L112.445 39.4049L99.5638 51.1693Z" fill="#F5F5F5"/>
<path d="M198.076 194.529H190.031V61.7335H194.535L198.076 194.529Z" fill="#E6E6E6"/>
<path d="M193.804 65.8986H186.258C185.155 65.8986 184.097 65.4604 183.317 64.6804C182.537 63.9004 182.099 62.8425 182.099 61.7395C182.099 60.6364 182.537 59.5785 183.317 58.7985C184.097 58.0185 185.155 57.5803 186.258 57.5803H193.804C194.907 57.5803 195.965 58.0185 196.745 58.7985C197.525 59.5785 197.963 60.6364 197.963 61.7395C197.963 62.8425 197.525 63.9004 196.745 64.6804C195.965 65.4604 194.907 65.8986 193.804 65.8986Z" fill="#E6E6E6"/>
<path d="M185.48 66.261C187.695 66.261 189.49 64.2606 189.49 61.7929C189.49 59.3253 187.695 57.3248 185.48 57.3248C183.265 57.3248 181.469 59.3253 181.469 61.7929C181.469 64.2606 183.265 66.261 185.48 66.261Z" fill="#F5F5F5"/>
<path d="M185.48 61.793L205.64 17.8011L184.63 47.129L185.48 61.793Z" fill="#F5F5F5"/>
<path d="M185.48 61.793L137.305 66.3264L173.21 69.8617L185.48 61.793Z" fill="#F5F5F5"/>
<path d="M185.48 61.793L213.501 101.245L198.605 68.3882L185.48 61.793Z" fill="#F5F5F5"/>
<path d="M162.242 169.931C162.242 169.931 133.318 155.564 163.656 138.375C193.994 121.186 200.269 151.512 200.269 151.512C200.269 151.512 205.123 123.396 230.208 137.353C249.56 148.119 245.657 161.476 242.882 167.019C245.853 162.949 253.304 156.378 267.243 164.856C286.155 176.389 264.64 194.523 264.64 194.523H150.412C135.849 171.499 162.242 169.931 162.242 169.931Z" fill="#E6E6E6"/>
<path d="M158.641 162.403C158.641 162.403 194.487 143.657 156.859 121.209C119.231 98.7618 111.489 138.375 111.489 138.375C111.489 138.375 105.47 101.667 74.3833 119.89C50.3969 133.948 55.2215 151.381 58.6736 158.618C54.9957 153.294 45.7505 144.726 28.5198 155.801C5.06821 170.858 31.7283 194.529 31.7283 194.529H173.282C191.32 164.464 158.641 162.403 158.641 162.403Z" fill="#F0F0F0"/>
<path d="M72.2561 55.3463C70.64 52.0903 67.5028 49.7731 64.2825 49.7731C63.3517 49.7584 62.4309 49.9665 61.5968 50.3799C60.7627 50.7933 60.0396 51.4001 59.4876 52.1497C58.5039 51.3063 57.2595 50.8279 55.9642 50.795C53.7717 50.795 52.1556 52.3636 51.805 54.5739C50.7939 54.0762 49.6923 53.7892 48.5668 53.7302C46.3744 53.6292 44.6394 54.5323 43.7482 55.9939C43.3373 55.746 42.8725 55.6012 42.3935 55.5721C42.1204 55.5266 41.8403 55.5504 41.5788 55.6415C41.3174 55.7325 41.083 55.8878 40.8972 56.0931C40.7115 56.2984 40.5803 56.5471 40.5157 56.8163C40.4512 57.0855 40.4553 57.3666 40.5278 57.6338L40.5813 57.8477H76.1419C76.2251 56.6891 73.8247 55.4057 72.2561 55.3463Z" fill="#E6E6E6"/>
<path d="M257.867 44.3899C256.251 41.1339 253.113 38.8167 249.899 38.8167C248.967 38.8006 248.045 39.008 247.21 39.4215C246.374 39.835 245.65 40.4425 245.098 41.1933C244.112 40.3542 242.869 39.8782 241.575 39.8446C239.382 39.8446 237.766 41.4072 237.386 43.6234C236.375 43.1248 235.273 42.8377 234.148 42.7797C231.955 42.6787 230.226 43.5759 229.329 45.0435C228.918 44.7955 228.453 44.6508 227.974 44.6216C227.707 44.5824 227.434 44.6096 227.18 44.7009C226.925 44.7921 226.697 44.9446 226.516 45.1449C226.334 45.3451 226.205 45.587 226.139 45.8491C226.073 46.1112 226.073 46.3855 226.138 46.6477L226.192 46.8676H261.752C261.859 45.7505 259.459 44.4434 257.867 44.3899Z" fill="#F5F5F5"/>
<path d="M170.62 89.992C170.45 89.9735 170.28 89.9636 170.109 89.9623C168.528 88.0431 166.544 86.8132 164.69 86.8132C164.066 86.8062 163.45 86.9613 162.903 87.2633C162.356 87.5653 161.897 88.0039 161.571 88.5363C158.689 84.8049 154.964 82.3807 151.47 82.3807C148.66 82.3807 146.521 83.9612 145.326 86.5399C143.698 85.0723 141.874 84.1989 140.133 84.1989C137.079 84.1989 135.178 86.9083 135.142 90.7347C133.711 89.8966 132.108 89.3947 130.454 89.2671C127.389 89.0948 125.178 90.6574 124.263 93.1945C123.682 92.7769 122.998 92.5244 122.285 92.4637C120.609 92.3686 119.676 93.7708 120.092 95.6425H178.249C177.538 94.1475 176.47 92.8504 175.14 91.865C173.809 90.8797 172.257 90.2365 170.62 89.992Z" fill="#F5F5F5"/>
<path d="M186.941 12.3467H186.686C186.373 11.9057 185.97 11.537 185.502 11.2654C185.035 10.9937 184.515 10.8256 183.977 10.7722C183.664 10.7635 183.354 10.8375 183.078 10.9867C182.803 11.1358 182.572 11.3549 182.408 11.6218C180.964 9.75616 179.104 8.54407 177.358 8.54407C176.698 8.5433 176.053 8.7405 175.506 9.11018C174.96 9.47985 174.537 10.005 174.292 10.6177C173.6 9.91876 172.677 9.49624 171.695 9.42938C170.162 9.42938 169.218 10.7841 169.2 12.6973C168.485 12.2782 167.685 12.0282 166.859 11.9664C166.197 11.8926 165.529 12.0466 164.967 12.403C164.404 12.7595 163.979 13.2971 163.763 13.9272C163.471 13.7192 163.128 13.594 162.771 13.5647C161.933 13.5172 161.47 14.2183 161.678 15.1512H190.762C190.403 14.4068 189.867 13.7619 189.201 13.273C188.535 12.784 187.759 12.466 186.941 12.3467Z" fill="#E6E6E6"/>
<path d="M148.541 221.361C212.165 221.361 263.743 218.35 263.743 214.635C263.743 210.921 212.165 207.909 148.541 207.909C84.9163 207.909 33.3385 210.921 33.3385 214.635C33.3385 218.35 84.9163 221.361 148.541 221.361Z" fill="#F5F5F5"/>
<path d="M159.83 167.18H141.53C133.681 167.18 127.323 177.477 127.323 190.18C127.323 202.883 133.681 213.18 141.53 213.18H159.83C167.679 213.18 174.042 202.883 174.042 190.18C174.042 177.477 167.667 167.18 159.83 167.18Z" fill="#407BFF" class="primary-bg-700"/>
<path opacity="0.2" d="M159.83 167.18H141.53C133.681 167.18 127.323 177.477 127.323 190.18C127.323 202.883 133.681 213.18 141.53 213.18H159.83C167.679 213.18 174.042 202.883 174.042 190.18C174.042 177.477 167.667 167.18 159.83 167.18Z" fill="black"/>
<path d="M77.2055 167.18H58.9053C51.0564 167.18 44.6989 177.477 44.6989 190.18C44.6989 202.883 51.0564 213.18 58.9053 213.18H77.2055C85.0544 213.18 91.4179 202.883 91.4179 190.18C91.4179 177.477 85.0544 167.18 77.2055 167.18Z" fill="#407BFF" class="primary-bg-700"/>
<path opacity="0.2" d="M77.2055 167.18H58.9053C51.0564 167.18 44.6989 177.477 44.6989 190.18C44.6989 202.883 51.0564 213.18 58.9053 213.18H77.2055C85.0544 213.18 91.4179 202.883 91.4179 190.18C91.4179 177.477 85.0544 167.18 77.2055 167.18Z" fill="black"/>
<path d="M251.872 149.729L256.031 153.294C256.999 154.125 257.719 155.207 258.113 156.421C258.507 157.634 258.56 158.933 258.265 160.175L257.314 164.185L251.872 149.729Z" fill="#407BFF" class="primary-bg-700"/>
<path d="M259.435 173.062C258.716 165.216 256.662 157.55 253.363 150.394L251.925 147.311H217.291L235.253 199.003C241.572 197.425 247.426 194.37 252.335 190.091L252.751 189.734C255.105 187.682 256.938 185.101 258.1 182.202C259.262 179.304 259.719 176.171 259.435 173.062Z" fill="#407BFF" class="primary-bg-700"/>
<path opacity="0.5" d="M259.435 173.062C258.716 165.216 256.662 157.55 253.363 150.394L251.925 147.311H217.291L235.253 199.003C241.572 197.425 247.426 194.37 252.335 190.091L252.751 189.734C255.105 187.682 256.938 185.101 258.1 182.202C259.262 179.304 259.719 176.171 259.435 173.062Z" fill="white"/>
<path d="M213.447 213.18C205.598 213.18 199.235 202.883 199.235 190.18C199.235 177.477 205.598 167.18 213.447 167.18H231.682V213.18H213.447Z" fill="#407BFF" class="primary-bg-700"/>
<path d="M231.747 213.18C239.597 213.18 245.96 202.882 245.96 190.18C245.96 177.477 239.597 167.18 231.747 167.18C223.898 167.18 217.535 177.477 217.535 190.18C217.535 202.882 223.898 213.18 231.747 213.18Z" fill="#407BFF" class="primary-bg-700"/>
<path opacity="0.2" d="M231.747 204.725C237.254 204.725 241.717 198.213 241.717 190.18C241.717 182.147 237.254 175.635 231.747 175.635C226.241 175.635 221.777 182.147 221.777 190.18C221.777 198.213 226.241 204.725 231.747 204.725Z" fill="black"/>
<path d="M109.706 199.003L75.53 144.156C75.53 144.156 102.57 116.824 161.63 116.824C212.764 116.824 243.387 133.71 251.943 147.317L231.682 167.186C212.075 167.186 212.182 187.981 209.49 196.745C209.286 197.405 208.874 197.982 208.317 198.389C207.759 198.797 207.085 199.014 206.394 199.009H109.706" fill="#407BFF" class="primary-bg-700"/>
<path opacity="0.5" d="M109.706 199.003L75.53 144.156C75.53 144.156 102.57 116.824 161.63 116.824C212.764 116.824 243.387 133.71 251.943 147.317L231.682 167.186C212.075 167.186 212.182 187.981 209.49 196.745C209.286 197.405 208.874 197.982 208.317 198.389C207.759 198.797 207.085 199.014 206.394 199.009H109.706" fill="white"/>
<path d="M130.835 213.18C122.986 213.18 116.622 202.883 116.622 190.18C116.622 177.477 122.992 167.18 130.835 167.18H149.07V213.18H130.835Z" fill="#407BFF" class="primary-bg-700"/>
<path d="M149.135 213.18C156.984 213.18 163.347 202.882 163.347 190.18C163.347 177.477 156.984 167.18 149.135 167.18C141.286 167.18 134.923 177.477 134.923 190.18C134.923 202.882 141.286 213.18 149.135 213.18Z" fill="#407BFF" class="primary-bg-700"/>
<path opacity="0.2" d="M149.135 204.725C154.641 204.725 159.105 198.213 159.105 190.18C159.105 182.147 154.641 175.635 149.135 175.635C143.629 175.635 139.165 182.147 139.165 190.18C139.165 198.213 143.629 204.725 149.135 204.725Z" fill="black"/>
<path d="M124.115 194.476C125.856 184.197 136.105 167.18 149.07 167.18L161.612 144.156H75.53C70.0399 144.156 44.3721 153.431 35.0259 162.777C28.4901 169.313 27.8068 175.902 27.0344 192.657C26.8799 196.074 30.023 199.045 33.8019 199.045C65.5659 199.045 104.008 199.169 118.001 199.211C121.09 199.193 123.651 197.227 124.115 194.476Z" fill="#407BFF" class="primary-bg-700"/>
<path opacity="0.5" d="M124.115 194.476C125.856 184.197 136.105 167.18 149.07 167.18L161.612 144.156H75.53C70.0399 144.156 44.3721 153.431 35.0259 162.777C28.4901 169.313 27.8068 175.902 27.0344 192.657C26.8799 196.074 30.023 199.045 33.8019 199.045C65.5659 199.045 104.008 199.169 118.001 199.211C121.09 199.193 123.651 197.227 124.115 194.476Z" fill="white"/>
<path opacity="0.3" d="M161.612 116.818C102.915 116.818 76.1301 143.734 75.524 144.15H134.905C134.905 144.15 160.454 122.077 177.37 117.377C172.367 117.012 167.114 116.826 161.612 116.818Z" fill="#407BFF" class="primary-bg-700"/>
<path opacity="0.7" d="M88.1857 167.649C96.3317 164.559 120.936 155.891 127.644 158.142C134.352 160.394 118.108 168.439 114.014 169.509C109.92 170.578 107.24 168.433 101.115 171.398C94.9888 174.363 78.3166 171.38 88.1857 167.649Z" fill="#407BFF" class="primary-bg-700"/>
<path opacity="0.2" d="M189.098 199.312C189.035 199.312 188.973 199.293 188.92 199.259C188.852 199.212 188.805 199.14 188.79 199.059C188.774 198.978 188.791 198.894 188.837 198.825C188.962 198.647 200.999 180.519 200.999 144.162C200.999 144.078 201.033 143.998 201.092 143.939C201.151 143.88 201.231 143.847 201.314 143.847C201.355 143.847 201.396 143.855 201.434 143.871C201.472 143.887 201.506 143.91 201.535 143.94C201.564 143.969 201.586 144.004 201.601 144.042C201.617 144.08 201.624 144.121 201.623 144.162C201.623 180.739 189.479 199.003 189.354 199.181C189.325 199.223 189.287 199.256 189.243 199.279C189.198 199.302 189.148 199.313 189.098 199.312Z" fill="#407BFF" class="primary-bg-700"/>
<path opacity="0.2" d="M58.6676 171.25H58.6022L42.2449 167.483C42.2006 167.479 42.1577 167.465 42.119 167.444C42.0803 167.422 42.0469 167.392 42.0209 167.355C41.9949 167.319 41.9769 167.278 41.9684 167.235C41.9598 167.191 41.9607 167.146 41.9711 167.103C41.9814 167.059 42.001 167.019 42.0285 166.984C42.0559 166.949 42.0906 166.92 42.1302 166.9C42.1697 166.88 42.2132 166.868 42.2576 166.866C42.302 166.864 42.3463 166.872 42.3875 166.888L58.6854 170.632L85.6426 167.554C85.6865 167.537 85.7338 167.53 85.7807 167.534C85.8277 167.538 85.8731 167.553 85.9136 167.577C85.954 167.601 85.9883 167.634 86.014 167.674C86.0396 167.713 86.0559 167.758 86.0615 167.805C86.0671 167.852 86.0619 167.899 86.0464 167.944C86.0308 167.988 86.0053 168.029 85.9718 168.062C85.9382 168.095 85.8975 168.12 85.8528 168.135C85.8081 168.15 85.7606 168.154 85.7139 168.148L58.7033 171.25H58.6676Z" fill="#407BFF" class="primary-bg-700"/>
<path opacity="0.2" d="M231.682 167.495C231.64 167.495 231.598 167.487 231.559 167.471C231.52 167.454 231.485 167.43 231.456 167.399C231.427 167.37 231.404 167.335 231.388 167.297C231.372 167.259 231.364 167.218 231.364 167.177C231.364 167.135 231.372 167.094 231.388 167.056C231.404 167.018 231.427 166.983 231.456 166.954C237.166 161.351 240.214 148.267 240.214 140.977C240.213 140.936 240.221 140.895 240.236 140.857C240.251 140.819 240.274 140.784 240.302 140.755C240.331 140.725 240.366 140.702 240.403 140.686C240.441 140.67 240.482 140.662 240.523 140.662C240.607 140.662 240.687 140.695 240.746 140.754C240.805 140.813 240.838 140.893 240.838 140.977C240.838 148.38 237.731 161.684 231.896 167.405C231.838 167.46 231.762 167.492 231.682 167.495Z" fill="#407BFF" class="primary-bg-700"/>
<path d="M185.652 150.406H193.798C194.102 150.405 194.392 150.284 194.607 150.069C194.822 149.854 194.943 149.563 194.945 149.26C194.943 148.956 194.822 148.665 194.607 148.451C194.392 148.236 194.102 148.114 193.798 148.113H185.652C185.348 148.114 185.058 148.236 184.843 148.451C184.628 148.665 184.507 148.956 184.505 149.26C184.507 149.563 184.628 149.854 184.843 150.069C185.058 150.284 185.348 150.405 185.652 150.406Z" fill="#407BFF" class="primary-bg-700"/>
<path d="M221.391 150.406H229.531C229.836 150.406 230.128 150.286 230.344 150.071C230.56 149.856 230.682 149.564 230.684 149.26C230.682 148.955 230.56 148.663 230.344 148.448C230.128 148.234 229.836 148.113 229.531 148.113H221.391C221.087 148.114 220.797 148.236 220.582 148.451C220.367 148.665 220.246 148.956 220.244 149.26C220.246 149.563 220.367 149.854 220.582 150.069C220.797 150.284 221.087 150.405 221.391 150.406Z" fill="#407BFF" class="primary-bg-700"/>
<path opacity="0.7" d="M41.7341 167.952C40.0586 166.93 37.3076 165.314 34.1942 163.656C32.4907 165.457 31.1261 167.55 30.1658 169.836C31.3976 170.12 32.5455 170.69 33.5168 171.499C37.4859 174.553 48.1273 171.85 41.7341 167.952Z" fill="#407BFF" class="primary-bg-700"/>
<path opacity="0.3" d="M145.427 144.156H228.42C232.663 144.157 236.834 143.062 240.529 140.977C240.529 140.977 227.101 128.773 200.061 123.515C188.95 121.352 178.415 120.514 175.177 120.722C167.453 124.774 155.623 133.354 145.427 144.156Z" fill="#407BFF" class="primary-bg-700"/>
<path d="M95.6603 195.194H36.6362C36.3184 195.196 36.0072 195.105 35.74 194.933C35.4728 194.761 35.2611 194.515 35.1304 194.225C34.9997 193.936 34.9557 193.615 35.0036 193.3C35.0515 192.986 35.1893 192.693 35.4003 192.455L36.9273 190.732C37.0828 190.558 37.2733 190.419 37.4863 190.324C37.6992 190.229 37.9299 190.18 38.1632 190.18H94.1214C94.3538 190.18 94.5836 190.229 94.7956 190.324C95.0076 190.419 95.197 190.559 95.3514 190.732L96.8784 192.455C97.0884 192.692 97.2259 192.984 97.2745 193.296C97.323 193.609 97.2805 193.928 97.152 194.217C97.0235 194.506 96.8145 194.752 96.5499 194.925C96.2854 195.099 95.9765 195.192 95.6603 195.194Z" fill="#407BFF" class="primary-bg-700"/>
<path d="M250.44 167.744L246.726 168.457V158.386L250.44 159.099C250.945 159.2 251.325 159.877 251.325 160.686V166.158C251.331 166.96 250.945 167.643 250.44 167.744Z" fill="#407BFF" class="primary-bg-700"/>
<path d="M187.809 217.731C184.838 217.731 183.228 216.994 183.228 215.663C183.228 214.528 184.493 213.691 187.102 213.108C190.604 212.454 194.164 212.163 197.725 212.241H245.389C248.289 212.241 250.463 211.397 252.05 209.656C256.346 204.956 255.383 194.368 254.682 186.644C254.444 184.018 254.218 181.535 254.218 179.604C254.26 177.03 254.498 174.464 254.931 171.927C255.377 168.926 255.728 166.579 254.771 165.445C254.141 164.714 252.828 164.363 250.749 164.363V162.48C253.446 162.48 255.175 163.032 256.191 164.215C257.718 165.997 257.308 168.73 256.785 172.2C256.363 174.646 256.128 177.121 256.084 179.604C256.084 181.451 256.304 183.887 256.542 186.472C257.314 194.998 258.277 205.61 253.428 210.928C251.491 213.043 248.782 214.118 245.377 214.118H197.725C190.031 214.118 186.609 215.022 185.474 215.586C186.236 215.786 187.022 215.876 187.809 215.853V217.731Z" fill="#407BFF" class="primary-bg-700"/>
<path d="M250.737 160.157V166.692C251.604 166.692 252.435 166.348 253.048 165.735C253.66 165.122 254.005 164.291 254.005 163.425C254.005 162.558 253.66 161.727 253.048 161.114C252.435 160.501 251.604 160.157 250.737 160.157Z" fill="#407BFF" class="primary-bg-700"/>
<path d="M222.692 65.8867H197.726V215.978H222.692V65.8867Z" fill="#263238"/>
<path d="M229.549 64.0388H199.865V65.8867H229.549V64.0388Z" fill="#263238"/>
<path opacity="0.4" d="M229.549 64.0388H222.698V65.8867H229.549V64.0388Z" fill="black"/>
<path d="M214.326 79.1841H210.126L213.798 73.3732H209.181L206.097 81.5904H209.93L207.595 89.0115L214.326 79.1841Z" fill="white"/>
<path opacity="0.5" d="M213.921 164.434C215.97 162.386 215.97 159.064 213.921 157.015C211.873 154.966 208.551 154.966 206.502 157.015C204.453 159.064 204.453 162.386 206.502 164.434C208.551 166.483 211.873 166.483 213.921 164.434Z" fill="#407BFF" class="primary-bg-700"/>
<path d="M187.809 217.731C187.56 217.731 187.321 217.632 187.145 217.456C186.969 217.28 186.87 217.041 186.87 216.792C186.87 216.543 186.969 216.304 187.145 216.128C187.321 215.952 187.56 215.853 187.809 215.853C190.833 215.853 192.919 215.105 194.19 213.566C197.114 210.031 195.658 202.425 194.119 194.368C193.097 189.021 192.039 183.489 192.039 178.326C192.039 166.36 198.492 159.764 210.209 159.764C210.339 159.754 210.47 159.771 210.593 159.813C210.716 159.856 210.829 159.924 210.925 160.012C211.021 160.101 211.097 160.208 211.149 160.327C211.202 160.447 211.229 160.576 211.229 160.706C211.229 160.837 211.202 160.966 211.149 161.085C211.097 161.204 211.021 161.312 210.925 161.4C210.829 161.489 210.716 161.556 210.593 161.599C210.47 161.642 210.339 161.658 210.209 161.648C202.776 161.648 193.917 164.542 193.917 178.326C193.917 183.287 194.957 188.73 195.961 193.994C197.589 202.497 199.122 210.524 195.64 214.736C193.988 216.757 191.427 217.731 187.809 217.731Z" fill="#407BFF" class="primary-bg-700"/>
<path opacity="0.5" d="M219.585 113.491H200.845V151.363H219.585V113.491Z" fill="#407BFF" class="primary-bg-700"/>
<path opacity="0.5" d="M200.839 113.491V151.363L207.553 118.761L200.839 113.491Z" fill="#407BFF" class="primary-bg-700"/>
<path d="M216.026 126.26L216.406 124.412H211.29L210.91 126.26H208.932L205.307 143.859H214.428L218.052 126.26H216.026Z" fill="#407BFF" class="primary-bg-700"/>
<path opacity="0.4" d="M215.55 132.498L213.685 141.565C213.622 141.876 213.453 142.155 213.207 142.356C212.961 142.556 212.653 142.665 212.336 142.664H207.785C207.661 142.665 207.539 142.639 207.427 142.586C207.315 142.533 207.216 142.456 207.138 142.361C207.06 142.265 207.005 142.153 206.976 142.032C206.947 141.912 206.945 141.787 206.971 141.666L208.836 132.599C208.9 132.288 209.068 132.009 209.314 131.809C209.56 131.608 209.868 131.499 210.185 131.5H214.736C214.86 131.499 214.982 131.526 215.094 131.579C215.206 131.631 215.305 131.708 215.383 131.804C215.461 131.9 215.516 132.012 215.546 132.132C215.575 132.252 215.576 132.377 215.55 132.498Z" fill="white"/>
<path opacity="0.4" d="M200.839 113.491L219.579 113.485V118.761H207.553L200.839 113.491Z" fill="#263238"/>
<path d="M222.692 215.978H231.676L231.676 65.8867H222.692L222.692 215.978Z" fill="#263238"/>
<path opacity="0.4" d="M222.692 215.978H231.676L231.676 65.8867H222.692L222.692 215.978Z" fill="black"/>
</svg>
