<svg width="25" height="24" viewBox="0 0 25 24" fill="none" xmlns="http://www.w3.org/2000/svg">
<path d="M12 9.9C11.3128 9.9 10.6538 10.1739 10.168 10.6615C9.68206 11.1491 9.40909 11.8104 9.40909 12.5C9.40909 13.1896 9.68206 13.8509 10.168 14.3385C10.6538 14.8261 11.3128 15.1 12 15.1C12.6872 15.1 13.3462 14.8261 13.8321 14.3385C14.3179 13.8509 14.5909 13.1896 14.5909 12.5C14.5909 11.8104 14.3179 11.1491 13.8321 10.6615C13.3462 10.1739 12.6872 9.9 12 9.9ZM12 16.8333C10.8547 16.8333 9.7564 16.3768 8.94658 15.5641C8.13677 14.7515 7.68182 13.6493 7.68182 12.5C7.68182 11.3507 8.13677 10.2485 8.94658 9.43587C9.7564 8.62321 10.8547 8.16667 12 8.16667C13.1453 8.16667 14.2436 8.62321 15.0534 9.43587C15.8632 10.2485 16.3182 11.3507 16.3182 12.5C16.3182 13.6493 15.8632 14.7515 15.0534 15.5641C14.2436 16.3768 13.1453 16.8333 12 16.8333ZM12 6C7.68182 6 3.99409 8.69533 2.5 12.5C3.99409 16.3047 7.68182 19 12 19C16.3182 19 20.0059 16.3047 21.5 12.5C20.0059 8.69533 16.3182 6 12 6Z" fill="#711F84"/>
</svg>
