<svg width="24" height="24" viewBox="0 0 24 24" fill="none" xmlns="http://www.w3.org/2000/svg">
<path fill-rule="evenodd" clip-rule="evenodd" d="M14.7713 8L12 5L9.22872 8L5 8C4.44772 8 4 8.44772 4 9C4 9.55228 4.44772 10 5 10L19 10C19.5523 10 20 9.55229 20 9C20 8.44772 19.5523 8 19 8L14.7713 8Z" fill="#616161"/>
<path fill-rule="evenodd" clip-rule="evenodd" d="M14.7713 16L12 19L9.22872 16L5 16C4.44772 16 4 15.5523 4 15C4 14.4477 4.44772 14 5 14L19 14C19.5523 14 20 14.4477 20 15C20 15.5523 19.5523 16 19 16L14.7713 16Z" fill="#616161"/>
</svg>
