<svg width="24" height="24" viewBox="0 0 24 24" fill="none" xmlns="http://www.w3.org/2000/svg">
<path d="M5.88889 15.0556C5.88889 14.8345 5.97669 14.6226 6.13297 14.4663C6.28925 14.31 6.50121 14.2222 6.72222 14.2222L10.6111 14.2222C10.8321 14.2222 11.0441 14.31 11.2004 14.4663C11.3566 14.6226 11.4444 14.8345 11.4444 15.0556C11.4444 15.2766 11.3566 15.4885 11.2004 15.6448C11.0441 15.8011 10.8321 15.8889 10.6111 15.8889L6.72222 15.8889C6.50121 15.8889 6.28925 15.8011 6.13297 15.6448C5.97669 15.4885 5.88889 15.2766 5.88889 15.0556ZM6.72222 8.11111C6.50121 8.11111 6.28925 8.19891 6.13297 8.35519C5.97669 8.51147 5.88889 8.72343 5.88889 8.94444C5.88889 9.16546 5.97669 9.37742 6.13297 9.5337C6.28925 9.68998 6.50121 9.77778 6.72222 9.77778L10.6111 9.77778C10.8321 9.77778 11.0441 9.68998 11.2004 9.5337C11.3566 9.37742 11.4444 9.16546 11.4444 8.94444C11.4444 8.72343 11.3566 8.51147 11.2004 8.35519C11.0441 8.19891 10.8321 8.11111 10.6111 8.11111L6.72222 8.11111ZM18.4222 7.24444C18.5783 7.40069 18.6659 7.6125 18.6659 7.83333C18.6659 8.05417 18.5783 8.26597 18.4222 8.42222L16.2 10.6444C16.0437 10.8005 15.8319 10.8882 15.6111 10.8882C15.3903 10.8882 15.1785 10.8005 15.0222 10.6444L13.9111 9.53333C13.7639 9.37536 13.6838 9.16642 13.6876 8.95053C13.6914 8.73464 13.7789 8.52866 13.9315 8.37598C14.0842 8.2233 14.2902 8.13584 14.5061 8.13203C14.722 8.12822 14.9309 8.20836 15.0889 8.35556L15.6111 8.87778L17.2444 7.24444C17.4007 7.08839 17.6125 7.00073 17.8333 7.00073C18.0542 7.00073 18.266 7.08839 18.4222 7.24444ZM18.4222 14.5333C18.5041 14.457 18.5698 14.365 18.6153 14.2628C18.6609 14.1606 18.6854 14.0503 18.6873 13.9384C18.6893 13.8265 18.6687 13.7153 18.6268 13.6116C18.5849 13.5078 18.5225 13.4135 18.4434 13.3344C18.3642 13.2553 18.27 13.1929 18.1662 13.151C18.0625 13.1091 17.9513 13.0885 17.8394 13.0905C17.7275 13.0924 17.6172 13.1169 17.515 13.1625C17.4127 13.208 17.3207 13.2737 17.2444 13.3556L15.6111 14.9889L15.0889 14.4667C15.0126 14.3848 14.9206 14.3191 14.8184 14.2736C14.7162 14.228 14.6058 14.2035 14.4939 14.2016C14.382 14.1996 14.2709 14.2202 14.1671 14.2621C14.0633 14.304 13.9691 14.3664 13.89 14.4455C13.8108 14.5246 13.7484 14.6189 13.7065 14.7227C13.6646 14.8264 13.644 14.9376 13.646 15.0495C13.648 15.1614 13.6725 15.2717 13.718 15.3739C13.7636 15.4762 13.8292 15.5682 13.9111 15.6444L15.0222 16.7556C15.1785 16.9116 15.3903 16.9993 15.6111 16.9993C15.8319 16.9993 16.0437 16.9116 16.2 16.7556L18.4222 14.5333ZM4.5 2C3.83696 2 3.20107 2.26339 2.73223 2.73223C2.26339 3.20107 2 3.83696 2 4.5L2 19.5C2 20.163 2.26339 20.7989 2.73223 21.2678C3.20107 21.7366 3.83696 22 4.5 22L19.5 22C20.163 22 20.7989 21.7366 21.2678 21.2678C21.7366 20.7989 22 20.163 22 19.5L22 4.5C22 3.83696 21.7366 3.20107 21.2678 2.73223C20.7989 2.26339 20.163 2 19.5 2L4.5 2ZM3.66667 4.5C3.66667 4.27899 3.75446 4.06702 3.91074 3.91074C4.06702 3.75446 4.27899 3.66667 4.5 3.66667L19.5 3.66667C19.721 3.66667 19.933 3.75446 20.0893 3.91074C20.2455 4.06702 20.3333 4.27899 20.3333 4.5L20.3333 19.5C20.3333 19.721 20.2455 19.933 20.0893 20.0893C19.933 20.2455 19.721 20.3333 19.5 20.3333L4.5 20.3333C4.27899 20.3333 4.06702 20.2455 3.91074 20.0893C3.75446 19.933 3.66667 19.721 3.66667 19.5L3.66667 4.5Z" fill="white"/>
</svg>
