<svg width="19" height="19" viewBox="0 0 19 19" fill="none" xmlns="http://www.w3.org/2000/svg">
<path d="M9.5 0C4.2465 0 0 4.275 0 9.5C0 12.0196 1.00089 14.4359 2.78249 16.2175C3.66464 17.0997 4.71191 17.7994 5.86451 18.2769C7.0171 18.7543 8.25244 19 9.5 19C12.0196 19 14.4359 17.9991 16.2175 16.2175C17.9991 14.4359 19 12.0196 19 9.5C19 8.25244 18.7543 7.0171 18.2769 5.86451C17.7994 4.71191 17.0997 3.66464 16.2175 2.78249C15.3354 1.90033 14.2881 1.20056 13.1355 0.723144C11.9829 0.245725 10.7476 0 9.5 0ZM12.92 6.023C13.9365 6.023 14.7535 6.84 14.7535 7.8565C14.7535 8.873 13.9365 9.69 12.92 9.69C12.4337 9.69 11.9674 9.49683 11.6235 9.15298C11.2797 8.80913 11.0865 8.34277 11.0865 7.8565C11.077 6.84 11.9035 6.023 12.92 6.023ZM7.22 4.522C8.455 4.522 9.462 5.529 9.462 6.764C9.462 7.999 8.455 9.025 7.22 9.025C5.985 9.025 4.978 7.999 4.978 6.764C4.978 5.5195 5.9755 4.522 7.22 4.522ZM7.22 13.1955V16.758C4.94 16.0455 3.135 14.288 2.337 12.046C3.325 10.982 5.8235 10.45 7.22 10.45C7.7235 10.45 8.36 10.5165 9.025 10.6495C7.467 11.476 7.22 12.5685 7.22 13.1955ZM9.5 17.1C9.234 17.1 8.987 17.1 8.74 17.062V13.1955C8.74 11.8465 11.533 11.172 12.92 11.172C13.9365 11.172 15.675 11.5425 16.568 12.2645C15.4565 15.086 12.711 17.1 9.5 17.1Z" fill="#424242" class="population-color"/>
</svg>
