<svg width="24" height="24" viewBox="0 0 24 24" fill="none" xmlns="http://www.w3.org/2000/svg">
<path d="M17.1667 15.4898C16.4938 15.4898 15.8728 15.7194 15.3864 16.1028L10.4942 12.6612C10.5761 12.224 10.5761 11.776 10.4942 11.3388L15.3864 7.89719C15.8728 8.28061 16.4938 8.5102 17.1667 8.5102C18.7297 8.5102 20 7.275 20 5.7551C20 4.2352 18.7297 3 17.1667 3C15.6036 3 14.3333 4.2352 14.3333 5.7551C14.3333 6.02143 14.3711 6.27628 14.4443 6.51964L9.79764 9.79133C9.10819 8.90281 8.01264 8.32653 6.77778 8.32653C4.69056 8.32653 3 9.97041 3 12C3 14.0296 4.69056 15.6735 6.77778 15.6735C8.01264 15.6735 9.10819 15.0972 9.79764 14.2087L14.4443 17.4804C14.3711 17.7237 14.3333 17.9809 14.3333 18.2449C14.3333 19.7648 15.6036 21 17.1667 21C18.7297 21 20 19.7648 20 18.2449C20 16.725 18.7297 15.4898 17.1667 15.4898ZM17.1667 4.56122C17.8443 4.56122 18.3944 5.09617 18.3944 5.7551C18.3944 6.41403 17.8443 6.94898 17.1667 6.94898C16.489 6.94898 15.9389 6.41403 15.9389 5.7551C15.9389 5.09617 16.489 4.56122 17.1667 4.56122ZM6.77778 14.0204C5.63264 14.0204 4.7 13.1135 4.7 12C4.7 10.8865 5.63264 9.97959 6.77778 9.97959C7.92292 9.97959 8.85556 10.8865 8.85556 12C8.85556 13.1135 7.92292 14.0204 6.77778 14.0204ZM17.1667 19.4388C16.489 19.4388 15.9389 18.9038 15.9389 18.2449C15.9389 17.586 16.489 17.051 17.1667 17.051C17.8443 17.051 18.3944 17.586 18.3944 18.2449C18.3944 18.9038 17.8443 19.4388 17.1667 19.4388Z" fill="#13224A"/>
</svg>
