<svg width="24" height="24" viewBox="0 0 24 24" fill="none" xmlns="http://www.w3.org/2000/svg">
<path d="M10.4393 12.3535L11.1464 13.0607C12.3179 14.2322 14.2174 14.2322 15.389 13.0607L17.5103 10.9393L19.6316 8.81802C20.8032 7.64644 20.8032 5.74695 19.6316 4.57538L18.9245 3.86827C17.753 2.6967 15.8535 2.6967 14.6819 3.86827L11.1464 7.4038" stroke="#13224A" stroke-linecap="round"/>
<path d="M12.5607 11.6465L11.8536 10.9393C10.6821 9.76777 8.78256 9.76777 7.61099 10.9393L5.48967 13.0607L3.36835 15.182C2.19678 16.3536 2.19678 18.2531 3.36835 19.4246L4.07546 20.1317C5.24703 21.3033 7.14652 21.3033 8.3181 20.1317L11.8536 16.5962" stroke="#13224A" stroke-linecap="round"/>
</svg>
