<?xml version="1.0"?>
<svg xmlns="http://www.w3.org/2000/svg" viewBox="0 0 16 16">
    <path style="line-height:normal;text-indent:0;text-align:start;text-decoration-line:none;text-decoration-style:solid;text-decoration-color:#000;text-transform:none;block-progression:tb;isolation:auto;mix-blend-mode:normal" d="M 4 2 L 4 2.5 L 4 5 L 2.5 5 C 1.6774686 5 1 5.6774686 1 6.5 L 1 10.5 C 1 11.322531 1.6774686 12 2.5 12 L 4 12 L 4 14 L 12 14 L 12 12 L 13.5 12 C 14.322531 12 15 11.322531 15 10.5 L 15 6.5 C 15 5.6774686 14.322531 5 13.5 5 L 12 5 L 12 2 L 4 2 z M 5 3 L 11 3 L 11 5 L 5 5 L 5 3 z M 2.5 6 L 13.5 6 C 13.781469 6 14 6.2185314 14 6.5 L 14 10.5 C 14 10.781469 13.781469 11 13.5 11 L 12 11 L 12 9 L 4 9 L 4 9.5 L 4 11 L 2.5 11 C 2.2185314 11 2 10.781469 2 10.5 L 2 6.5 C 2 6.2185314 2.2185314 6 2.5 6 z M 3.5 7 A 0.5 0.5 0 0 0 3 7.5 A 0.5 0.5 0 0 0 3.5 8 A 0.5 0.5 0 0 0 4 7.5 A 0.5 0.5 0 0 0 3.5 7 z M 5 10 L 11 10 L 11 13 L 5 13 L 5 10 z" font-weight="400" font-family="sans-serif" white-space="normal" overflow="visible"/>
</svg>
