<svg width="24" height="24" viewBox="0 0 24 24" fill="none" xmlns="http://www.w3.org/2000/svg">
<path fill-rule="evenodd" clip-rule="evenodd" d="M3.48604 4.01998C3.04114 4.15276 2.79068 4.44809 2.48814 5.19643C2.06166 6.2515 1.91827 6.89933 2.04373 7.2041C2.12113 7.39213 2.17969 7.4247 2.44004 7.4247C2.61515 7.4247 2.6406 7.43862 2.65213 7.54067L2.66526 7.65664L3.94772 7.67025L5.23019 7.68385L5.22961 11.639L5.22908 15.5941L4.67559 16.1489C4.15743 16.6683 4.12214 16.715 4.12214 16.8814C4.12214 17.0432 4.13589 17.0637 4.27604 17.1105C4.73949 17.2654 4.73276 17.2675 5.18578 16.8293L5.59954 16.4291V11.7284C5.59954 6.82346 5.60011 6.80625 5.77654 6.56137L5.86009 6.4454H4.49863C3.74984 6.4454 3.13885 6.42798 3.1409 6.40674C3.14291 6.38551 3.26771 6.10136 3.41824 5.77535L3.69193 5.18262L4.28662 5.19798C6.98189 5.26761 18.7103 5.62779 18.721 5.64129C18.7285 5.65078 18.64 5.9492 18.5243 6.30454L18.3138 6.95056L17.9141 6.92289L17.5143 6.89521L17.4245 7.05375C17.3751 7.14091 17.3043 7.36646 17.2673 7.55495C17.2099 7.84704 17.2071 7.95589 17.2487 8.29112C17.2754 8.50744 17.3109 8.70155 17.3275 8.72238C17.3441 8.7432 17.8285 8.79026 18.4039 8.82695L19.4501 8.89365L19.4607 12.231L19.4713 15.5684L18.3629 15.5684H17.2546V15.9541V16.3398L18.3524 16.3535L19.4501 16.3673L19.4623 16.5742C19.4732 16.7612 19.4385 16.8469 19.1032 17.4607C18.756 18.0962 18.732 18.1571 18.732 18.4005V18.6609L19.1116 18.6592L19.4912 18.6575L20.0452 17.6964C20.9769 16.0802 20.9121 16.2239 20.8984 15.8032L20.8865 15.4395L20.5479 15.4246L20.2094 15.4096L20.2094 12.184V8.95844L20.9788 9.00333C22.1218 9.07008 22.346 9.05735 22.5786 8.91246C22.7129 8.82881 22.796 8.73402 22.8436 8.61017C22.9456 8.34431 23 7.56531 23 6.36845C23 5.05371 22.9569 4.87692 22.5774 4.63364C22.4285 4.53819 22.0307 4.52247 13.6925 4.28223C8.89151 4.14389 4.65872 4.01998 4.28629 4.00694C3.91387 3.9939 3.55375 3.99978 3.48604 4.01998ZM6.35272 6.09404C6.20264 6.3852 6.13173 6.59126 6.04017 7.00247C5.95407 7.38914 5.95132 7.50407 5.92809 11.6512L5.90433 15.9034L5.79776 16.3346C5.69348 16.7565 5.68207 16.7773 5.26782 17.2993C5.03497 17.5927 4.85275 17.8419 4.86293 17.8531C4.87307 17.8642 7.4391 18.1202 10.5652 18.4217C13.6914 18.7233 16.3094 18.9803 16.3832 18.9928C16.5134 19.0148 16.5208 19.0057 16.64 18.6755C16.7075 18.4885 16.8039 18.1826 16.8542 17.9957L16.9457 17.6558L16.969 12.4758C16.9903 7.72029 16.9982 7.27049 17.065 6.98659C17.1466 6.63951 17.2251 6.45942 17.349 6.33525C17.4282 6.25583 17.3985 6.24902 16.8411 6.21949C16.5155 6.20228 14.3562 6.14197 12.0426 6.08558C9.72907 6.02915 7.52221 5.96951 7.13849 5.95302L6.44083 5.92312L6.35272 6.09404Z" fill="white"/>
</svg>
