<svg width="24" height="24" viewBox="0 0 24 24" fill="none" xmlns="http://www.w3.org/2000/svg">
<path fill-rule="evenodd" clip-rule="evenodd" d="M12 21.9998C11.792 21.9998 11.5892 21.9349 11.42 21.814C11.116 21.599 3.971 16.44 4 9.995C4 5.589 7.589 2 12 2C16.411 2 20 5.589 20 10C20.029 16.44 12.884 21.599 12.58 21.814C12.4107 21.9349 12.208 21.9998 12 21.9998ZM18 10.005C18 6.691 15.309 4 12 4C8.691 4 6 6.691 6 10C5.979 14.441 10.389 18.427 12 19.735C13.612 18.428 18.021 14.443 18 10.005ZM16 10C16 12.206 14.206 14 12 14C9.794 14 8 12.206 8 10C8 7.794 9.794 6 12 6C14.206 6 16 7.794 16 10ZM14 10C14 8.897 13.103 8 12 8C10.897 8 10 8.897 10 10C10 11.103 10.897 12 12 12C13.103 12 14 11.103 14 10Z" fill="#616161"/>
</svg>
