<svg width="24" height="24" viewBox="0 0 24 24" fill="none" xmlns="http://www.w3.org/2000/svg">
<path d="M20.125 10.8398C19.65 10.8398 19.225 11.0281 18.9 11.3232L14.4438 8.71773C14.475 8.57333 14.5 8.42893 14.5 8.27825C14.5 8.12757 14.475 7.98317 14.4438 7.83877L18.85 5.25841C19.1875 5.57233 19.6313 5.76695 20.125 5.76695C21.1625 5.76695 22 4.92567 22 3.88348C22 2.84129 21.1625 2 20.125 2C19.0875 2 18.25 2.84129 18.25 3.88348C18.25 4.03415 18.275 4.17855 18.3062 4.32295L13.9 6.90332C13.5625 6.5894 13.1187 6.39478 12.625 6.39478C11.5875 6.39478 10.75 7.23606 10.75 8.27825C10.75 9.32044 11.5875 10.1617 12.625 10.1617C13.1187 10.1617 13.5625 9.9671 13.9 9.65319L18.35 12.2587C18.3188 12.3905 18.3 12.5286 18.3 12.673C18.3 13.6838 19.1187 14.5 20.125 14.5C21.1313 14.5 21.95 13.6838 21.95 12.673C21.95 11.6622 21.1313 10.8398 20.125 10.8398ZM20.125 3.25565C20.4688 3.25565 20.75 3.53817 20.75 3.88348C20.75 4.22878 20.4688 4.5113 20.125 4.5113C19.7812 4.5113 19.5 4.22878 19.5 3.88348C19.5 3.53817 19.7812 3.25565 20.125 3.25565ZM12.625 8.90608C12.2812 8.90608 12 8.62356 12 8.27825C12 7.93295 12.2812 7.65043 12.625 7.65043C12.9688 7.65043 13.25 7.93295 13.25 8.27825C13.25 8.62356 12.9688 8.90608 12.625 8.90608ZM20.125 13.3009C19.7812 13.3009 19.5 13.0183 19.5 12.673C19.5 12.3277 19.7812 12.0452 20.125 12.0452C20.4688 12.0452 20.75 12.3277 20.75 12.673C20.75 13.0183 20.4688 13.3009 20.125 13.3009Z" fill="#757575"/>
<path d="M5.34852 12C4.67009 12 4.04345 12.334 3.66614 12.8905L2.25391 14.969C2.08771 15.2141 1.99933 15.5023 2.00001 15.797V19.1095C1.99907 19.3315 2.07354 19.5473 2.21156 19.7228C2.34958 19.8983 2.54324 20.0233 2.76173 20.078L4.07899 20.4065C4.17373 20.8559 4.42255 21.2595 4.78371 21.5496C5.14487 21.8398 5.59639 21.9988 6.06251 22C7.00297 22 7.78805 21.3595 8.01454 20.5H12.7433C12.9698 21.3595 13.7548 22 14.6953 22C15.6358 22 16.4209 21.3595 16.6473 20.5H17.2344C17.7899 20.5 18.25 20.047 18.25 19.5V17.672C18.2495 17.2263 18.0978 16.7936 17.8189 16.4426C17.54 16.0915 17.15 15.8423 16.7108 15.7345L13.9651 15.047L11.9816 12.719C11.7918 12.4942 11.5542 12.3132 11.2854 12.189C11.0167 12.0647 10.7235 12.0002 10.4266 12H5.34852ZM5.34852 13H7.58594V15H3.45997L4.50759 13.453V13.4375C4.59959 13.3014 4.72465 13.1902 4.87142 13.1138C5.01819 13.0373 5.18252 12.9982 5.34852 13ZM8.60157 13H10.4266C10.7278 13 11.0116 13.131 11.2041 13.3595L12.6006 15H8.60157V13ZM3.01563 16H13.6162L16.4727 16.703C16.6918 16.7566 16.8863 16.8813 17.0245 17.0572C17.1627 17.233 17.2367 17.4496 17.2344 17.672V19.5H16.6473C16.4209 18.6405 15.6358 18 14.6953 18C13.7548 18 12.9698 18.6405 12.7433 19.5H8.01454C7.78805 18.6405 7.00297 18 6.06251 18C5.16216 18 4.40602 18.586 4.14247 19.3905L3.01563 19.11V16ZM6.06251 19C6.62973 19 7.07813 19.4415 7.07813 20C7.07813 20.5585 6.62973 21 6.06251 21C5.49528 21 5.04688 20.5585 5.04688 20C5.04688 19.4415 5.49528 19 6.06251 19ZM14.6953 19C15.2625 19 15.7109 19.4415 15.7109 20C15.7109 20.5585 15.2625 21 14.6953 21C14.1281 21 13.6797 20.5585 13.6797 20C13.6797 19.4415 14.1281 19 14.6953 19Z" fill="#757575"/>
</svg>
