<svg width="24" height="24" viewBox="0 0 24 24" fill="none" xmlns="http://www.w3.org/2000/svg">
<path fill-rule="evenodd" clip-rule="evenodd" d="M5.25 3H3.75V10.5H5.25V3ZM14.4 10.5H9.6L9 9.675V8.175L9.6 7.5H14.4L15 8.25V9.75L14.4 10.5ZM6.9 15H2.1L1.5 14.25V12.75L2.1 12H6.9L7.5 12.75V14.25L6.9 15ZM12.75 3H11.25V6H12.75V3ZM11.25 12H12.75V21H11.25V12ZM5.25 16.5H3.75V21H5.25V16.5ZM17.1 16.5H21.885L22.485 15.75V14.325L21.885 13.575H17.1L16.5 14.325V15.75L17.1 16.5ZM20.25 3H18.75V12H20.25V3ZM18.75 18H20.25V21H18.75V18Z" fill="#616161"/>
</svg>
