<svg width="24" height="24" viewBox="0 0 24 24" fill="none" xmlns="http://www.w3.org/2000/svg">
<path d="M7 22.86L1.33333 19.5933V13.0533L7 9.78667L12.6667 13.0533V19.5933L7 22.86ZM2.66666 18.82L7 21.3333L11.3333 18.82V13.8267L7 11.3333L2.66666 13.8267V18.82Z" fill="#616161"/>
<path d="M17 22.86L11.3333 19.5933V13.0533L17 9.78667L22.6667 13.0533V19.5933L17 22.86ZM12.6667 18.82L17 21.3333L21.3333 18.82V13.8267L17 11.3333L12.6667 13.8267V18.82Z" fill="#616161"/>
<path d="M12 14.2133L6.33334 10.9467V4.40667L12 1.14L17.6667 4.40667V10.9467L12 14.2133ZM7.66668 10.1733L12 12.6667L16.3333 10.1667V5.18L12 2.66667L7.66668 5.18V10.1733Z" fill="#616161"/>
</svg>
