<svg width="24" height="24" viewBox="0 0 24 24" fill="none" xmlns="http://www.w3.org/2000/svg">
<path d="M11.998 0L7.303 2.717V4.762L2.428 7.555V12.565L0.337997 13.774V19.209L5.035 21.928L6.697 20.965L12 24L17.3 20.965L18.965 21.928L23.662 19.209V13.773L21.572 12.566V7.555L16.695 4.762V2.717L11.998 0ZM11.998 1.195L15.125 3.008L12 4.803L8.875 3.006L11.998 1.196V1.195ZM8.34 3.895L11.482 5.7V9.376L8.34 7.555V3.895ZM15.658 3.895V7.555L12.52 9.373V5.699L15.658 3.895ZM16.695 5.957L20.537 8.154V11.967L18.965 11.057L14.268 13.773V19.209L16.266 20.365L12 22.805L7.736 20.365L9.732 19.209V13.773L5.035 11.057L3.465 11.965V8.155L7.303 5.959V8.154H7.305L12 10.871L16.695 8.154V5.957ZM5.035 12.254L8.16 14.062L5.035 15.859L1.91 14.063L2.428 13.762L5.035 12.254ZM18.965 12.254L21.572 13.764L22.088 14.063L18.965 15.859L15.84 14.063L18.965 12.253V12.254ZM1.377 14.949L4.519 16.758V20.434L1.377 18.61V14.95V14.949ZM8.695 14.949V18.611L5.658 20.37L5.557 20.43V16.757L8.695 14.95V14.949ZM15.305 14.949L18.449 16.758V20.434L18.342 20.369L15.305 18.611V14.95V14.949ZM22.623 14.949V18.611L19.484 20.43V16.758L22.623 14.949Z" fill="#616161"/>
</svg>
