<svg width="17" height="20" viewBox="0 0 17 20" fill="none" xmlns="http://www.w3.org/2000/svg">
<path d="M14.1667 15.7143V18.5714H2.83333V15.7143H1.41667V18.5714C1.41667 18.9503 1.56592 19.3137 1.8316 19.5816C2.09728 19.8495 2.45761 20 2.83333 20H14.1667C14.5424 20 14.9027 19.8495 15.1684 19.5816C15.4341 19.3137 15.5833 18.9503 15.5833 18.5714V15.7143H14.1667Z" fill="#711F84"/>
<path d="M12.0417 13.5714L11.0401 12.5614L9.20833 14.4086V8.57143H7.79167V14.4086L5.95992 12.5614L4.95833 13.5714L8.5 17.1429L12.0417 13.5714Z" fill="#711F84"/>
<path d="M17 1.42857V0H12.75V7.14286H14.1667V4.28571H16.2917V2.85714H14.1667V1.42857H17Z" fill="#711F84"/>
<path d="M9.20833 7.14286H6.375V0H9.20833C9.77175 0.000567296 10.3119 0.226514 10.7103 0.628255C11.1087 1.03 11.3328 1.57471 11.3333 2.14286V5C11.3328 5.56815 11.1087 6.11286 10.7103 6.5146C10.3119 6.91634 9.77175 7.14229 9.20833 7.14286ZM7.79167 5.71429H9.20833C9.39614 5.7141 9.5762 5.63878 9.70899 5.50487C9.84179 5.37095 9.91648 5.18938 9.91667 5V2.14286C9.91648 1.95347 9.84179 1.7719 9.70899 1.63799C9.5762 1.50408 9.39614 1.42876 9.20833 1.42857H7.79167V5.71429Z" fill="#711F84"/>
<path d="M3.54167 0H0V7.14286H1.41667V5H3.54167C3.91722 4.99943 4.27723 4.84874 4.54278 4.58095C4.80834 4.31317 4.95777 3.95014 4.95833 3.57143V1.42857C4.95796 1.04981 4.80858 0.686664 4.54299 0.418837C4.27739 0.151009 3.91728 0.000378198 3.54167 0ZM1.41667 3.57143V1.42857H3.54167L3.54238 3.57143H1.41667Z" fill="#711F84"/>
</svg>
