<svg width="24" height="24" viewBox="0 0 24 24" fill="none" xmlns="http://www.w3.org/2000/svg">
<path fill-rule="evenodd" clip-rule="evenodd" d="M3.25 7V19.5C3.25 19.8315 3.3817 20.1495 3.61612 20.3839C3.85054 20.6183 4.16848 20.75 4.5 20.75H19.5C19.8315 20.75 20.1495 20.6183 20.3839 20.3839C20.6183 20.1495 20.75 19.8315 20.75 19.5V7H3.25ZM4.5 3.25C3.83696 3.25 3.20107 3.51339 2.73223 3.98223C2.26339 4.45107 2 5.08696 2 5.75V19.5C2 20.163 2.26339 20.7989 2.73223 21.2678C3.20107 21.7366 3.83696 22 4.5 22H19.5C20.163 22 20.7989 21.7366 21.2678 21.2678C21.7366 20.7989 22 20.163 22 19.5V5.75C22 5.08696 21.7366 4.45107 21.2678 3.98223C20.7989 3.51339 20.163 3.25 19.5 3.25H4.5Z" fill="#616161"/>
<path fill-rule="evenodd" clip-rule="evenodd" d="M6.375 2C6.54076 2 6.69973 2.06585 6.81694 2.18306C6.93415 2.30027 7 2.45924 7 2.625V3.25C7 3.41576 6.93415 3.57473 6.81694 3.69194C6.69973 3.80915 6.54076 3.875 6.375 3.875C6.20924 3.875 6.05027 3.80915 5.93306 3.69194C5.81585 3.57473 5.75 3.41576 5.75 3.25V2.625C5.75 2.45924 5.81585 2.30027 5.93306 2.18306C6.05027 2.06585 6.20924 2 6.375 2ZM17.625 2C17.7908 2 17.9497 2.06585 18.0669 2.18306C18.1842 2.30027 18.25 2.45924 18.25 2.625V3.25C18.25 3.41576 18.1842 3.57473 18.0669 3.69194C17.9497 3.80915 17.7908 3.875 17.625 3.875C17.4592 3.875 17.3003 3.80915 17.1831 3.69194C17.0658 3.57473 17 3.41576 17 3.25V2.625C17 2.45924 17.0658 2.30027 17.1831 2.18306C17.3003 2.06585 17.4592 2 17.625 2Z" fill="#616161"/>
<path d="M13.25 10.75C13.25 10.4185 13.3817 10.1005 13.6161 9.86612C13.8505 9.6317 14.1685 9.5 14.5 9.5H20.75V12H14.5C14.1685 12 13.8505 11.8683 13.6161 11.6339C13.3817 11.3995 13.25 11.0815 13.25 10.75ZM3.25 13.25H8.25C8.58152 13.25 8.89946 13.3817 9.13388 13.6161C9.3683 13.8505 9.5 14.1685 9.5 14.5C9.5 14.8315 9.3683 15.1495 9.13388 15.3839C8.89946 15.6183 8.58152 15.75 8.25 15.75H3.25V13.25Z" fill="#616161"/>
</svg>
