<svg width="24" height="24" viewBox="0 0 24 24" fill="none" xmlns="http://www.w3.org/2000/svg">
<path d="M10.5736 0.58841L6.29421 4.86776L9.86033 8.43388L12 4.86776L14.1397 8.43388L17.7058 4.86776L13.4264 0.58841C12.6419 -0.196137 11.3581 -0.196137 10.5736 0.58841ZM8.43388 9.86033L4.86776 6.29421L0.58841 10.5736C-0.196137 11.3581 -0.196137 12.6419 0.58841 13.4264L4.86776 17.7058L8.43388 14.1397L4.86776 12L8.43388 9.86033ZM12 19.1322L9.86033 15.5661L6.29421 19.1322L10.5736 23.4116C11.3581 24.1961 12.6419 24.1961 13.4264 23.4116L17.7058 19.1322L14.1397 15.5661L12 19.1322ZM23.4116 10.5736L19.1322 6.29421L15.5661 9.86033L19.1322 12L15.5661 14.1397L19.1322 17.7058L23.4116 13.4264C24.1961 12.6419 24.1961 11.3581 23.4116 10.5736Z" fill="#757575"/>
<circle cx="12" cy="12" r="2" fill="#757575"/>
</svg>
