<svg width="14" height="12" viewBox="0 0 14 12" fill="none" xmlns="http://www.w3.org/2000/svg">
<path fill-rule="evenodd" clip-rule="evenodd" d="M2.97937 8.05257C4.23437 10.2263 6.63489 10.8151 8.54766 10.1192C8.5997 10.1003 8.65509 10.092 8.71068 10.0947C8.76626 10.0975 8.82095 10.1113 8.87162 10.1353C8.92229 10.1593 8.96795 10.1931 9.00599 10.2347C9.04402 10.2763 9.0737 10.325 9.09332 10.3778C9.11294 10.4307 9.12211 10.4868 9.12032 10.5429C9.11853 10.599 9.10581 10.654 9.08289 10.7048C9.05996 10.7555 9.02728 10.8011 8.98671 10.8388C8.94614 10.8765 8.89848 10.9056 8.84644 10.9246C6.60024 11.7415 3.74055 11.056 2.24972 8.47384C1.61604 7.37627 1.60746 6.23104 1.80038 5.2456C1.93874 4.53921 2.18663 3.8867 2.39474 3.37713L1.24914 4.03854C1.15628 4.09215 1.04551 4.10595 0.941189 4.0769C0.836869 4.04785 0.747548 3.97833 0.692875 3.88363C0.638203 3.78894 0.622657 3.67682 0.649658 3.57195C0.67666 3.46708 0.743996 3.37805 0.836854 3.32444L2.93758 2.11158C3.03044 2.05797 3.14121 2.04417 3.24553 2.07322C3.34985 2.10227 3.43917 2.17179 3.49385 2.26649L4.7307 4.40879C4.78538 4.50349 4.80092 4.6156 4.77392 4.72047C4.74692 4.82534 4.67958 4.91437 4.58673 4.96798C4.49387 5.0216 4.3831 5.03539 4.27878 5.00634C4.17446 4.97729 4.08513 4.90777 4.03046 4.81308L3.26938 3.49485L3.26951 3.49668C3.04625 4.03499 2.77476 4.69352 2.63188 5.42441C2.46268 6.28761 2.48669 7.19922 2.97896 8.05186L2.97937 8.05257ZM10.9251 3.8517C9.68325 1.70083 7.32101 1.10232 5.41786 1.76312C5.36533 1.78243 5.30934 1.79092 5.25316 1.78808C5.19698 1.78525 5.14173 1.77115 5.09063 1.74662C5.03954 1.72208 4.99362 1.6876 4.95556 1.64518C4.9175 1.60276 4.88806 1.55325 4.86895 1.49954C4.84985 1.44584 4.84146 1.38901 4.84429 1.33237C4.84711 1.27573 4.86108 1.22042 4.88539 1.16966C4.90971 1.1189 4.94387 1.07371 4.98589 1.03673C5.02791 0.99975 5.07694 0.971714 5.13013 0.95426C7.36526 0.177958 10.18 0.876094 11.6547 3.43043C12.2884 4.528 12.2966 5.67252 12.104 6.65867C11.9657 7.36506 11.7178 8.01757 11.5097 8.52714L12.6553 7.86573C12.7482 7.81212 12.8589 7.79832 12.9632 7.82737C13.0676 7.85642 13.1569 7.92594 13.2116 8.02064C13.2662 8.11533 13.2818 8.22745 13.2548 8.33232C13.2278 8.43719 13.1604 8.52622 13.0676 8.57983L10.9669 9.79269C10.874 9.8463 10.7632 9.8601 10.6589 9.83105C10.5546 9.802 10.4653 9.73248 10.4106 9.63778L9.17373 7.49548C9.11905 7.40078 9.10351 7.28867 9.13051 7.1838C9.15751 7.07893 9.22485 6.9899 9.31771 6.93629C9.41056 6.88267 9.52134 6.86888 9.62566 6.89793C9.72998 6.92698 9.8193 6.9965 9.87397 7.09119L10.6346 8.40871L10.636 8.4079C10.8578 7.86856 11.1304 7.21035 11.2721 6.47914C11.4418 5.61666 11.4177 4.70505 10.9251 3.8517Z" fill="#711F84"/>
</svg>
