<svg width="44" height="32" viewBox="0 0 44 32" fill="none" xmlns="http://www.w3.org/2000/svg">
<path fill-rule="evenodd" clip-rule="evenodd" d="M21.4823 0.155313C21.3414 0.244574 19.1316 2.42006 16.5718 4.98974L11.9175 9.6619L12.7691 10.5183C13.2375 10.9894 13.6593 11.3748 13.7066 11.3748C13.7537 11.3748 15.5428 9.62253 17.6822 7.48085C21.3075 3.85167 21.5921 3.58688 21.8667 3.58688C22.1414 3.58688 22.4282 3.85407 26.0951 7.52492L30.0289 11.463L30.895 10.5344L31.761 9.60575L27.0487 4.89363C24.457 2.30196 22.2525 0.138881 22.1499 0.0869325C21.892 -0.0436652 21.7783 -0.0320258 21.4823 0.155313ZM18.0228 8.5935L14.4787 12.1452L16.7633 14.4343L19.0479 16.7232V16.0269C19.0479 15.4688 19.0803 15.2904 19.2112 15.1285L19.3745 14.9265H21.8667H24.3589L24.5221 15.1285C24.653 15.2904 24.6854 15.4688 24.6854 16.0269V16.7232L26.9703 14.4336L29.2552 12.144L25.7083 8.5929C22.3957 5.27635 22.1417 5.04177 21.8642 5.04177C21.5865 5.04177 21.3335 5.27575 18.0228 8.5935ZM5.18812 15.5485C0.706737 20.0408 0 20.7832 0 20.9982C0 21.1933 0.135215 21.3826 0.625506 21.8737C1.62599 22.8761 1.09948 23.2287 6.16016 18.1676C10.2582 14.0691 10.5057 13.8379 10.7343 13.8935C10.9008 13.9339 12.3069 15.2835 15.2488 18.2263C19.1555 22.1341 19.5457 22.5004 19.8026 22.5004C20.0345 22.5004 20.1871 22.3989 20.6761 21.9195C21.2116 21.3946 21.2687 21.306 21.2687 21.0003C21.2687 20.6671 21.1913 20.5843 16.1216 15.5049C11.2754 10.6494 10.957 10.3478 10.6754 10.3478C10.3937 10.3478 10.0738 10.651 5.18812 15.5485ZM27.6117 15.5049C22.5421 20.5843 22.4646 20.6671 22.4646 21.0003C22.4646 21.306 22.5217 21.3946 23.0572 21.9195C23.5462 22.3989 23.6989 22.5004 23.9308 22.5004C24.1876 22.5004 24.5779 22.1341 28.4845 18.2263C31.4264 15.2835 32.8325 13.9339 32.999 13.8935C33.2276 13.8379 33.4751 14.0691 37.5732 18.1676C42.6339 23.2287 42.1073 22.8761 43.1078 21.8737C43.5981 21.3826 43.7333 21.1933 43.7333 20.9982C43.7333 20.7832 43.0266 20.0408 38.5452 15.5485C33.6595 10.651 33.3397 10.3478 33.058 10.3478C32.7763 10.3478 32.4579 10.6494 27.6117 15.5049ZM10.2927 15.4744C10.1518 15.5637 8.25757 17.423 6.08346 19.6063L2.13046 23.5759L2.15429 27.5814L2.17812 31.587L2.4178 31.7935L2.65748 32H4.99687H7.33627L7.57595 31.7936L7.81563 31.5871L7.84023 28.6076C7.86423 25.6998 7.86927 25.6236 8.04727 25.4337C8.22879 25.2401 8.24296 25.239 10.6532 25.239H13.0765L13.2861 25.4491L13.4958 25.6592V28.6062C13.4958 31.3802 13.5054 31.565 13.6592 31.7551L13.8224 31.9572H16.3146H18.8068L18.97 31.7551C19.1256 31.5627 19.1333 31.3641 19.1333 27.5604V23.5678L15.0099 19.4397C12.3471 16.7738 10.8267 15.3117 10.7177 15.3119C10.6249 15.3121 10.4336 15.3853 10.2927 15.4744ZM28.7234 19.4397L24.6 23.5678V27.5604C24.6 31.3641 24.6078 31.5627 24.7633 31.7551L24.9265 31.9572H27.4188H29.911L30.0742 31.7551C30.2279 31.565 30.2375 31.3802 30.2375 28.6062V25.6592L30.4472 25.4491L30.6568 25.239H33.0802C35.4864 25.239 35.5048 25.2404 35.685 25.4325C35.8618 25.6211 35.8671 25.7036 35.8921 28.6066L35.9177 31.5871L36.1574 31.7936L36.3971 32H38.7365H41.0759L41.3155 31.7935L41.5552 31.587L41.579 27.5814L41.6029 23.5759L37.6072 19.5665C35.4096 17.3614 33.5077 15.5019 33.3808 15.4344C33.2539 15.3669 33.0819 15.3116 32.9985 15.3116C32.9123 15.3116 31.0667 17.0937 28.7234 19.4397Z"/>
</svg>
