<svg width="24" height="24" viewBox="0 0 24 24" fill="none" xmlns="http://www.w3.org/2000/svg">
<path d="M21.4208 5.80835C21.8825 5.9706 22.2824 6.27221 22.5653 6.67153C22.8482 7.07084 23.0001 7.54814 23 8.0375V18.5375C23 19.721 22.5298 20.8561 21.693 21.693C20.8561 22.5298 19.721 23 18.5375 23H8.0375C7.54814 23.0001 7.07084 22.8482 6.67153 22.5653C6.27221 22.2824 5.9706 21.8825 5.80835 21.4208L8.0102 21.425H18.5375C19.3033 21.425 20.0378 21.1208 20.5793 20.5793C21.1208 20.0378 21.425 19.3033 21.425 18.5375V8.0375L21.4208 7.98395V5.80835ZM18.0083 2C18.6349 2 19.2358 2.24891 19.6788 2.69196C20.1219 3.13501 20.3708 3.73593 20.3708 4.3625V18.0093C20.3708 18.6359 20.1219 19.2368 19.6788 19.6799C19.2358 20.1229 18.6349 20.3718 18.0083 20.3718H4.3625C3.73593 20.3718 3.13501 20.1229 2.69196 19.6799C2.24891 19.2368 2 18.6359 2 18.0093V4.3625C2 3.73593 2.24891 3.13501 2.69196 2.69196C3.13501 2.24891 3.73593 2 4.3625 2H18.0093H18.0083ZM18.0083 3.575H4.3625C4.15364 3.575 3.95334 3.65797 3.80565 3.80565C3.65797 3.95334 3.575 4.15364 3.575 4.3625V18.0093C3.575 18.444 3.9278 18.7969 4.3625 18.7969H18.0093C18.2182 18.7969 18.4185 18.7139 18.5662 18.5662C18.7139 18.4185 18.7969 18.2182 18.7969 18.0093V4.3625C18.7969 4.15364 18.7139 3.95334 18.5662 3.80565C18.4185 3.65797 18.2182 3.575 18.0093 3.575H18.0083ZM11.1875 6.9875C11.3964 6.9875 11.5967 7.07047 11.7443 7.21815C11.892 7.36584 11.975 7.56614 11.975 7.775V10.4H14.6C14.8089 10.4 15.0092 10.483 15.1568 10.6307C15.3045 10.7783 15.3875 10.9786 15.3875 11.1875C15.3875 11.3964 15.3045 11.5967 15.1568 11.7443C15.0092 11.892 14.8089 11.975 14.6 11.975H11.975V14.6C11.975 14.8089 11.892 15.0092 11.7443 15.1568C11.5967 15.3045 11.3964 15.3875 11.1875 15.3875C10.9786 15.3875 10.7783 15.3045 10.6307 15.1568C10.483 15.0092 10.4 14.8089 10.4 14.6V11.975H7.775C7.56614 11.975 7.36584 11.892 7.21815 11.7443C7.07047 11.5967 6.9875 11.3964 6.9875 11.1875C6.9875 10.9786 7.07047 10.7783 7.21815 10.6307C7.36584 10.483 7.56614 10.4 7.775 10.4H10.4V7.775C10.4 7.56614 10.483 7.36584 10.6307 7.21815C10.7783 7.07047 10.9786 6.9875 11.1875 6.9875Z" fill="#616161"/>
</svg>
