<svg width="17" height="20" viewBox="0 0 17 20" fill="none" xmlns="http://www.w3.org/2000/svg">
<path d="M-0.000976562 0V20H17.0008V5.07692L16.7458 4.84615L11.6452 0.230769L11.3902 0H-0.000976562ZM1.6992 1.53846H10.2001V6.15385H15.3006V18.4615H1.6992V1.53846ZM11.9003 2.61538L14.1105 4.61538H11.9003V2.61538ZM3.39938 4.61538V6.15385H8.49991V4.61538H3.39938ZM3.39938 7.69231V9.23077H13.6004V7.69231H3.39938ZM6.37469 10C5.60961 10 5.01454 10.4615 4.67451 11C4.33447 11.5385 4.24946 12.2308 4.24946 13C4.24946 13.4615 4.41948 13.9231 4.50449 14.3846C4.16446 14.4615 3.82442 14.6923 3.39938 14.6923V16.2308C3.99444 16.2308 4.5895 16.1538 5.09955 16C5.18456 16.1538 5.18456 16.2308 5.35458 16.3846C5.69461 16.6923 6.20467 16.9231 6.79973 16.9231C8.15987 16.9231 9.00996 16.0769 9.60502 15.4615C9.69003 15.3077 9.77504 15.2308 9.86005 15.1538C9.86005 15.2308 9.86005 15.3077 9.94506 15.3846C10.0301 15.5385 10.1151 15.6923 10.2851 15.8462C10.4551 16 10.7951 16.1538 11.0502 16.1538C11.5602 16.1538 11.9003 15.8462 12.0703 15.6923C12.2403 15.5385 12.4103 15.3077 12.5803 15.1538C12.9204 14.8462 13.1754 14.6154 13.5154 14.6154V13.0769C12.4953 13.0769 11.7302 13.6154 11.3052 14.0769C11.3052 14 11.3052 13.9231 11.2202 13.8462C11.1352 13.6923 11.0502 13.5385 10.8802 13.3077C10.7101 13.0769 10.4551 13.0769 10.2001 13.0769C9.52001 13.0769 9.26499 13.4615 9.00996 13.6923C8.75493 13.9231 8.49991 14.2308 8.32989 14.5385C7.81984 15.0769 7.4798 15.3846 6.79973 15.3846C6.71472 15.3846 6.71472 15.3077 6.62971 15.3077C6.71472 15.3077 6.71472 15.2308 6.79973 15.2308C7.73483 14.5385 8.49991 13.6154 8.49991 12.3846C8.49991 11.7692 8.32989 11.2308 7.98985 10.7692C7.64982 10.3077 7.05476 10 6.37469 10ZM6.28968 11.5385C6.5447 11.5385 6.5447 11.5385 6.62971 11.6923C6.71472 11.8462 6.79973 12.0769 6.79973 12.4615C6.79973 12.9231 6.5447 13.3846 6.11966 13.7692C6.11966 13.5385 5.94964 13.2308 5.94964 13.0769C5.94964 12.4615 6.03465 12 6.20467 11.7692C6.28968 11.6154 6.28968 11.5385 6.28968 11.5385Z" fill="#711F84"/>
</svg>
