<svg width="24" height="24" viewBox="0 0 24 24" fill="none" xmlns="http://www.w3.org/2000/svg">
<path d="M12.2727 12.0694C12.2727 12.4961 11.9268 12.8421 11.5 12.8421C11.0732 12.8421 10.7273 12.4961 10.7273 12.0694V9.93062C10.7273 9.50386 11.0732 9.15789 11.5 9.15789C11.9268 9.15789 12.2727 9.50386 12.2727 9.93062V12.0694ZM12.2727 15.0526C12.2727 15.4596 11.9428 15.7895 11.5359 15.7895H11.4641C11.0572 15.7895 10.7273 15.4596 10.7273 15.0526C10.7273 14.6457 11.0572 14.3158 11.4641 14.3158H11.5359C11.9428 14.3158 12.2727 14.6457 12.2727 15.0526ZM3.92224 16.481C3.51762 17.1474 3.99739 18 4.77702 18H18.223C19.0026 18 19.4824 17.1474 19.0778 16.481L12.3548 5.40789C11.9654 4.76652 11.0346 4.76652 10.6452 5.40789L3.92224 16.481Z" fill="#FF8256"/>
</svg>
