<svg width="14" height="14" viewBox="0 0 14 14" fill="none" xmlns="http://www.w3.org/2000/svg">
<path d="M4.96606 0.297607C6.259 0.297607 7.49897 0.811222 8.41321 1.72546C9.32745 2.6397 9.84106 3.87968 9.84106 5.17261C9.84106 6.38011 9.39856 7.49011 8.67106 8.34511L8.87356 8.54761H9.46606L13.2161 12.2976L12.0911 13.4226L8.34106 9.67261V9.08011L8.13856 8.87761C7.28356 9.60511 6.17356 10.0476 4.96606 10.0476C3.67313 10.0476 2.43316 9.53399 1.51892 8.61975C0.604679 7.70551 0.0910645 6.46554 0.0910645 5.17261C0.0910645 3.87968 0.604679 2.6397 1.51892 1.72546C2.43316 0.811222 3.67313 0.297607 4.96606 0.297607ZM4.96606 1.79761C3.09106 1.79761 1.59106 3.29761 1.59106 5.17261C1.59106 7.04761 3.09106 8.54761 4.96606 8.54761C6.84106 8.54761 8.34106 7.04761 8.34106 5.17261C8.34106 3.29761 6.84106 1.79761 4.96606 1.79761Z" fill="#711F84"/>
</svg>
