<svg width="34" height="32" viewBox="0 0 34 32" fill="none" xmlns="http://www.w3.org/2000/svg">
<path fill-rule="evenodd" clip-rule="evenodd" d="M15.8872 0.0206412C15.7983 0.0267192 15.5582 0.0540704 15.3537 0.081454C12.5118 0.461785 9.98892 2.26325 8.67972 4.847C8.3119 5.57288 8.07279 6.25802 7.90661 7.06203C7.76497 7.74736 7.74027 8.02007 7.74244 8.87251C7.74415 9.53874 7.75712 9.7623 7.81621 10.1449C7.95038 11.0133 8.17637 11.7593 8.5718 12.639C8.6877 12.8968 8.85928 13.2896 8.95313 13.5119C9.49951 14.8061 10.0919 15.9522 12.0785 19.5576C14.3777 23.7305 15.3143 25.8266 15.8707 28.0442L16.0248 28.6585L16.5756 28.6673L17.1264 28.6762L17.1478 28.5703C17.3093 27.7731 17.7382 26.4109 18.143 25.4093C18.8262 23.7189 19.5015 22.3712 21.4801 18.7493C22.9834 15.9975 23.6413 14.7051 24.1463 13.5119C24.2404 13.2896 24.4121 12.8968 24.528 12.639C25.081 11.4089 25.3267 10.3751 25.3657 9.11499C25.4131 7.58235 25.0991 6.17845 24.4038 4.81338C23.724 3.47889 22.6459 2.27641 21.3833 1.44426C20.9469 1.15669 20.0578 0.70717 19.5773 0.53123C18.445 0.116564 17.1348 -0.0647425 15.8872 0.0206412ZM17.2959 4.47828C19.1168 4.78396 20.6067 6.27919 20.8987 8.09423C20.9652 8.50696 20.9648 9.18382 20.8979 9.57307C20.5826 11.4074 19.1336 12.8524 17.2846 13.1765C16.8918 13.2453 16.2055 13.2442 15.8063 13.1741C13.9636 12.8503 12.5165 11.4031 12.2011 9.56826C12.1328 9.17079 12.133 8.47621 12.2016 8.07745C12.515 6.25372 13.959 4.80581 15.7902 4.47909C16.1481 4.41523 16.9178 4.41481 17.2959 4.47828ZM5.81634 8.65125C5.02561 8.77262 4.2216 9.09229 3.50183 9.57156C3.01688 9.89447 2.39388 10.5186 2.0698 11.0063C1.56565 11.765 1.26718 12.558 1.15932 13.4257C1.10407 13.8703 1.1364 14.7605 1.22234 15.1607C1.3116 15.5764 1.44622 15.9851 1.62177 16.3731C1.70221 16.5509 1.82248 16.8273 1.88901 16.9874C2.17484 17.6749 2.72972 18.7522 3.74567 20.5922C4.73962 22.3923 5.30569 23.5268 5.68605 24.4811C5.92125 25.0712 6.16127 25.8104 6.25289 26.2268L6.30828 26.4784L6.63549 26.4692L6.9627 26.4601L7.00457 26.2661C7.07932 25.92 7.27501 25.274 7.44047 24.8274C7.85663 23.704 8.41361 22.5668 9.65182 20.3123L10.1163 19.4667L9.66902 18.6473C9.1445 17.6864 8.60665 16.6765 8.47927 16.4135C8.42977 16.3112 8.37788 16.2276 8.36395 16.2276C8.35005 16.2276 8.27197 16.2785 8.1905 16.3407C7.55285 16.8274 6.55311 16.9702 5.72139 16.6933C5.30711 16.5555 5.02639 16.3752 4.66862 16.0175C4.06929 15.4181 3.80784 14.7433 3.85442 13.916C3.87754 13.5056 3.94365 13.2474 4.11966 12.8797C4.40675 12.2799 4.86018 11.836 5.47122 11.5565C5.69559 11.4538 6.06173 11.3463 6.19021 11.3453C6.33171 11.3441 6.34445 11.306 6.28729 11.0547C6.15325 10.4653 6.01666 9.16607 6.0477 8.77572C6.06027 8.61759 6.05481 8.61465 5.81634 8.65125ZM27.0519 8.77258C27.0832 9.16581 26.9471 10.463 26.8126 11.0547C26.7515 11.3232 26.7538 11.3272 26.9928 11.3589C27.3553 11.407 27.8218 11.6136 28.1778 11.8838C28.6554 12.2462 29.0228 12.8026 29.1782 13.3987C29.2674 13.7413 29.2617 14.4472 29.1668 14.7778C29.0216 15.2842 28.7945 15.6761 28.4422 16.0285C28.0899 16.3808 27.6979 16.6079 27.1916 16.7531C26.8363 16.8549 26.1466 16.8549 25.7913 16.7531C25.4586 16.6577 25.2205 16.5491 24.9508 16.3698C24.8271 16.2876 24.7218 16.2256 24.7168 16.232C24.7118 16.2385 24.551 16.5493 24.3595 16.9227C24.0264 17.5722 23.4646 18.6236 23.1445 19.1967L22.9939 19.4663L23.3959 20.199C24.2382 21.7342 24.4593 22.1504 24.8241 22.8876C25.4627 24.1782 25.8993 25.2992 26.0924 26.1448L26.1681 26.476L26.4955 26.4761L26.8229 26.4762L26.8945 26.161C26.9968 25.7101 27.3384 24.7035 27.5939 24.1C27.8711 23.4451 28.5734 22.0381 29.1349 21.0125C30.6958 18.1615 30.9007 17.7513 31.5897 16.0983C31.8752 15.4133 31.9898 14.7321 31.9613 13.889C31.9408 13.2797 31.8817 12.9264 31.712 12.3965C31.0766 10.4123 29.2767 8.915 27.2022 8.64485L27.0401 8.62373L27.0519 8.77258ZM9.6848 22.6284L9.4 23.1786H10.7604C11.5085 23.1786 12.1204 23.1677 12.1201 23.1543C12.1198 23.141 11.9974 22.8973 11.8482 22.6128L11.5768 22.0955L10.7732 22.0869L9.96956 22.0783L9.6848 22.6284ZM21.4547 22.2809C21.3239 22.5162 21.0115 23.1372 21.0115 23.1618C21.0115 23.171 21.6152 23.1786 22.3532 23.1786C23.0911 23.1786 23.6949 23.1671 23.6949 23.153C23.6949 23.1389 23.573 22.8952 23.4239 22.6115L23.153 22.0955L22.3601 22.0869L21.5673 22.0782L21.4547 22.2809ZM3.83053 23.3749C3.80444 23.4358 2.93188 25.3988 1.89154 27.7371L0 31.9885L8.27495 31.9967C12.8262 32.0011 20.2735 32.0011 24.8246 31.9967L33.0992 31.9885L31.1704 27.6482C30.1095 25.261 29.2325 23.3079 29.2214 23.3079C29.2012 23.3079 28.8048 24.1195 28.674 24.4288L28.6033 24.596L29.9964 27.7306C30.7625 29.4546 31.3894 30.8742 31.3894 30.8853C31.3894 30.8964 24.7117 30.9054 16.5499 30.9054C8.3882 30.9054 1.71042 30.8964 1.71042 30.8853C1.71042 30.8742 2.33601 29.4575 3.10062 27.7371C3.86522 26.0167 4.49081 24.5861 4.49081 24.558C4.49081 24.5014 3.95684 23.3429 3.90845 23.2945C3.88944 23.2755 3.86021 23.3057 3.83053 23.3749Z"/>
</svg>
