<svg width="20" height="17" viewBox="0 0 20 17" fill="none" xmlns="http://www.w3.org/2000/svg">
<path fill-rule="evenodd" clip-rule="evenodd" d="M3.96894 12.0789C5.85144 15.3394 9.45221 16.2226 12.3214 15.1788C12.3994 15.1504 12.4825 15.138 12.5659 15.1421C12.6493 15.1462 12.7313 15.1669 12.8073 15.2029C12.8833 15.239 12.9518 15.2896 13.0089 15.3521C13.0659 15.4145 13.1104 15.4874 13.1399 15.5668C13.1693 15.6461 13.183 15.7302 13.1804 15.8143C13.1777 15.8985 13.1586 15.981 13.1242 16.0571C13.0898 16.1333 13.0408 16.2016 12.9799 16.2582C12.9191 16.3147 12.8476 16.3585 12.7695 16.3868C9.40023 17.6123 5.1107 16.584 2.87446 12.7108C1.92393 11.0644 1.91108 9.34656 2.20045 7.8684C2.40799 6.80882 2.77983 5.83005 3.09198 5.06569L1.37359 6.05781C1.2343 6.13823 1.06814 6.15892 0.911661 6.11535C0.755181 6.07177 0.6212 5.96749 0.539191 5.82545C0.457182 5.6834 0.433864 5.51523 0.474366 5.35793C0.514867 5.20063 0.615872 5.06708 0.755159 4.98666L3.90625 3.16737C4.04554 3.08696 4.2117 3.06626 4.36818 3.10984C4.52466 3.15341 4.65864 3.25769 4.74065 3.39974L6.59594 6.61319C6.67794 6.75523 6.70126 6.9234 6.66076 7.08071C6.62026 7.23801 6.51926 7.37156 6.37997 7.45198C6.24068 7.53239 6.07452 7.55309 5.91804 7.50951C5.76156 7.46594 5.62758 7.36166 5.54557 7.21962L4.40395 5.24227L4.40414 5.24502C4.06925 6.05249 3.66201 7.04028 3.44769 8.13662C3.1939 9.43142 3.22992 10.7988 3.96832 12.0778L3.96894 12.0789ZM15.8875 5.77754C14.0248 2.55124 10.4814 1.65348 7.62667 2.64468C7.54788 2.67365 7.4639 2.68637 7.37962 2.68212C7.29535 2.67787 7.21247 2.65673 7.13583 2.61993C7.05919 2.58312 6.99031 2.5314 6.93322 2.46777C6.87613 2.40414 6.83197 2.32988 6.80331 2.24932C6.77465 2.16876 6.76207 2.08351 6.76631 1.99855C6.77054 1.9136 6.7915 1.83063 6.82797 1.75449C6.86444 1.67835 6.91568 1.61057 6.97871 1.5551C7.04174 1.49962 7.11529 1.45757 7.19507 1.43139C10.5478 0.266936 14.7698 1.31414 16.9819 5.14565C17.9325 6.792 17.9447 8.50878 17.656 9.98801C17.4484 11.0476 17.0766 12.0264 16.7644 12.7907L18.4828 11.7986C18.6221 11.7182 18.7883 11.6975 18.9447 11.7411C19.1012 11.7846 19.2352 11.8889 19.3172 12.031C19.3992 12.173 19.4225 12.3412 19.382 12.4985C19.3415 12.6558 19.2405 12.7893 19.1012 12.8697L15.9502 14.689C15.8109 14.7694 15.6447 14.7901 15.4882 14.7466C15.3317 14.703 15.1978 14.5987 15.1158 14.4567L13.2605 11.2432C13.1785 11.1012 13.1551 10.933 13.1956 10.7757C13.2361 10.6184 13.3372 10.4848 13.4764 10.4044C13.6157 10.324 13.7819 10.3033 13.9384 10.3469C14.0948 10.3905 14.2288 10.4947 14.3108 10.6368L15.4518 12.6131L15.4539 12.6118C15.7865 11.8028 16.1954 10.8155 16.4081 9.71872C16.6625 8.42499 16.6265 7.05757 15.8875 5.77754Z" fill="white"/>
</svg>
