<svg width="24" height="24" viewBox="0 0 24 24" fill="none" xmlns="http://www.w3.org/2000/svg">
<path fill-rule="evenodd" clip-rule="evenodd" d="M13.0012 9.90376L20.2478 16.9458C20.567 17.2561 20.567 17.7447 20.2478 18.0394L18.4122 19.8231C18.1009 20.1256 17.5981 20.1256 17.2869 19.8231L10.0164 12.7578C8.16489 13.4326 6.0021 13.0525 4.51768 11.61C2.6821 9.83396 2.51451 7.04971 3.99893 5.07979L7.05556 8.05018L8.18883 6.95664L5.12422 3.97074C7.15931 2.52821 10.0164 2.69107 11.852 4.47486C13.3604 5.94842 13.7434 8.08896 13.0012 9.90376ZM10.3038 10.8501L17.8536 18.1869L18.5559 17.4966L11.014 10.1676C11.3812 9.71007 11.6206 9.1982 11.7164 8.64755C11.9159 7.56953 11.5887 6.41395 10.7267 5.57635C9.96857 4.84733 8.97097 4.50608 7.98136 4.56037L10.4474 6.95684L7.06357 10.2452L4.59752 7.84873C4.54165 8.81042 4.8928 9.78762 5.65098 10.5166C6.48097 11.3232 7.62222 11.6412 8.70761 11.4861C9.27424 11.4085 9.81693 11.1991 10.3038 10.8501Z" fill="#616161"/>
</svg>
