<svg width="18" height="18" viewBox="0 0 18 18" fill="none" xmlns="http://www.w3.org/2000/svg">
<path fill-rule="evenodd" clip-rule="evenodd" d="M10.0012 6.90376L17.2478 13.9458C17.567 14.2561 17.567 14.7447 17.2478 15.0394L15.4122 16.8231C15.1009 17.1256 14.5981 17.1256 14.2869 16.8231L7.01642 9.75782C5.16489 10.4326 3.0021 10.0525 1.51768 8.60999C-0.317897 6.83396 -0.485493 4.04971 0.998928 2.07979L4.05556 5.05018L5.18883 3.95664L2.12422 0.970743C4.15931 -0.471795 7.01642 -0.308928 8.852 1.47486C10.3604 2.94842 10.7434 5.08896 10.0012 6.90376ZM7.30376 7.85013L14.8536 15.1869L15.5559 14.4966L8.01405 7.16764C8.38116 6.71007 8.62058 6.1982 8.71635 5.64755C8.91587 4.56953 8.58866 3.41395 7.72674 2.57635C6.96857 1.84733 5.97097 1.50608 4.98136 1.56037L7.44741 3.95684L4.06357 7.2452L1.59752 4.84873C1.54165 5.81042 1.8928 6.78762 2.65098 7.51664C3.48097 8.32322 4.62222 8.6412 5.70761 8.48609C6.27424 8.40853 6.81693 8.19913 7.30376 7.85013Z" fill="white"/>
</svg>
