<svg width="15" height="20" viewBox="0 0 15 20" fill="none" xmlns="http://www.w3.org/2000/svg">
<path d="M12.75 15.7143V18.5714H1.41667V15.7143H0V18.5714C0 18.9503 0.149255 19.3137 0.414932 19.5816C0.680609 19.8495 1.04094 20 1.41667 20H12.75C13.1257 20 13.4861 19.8495 13.7517 19.5816C14.0174 19.3137 14.1667 18.9503 14.1667 18.5714V15.7143H12.75Z" fill="#711F84"/>
<path d="M10.625 13.5714L9.62342 12.5614L7.79167 14.4086V8.57143H6.375V14.4086L4.54325 12.5614L3.54167 13.5714L7.08333 17.1429L10.625 13.5714Z" fill="#711F84"/>
<path d="M13 7H10V6H13V4H11C10.7349 3.99974 10.4807 3.89429 10.2932 3.70681C10.1057 3.51934 10.0003 3.26514 10 3V1C10.0003 0.734865 10.1057 0.480665 10.2932 0.293186C10.4807 0.105707 10.7349 0.000264738 11 0H14V1H11V3H13C13.2651 3.00026 13.5193 3.10571 13.7068 3.29319C13.8943 3.48066 13.9997 3.73486 14 4V6C13.9997 6.26514 13.8943 6.51934 13.7068 6.70681C13.5193 6.89429 13.2651 6.99974 13 7Z" fill="#711F84"/>
<path d="M6 6V0H5V7H9V6H6Z" fill="#711F84"/>
<path d="M4 0H3L2 3L1 0H0L1.376 3.5L0 7H1L2 4L3 7H4L2.6225 3.5L4 0Z" fill="#711F84"/>
</svg>
