<svg width="15" height="21" viewBox="0 0 15 21" fill="none" xmlns="http://www.w3.org/2000/svg">
<path d="M13 0H10V7H11V4.5H13C13.2652 4.5 13.5196 4.39464 13.7071 4.20711C13.8946 4.01957 14 3.76522 14 3.5V1C14 0.734784 13.8946 0.48043 13.7071 0.292893C13.5196 0.105357 13.2652 0 13 0ZM13 3.5H11V1H13V3.5Z" fill="#711F84"/>
<path d="M5 0V1H6.5V6H5V7H9V6H7.5V1H9V0H5Z" fill="#711F84"/>
<path d="M4 0H0V1H3L0 6V7H4V6H1L4 1V0Z" fill="#711F84"/>
<path d="M12.75 16.1429V19H1.41667V16.1429H0V19C0 19.3789 0.149255 19.7422 0.414932 20.0102C0.680609 20.2781 1.04094 20.4286 1.41667 20.4286H12.75C13.1257 20.4286 13.4861 20.2781 13.7517 20.0102C14.0174 19.7422 14.1667 19.3789 14.1667 19V16.1429H12.75Z" fill="#711F84"/>
<path d="M10.625 14L9.62342 12.99L7.79167 14.8371V9H6.375V14.8371L4.54325 12.99L3.54167 14L7.08333 17.5714L10.625 14Z" fill="#711F84"/>
</svg>
