<svg id="S_Alert_18_N_2x" data-name="S Alert 18 N 2x" xmlns="http://www.w3.org/2000/svg" width="18" height="18" viewBox="0 0 18 18">
  <defs>
    <style>
      .cls-1 {
        fill: #ff13dc;
        fill-opacity: 0;
      }

      .cls-2 {
        fill: #f15703;
      }
    </style>
  </defs>
  <title>Smock_Alert_18_N@2x</title>
  <rect id="Canvas" class="cls-1" width="18" height="18"/>
  <path class="cls-2" d="M8.5635,1.2895.2,16.256A.5.5,0,0,0,.636,17H17.364a.5.5,0,0,0,.4365-.744L9.4365,1.2895a.5.5,0,0,0-.873,0ZM10,14.75a.25.25,0,0,1-.25.25H8.25A.25.25,0,0,1,8,14.75v-1.5A.25.25,0,0,1,8.25,13h1.5a.25.25,0,0,1,.25.25Zm0-3a.25.25,0,0,1-.25.25H8.25A.25.25,0,0,1,8,11.75v-6a.25.25,0,0,1,.25-.25h1.5a.25.25,0,0,1,.25.25Z"/>
</svg>
