<svg xmlns="http://www.w3.org/2000/svg" data-name="S_Help_18_N@2x" height="18"  viewBox="0 0 36 36" width="18">
  <defs>
    <style>
      .cls-1 {
        fill: #767676;
        fill-rule: evenodd;
      }

      
    </style>
  </defs>
  <title>S_Help_18_N@2x</title>
  <rect id="Canvas" fill="#ff13dc" opacity="0" width="36" height="36" /><path class="cls-1" d="M18,2A16,16,0,1,0,34,18,16,16,0,0,0,18,2Zm.047,26.876a2.69,2.69,0,1,1,0-5.375,2.62,2.62,0,0,1,2.8,2.67A2.581,2.581,0,0,1,18.047,28.876Zm3.566-12.818-.2.21c-.789.829-1.684,1.768-1.684,2.351a2.772,2.772,0,0,0,.358,1.348l.146.278-.113.429a.617.617,0,0,1-.567.377H16.871a.868.868,0,0,1-.65-.235,4.113,4.113,0,0,1-.845-2.524c0-1.678.934-2.714,2.225-4.15.2-.219.391-.42.575-.61.629-.65,1.014-1.07,1.014-1.515,0-.307,0-1.244-1.786-1.244a5.916,5.916,0,0,0-3.159.919.6.6,0,0,1-.653-.02l-.236-.169-.056-.443v-2.9a.879.879,0,0,1,.394-.82,8.271,8.271,0,0,1,4.3-1.1c3.291,0,5.5,2.118,5.5,5.272A6.134,6.134,0,0,1,21.613,16.058Z" />
  </svg>