<?xml version="1.0" encoding="UTF-8"?>
<svg width="16px" height="23px" viewBox="0 0 16 23" version="1.1" xmlns="http://www.w3.org/2000/svg" xmlns:xlink="http://www.w3.org/1999/xlink">
    <!-- Generator: Sketch 51.3 (57544) - http://www.bohemiancoding.com/sketch -->
    <title>spotlight (1)</title>
    <desc>Created with Sketch.</desc>
    <defs></defs>
    <g id="#630---Home-button/-temporary-landing-page" stroke="none" stroke-width="1" fill="none" fill-rule="evenodd">
        <g id="Selection-1.2" transform="translate(-56.000000, -127.000000)" fill="#000000" fill-rule="nonzero">
            <g id="BAR" transform="translate(33.000000, 110.000000)">
                <g id="Group-[0v-l]" transform="translate(7.000000, 0.000000)">
                    <g id="ITEM-Copy-8">
                        <g id="Group-[10h-m]" transform="translate(16.000000, 17.000000)">
                            <g id="spotlight-(1)" transform="translate(8.000000, 11.500000) scale(-1, 1) rotate(-180.000000) translate(-8.000000, -11.500000) translate(0.000000, -0.000000)">
                                <path d="M15.8132369,5.95732813 L10.0426951,0.186700768 C9.79376263,-0.0622335893 9.39008141,-0.0622335893 9.14110641,0.186700768 L7.46666667,1.86115303 L14.1387971,8.53333333 L15.8132369,6.85888108 C16.0622544,6.60994672 16.0622544,6.20626249 15.8132369,5.95732813 Z" id="Shape"></path>
                                <path d="M7.70249034,18.9820258 L6.66002576,18.9820258 L6.66002576,18.3981602 L8.32112495,18.3981602 C9.40893087,18.3981602 10.293903,17.5128475 10.293903,16.424623 L10.293903,12.4501016 L12.8,9.94304021 L6.05946758,3.2 L0.577801632,8.68377525 C0.205195363,9.05652489 0,9.55212127 0,10.0792455 C0,10.4614019 0.108372692,10.8267206 0.309660799,11.1409677 C0.386045513,11.2601634 0.475311292,11.3722288 0.577801632,11.4747586 L1.18990983,12.0871023 C1.00858738,12.3010103 0.909489051,12.5692543 0.909489051,12.8529186 C0.909489051,13.1698718 1.03284672,13.4678395 1.25689137,13.6919704 L1.73804208,14.1733062 L1.73804208,16.424623 C1.73804208,17.5128475 2.62301417,18.3981602 3.71082009,18.3981602 L5.37187634,18.3981602 L5.37187634,18.9820258 L4.3294547,18.9820258 C2.80064405,18.9820258 1.55684843,20.2263 1.55684843,21.7556989 C1.55684843,22.1115249 1.84521254,22.4 2.20090167,22.4 L9.83104337,22.4 C10.1867325,22.4 10.4750966,22.1115249 10.4750966,21.7556989 C10.4750966,20.2263 9.23130099,18.9820258 7.70249034,18.9820258 Z M3.71082009,17.109558 C3.33327608,17.109558 3.02614856,16.8023123 3.02614856,16.424623 L3.02614856,15.0877413 C3.33902963,15.1205147 3.66238729,15.0293676 3.9161872,14.8144288 L4.52833834,15.4268155 C4.63078574,15.5293023 4.74280807,15.6186454 4.86195792,15.6950595 C5.17604122,15.896468 5.54126234,16.0048824 5.92327179,16.0048824 C6.45019322,16.0048824 6.94564191,15.7996081 7.31820524,15.4268584 L9.00575354,13.7387037 L9.00571061,16.424623 L9.00575354,16.424623 C9.00575354,16.8023123 8.69862602,17.109558 8.32108201,17.109558 L3.71082009,17.109558 Z" id="Shape"></path>
                            </g>
                        </g>
                    </g>
                </g>
            </g>
        </g>
    </g>
</svg>