<svg xmlns="http://www.w3.org/2000/svg" data-name="S_PinOn_18_N@2x" height="18"  viewBox="0 0 36 36" width="18">
  <defs>
    <style>
      .cls-1 {
        fill: #707070;
        fill-rule: evenodd;
      }

      
    </style>
  </defs>
  <title>S_PinOn_18_N@2x</title>
  <rect id="Canvas" fill="#ff13dc" opacity="0" width="36" height="36" /><path class="cls-1" d="M5.646,28l2.379,2.381-3.74,3.669a.5.5,0,0,1-.713-.009l-1.589-1.66a.5.5,0,0,1,.007-.7Z" />
  <path class="cls-1" d="M17.951,32.32h.008L18,26.289,26.293,18l2.27-.023.006-.009a1.446,1.446,0,0,0,1.01-2.47L25.041,10.96,20.5,6.424a1.445,1.445,0,0,0-2.469,1.011l-.008,0L18,9.708,9.707,18l-6.025.044,0,.007a1.44,1.44,0,0,0-1.106,2.461l6.459,6.458,6.457,6.459a1.442,1.442,0,0,0,2.463-1.107Z" />
  </svg>